%TF.GenerationSoftware,KiCad,Pcbnew,5.1.8+dfsg1-1+b1*%
%TF.CreationDate,2020-12-27T19:17:36+02:00*%
%TF.ProjectId,nixiedisp,6e697869-6564-4697-9370-2e6b69636164,rev?*%
%TF.SameCoordinates,Original*%
%TF.FileFunction,Soldermask,Top*%
%TF.FilePolarity,Negative*%
%FSLAX46Y46*%
G04 Gerber Fmt 4.6, Leading zero omitted, Abs format (unit mm)*
G04 Created by KiCad (PCBNEW 5.1.8+dfsg1-1+b1) date 2020-12-27 19:17:36*
%MOMM*%
%LPD*%
G01*
G04 APERTURE LIST*
%ADD10C,0.800000*%
%ADD11C,6.400000*%
%ADD12R,1.600000X1.600000*%
%ADD13C,1.600000*%
%ADD14R,2.400000X2.400000*%
%ADD15O,2.400000X2.400000*%
%ADD16R,3.500000X3.500000*%
%ADD17R,1.500000X1.900000*%
%ADD18C,1.450000*%
%ADD19R,0.400000X1.350000*%
%ADD20O,1.200000X1.900000*%
%ADD21R,1.200000X1.900000*%
%ADD22C,1.700000*%
%ADD23R,1.700000X1.700000*%
%ADD24O,1.700000X1.700000*%
%ADD25C,2.600000*%
%ADD26R,0.800000X0.900000*%
%ADD27O,1.905000X2.000000*%
%ADD28R,1.905000X2.000000*%
%ADD29R,1.600000X0.550000*%
%ADD30R,0.550000X1.600000*%
%ADD31O,1.600000X1.600000*%
%ADD32R,2.000000X1.905000*%
%ADD33O,2.000000X1.905000*%
%ADD34C,1.524000*%
%ADD35R,1.200000X3.500000*%
%ADD36R,1.100000X1.050000*%
%ADD37C,1.000000*%
G04 APERTURE END LIST*
D10*
%TO.C,REF\u002A\u002A*%
X215697056Y-159352944D03*
X214000000Y-158650000D03*
X212302944Y-159352944D03*
X211600000Y-161050000D03*
X212302944Y-162747056D03*
X214000000Y-163450000D03*
X215697056Y-162747056D03*
X216400000Y-161050000D03*
D11*
X214000000Y-161050000D03*
%TD*%
%TO.C,REF\u002A\u002A*%
X214000000Y-76000000D03*
D10*
X216400000Y-76000000D03*
X215697056Y-77697056D03*
X214000000Y-78400000D03*
X212302944Y-77697056D03*
X211600000Y-76000000D03*
X212302944Y-74302944D03*
X214000000Y-73600000D03*
X215697056Y-74302944D03*
%TD*%
%TO.C,REF\u002A\u002A*%
X169197056Y-74302944D03*
X167500000Y-73600000D03*
X165802944Y-74302944D03*
X165100000Y-76000000D03*
X165802944Y-77697056D03*
X167500000Y-78400000D03*
X169197056Y-77697056D03*
X169900000Y-76000000D03*
D11*
X167500000Y-76000000D03*
%TD*%
%TO.C,REF\u002A\u002A*%
X167500000Y-161050000D03*
D10*
X169900000Y-161050000D03*
X169197056Y-162747056D03*
X167500000Y-163450000D03*
X165802944Y-162747056D03*
X165100000Y-161050000D03*
X165802944Y-159352944D03*
X167500000Y-158650000D03*
X169197056Y-159352944D03*
%TD*%
D11*
%TO.C,REF\u002A\u002A*%
X83000000Y-76000000D03*
D10*
X85400000Y-76000000D03*
X84697056Y-77697056D03*
X83000000Y-78400000D03*
X81302944Y-77697056D03*
X80600000Y-76000000D03*
X81302944Y-74302944D03*
X83000000Y-73600000D03*
X84697056Y-74302944D03*
%TD*%
%TO.C,REF\u002A\u002A*%
X84697056Y-159352944D03*
X83000000Y-158650000D03*
X81302944Y-159352944D03*
X80600000Y-161050000D03*
X81302944Y-162747056D03*
X83000000Y-163450000D03*
X84697056Y-162747056D03*
X85400000Y-161050000D03*
D11*
X83000000Y-161050000D03*
%TD*%
%TO.C,C2*%
G36*
G01*
X112250000Y-85850000D02*
X113350000Y-85850000D01*
G75*
G02*
X113600000Y-86100000I0J-250000D01*
G01*
X113600000Y-88200000D01*
G75*
G02*
X113350000Y-88450000I-250000J0D01*
G01*
X112250000Y-88450000D01*
G75*
G02*
X112000000Y-88200000I0J250000D01*
G01*
X112000000Y-86100000D01*
G75*
G02*
X112250000Y-85850000I250000J0D01*
G01*
G37*
G36*
G01*
X112250000Y-89450000D02*
X113350000Y-89450000D01*
G75*
G02*
X113600000Y-89700000I0J-250000D01*
G01*
X113600000Y-91800000D01*
G75*
G02*
X113350000Y-92050000I-250000J0D01*
G01*
X112250000Y-92050000D01*
G75*
G02*
X112000000Y-91800000I0J250000D01*
G01*
X112000000Y-89700000D01*
G75*
G02*
X112250000Y-89450000I250000J0D01*
G01*
G37*
%TD*%
%TO.C,C3*%
G36*
G01*
X124549999Y-87500000D02*
X125450001Y-87500000D01*
G75*
G02*
X125700000Y-87749999I0J-249999D01*
G01*
X125700000Y-88400001D01*
G75*
G02*
X125450001Y-88650000I-249999J0D01*
G01*
X124549999Y-88650000D01*
G75*
G02*
X124300000Y-88400001I0J249999D01*
G01*
X124300000Y-87749999D01*
G75*
G02*
X124549999Y-87500000I249999J0D01*
G01*
G37*
G36*
G01*
X124549999Y-89550000D02*
X125450001Y-89550000D01*
G75*
G02*
X125700000Y-89799999I0J-249999D01*
G01*
X125700000Y-90450001D01*
G75*
G02*
X125450001Y-90700000I-249999J0D01*
G01*
X124549999Y-90700000D01*
G75*
G02*
X124300000Y-90450001I0J249999D01*
G01*
X124300000Y-89799999D01*
G75*
G02*
X124549999Y-89550000I249999J0D01*
G01*
G37*
%TD*%
%TO.C,C4*%
G36*
G01*
X138199999Y-94950000D02*
X139100001Y-94950000D01*
G75*
G02*
X139350000Y-95199999I0J-249999D01*
G01*
X139350000Y-95850001D01*
G75*
G02*
X139100001Y-96100000I-249999J0D01*
G01*
X138199999Y-96100000D01*
G75*
G02*
X137950000Y-95850001I0J249999D01*
G01*
X137950000Y-95199999D01*
G75*
G02*
X138199999Y-94950000I249999J0D01*
G01*
G37*
G36*
G01*
X138199999Y-92900000D02*
X139100001Y-92900000D01*
G75*
G02*
X139350000Y-93149999I0J-249999D01*
G01*
X139350000Y-93800001D01*
G75*
G02*
X139100001Y-94050000I-249999J0D01*
G01*
X138199999Y-94050000D01*
G75*
G02*
X137950000Y-93800001I0J249999D01*
G01*
X137950000Y-93149999D01*
G75*
G02*
X138199999Y-92900000I249999J0D01*
G01*
G37*
%TD*%
%TO.C,C5*%
G36*
G01*
X156450000Y-80050001D02*
X156450000Y-79149999D01*
G75*
G02*
X156699999Y-78900000I249999J0D01*
G01*
X157350001Y-78900000D01*
G75*
G02*
X157600000Y-79149999I0J-249999D01*
G01*
X157600000Y-80050001D01*
G75*
G02*
X157350001Y-80300000I-249999J0D01*
G01*
X156699999Y-80300000D01*
G75*
G02*
X156450000Y-80050001I0J249999D01*
G01*
G37*
G36*
G01*
X154400000Y-80050001D02*
X154400000Y-79149999D01*
G75*
G02*
X154649999Y-78900000I249999J0D01*
G01*
X155300001Y-78900000D01*
G75*
G02*
X155550000Y-79149999I0J-249999D01*
G01*
X155550000Y-80050001D01*
G75*
G02*
X155300001Y-80300000I-249999J0D01*
G01*
X154649999Y-80300000D01*
G75*
G02*
X154400000Y-80050001I0J249999D01*
G01*
G37*
%TD*%
%TO.C,C6*%
G36*
G01*
X156450000Y-82450001D02*
X156450000Y-81549999D01*
G75*
G02*
X156699999Y-81300000I249999J0D01*
G01*
X157350001Y-81300000D01*
G75*
G02*
X157600000Y-81549999I0J-249999D01*
G01*
X157600000Y-82450001D01*
G75*
G02*
X157350001Y-82700000I-249999J0D01*
G01*
X156699999Y-82700000D01*
G75*
G02*
X156450000Y-82450001I0J249999D01*
G01*
G37*
G36*
G01*
X154400000Y-82450001D02*
X154400000Y-81549999D01*
G75*
G02*
X154649999Y-81300000I249999J0D01*
G01*
X155300001Y-81300000D01*
G75*
G02*
X155550000Y-81549999I0J-249999D01*
G01*
X155550000Y-82450001D01*
G75*
G02*
X155300001Y-82700000I-249999J0D01*
G01*
X154649999Y-82700000D01*
G75*
G02*
X154400000Y-82450001I0J249999D01*
G01*
G37*
%TD*%
%TO.C,C7*%
G36*
G01*
X125400000Y-73100001D02*
X125400000Y-72199999D01*
G75*
G02*
X125649999Y-71950000I249999J0D01*
G01*
X126300001Y-71950000D01*
G75*
G02*
X126550000Y-72199999I0J-249999D01*
G01*
X126550000Y-73100001D01*
G75*
G02*
X126300001Y-73350000I-249999J0D01*
G01*
X125649999Y-73350000D01*
G75*
G02*
X125400000Y-73100001I0J249999D01*
G01*
G37*
G36*
G01*
X127450000Y-73100001D02*
X127450000Y-72199999D01*
G75*
G02*
X127699999Y-71950000I249999J0D01*
G01*
X128350001Y-71950000D01*
G75*
G02*
X128600000Y-72199999I0J-249999D01*
G01*
X128600000Y-73100001D01*
G75*
G02*
X128350001Y-73350000I-249999J0D01*
G01*
X127699999Y-73350000D01*
G75*
G02*
X127450000Y-73100001I0J249999D01*
G01*
G37*
%TD*%
%TO.C,C8*%
G36*
G01*
X105300000Y-91800000D02*
X107300000Y-91800000D01*
G75*
G02*
X107550000Y-92050000I0J-250000D01*
G01*
X107550000Y-95050000D01*
G75*
G02*
X107300000Y-95300000I-250000J0D01*
G01*
X105300000Y-95300000D01*
G75*
G02*
X105050000Y-95050000I0J250000D01*
G01*
X105050000Y-92050000D01*
G75*
G02*
X105300000Y-91800000I250000J0D01*
G01*
G37*
G36*
G01*
X105300000Y-98300000D02*
X107300000Y-98300000D01*
G75*
G02*
X107550000Y-98550000I0J-250000D01*
G01*
X107550000Y-101550000D01*
G75*
G02*
X107300000Y-101800000I-250000J0D01*
G01*
X105300000Y-101800000D01*
G75*
G02*
X105050000Y-101550000I0J250000D01*
G01*
X105050000Y-98550000D01*
G75*
G02*
X105300000Y-98300000I250000J0D01*
G01*
G37*
%TD*%
%TO.C,C11*%
G36*
G01*
X143149999Y-89975000D02*
X144050001Y-89975000D01*
G75*
G02*
X144300000Y-90224999I0J-249999D01*
G01*
X144300000Y-90875001D01*
G75*
G02*
X144050001Y-91125000I-249999J0D01*
G01*
X143149999Y-91125000D01*
G75*
G02*
X142900000Y-90875001I0J249999D01*
G01*
X142900000Y-90224999D01*
G75*
G02*
X143149999Y-89975000I249999J0D01*
G01*
G37*
G36*
G01*
X143149999Y-87925000D02*
X144050001Y-87925000D01*
G75*
G02*
X144300000Y-88174999I0J-249999D01*
G01*
X144300000Y-88825001D01*
G75*
G02*
X144050001Y-89075000I-249999J0D01*
G01*
X143149999Y-89075000D01*
G75*
G02*
X142900000Y-88825001I0J249999D01*
G01*
X142900000Y-88174999D01*
G75*
G02*
X143149999Y-87925000I249999J0D01*
G01*
G37*
%TD*%
%TO.C,C12*%
G36*
G01*
X144050001Y-87175000D02*
X143149999Y-87175000D01*
G75*
G02*
X142900000Y-86925001I0J249999D01*
G01*
X142900000Y-86274999D01*
G75*
G02*
X143149999Y-86025000I249999J0D01*
G01*
X144050001Y-86025000D01*
G75*
G02*
X144300000Y-86274999I0J-249999D01*
G01*
X144300000Y-86925001D01*
G75*
G02*
X144050001Y-87175000I-249999J0D01*
G01*
G37*
G36*
G01*
X144050001Y-85125000D02*
X143149999Y-85125000D01*
G75*
G02*
X142900000Y-84875001I0J249999D01*
G01*
X142900000Y-84224999D01*
G75*
G02*
X143149999Y-83975000I249999J0D01*
G01*
X144050001Y-83975000D01*
G75*
G02*
X144300000Y-84224999I0J-249999D01*
G01*
X144300000Y-84875001D01*
G75*
G02*
X144050001Y-85125000I-249999J0D01*
G01*
G37*
%TD*%
%TO.C,C13*%
G36*
G01*
X147800001Y-87050000D02*
X146899999Y-87050000D01*
G75*
G02*
X146650000Y-86800001I0J249999D01*
G01*
X146650000Y-86149999D01*
G75*
G02*
X146899999Y-85900000I249999J0D01*
G01*
X147800001Y-85900000D01*
G75*
G02*
X148050000Y-86149999I0J-249999D01*
G01*
X148050000Y-86800001D01*
G75*
G02*
X147800001Y-87050000I-249999J0D01*
G01*
G37*
G36*
G01*
X147800001Y-89100000D02*
X146899999Y-89100000D01*
G75*
G02*
X146650000Y-88850001I0J249999D01*
G01*
X146650000Y-88199999D01*
G75*
G02*
X146899999Y-87950000I249999J0D01*
G01*
X147800001Y-87950000D01*
G75*
G02*
X148050000Y-88199999I0J-249999D01*
G01*
X148050000Y-88850001D01*
G75*
G02*
X147800001Y-89100000I-249999J0D01*
G01*
G37*
%TD*%
%TO.C,C14*%
G36*
G01*
X194050000Y-94399999D02*
X194050000Y-95300001D01*
G75*
G02*
X193800001Y-95550000I-249999J0D01*
G01*
X193149999Y-95550000D01*
G75*
G02*
X192900000Y-95300001I0J249999D01*
G01*
X192900000Y-94399999D01*
G75*
G02*
X193149999Y-94150000I249999J0D01*
G01*
X193800001Y-94150000D01*
G75*
G02*
X194050000Y-94399999I0J-249999D01*
G01*
G37*
G36*
G01*
X196100000Y-94399999D02*
X196100000Y-95300001D01*
G75*
G02*
X195850001Y-95550000I-249999J0D01*
G01*
X195199999Y-95550000D01*
G75*
G02*
X194950000Y-95300001I0J249999D01*
G01*
X194950000Y-94399999D01*
G75*
G02*
X195199999Y-94150000I249999J0D01*
G01*
X195850001Y-94150000D01*
G75*
G02*
X196100000Y-94399999I0J-249999D01*
G01*
G37*
%TD*%
D12*
%TO.C,C16*%
X82450000Y-101700000D03*
D13*
X84950000Y-101700000D03*
%TD*%
%TO.C,C18*%
G36*
G01*
X96700000Y-132550001D02*
X96700000Y-131649999D01*
G75*
G02*
X96949999Y-131400000I249999J0D01*
G01*
X97600001Y-131400000D01*
G75*
G02*
X97850000Y-131649999I0J-249999D01*
G01*
X97850000Y-132550001D01*
G75*
G02*
X97600001Y-132800000I-249999J0D01*
G01*
X96949999Y-132800000D01*
G75*
G02*
X96700000Y-132550001I0J249999D01*
G01*
G37*
G36*
G01*
X94650000Y-132550001D02*
X94650000Y-131649999D01*
G75*
G02*
X94899999Y-131400000I249999J0D01*
G01*
X95550001Y-131400000D01*
G75*
G02*
X95800000Y-131649999I0J-249999D01*
G01*
X95800000Y-132550001D01*
G75*
G02*
X95550001Y-132800000I-249999J0D01*
G01*
X94899999Y-132800000D01*
G75*
G02*
X94650000Y-132550001I0J249999D01*
G01*
G37*
%TD*%
%TO.C,C19*%
G36*
G01*
X84200000Y-132550001D02*
X84200000Y-131649999D01*
G75*
G02*
X84449999Y-131400000I249999J0D01*
G01*
X85100001Y-131400000D01*
G75*
G02*
X85350000Y-131649999I0J-249999D01*
G01*
X85350000Y-132550001D01*
G75*
G02*
X85100001Y-132800000I-249999J0D01*
G01*
X84449999Y-132800000D01*
G75*
G02*
X84200000Y-132550001I0J249999D01*
G01*
G37*
G36*
G01*
X86250000Y-132550001D02*
X86250000Y-131649999D01*
G75*
G02*
X86499999Y-131400000I249999J0D01*
G01*
X87150001Y-131400000D01*
G75*
G02*
X87400000Y-131649999I0J-249999D01*
G01*
X87400000Y-132550001D01*
G75*
G02*
X87150001Y-132800000I-249999J0D01*
G01*
X86499999Y-132800000D01*
G75*
G02*
X86250000Y-132550001I0J249999D01*
G01*
G37*
%TD*%
%TO.C,C21*%
G36*
G01*
X117650000Y-132550001D02*
X117650000Y-131649999D01*
G75*
G02*
X117899999Y-131400000I249999J0D01*
G01*
X118550001Y-131400000D01*
G75*
G02*
X118800000Y-131649999I0J-249999D01*
G01*
X118800000Y-132550001D01*
G75*
G02*
X118550001Y-132800000I-249999J0D01*
G01*
X117899999Y-132800000D01*
G75*
G02*
X117650000Y-132550001I0J249999D01*
G01*
G37*
G36*
G01*
X119700000Y-132550001D02*
X119700000Y-131649999D01*
G75*
G02*
X119949999Y-131400000I249999J0D01*
G01*
X120600001Y-131400000D01*
G75*
G02*
X120850000Y-131649999I0J-249999D01*
G01*
X120850000Y-132550001D01*
G75*
G02*
X120600001Y-132800000I-249999J0D01*
G01*
X119949999Y-132800000D01*
G75*
G02*
X119700000Y-132550001I0J249999D01*
G01*
G37*
%TD*%
%TO.C,C22*%
G36*
G01*
X109250000Y-132550001D02*
X109250000Y-131649999D01*
G75*
G02*
X109499999Y-131400000I249999J0D01*
G01*
X110150001Y-131400000D01*
G75*
G02*
X110400000Y-131649999I0J-249999D01*
G01*
X110400000Y-132550001D01*
G75*
G02*
X110150001Y-132800000I-249999J0D01*
G01*
X109499999Y-132800000D01*
G75*
G02*
X109250000Y-132550001I0J249999D01*
G01*
G37*
G36*
G01*
X107200000Y-132550001D02*
X107200000Y-131649999D01*
G75*
G02*
X107449999Y-131400000I249999J0D01*
G01*
X108100001Y-131400000D01*
G75*
G02*
X108350000Y-131649999I0J-249999D01*
G01*
X108350000Y-132550001D01*
G75*
G02*
X108100001Y-132800000I-249999J0D01*
G01*
X107449999Y-132800000D01*
G75*
G02*
X107200000Y-132550001I0J249999D01*
G01*
G37*
%TD*%
%TO.C,C24*%
G36*
G01*
X142650000Y-132550001D02*
X142650000Y-131649999D01*
G75*
G02*
X142899999Y-131400000I249999J0D01*
G01*
X143550001Y-131400000D01*
G75*
G02*
X143800000Y-131649999I0J-249999D01*
G01*
X143800000Y-132550001D01*
G75*
G02*
X143550001Y-132800000I-249999J0D01*
G01*
X142899999Y-132800000D01*
G75*
G02*
X142650000Y-132550001I0J249999D01*
G01*
G37*
G36*
G01*
X140600000Y-132550001D02*
X140600000Y-131649999D01*
G75*
G02*
X140849999Y-131400000I249999J0D01*
G01*
X141500001Y-131400000D01*
G75*
G02*
X141750000Y-131649999I0J-249999D01*
G01*
X141750000Y-132550001D01*
G75*
G02*
X141500001Y-132800000I-249999J0D01*
G01*
X140849999Y-132800000D01*
G75*
G02*
X140600000Y-132550001I0J249999D01*
G01*
G37*
%TD*%
%TO.C,C25*%
G36*
G01*
X130200000Y-132550001D02*
X130200000Y-131649999D01*
G75*
G02*
X130449999Y-131400000I249999J0D01*
G01*
X131100001Y-131400000D01*
G75*
G02*
X131350000Y-131649999I0J-249999D01*
G01*
X131350000Y-132550001D01*
G75*
G02*
X131100001Y-132800000I-249999J0D01*
G01*
X130449999Y-132800000D01*
G75*
G02*
X130200000Y-132550001I0J249999D01*
G01*
G37*
G36*
G01*
X132250000Y-132550001D02*
X132250000Y-131649999D01*
G75*
G02*
X132499999Y-131400000I249999J0D01*
G01*
X133150001Y-131400000D01*
G75*
G02*
X133400000Y-131649999I0J-249999D01*
G01*
X133400000Y-132550001D01*
G75*
G02*
X133150001Y-132800000I-249999J0D01*
G01*
X132499999Y-132800000D01*
G75*
G02*
X132250000Y-132550001I0J249999D01*
G01*
G37*
%TD*%
%TO.C,C27*%
G36*
G01*
X188700000Y-132550001D02*
X188700000Y-131649999D01*
G75*
G02*
X188949999Y-131400000I249999J0D01*
G01*
X189600001Y-131400000D01*
G75*
G02*
X189850000Y-131649999I0J-249999D01*
G01*
X189850000Y-132550001D01*
G75*
G02*
X189600001Y-132800000I-249999J0D01*
G01*
X188949999Y-132800000D01*
G75*
G02*
X188700000Y-132550001I0J249999D01*
G01*
G37*
G36*
G01*
X186650000Y-132550001D02*
X186650000Y-131649999D01*
G75*
G02*
X186899999Y-131400000I249999J0D01*
G01*
X187550001Y-131400000D01*
G75*
G02*
X187800000Y-131649999I0J-249999D01*
G01*
X187800000Y-132550001D01*
G75*
G02*
X187550001Y-132800000I-249999J0D01*
G01*
X186899999Y-132800000D01*
G75*
G02*
X186650000Y-132550001I0J249999D01*
G01*
G37*
%TD*%
%TO.C,C28*%
G36*
G01*
X176200000Y-132550001D02*
X176200000Y-131649999D01*
G75*
G02*
X176449999Y-131400000I249999J0D01*
G01*
X177100001Y-131400000D01*
G75*
G02*
X177350000Y-131649999I0J-249999D01*
G01*
X177350000Y-132550001D01*
G75*
G02*
X177100001Y-132800000I-249999J0D01*
G01*
X176449999Y-132800000D01*
G75*
G02*
X176200000Y-132550001I0J249999D01*
G01*
G37*
G36*
G01*
X178250000Y-132550001D02*
X178250000Y-131649999D01*
G75*
G02*
X178499999Y-131400000I249999J0D01*
G01*
X179150001Y-131400000D01*
G75*
G02*
X179400000Y-131649999I0J-249999D01*
G01*
X179400000Y-132550001D01*
G75*
G02*
X179150001Y-132800000I-249999J0D01*
G01*
X178499999Y-132800000D01*
G75*
G02*
X178250000Y-132550001I0J249999D01*
G01*
G37*
%TD*%
%TO.C,C30*%
G36*
G01*
X211700000Y-132550001D02*
X211700000Y-131649999D01*
G75*
G02*
X211949999Y-131400000I249999J0D01*
G01*
X212600001Y-131400000D01*
G75*
G02*
X212850000Y-131649999I0J-249999D01*
G01*
X212850000Y-132550001D01*
G75*
G02*
X212600001Y-132800000I-249999J0D01*
G01*
X211949999Y-132800000D01*
G75*
G02*
X211700000Y-132550001I0J249999D01*
G01*
G37*
G36*
G01*
X209650000Y-132550001D02*
X209650000Y-131649999D01*
G75*
G02*
X209899999Y-131400000I249999J0D01*
G01*
X210550001Y-131400000D01*
G75*
G02*
X210800000Y-131649999I0J-249999D01*
G01*
X210800000Y-132550001D01*
G75*
G02*
X210550001Y-132800000I-249999J0D01*
G01*
X209899999Y-132800000D01*
G75*
G02*
X209650000Y-132550001I0J249999D01*
G01*
G37*
%TD*%
%TO.C,C31*%
G36*
G01*
X199200000Y-132550001D02*
X199200000Y-131649999D01*
G75*
G02*
X199449999Y-131400000I249999J0D01*
G01*
X200100001Y-131400000D01*
G75*
G02*
X200350000Y-131649999I0J-249999D01*
G01*
X200350000Y-132550001D01*
G75*
G02*
X200100001Y-132800000I-249999J0D01*
G01*
X199449999Y-132800000D01*
G75*
G02*
X199200000Y-132550001I0J249999D01*
G01*
G37*
G36*
G01*
X201250000Y-132550001D02*
X201250000Y-131649999D01*
G75*
G02*
X201499999Y-131400000I249999J0D01*
G01*
X202150001Y-131400000D01*
G75*
G02*
X202400000Y-131649999I0J-249999D01*
G01*
X202400000Y-132550001D01*
G75*
G02*
X202150001Y-132800000I-249999J0D01*
G01*
X201499999Y-132800000D01*
G75*
G02*
X201250000Y-132550001I0J249999D01*
G01*
G37*
%TD*%
%TO.C,C33*%
G36*
G01*
X163650000Y-132550001D02*
X163650000Y-131649999D01*
G75*
G02*
X163899999Y-131400000I249999J0D01*
G01*
X164550001Y-131400000D01*
G75*
G02*
X164800000Y-131649999I0J-249999D01*
G01*
X164800000Y-132550001D01*
G75*
G02*
X164550001Y-132800000I-249999J0D01*
G01*
X163899999Y-132800000D01*
G75*
G02*
X163650000Y-132550001I0J249999D01*
G01*
G37*
G36*
G01*
X165700000Y-132550001D02*
X165700000Y-131649999D01*
G75*
G02*
X165949999Y-131400000I249999J0D01*
G01*
X166600001Y-131400000D01*
G75*
G02*
X166850000Y-131649999I0J-249999D01*
G01*
X166850000Y-132550001D01*
G75*
G02*
X166600001Y-132800000I-249999J0D01*
G01*
X165949999Y-132800000D01*
G75*
G02*
X165700000Y-132550001I0J249999D01*
G01*
G37*
%TD*%
%TO.C,C34*%
G36*
G01*
X155250000Y-132550001D02*
X155250000Y-131649999D01*
G75*
G02*
X155499999Y-131400000I249999J0D01*
G01*
X156150001Y-131400000D01*
G75*
G02*
X156400000Y-131649999I0J-249999D01*
G01*
X156400000Y-132550001D01*
G75*
G02*
X156150001Y-132800000I-249999J0D01*
G01*
X155499999Y-132800000D01*
G75*
G02*
X155250000Y-132550001I0J249999D01*
G01*
G37*
G36*
G01*
X153200000Y-132550001D02*
X153200000Y-131649999D01*
G75*
G02*
X153449999Y-131400000I249999J0D01*
G01*
X154100001Y-131400000D01*
G75*
G02*
X154350000Y-131649999I0J-249999D01*
G01*
X154350000Y-132550001D01*
G75*
G02*
X154100001Y-132800000I-249999J0D01*
G01*
X153449999Y-132800000D01*
G75*
G02*
X153200000Y-132550001I0J249999D01*
G01*
G37*
%TD*%
%TO.C,D1*%
G36*
G01*
X88349999Y-93425000D02*
X89250001Y-93425000D01*
G75*
G02*
X89500000Y-93674999I0J-249999D01*
G01*
X89500000Y-94325001D01*
G75*
G02*
X89250001Y-94575000I-249999J0D01*
G01*
X88349999Y-94575000D01*
G75*
G02*
X88100000Y-94325001I0J249999D01*
G01*
X88100000Y-93674999D01*
G75*
G02*
X88349999Y-93425000I249999J0D01*
G01*
G37*
G36*
G01*
X88349999Y-95475000D02*
X89250001Y-95475000D01*
G75*
G02*
X89500000Y-95724999I0J-249999D01*
G01*
X89500000Y-96375001D01*
G75*
G02*
X89250001Y-96625000I-249999J0D01*
G01*
X88349999Y-96625000D01*
G75*
G02*
X88100000Y-96375001I0J249999D01*
G01*
X88100000Y-95724999D01*
G75*
G02*
X88349999Y-95475000I249999J0D01*
G01*
G37*
%TD*%
D14*
%TO.C,D4*%
X82450000Y-96150000D03*
D15*
X82450000Y-83450000D03*
%TD*%
D16*
%TO.C,J1*%
X108900000Y-81750000D03*
G36*
G01*
X107900000Y-74250000D02*
X109900000Y-74250000D01*
G75*
G02*
X110650000Y-75000000I0J-750000D01*
G01*
X110650000Y-76500000D01*
G75*
G02*
X109900000Y-77250000I-750000J0D01*
G01*
X107900000Y-77250000D01*
G75*
G02*
X107150000Y-76500000I0J750000D01*
G01*
X107150000Y-75000000D01*
G75*
G02*
X107900000Y-74250000I750000J0D01*
G01*
G37*
G36*
G01*
X103325000Y-77000000D02*
X105075000Y-77000000D01*
G75*
G02*
X105950000Y-77875000I0J-875000D01*
G01*
X105950000Y-79625000D01*
G75*
G02*
X105075000Y-80500000I-875000J0D01*
G01*
X103325000Y-80500000D01*
G75*
G02*
X102450000Y-79625000I0J875000D01*
G01*
X102450000Y-77875000D01*
G75*
G02*
X103325000Y-77000000I875000J0D01*
G01*
G37*
%TD*%
D17*
%TO.C,J2*%
X154700000Y-72962500D03*
D18*
X158200000Y-75662500D03*
D19*
X156350000Y-75662500D03*
X157000000Y-75662500D03*
X154400000Y-75662500D03*
X155050000Y-75662500D03*
X155700000Y-75662500D03*
D18*
X153200000Y-75662500D03*
D17*
X156700000Y-72962500D03*
D20*
X159200000Y-72962500D03*
X152200000Y-72962500D03*
D21*
X152800000Y-72962500D03*
X158600000Y-72962500D03*
%TD*%
%TO.C,J3*%
G36*
G01*
X140600000Y-78800000D02*
X139400000Y-78800000D01*
G75*
G02*
X139150000Y-78550000I0J250000D01*
G01*
X139150000Y-77350000D01*
G75*
G02*
X139400000Y-77100000I250000J0D01*
G01*
X140600000Y-77100000D01*
G75*
G02*
X140850000Y-77350000I0J-250000D01*
G01*
X140850000Y-78550000D01*
G75*
G02*
X140600000Y-78800000I-250000J0D01*
G01*
G37*
D22*
X142540000Y-77950000D03*
X145080000Y-77950000D03*
X140000000Y-75410000D03*
X142540000Y-75410000D03*
X145080000Y-75410000D03*
%TD*%
D23*
%TO.C,J4*%
X117050000Y-76800000D03*
D24*
X117050000Y-74260000D03*
%TD*%
D25*
%TO.C,L1*%
X97150000Y-88450000D03*
X97150000Y-83450000D03*
%TD*%
D26*
%TO.C,Q1*%
X87850000Y-90250000D03*
X89750000Y-90250000D03*
X88800000Y-88250000D03*
%TD*%
D27*
%TO.C,Q2*%
X97880000Y-77700000D03*
X95340000Y-77700000D03*
D28*
X92800000Y-77700000D03*
%TD*%
%TO.C,R1*%
G36*
G01*
X104700001Y-89800000D02*
X103799999Y-89800000D01*
G75*
G02*
X103550000Y-89550001I0J249999D01*
G01*
X103550000Y-88899999D01*
G75*
G02*
X103799999Y-88650000I249999J0D01*
G01*
X104700001Y-88650000D01*
G75*
G02*
X104950000Y-88899999I0J-249999D01*
G01*
X104950000Y-89550001D01*
G75*
G02*
X104700001Y-89800000I-249999J0D01*
G01*
G37*
G36*
G01*
X104700001Y-87750000D02*
X103799999Y-87750000D01*
G75*
G02*
X103550000Y-87500001I0J249999D01*
G01*
X103550000Y-86849999D01*
G75*
G02*
X103799999Y-86600000I249999J0D01*
G01*
X104700001Y-86600000D01*
G75*
G02*
X104950000Y-86849999I0J-249999D01*
G01*
X104950000Y-87500001D01*
G75*
G02*
X104700001Y-87750000I-249999J0D01*
G01*
G37*
%TD*%
%TO.C,R2*%
G36*
G01*
X108800001Y-87750000D02*
X107899999Y-87750000D01*
G75*
G02*
X107650000Y-87500001I0J249999D01*
G01*
X107650000Y-86849999D01*
G75*
G02*
X107899999Y-86600000I249999J0D01*
G01*
X108800001Y-86600000D01*
G75*
G02*
X109050000Y-86849999I0J-249999D01*
G01*
X109050000Y-87500001D01*
G75*
G02*
X108800001Y-87750000I-249999J0D01*
G01*
G37*
G36*
G01*
X108800001Y-89800000D02*
X107899999Y-89800000D01*
G75*
G02*
X107650000Y-89550001I0J249999D01*
G01*
X107650000Y-88899999D01*
G75*
G02*
X107899999Y-88650000I249999J0D01*
G01*
X108800001Y-88650000D01*
G75*
G02*
X109050000Y-88899999I0J-249999D01*
G01*
X109050000Y-89550001D01*
G75*
G02*
X108800001Y-89800000I-249999J0D01*
G01*
G37*
%TD*%
%TO.C,R3*%
G36*
G01*
X106750001Y-89800000D02*
X105849999Y-89800000D01*
G75*
G02*
X105600000Y-89550001I0J249999D01*
G01*
X105600000Y-88899999D01*
G75*
G02*
X105849999Y-88650000I249999J0D01*
G01*
X106750001Y-88650000D01*
G75*
G02*
X107000000Y-88899999I0J-249999D01*
G01*
X107000000Y-89550001D01*
G75*
G02*
X106750001Y-89800000I-249999J0D01*
G01*
G37*
G36*
G01*
X106750001Y-87750000D02*
X105849999Y-87750000D01*
G75*
G02*
X105600000Y-87500001I0J249999D01*
G01*
X105600000Y-86849999D01*
G75*
G02*
X105849999Y-86600000I249999J0D01*
G01*
X106750001Y-86600000D01*
G75*
G02*
X107000000Y-86849999I0J-249999D01*
G01*
X107000000Y-87500001D01*
G75*
G02*
X106750001Y-87750000I-249999J0D01*
G01*
G37*
%TD*%
%TO.C,R4*%
G36*
G01*
X89250000Y-86450001D02*
X89250000Y-85549999D01*
G75*
G02*
X89499999Y-85300000I249999J0D01*
G01*
X90150001Y-85300000D01*
G75*
G02*
X90400000Y-85549999I0J-249999D01*
G01*
X90400000Y-86450001D01*
G75*
G02*
X90150001Y-86700000I-249999J0D01*
G01*
X89499999Y-86700000D01*
G75*
G02*
X89250000Y-86450001I0J249999D01*
G01*
G37*
G36*
G01*
X87200000Y-86450001D02*
X87200000Y-85549999D01*
G75*
G02*
X87449999Y-85300000I249999J0D01*
G01*
X88100001Y-85300000D01*
G75*
G02*
X88350000Y-85549999I0J-249999D01*
G01*
X88350000Y-86450001D01*
G75*
G02*
X88100001Y-86700000I-249999J0D01*
G01*
X87449999Y-86700000D01*
G75*
G02*
X87200000Y-86450001I0J249999D01*
G01*
G37*
%TD*%
%TO.C,R5*%
G36*
G01*
X126600001Y-97400000D02*
X125699999Y-97400000D01*
G75*
G02*
X125450000Y-97150001I0J249999D01*
G01*
X125450000Y-96499999D01*
G75*
G02*
X125699999Y-96250000I249999J0D01*
G01*
X126600001Y-96250000D01*
G75*
G02*
X126850000Y-96499999I0J-249999D01*
G01*
X126850000Y-97150001D01*
G75*
G02*
X126600001Y-97400000I-249999J0D01*
G01*
G37*
G36*
G01*
X126600001Y-99450000D02*
X125699999Y-99450000D01*
G75*
G02*
X125450000Y-99200001I0J249999D01*
G01*
X125450000Y-98549999D01*
G75*
G02*
X125699999Y-98300000I249999J0D01*
G01*
X126600001Y-98300000D01*
G75*
G02*
X126850000Y-98549999I0J-249999D01*
G01*
X126850000Y-99200001D01*
G75*
G02*
X126600001Y-99450000I-249999J0D01*
G01*
G37*
%TD*%
%TO.C,R6*%
G36*
G01*
X128950001Y-99450000D02*
X128049999Y-99450000D01*
G75*
G02*
X127800000Y-99200001I0J249999D01*
G01*
X127800000Y-98549999D01*
G75*
G02*
X128049999Y-98300000I249999J0D01*
G01*
X128950001Y-98300000D01*
G75*
G02*
X129200000Y-98549999I0J-249999D01*
G01*
X129200000Y-99200001D01*
G75*
G02*
X128950001Y-99450000I-249999J0D01*
G01*
G37*
G36*
G01*
X128950001Y-97400000D02*
X128049999Y-97400000D01*
G75*
G02*
X127800000Y-97150001I0J249999D01*
G01*
X127800000Y-96499999D01*
G75*
G02*
X128049999Y-96250000I249999J0D01*
G01*
X128950001Y-96250000D01*
G75*
G02*
X129200000Y-96499999I0J-249999D01*
G01*
X129200000Y-97150001D01*
G75*
G02*
X128950001Y-97400000I-249999J0D01*
G01*
G37*
%TD*%
D29*
%TO.C,U1*%
X136200000Y-92750000D03*
X136200000Y-91950000D03*
X136200000Y-91150000D03*
X136200000Y-90350000D03*
X136200000Y-89550000D03*
X136200000Y-88750000D03*
X136200000Y-87950000D03*
X136200000Y-87150000D03*
D30*
X134750000Y-85700000D03*
X133950000Y-85700000D03*
X133150000Y-85700000D03*
X132350000Y-85700000D03*
X131550000Y-85700000D03*
X130750000Y-85700000D03*
X129950000Y-85700000D03*
X129150000Y-85700000D03*
D29*
X127700000Y-87150000D03*
X127700000Y-87950000D03*
X127700000Y-88750000D03*
X127700000Y-89550000D03*
X127700000Y-90350000D03*
X127700000Y-91150000D03*
X127700000Y-91950000D03*
X127700000Y-92750000D03*
D30*
X129150000Y-94200000D03*
X129950000Y-94200000D03*
X130750000Y-94200000D03*
X131550000Y-94200000D03*
X132350000Y-94200000D03*
X133150000Y-94200000D03*
X133950000Y-94200000D03*
X134750000Y-94200000D03*
%TD*%
D12*
%TO.C,U2*%
X91500000Y-93550000D03*
D31*
X99120000Y-101170000D03*
X91500000Y-96090000D03*
X99120000Y-98630000D03*
X91500000Y-98630000D03*
X99120000Y-96090000D03*
X91500000Y-101170000D03*
X99120000Y-93550000D03*
%TD*%
D32*
%TO.C,U3*%
X118100000Y-83500000D03*
D33*
X118100000Y-86040000D03*
X118100000Y-88580000D03*
%TD*%
%TO.C,U4*%
G36*
G01*
X149590000Y-86000000D02*
X149290000Y-86000000D01*
G75*
G02*
X149140000Y-85850000I0J150000D01*
G01*
X149140000Y-84200000D01*
G75*
G02*
X149290000Y-84050000I150000J0D01*
G01*
X149590000Y-84050000D01*
G75*
G02*
X149740000Y-84200000I0J-150000D01*
G01*
X149740000Y-85850000D01*
G75*
G02*
X149590000Y-86000000I-150000J0D01*
G01*
G37*
G36*
G01*
X150860000Y-86000000D02*
X150560000Y-86000000D01*
G75*
G02*
X150410000Y-85850000I0J150000D01*
G01*
X150410000Y-84200000D01*
G75*
G02*
X150560000Y-84050000I150000J0D01*
G01*
X150860000Y-84050000D01*
G75*
G02*
X151010000Y-84200000I0J-150000D01*
G01*
X151010000Y-85850000D01*
G75*
G02*
X150860000Y-86000000I-150000J0D01*
G01*
G37*
G36*
G01*
X152130000Y-86000000D02*
X151830000Y-86000000D01*
G75*
G02*
X151680000Y-85850000I0J150000D01*
G01*
X151680000Y-84200000D01*
G75*
G02*
X151830000Y-84050000I150000J0D01*
G01*
X152130000Y-84050000D01*
G75*
G02*
X152280000Y-84200000I0J-150000D01*
G01*
X152280000Y-85850000D01*
G75*
G02*
X152130000Y-86000000I-150000J0D01*
G01*
G37*
G36*
G01*
X153400000Y-86000000D02*
X153100000Y-86000000D01*
G75*
G02*
X152950000Y-85850000I0J150000D01*
G01*
X152950000Y-84200000D01*
G75*
G02*
X153100000Y-84050000I150000J0D01*
G01*
X153400000Y-84050000D01*
G75*
G02*
X153550000Y-84200000I0J-150000D01*
G01*
X153550000Y-85850000D01*
G75*
G02*
X153400000Y-86000000I-150000J0D01*
G01*
G37*
G36*
G01*
X154670000Y-86000000D02*
X154370000Y-86000000D01*
G75*
G02*
X154220000Y-85850000I0J150000D01*
G01*
X154220000Y-84200000D01*
G75*
G02*
X154370000Y-84050000I150000J0D01*
G01*
X154670000Y-84050000D01*
G75*
G02*
X154820000Y-84200000I0J-150000D01*
G01*
X154820000Y-85850000D01*
G75*
G02*
X154670000Y-86000000I-150000J0D01*
G01*
G37*
G36*
G01*
X155940000Y-86000000D02*
X155640000Y-86000000D01*
G75*
G02*
X155490000Y-85850000I0J150000D01*
G01*
X155490000Y-84200000D01*
G75*
G02*
X155640000Y-84050000I150000J0D01*
G01*
X155940000Y-84050000D01*
G75*
G02*
X156090000Y-84200000I0J-150000D01*
G01*
X156090000Y-85850000D01*
G75*
G02*
X155940000Y-86000000I-150000J0D01*
G01*
G37*
G36*
G01*
X157210000Y-86000000D02*
X156910000Y-86000000D01*
G75*
G02*
X156760000Y-85850000I0J150000D01*
G01*
X156760000Y-84200000D01*
G75*
G02*
X156910000Y-84050000I150000J0D01*
G01*
X157210000Y-84050000D01*
G75*
G02*
X157360000Y-84200000I0J-150000D01*
G01*
X157360000Y-85850000D01*
G75*
G02*
X157210000Y-86000000I-150000J0D01*
G01*
G37*
G36*
G01*
X157210000Y-90950000D02*
X156910000Y-90950000D01*
G75*
G02*
X156760000Y-90800000I0J150000D01*
G01*
X156760000Y-89150000D01*
G75*
G02*
X156910000Y-89000000I150000J0D01*
G01*
X157210000Y-89000000D01*
G75*
G02*
X157360000Y-89150000I0J-150000D01*
G01*
X157360000Y-90800000D01*
G75*
G02*
X157210000Y-90950000I-150000J0D01*
G01*
G37*
G36*
G01*
X155940000Y-90950000D02*
X155640000Y-90950000D01*
G75*
G02*
X155490000Y-90800000I0J150000D01*
G01*
X155490000Y-89150000D01*
G75*
G02*
X155640000Y-89000000I150000J0D01*
G01*
X155940000Y-89000000D01*
G75*
G02*
X156090000Y-89150000I0J-150000D01*
G01*
X156090000Y-90800000D01*
G75*
G02*
X155940000Y-90950000I-150000J0D01*
G01*
G37*
G36*
G01*
X154670000Y-90950000D02*
X154370000Y-90950000D01*
G75*
G02*
X154220000Y-90800000I0J150000D01*
G01*
X154220000Y-89150000D01*
G75*
G02*
X154370000Y-89000000I150000J0D01*
G01*
X154670000Y-89000000D01*
G75*
G02*
X154820000Y-89150000I0J-150000D01*
G01*
X154820000Y-90800000D01*
G75*
G02*
X154670000Y-90950000I-150000J0D01*
G01*
G37*
G36*
G01*
X153400000Y-90950000D02*
X153100000Y-90950000D01*
G75*
G02*
X152950000Y-90800000I0J150000D01*
G01*
X152950000Y-89150000D01*
G75*
G02*
X153100000Y-89000000I150000J0D01*
G01*
X153400000Y-89000000D01*
G75*
G02*
X153550000Y-89150000I0J-150000D01*
G01*
X153550000Y-90800000D01*
G75*
G02*
X153400000Y-90950000I-150000J0D01*
G01*
G37*
G36*
G01*
X152130000Y-90950000D02*
X151830000Y-90950000D01*
G75*
G02*
X151680000Y-90800000I0J150000D01*
G01*
X151680000Y-89150000D01*
G75*
G02*
X151830000Y-89000000I150000J0D01*
G01*
X152130000Y-89000000D01*
G75*
G02*
X152280000Y-89150000I0J-150000D01*
G01*
X152280000Y-90800000D01*
G75*
G02*
X152130000Y-90950000I-150000J0D01*
G01*
G37*
G36*
G01*
X150860000Y-90950000D02*
X150560000Y-90950000D01*
G75*
G02*
X150410000Y-90800000I0J150000D01*
G01*
X150410000Y-89150000D01*
G75*
G02*
X150560000Y-89000000I150000J0D01*
G01*
X150860000Y-89000000D01*
G75*
G02*
X151010000Y-89150000I0J-150000D01*
G01*
X151010000Y-90800000D01*
G75*
G02*
X150860000Y-90950000I-150000J0D01*
G01*
G37*
G36*
G01*
X149590000Y-90950000D02*
X149290000Y-90950000D01*
G75*
G02*
X149140000Y-90800000I0J150000D01*
G01*
X149140000Y-89150000D01*
G75*
G02*
X149290000Y-89000000I150000J0D01*
G01*
X149590000Y-89000000D01*
G75*
G02*
X149740000Y-89150000I0J-150000D01*
G01*
X149740000Y-90800000D01*
G75*
G02*
X149590000Y-90950000I-150000J0D01*
G01*
G37*
%TD*%
%TO.C,U5*%
G36*
G01*
X113700000Y-94890000D02*
X113700000Y-94590000D01*
G75*
G02*
X113850000Y-94440000I150000J0D01*
G01*
X115500000Y-94440000D01*
G75*
G02*
X115650000Y-94590000I0J-150000D01*
G01*
X115650000Y-94890000D01*
G75*
G02*
X115500000Y-95040000I-150000J0D01*
G01*
X113850000Y-95040000D01*
G75*
G02*
X113700000Y-94890000I0J150000D01*
G01*
G37*
G36*
G01*
X113700000Y-96160000D02*
X113700000Y-95860000D01*
G75*
G02*
X113850000Y-95710000I150000J0D01*
G01*
X115500000Y-95710000D01*
G75*
G02*
X115650000Y-95860000I0J-150000D01*
G01*
X115650000Y-96160000D01*
G75*
G02*
X115500000Y-96310000I-150000J0D01*
G01*
X113850000Y-96310000D01*
G75*
G02*
X113700000Y-96160000I0J150000D01*
G01*
G37*
G36*
G01*
X113700000Y-97430000D02*
X113700000Y-97130000D01*
G75*
G02*
X113850000Y-96980000I150000J0D01*
G01*
X115500000Y-96980000D01*
G75*
G02*
X115650000Y-97130000I0J-150000D01*
G01*
X115650000Y-97430000D01*
G75*
G02*
X115500000Y-97580000I-150000J0D01*
G01*
X113850000Y-97580000D01*
G75*
G02*
X113700000Y-97430000I0J150000D01*
G01*
G37*
G36*
G01*
X113700000Y-98700000D02*
X113700000Y-98400000D01*
G75*
G02*
X113850000Y-98250000I150000J0D01*
G01*
X115500000Y-98250000D01*
G75*
G02*
X115650000Y-98400000I0J-150000D01*
G01*
X115650000Y-98700000D01*
G75*
G02*
X115500000Y-98850000I-150000J0D01*
G01*
X113850000Y-98850000D01*
G75*
G02*
X113700000Y-98700000I0J150000D01*
G01*
G37*
G36*
G01*
X113700000Y-99970000D02*
X113700000Y-99670000D01*
G75*
G02*
X113850000Y-99520000I150000J0D01*
G01*
X115500000Y-99520000D01*
G75*
G02*
X115650000Y-99670000I0J-150000D01*
G01*
X115650000Y-99970000D01*
G75*
G02*
X115500000Y-100120000I-150000J0D01*
G01*
X113850000Y-100120000D01*
G75*
G02*
X113700000Y-99970000I0J150000D01*
G01*
G37*
G36*
G01*
X113700000Y-101240000D02*
X113700000Y-100940000D01*
G75*
G02*
X113850000Y-100790000I150000J0D01*
G01*
X115500000Y-100790000D01*
G75*
G02*
X115650000Y-100940000I0J-150000D01*
G01*
X115650000Y-101240000D01*
G75*
G02*
X115500000Y-101390000I-150000J0D01*
G01*
X113850000Y-101390000D01*
G75*
G02*
X113700000Y-101240000I0J150000D01*
G01*
G37*
G36*
G01*
X113700000Y-102510000D02*
X113700000Y-102210000D01*
G75*
G02*
X113850000Y-102060000I150000J0D01*
G01*
X115500000Y-102060000D01*
G75*
G02*
X115650000Y-102210000I0J-150000D01*
G01*
X115650000Y-102510000D01*
G75*
G02*
X115500000Y-102660000I-150000J0D01*
G01*
X113850000Y-102660000D01*
G75*
G02*
X113700000Y-102510000I0J150000D01*
G01*
G37*
G36*
G01*
X118650000Y-102510000D02*
X118650000Y-102210000D01*
G75*
G02*
X118800000Y-102060000I150000J0D01*
G01*
X120450000Y-102060000D01*
G75*
G02*
X120600000Y-102210000I0J-150000D01*
G01*
X120600000Y-102510000D01*
G75*
G02*
X120450000Y-102660000I-150000J0D01*
G01*
X118800000Y-102660000D01*
G75*
G02*
X118650000Y-102510000I0J150000D01*
G01*
G37*
G36*
G01*
X118650000Y-101240000D02*
X118650000Y-100940000D01*
G75*
G02*
X118800000Y-100790000I150000J0D01*
G01*
X120450000Y-100790000D01*
G75*
G02*
X120600000Y-100940000I0J-150000D01*
G01*
X120600000Y-101240000D01*
G75*
G02*
X120450000Y-101390000I-150000J0D01*
G01*
X118800000Y-101390000D01*
G75*
G02*
X118650000Y-101240000I0J150000D01*
G01*
G37*
G36*
G01*
X118650000Y-99970000D02*
X118650000Y-99670000D01*
G75*
G02*
X118800000Y-99520000I150000J0D01*
G01*
X120450000Y-99520000D01*
G75*
G02*
X120600000Y-99670000I0J-150000D01*
G01*
X120600000Y-99970000D01*
G75*
G02*
X120450000Y-100120000I-150000J0D01*
G01*
X118800000Y-100120000D01*
G75*
G02*
X118650000Y-99970000I0J150000D01*
G01*
G37*
G36*
G01*
X118650000Y-98700000D02*
X118650000Y-98400000D01*
G75*
G02*
X118800000Y-98250000I150000J0D01*
G01*
X120450000Y-98250000D01*
G75*
G02*
X120600000Y-98400000I0J-150000D01*
G01*
X120600000Y-98700000D01*
G75*
G02*
X120450000Y-98850000I-150000J0D01*
G01*
X118800000Y-98850000D01*
G75*
G02*
X118650000Y-98700000I0J150000D01*
G01*
G37*
G36*
G01*
X118650000Y-97430000D02*
X118650000Y-97130000D01*
G75*
G02*
X118800000Y-96980000I150000J0D01*
G01*
X120450000Y-96980000D01*
G75*
G02*
X120600000Y-97130000I0J-150000D01*
G01*
X120600000Y-97430000D01*
G75*
G02*
X120450000Y-97580000I-150000J0D01*
G01*
X118800000Y-97580000D01*
G75*
G02*
X118650000Y-97430000I0J150000D01*
G01*
G37*
G36*
G01*
X118650000Y-96160000D02*
X118650000Y-95860000D01*
G75*
G02*
X118800000Y-95710000I150000J0D01*
G01*
X120450000Y-95710000D01*
G75*
G02*
X120600000Y-95860000I0J-150000D01*
G01*
X120600000Y-96160000D01*
G75*
G02*
X120450000Y-96310000I-150000J0D01*
G01*
X118800000Y-96310000D01*
G75*
G02*
X118650000Y-96160000I0J150000D01*
G01*
G37*
G36*
G01*
X118650000Y-94890000D02*
X118650000Y-94590000D01*
G75*
G02*
X118800000Y-94440000I150000J0D01*
G01*
X120450000Y-94440000D01*
G75*
G02*
X120600000Y-94590000I0J-150000D01*
G01*
X120600000Y-94890000D01*
G75*
G02*
X120450000Y-95040000I-150000J0D01*
G01*
X118800000Y-95040000D01*
G75*
G02*
X118650000Y-94890000I0J150000D01*
G01*
G37*
%TD*%
%TO.C,U6*%
G36*
G01*
X150000000Y-94640000D02*
X150000000Y-94340000D01*
G75*
G02*
X150150000Y-94190000I150000J0D01*
G01*
X151800000Y-94190000D01*
G75*
G02*
X151950000Y-94340000I0J-150000D01*
G01*
X151950000Y-94640000D01*
G75*
G02*
X151800000Y-94790000I-150000J0D01*
G01*
X150150000Y-94790000D01*
G75*
G02*
X150000000Y-94640000I0J150000D01*
G01*
G37*
G36*
G01*
X150000000Y-95910000D02*
X150000000Y-95610000D01*
G75*
G02*
X150150000Y-95460000I150000J0D01*
G01*
X151800000Y-95460000D01*
G75*
G02*
X151950000Y-95610000I0J-150000D01*
G01*
X151950000Y-95910000D01*
G75*
G02*
X151800000Y-96060000I-150000J0D01*
G01*
X150150000Y-96060000D01*
G75*
G02*
X150000000Y-95910000I0J150000D01*
G01*
G37*
G36*
G01*
X150000000Y-97180000D02*
X150000000Y-96880000D01*
G75*
G02*
X150150000Y-96730000I150000J0D01*
G01*
X151800000Y-96730000D01*
G75*
G02*
X151950000Y-96880000I0J-150000D01*
G01*
X151950000Y-97180000D01*
G75*
G02*
X151800000Y-97330000I-150000J0D01*
G01*
X150150000Y-97330000D01*
G75*
G02*
X150000000Y-97180000I0J150000D01*
G01*
G37*
G36*
G01*
X150000000Y-98450000D02*
X150000000Y-98150000D01*
G75*
G02*
X150150000Y-98000000I150000J0D01*
G01*
X151800000Y-98000000D01*
G75*
G02*
X151950000Y-98150000I0J-150000D01*
G01*
X151950000Y-98450000D01*
G75*
G02*
X151800000Y-98600000I-150000J0D01*
G01*
X150150000Y-98600000D01*
G75*
G02*
X150000000Y-98450000I0J150000D01*
G01*
G37*
G36*
G01*
X150000000Y-99720000D02*
X150000000Y-99420000D01*
G75*
G02*
X150150000Y-99270000I150000J0D01*
G01*
X151800000Y-99270000D01*
G75*
G02*
X151950000Y-99420000I0J-150000D01*
G01*
X151950000Y-99720000D01*
G75*
G02*
X151800000Y-99870000I-150000J0D01*
G01*
X150150000Y-99870000D01*
G75*
G02*
X150000000Y-99720000I0J150000D01*
G01*
G37*
G36*
G01*
X150000000Y-100990000D02*
X150000000Y-100690000D01*
G75*
G02*
X150150000Y-100540000I150000J0D01*
G01*
X151800000Y-100540000D01*
G75*
G02*
X151950000Y-100690000I0J-150000D01*
G01*
X151950000Y-100990000D01*
G75*
G02*
X151800000Y-101140000I-150000J0D01*
G01*
X150150000Y-101140000D01*
G75*
G02*
X150000000Y-100990000I0J150000D01*
G01*
G37*
G36*
G01*
X150000000Y-102260000D02*
X150000000Y-101960000D01*
G75*
G02*
X150150000Y-101810000I150000J0D01*
G01*
X151800000Y-101810000D01*
G75*
G02*
X151950000Y-101960000I0J-150000D01*
G01*
X151950000Y-102260000D01*
G75*
G02*
X151800000Y-102410000I-150000J0D01*
G01*
X150150000Y-102410000D01*
G75*
G02*
X150000000Y-102260000I0J150000D01*
G01*
G37*
G36*
G01*
X145050000Y-102260000D02*
X145050000Y-101960000D01*
G75*
G02*
X145200000Y-101810000I150000J0D01*
G01*
X146850000Y-101810000D01*
G75*
G02*
X147000000Y-101960000I0J-150000D01*
G01*
X147000000Y-102260000D01*
G75*
G02*
X146850000Y-102410000I-150000J0D01*
G01*
X145200000Y-102410000D01*
G75*
G02*
X145050000Y-102260000I0J150000D01*
G01*
G37*
G36*
G01*
X145050000Y-100990000D02*
X145050000Y-100690000D01*
G75*
G02*
X145200000Y-100540000I150000J0D01*
G01*
X146850000Y-100540000D01*
G75*
G02*
X147000000Y-100690000I0J-150000D01*
G01*
X147000000Y-100990000D01*
G75*
G02*
X146850000Y-101140000I-150000J0D01*
G01*
X145200000Y-101140000D01*
G75*
G02*
X145050000Y-100990000I0J150000D01*
G01*
G37*
G36*
G01*
X145050000Y-99720000D02*
X145050000Y-99420000D01*
G75*
G02*
X145200000Y-99270000I150000J0D01*
G01*
X146850000Y-99270000D01*
G75*
G02*
X147000000Y-99420000I0J-150000D01*
G01*
X147000000Y-99720000D01*
G75*
G02*
X146850000Y-99870000I-150000J0D01*
G01*
X145200000Y-99870000D01*
G75*
G02*
X145050000Y-99720000I0J150000D01*
G01*
G37*
G36*
G01*
X145050000Y-98450000D02*
X145050000Y-98150000D01*
G75*
G02*
X145200000Y-98000000I150000J0D01*
G01*
X146850000Y-98000000D01*
G75*
G02*
X147000000Y-98150000I0J-150000D01*
G01*
X147000000Y-98450000D01*
G75*
G02*
X146850000Y-98600000I-150000J0D01*
G01*
X145200000Y-98600000D01*
G75*
G02*
X145050000Y-98450000I0J150000D01*
G01*
G37*
G36*
G01*
X145050000Y-97180000D02*
X145050000Y-96880000D01*
G75*
G02*
X145200000Y-96730000I150000J0D01*
G01*
X146850000Y-96730000D01*
G75*
G02*
X147000000Y-96880000I0J-150000D01*
G01*
X147000000Y-97180000D01*
G75*
G02*
X146850000Y-97330000I-150000J0D01*
G01*
X145200000Y-97330000D01*
G75*
G02*
X145050000Y-97180000I0J150000D01*
G01*
G37*
G36*
G01*
X145050000Y-95910000D02*
X145050000Y-95610000D01*
G75*
G02*
X145200000Y-95460000I150000J0D01*
G01*
X146850000Y-95460000D01*
G75*
G02*
X147000000Y-95610000I0J-150000D01*
G01*
X147000000Y-95910000D01*
G75*
G02*
X146850000Y-96060000I-150000J0D01*
G01*
X145200000Y-96060000D01*
G75*
G02*
X145050000Y-95910000I0J150000D01*
G01*
G37*
G36*
G01*
X145050000Y-94640000D02*
X145050000Y-94340000D01*
G75*
G02*
X145200000Y-94190000I150000J0D01*
G01*
X146850000Y-94190000D01*
G75*
G02*
X147000000Y-94340000I0J-150000D01*
G01*
X147000000Y-94640000D01*
G75*
G02*
X146850000Y-94790000I-150000J0D01*
G01*
X145200000Y-94790000D01*
G75*
G02*
X145050000Y-94640000I0J150000D01*
G01*
G37*
%TD*%
%TO.C,U7*%
G36*
G01*
X191050000Y-96940000D02*
X191050000Y-96640000D01*
G75*
G02*
X191200000Y-96490000I150000J0D01*
G01*
X192850000Y-96490000D01*
G75*
G02*
X193000000Y-96640000I0J-150000D01*
G01*
X193000000Y-96940000D01*
G75*
G02*
X192850000Y-97090000I-150000J0D01*
G01*
X191200000Y-97090000D01*
G75*
G02*
X191050000Y-96940000I0J150000D01*
G01*
G37*
G36*
G01*
X191050000Y-98210000D02*
X191050000Y-97910000D01*
G75*
G02*
X191200000Y-97760000I150000J0D01*
G01*
X192850000Y-97760000D01*
G75*
G02*
X193000000Y-97910000I0J-150000D01*
G01*
X193000000Y-98210000D01*
G75*
G02*
X192850000Y-98360000I-150000J0D01*
G01*
X191200000Y-98360000D01*
G75*
G02*
X191050000Y-98210000I0J150000D01*
G01*
G37*
G36*
G01*
X191050000Y-99480000D02*
X191050000Y-99180000D01*
G75*
G02*
X191200000Y-99030000I150000J0D01*
G01*
X192850000Y-99030000D01*
G75*
G02*
X193000000Y-99180000I0J-150000D01*
G01*
X193000000Y-99480000D01*
G75*
G02*
X192850000Y-99630000I-150000J0D01*
G01*
X191200000Y-99630000D01*
G75*
G02*
X191050000Y-99480000I0J150000D01*
G01*
G37*
G36*
G01*
X191050000Y-100750000D02*
X191050000Y-100450000D01*
G75*
G02*
X191200000Y-100300000I150000J0D01*
G01*
X192850000Y-100300000D01*
G75*
G02*
X193000000Y-100450000I0J-150000D01*
G01*
X193000000Y-100750000D01*
G75*
G02*
X192850000Y-100900000I-150000J0D01*
G01*
X191200000Y-100900000D01*
G75*
G02*
X191050000Y-100750000I0J150000D01*
G01*
G37*
G36*
G01*
X191050000Y-102020000D02*
X191050000Y-101720000D01*
G75*
G02*
X191200000Y-101570000I150000J0D01*
G01*
X192850000Y-101570000D01*
G75*
G02*
X193000000Y-101720000I0J-150000D01*
G01*
X193000000Y-102020000D01*
G75*
G02*
X192850000Y-102170000I-150000J0D01*
G01*
X191200000Y-102170000D01*
G75*
G02*
X191050000Y-102020000I0J150000D01*
G01*
G37*
G36*
G01*
X191050000Y-103290000D02*
X191050000Y-102990000D01*
G75*
G02*
X191200000Y-102840000I150000J0D01*
G01*
X192850000Y-102840000D01*
G75*
G02*
X193000000Y-102990000I0J-150000D01*
G01*
X193000000Y-103290000D01*
G75*
G02*
X192850000Y-103440000I-150000J0D01*
G01*
X191200000Y-103440000D01*
G75*
G02*
X191050000Y-103290000I0J150000D01*
G01*
G37*
G36*
G01*
X191050000Y-104560000D02*
X191050000Y-104260000D01*
G75*
G02*
X191200000Y-104110000I150000J0D01*
G01*
X192850000Y-104110000D01*
G75*
G02*
X193000000Y-104260000I0J-150000D01*
G01*
X193000000Y-104560000D01*
G75*
G02*
X192850000Y-104710000I-150000J0D01*
G01*
X191200000Y-104710000D01*
G75*
G02*
X191050000Y-104560000I0J150000D01*
G01*
G37*
G36*
G01*
X196000000Y-104560000D02*
X196000000Y-104260000D01*
G75*
G02*
X196150000Y-104110000I150000J0D01*
G01*
X197800000Y-104110000D01*
G75*
G02*
X197950000Y-104260000I0J-150000D01*
G01*
X197950000Y-104560000D01*
G75*
G02*
X197800000Y-104710000I-150000J0D01*
G01*
X196150000Y-104710000D01*
G75*
G02*
X196000000Y-104560000I0J150000D01*
G01*
G37*
G36*
G01*
X196000000Y-103290000D02*
X196000000Y-102990000D01*
G75*
G02*
X196150000Y-102840000I150000J0D01*
G01*
X197800000Y-102840000D01*
G75*
G02*
X197950000Y-102990000I0J-150000D01*
G01*
X197950000Y-103290000D01*
G75*
G02*
X197800000Y-103440000I-150000J0D01*
G01*
X196150000Y-103440000D01*
G75*
G02*
X196000000Y-103290000I0J150000D01*
G01*
G37*
G36*
G01*
X196000000Y-102020000D02*
X196000000Y-101720000D01*
G75*
G02*
X196150000Y-101570000I150000J0D01*
G01*
X197800000Y-101570000D01*
G75*
G02*
X197950000Y-101720000I0J-150000D01*
G01*
X197950000Y-102020000D01*
G75*
G02*
X197800000Y-102170000I-150000J0D01*
G01*
X196150000Y-102170000D01*
G75*
G02*
X196000000Y-102020000I0J150000D01*
G01*
G37*
G36*
G01*
X196000000Y-100750000D02*
X196000000Y-100450000D01*
G75*
G02*
X196150000Y-100300000I150000J0D01*
G01*
X197800000Y-100300000D01*
G75*
G02*
X197950000Y-100450000I0J-150000D01*
G01*
X197950000Y-100750000D01*
G75*
G02*
X197800000Y-100900000I-150000J0D01*
G01*
X196150000Y-100900000D01*
G75*
G02*
X196000000Y-100750000I0J150000D01*
G01*
G37*
G36*
G01*
X196000000Y-99480000D02*
X196000000Y-99180000D01*
G75*
G02*
X196150000Y-99030000I150000J0D01*
G01*
X197800000Y-99030000D01*
G75*
G02*
X197950000Y-99180000I0J-150000D01*
G01*
X197950000Y-99480000D01*
G75*
G02*
X197800000Y-99630000I-150000J0D01*
G01*
X196150000Y-99630000D01*
G75*
G02*
X196000000Y-99480000I0J150000D01*
G01*
G37*
G36*
G01*
X196000000Y-98210000D02*
X196000000Y-97910000D01*
G75*
G02*
X196150000Y-97760000I150000J0D01*
G01*
X197800000Y-97760000D01*
G75*
G02*
X197950000Y-97910000I0J-150000D01*
G01*
X197950000Y-98210000D01*
G75*
G02*
X197800000Y-98360000I-150000J0D01*
G01*
X196150000Y-98360000D01*
G75*
G02*
X196000000Y-98210000I0J150000D01*
G01*
G37*
G36*
G01*
X196000000Y-96940000D02*
X196000000Y-96640000D01*
G75*
G02*
X196150000Y-96490000I150000J0D01*
G01*
X197800000Y-96490000D01*
G75*
G02*
X197950000Y-96640000I0J-150000D01*
G01*
X197950000Y-96940000D01*
G75*
G02*
X197800000Y-97090000I-150000J0D01*
G01*
X196150000Y-97090000D01*
G75*
G02*
X196000000Y-96940000I0J150000D01*
G01*
G37*
%TD*%
D34*
%TO.C,U8*%
X95520000Y-141890000D03*
X93560000Y-140130000D03*
X85540000Y-144340000D03*
X85860000Y-146950000D03*
X87360000Y-149120000D03*
X89690000Y-150340000D03*
X92310000Y-150340000D03*
X94650000Y-149110000D03*
X96140000Y-146950000D03*
X96460000Y-144340000D03*
X86480000Y-141880000D03*
X88450000Y-140100000D03*
X91000000Y-139500000D03*
%TD*%
%TO.C,U9*%
X114000000Y-139500000D03*
X111450000Y-140100000D03*
X109480000Y-141880000D03*
X119460000Y-144340000D03*
X119140000Y-146950000D03*
X117650000Y-149110000D03*
X115310000Y-150340000D03*
X112690000Y-150340000D03*
X110360000Y-149120000D03*
X108860000Y-146950000D03*
X108540000Y-144340000D03*
X116560000Y-140130000D03*
X118520000Y-141890000D03*
%TD*%
%TO.C,U10*%
X141520000Y-141890000D03*
X139560000Y-140130000D03*
X131540000Y-144340000D03*
X131860000Y-146950000D03*
X133360000Y-149120000D03*
X135690000Y-150340000D03*
X138310000Y-150340000D03*
X140650000Y-149110000D03*
X142140000Y-146950000D03*
X142460000Y-144340000D03*
X132480000Y-141880000D03*
X134450000Y-140100000D03*
X137000000Y-139500000D03*
%TD*%
%TO.C,U11*%
X160000000Y-139500000D03*
X157450000Y-140100000D03*
X155480000Y-141880000D03*
X165460000Y-144340000D03*
X165140000Y-146950000D03*
X163650000Y-149110000D03*
X161310000Y-150340000D03*
X158690000Y-150340000D03*
X156360000Y-149120000D03*
X154860000Y-146950000D03*
X154540000Y-144340000D03*
X162560000Y-140130000D03*
X164520000Y-141890000D03*
%TD*%
%TO.C,U12*%
X187520000Y-141890000D03*
X185560000Y-140130000D03*
X177540000Y-144340000D03*
X177860000Y-146950000D03*
X179360000Y-149120000D03*
X181690000Y-150340000D03*
X184310000Y-150340000D03*
X186650000Y-149110000D03*
X188140000Y-146950000D03*
X188460000Y-144340000D03*
X178480000Y-141880000D03*
X180450000Y-140100000D03*
X183000000Y-139500000D03*
%TD*%
%TO.C,U13*%
X206000000Y-139500000D03*
X203450000Y-140100000D03*
X201480000Y-141880000D03*
X211460000Y-144340000D03*
X211140000Y-146950000D03*
X209650000Y-149110000D03*
X207310000Y-150340000D03*
X204690000Y-150340000D03*
X202360000Y-149120000D03*
X200860000Y-146950000D03*
X200540000Y-144340000D03*
X208560000Y-140130000D03*
X210520000Y-141890000D03*
%TD*%
%TO.C,U14*%
G36*
G01*
X84165000Y-108825000D02*
X83865000Y-108825000D01*
G75*
G02*
X83715000Y-108675000I0J150000D01*
G01*
X83715000Y-106925000D01*
G75*
G02*
X83865000Y-106775000I150000J0D01*
G01*
X84165000Y-106775000D01*
G75*
G02*
X84315000Y-106925000I0J-150000D01*
G01*
X84315000Y-108675000D01*
G75*
G02*
X84165000Y-108825000I-150000J0D01*
G01*
G37*
G36*
G01*
X85435000Y-108825000D02*
X85135000Y-108825000D01*
G75*
G02*
X84985000Y-108675000I0J150000D01*
G01*
X84985000Y-106925000D01*
G75*
G02*
X85135000Y-106775000I150000J0D01*
G01*
X85435000Y-106775000D01*
G75*
G02*
X85585000Y-106925000I0J-150000D01*
G01*
X85585000Y-108675000D01*
G75*
G02*
X85435000Y-108825000I-150000J0D01*
G01*
G37*
G36*
G01*
X86705000Y-108825000D02*
X86405000Y-108825000D01*
G75*
G02*
X86255000Y-108675000I0J150000D01*
G01*
X86255000Y-106925000D01*
G75*
G02*
X86405000Y-106775000I150000J0D01*
G01*
X86705000Y-106775000D01*
G75*
G02*
X86855000Y-106925000I0J-150000D01*
G01*
X86855000Y-108675000D01*
G75*
G02*
X86705000Y-108825000I-150000J0D01*
G01*
G37*
G36*
G01*
X87975000Y-108825000D02*
X87675000Y-108825000D01*
G75*
G02*
X87525000Y-108675000I0J150000D01*
G01*
X87525000Y-106925000D01*
G75*
G02*
X87675000Y-106775000I150000J0D01*
G01*
X87975000Y-106775000D01*
G75*
G02*
X88125000Y-106925000I0J-150000D01*
G01*
X88125000Y-108675000D01*
G75*
G02*
X87975000Y-108825000I-150000J0D01*
G01*
G37*
G36*
G01*
X89245000Y-108825000D02*
X88945000Y-108825000D01*
G75*
G02*
X88795000Y-108675000I0J150000D01*
G01*
X88795000Y-106925000D01*
G75*
G02*
X88945000Y-106775000I150000J0D01*
G01*
X89245000Y-106775000D01*
G75*
G02*
X89395000Y-106925000I0J-150000D01*
G01*
X89395000Y-108675000D01*
G75*
G02*
X89245000Y-108825000I-150000J0D01*
G01*
G37*
G36*
G01*
X90515000Y-108825000D02*
X90215000Y-108825000D01*
G75*
G02*
X90065000Y-108675000I0J150000D01*
G01*
X90065000Y-106925000D01*
G75*
G02*
X90215000Y-106775000I150000J0D01*
G01*
X90515000Y-106775000D01*
G75*
G02*
X90665000Y-106925000I0J-150000D01*
G01*
X90665000Y-108675000D01*
G75*
G02*
X90515000Y-108825000I-150000J0D01*
G01*
G37*
G36*
G01*
X91785000Y-108825000D02*
X91485000Y-108825000D01*
G75*
G02*
X91335000Y-108675000I0J150000D01*
G01*
X91335000Y-106925000D01*
G75*
G02*
X91485000Y-106775000I150000J0D01*
G01*
X91785000Y-106775000D01*
G75*
G02*
X91935000Y-106925000I0J-150000D01*
G01*
X91935000Y-108675000D01*
G75*
G02*
X91785000Y-108825000I-150000J0D01*
G01*
G37*
G36*
G01*
X93055000Y-108825000D02*
X92755000Y-108825000D01*
G75*
G02*
X92605000Y-108675000I0J150000D01*
G01*
X92605000Y-106925000D01*
G75*
G02*
X92755000Y-106775000I150000J0D01*
G01*
X93055000Y-106775000D01*
G75*
G02*
X93205000Y-106925000I0J-150000D01*
G01*
X93205000Y-108675000D01*
G75*
G02*
X93055000Y-108825000I-150000J0D01*
G01*
G37*
G36*
G01*
X94325000Y-108825000D02*
X94025000Y-108825000D01*
G75*
G02*
X93875000Y-108675000I0J150000D01*
G01*
X93875000Y-106925000D01*
G75*
G02*
X94025000Y-106775000I150000J0D01*
G01*
X94325000Y-106775000D01*
G75*
G02*
X94475000Y-106925000I0J-150000D01*
G01*
X94475000Y-108675000D01*
G75*
G02*
X94325000Y-108825000I-150000J0D01*
G01*
G37*
G36*
G01*
X95595000Y-108825000D02*
X95295000Y-108825000D01*
G75*
G02*
X95145000Y-108675000I0J150000D01*
G01*
X95145000Y-106925000D01*
G75*
G02*
X95295000Y-106775000I150000J0D01*
G01*
X95595000Y-106775000D01*
G75*
G02*
X95745000Y-106925000I0J-150000D01*
G01*
X95745000Y-108675000D01*
G75*
G02*
X95595000Y-108825000I-150000J0D01*
G01*
G37*
G36*
G01*
X96865000Y-108825000D02*
X96565000Y-108825000D01*
G75*
G02*
X96415000Y-108675000I0J150000D01*
G01*
X96415000Y-106925000D01*
G75*
G02*
X96565000Y-106775000I150000J0D01*
G01*
X96865000Y-106775000D01*
G75*
G02*
X97015000Y-106925000I0J-150000D01*
G01*
X97015000Y-108675000D01*
G75*
G02*
X96865000Y-108825000I-150000J0D01*
G01*
G37*
G36*
G01*
X98135000Y-108825000D02*
X97835000Y-108825000D01*
G75*
G02*
X97685000Y-108675000I0J150000D01*
G01*
X97685000Y-106925000D01*
G75*
G02*
X97835000Y-106775000I150000J0D01*
G01*
X98135000Y-106775000D01*
G75*
G02*
X98285000Y-106925000I0J-150000D01*
G01*
X98285000Y-108675000D01*
G75*
G02*
X98135000Y-108825000I-150000J0D01*
G01*
G37*
G36*
G01*
X98135000Y-118125000D02*
X97835000Y-118125000D01*
G75*
G02*
X97685000Y-117975000I0J150000D01*
G01*
X97685000Y-116225000D01*
G75*
G02*
X97835000Y-116075000I150000J0D01*
G01*
X98135000Y-116075000D01*
G75*
G02*
X98285000Y-116225000I0J-150000D01*
G01*
X98285000Y-117975000D01*
G75*
G02*
X98135000Y-118125000I-150000J0D01*
G01*
G37*
G36*
G01*
X96865000Y-118125000D02*
X96565000Y-118125000D01*
G75*
G02*
X96415000Y-117975000I0J150000D01*
G01*
X96415000Y-116225000D01*
G75*
G02*
X96565000Y-116075000I150000J0D01*
G01*
X96865000Y-116075000D01*
G75*
G02*
X97015000Y-116225000I0J-150000D01*
G01*
X97015000Y-117975000D01*
G75*
G02*
X96865000Y-118125000I-150000J0D01*
G01*
G37*
G36*
G01*
X95595000Y-118125000D02*
X95295000Y-118125000D01*
G75*
G02*
X95145000Y-117975000I0J150000D01*
G01*
X95145000Y-116225000D01*
G75*
G02*
X95295000Y-116075000I150000J0D01*
G01*
X95595000Y-116075000D01*
G75*
G02*
X95745000Y-116225000I0J-150000D01*
G01*
X95745000Y-117975000D01*
G75*
G02*
X95595000Y-118125000I-150000J0D01*
G01*
G37*
G36*
G01*
X94325000Y-118125000D02*
X94025000Y-118125000D01*
G75*
G02*
X93875000Y-117975000I0J150000D01*
G01*
X93875000Y-116225000D01*
G75*
G02*
X94025000Y-116075000I150000J0D01*
G01*
X94325000Y-116075000D01*
G75*
G02*
X94475000Y-116225000I0J-150000D01*
G01*
X94475000Y-117975000D01*
G75*
G02*
X94325000Y-118125000I-150000J0D01*
G01*
G37*
G36*
G01*
X93055000Y-118125000D02*
X92755000Y-118125000D01*
G75*
G02*
X92605000Y-117975000I0J150000D01*
G01*
X92605000Y-116225000D01*
G75*
G02*
X92755000Y-116075000I150000J0D01*
G01*
X93055000Y-116075000D01*
G75*
G02*
X93205000Y-116225000I0J-150000D01*
G01*
X93205000Y-117975000D01*
G75*
G02*
X93055000Y-118125000I-150000J0D01*
G01*
G37*
G36*
G01*
X91785000Y-118125000D02*
X91485000Y-118125000D01*
G75*
G02*
X91335000Y-117975000I0J150000D01*
G01*
X91335000Y-116225000D01*
G75*
G02*
X91485000Y-116075000I150000J0D01*
G01*
X91785000Y-116075000D01*
G75*
G02*
X91935000Y-116225000I0J-150000D01*
G01*
X91935000Y-117975000D01*
G75*
G02*
X91785000Y-118125000I-150000J0D01*
G01*
G37*
G36*
G01*
X90515000Y-118125000D02*
X90215000Y-118125000D01*
G75*
G02*
X90065000Y-117975000I0J150000D01*
G01*
X90065000Y-116225000D01*
G75*
G02*
X90215000Y-116075000I150000J0D01*
G01*
X90515000Y-116075000D01*
G75*
G02*
X90665000Y-116225000I0J-150000D01*
G01*
X90665000Y-117975000D01*
G75*
G02*
X90515000Y-118125000I-150000J0D01*
G01*
G37*
G36*
G01*
X89245000Y-118125000D02*
X88945000Y-118125000D01*
G75*
G02*
X88795000Y-117975000I0J150000D01*
G01*
X88795000Y-116225000D01*
G75*
G02*
X88945000Y-116075000I150000J0D01*
G01*
X89245000Y-116075000D01*
G75*
G02*
X89395000Y-116225000I0J-150000D01*
G01*
X89395000Y-117975000D01*
G75*
G02*
X89245000Y-118125000I-150000J0D01*
G01*
G37*
G36*
G01*
X87975000Y-118125000D02*
X87675000Y-118125000D01*
G75*
G02*
X87525000Y-117975000I0J150000D01*
G01*
X87525000Y-116225000D01*
G75*
G02*
X87675000Y-116075000I150000J0D01*
G01*
X87975000Y-116075000D01*
G75*
G02*
X88125000Y-116225000I0J-150000D01*
G01*
X88125000Y-117975000D01*
G75*
G02*
X87975000Y-118125000I-150000J0D01*
G01*
G37*
G36*
G01*
X86705000Y-118125000D02*
X86405000Y-118125000D01*
G75*
G02*
X86255000Y-117975000I0J150000D01*
G01*
X86255000Y-116225000D01*
G75*
G02*
X86405000Y-116075000I150000J0D01*
G01*
X86705000Y-116075000D01*
G75*
G02*
X86855000Y-116225000I0J-150000D01*
G01*
X86855000Y-117975000D01*
G75*
G02*
X86705000Y-118125000I-150000J0D01*
G01*
G37*
G36*
G01*
X85435000Y-118125000D02*
X85135000Y-118125000D01*
G75*
G02*
X84985000Y-117975000I0J150000D01*
G01*
X84985000Y-116225000D01*
G75*
G02*
X85135000Y-116075000I150000J0D01*
G01*
X85435000Y-116075000D01*
G75*
G02*
X85585000Y-116225000I0J-150000D01*
G01*
X85585000Y-117975000D01*
G75*
G02*
X85435000Y-118125000I-150000J0D01*
G01*
G37*
G36*
G01*
X84165000Y-118125000D02*
X83865000Y-118125000D01*
G75*
G02*
X83715000Y-117975000I0J150000D01*
G01*
X83715000Y-116225000D01*
G75*
G02*
X83865000Y-116075000I150000J0D01*
G01*
X84165000Y-116075000D01*
G75*
G02*
X84315000Y-116225000I0J-150000D01*
G01*
X84315000Y-117975000D01*
G75*
G02*
X84165000Y-118125000I-150000J0D01*
G01*
G37*
%TD*%
%TO.C,U15*%
G36*
G01*
X83325000Y-129060000D02*
X83325000Y-129360000D01*
G75*
G02*
X83175000Y-129510000I-150000J0D01*
G01*
X81500000Y-129510000D01*
G75*
G02*
X81350000Y-129360000I0J150000D01*
G01*
X81350000Y-129060000D01*
G75*
G02*
X81500000Y-128910000I150000J0D01*
G01*
X83175000Y-128910000D01*
G75*
G02*
X83325000Y-129060000I0J-150000D01*
G01*
G37*
G36*
G01*
X83325000Y-127790000D02*
X83325000Y-128090000D01*
G75*
G02*
X83175000Y-128240000I-150000J0D01*
G01*
X81500000Y-128240000D01*
G75*
G02*
X81350000Y-128090000I0J150000D01*
G01*
X81350000Y-127790000D01*
G75*
G02*
X81500000Y-127640000I150000J0D01*
G01*
X83175000Y-127640000D01*
G75*
G02*
X83325000Y-127790000I0J-150000D01*
G01*
G37*
G36*
G01*
X83325000Y-126520000D02*
X83325000Y-126820000D01*
G75*
G02*
X83175000Y-126970000I-150000J0D01*
G01*
X81500000Y-126970000D01*
G75*
G02*
X81350000Y-126820000I0J150000D01*
G01*
X81350000Y-126520000D01*
G75*
G02*
X81500000Y-126370000I150000J0D01*
G01*
X83175000Y-126370000D01*
G75*
G02*
X83325000Y-126520000I0J-150000D01*
G01*
G37*
G36*
G01*
X83325000Y-125250000D02*
X83325000Y-125550000D01*
G75*
G02*
X83175000Y-125700000I-150000J0D01*
G01*
X81500000Y-125700000D01*
G75*
G02*
X81350000Y-125550000I0J150000D01*
G01*
X81350000Y-125250000D01*
G75*
G02*
X81500000Y-125100000I150000J0D01*
G01*
X83175000Y-125100000D01*
G75*
G02*
X83325000Y-125250000I0J-150000D01*
G01*
G37*
G36*
G01*
X83325000Y-123980000D02*
X83325000Y-124280000D01*
G75*
G02*
X83175000Y-124430000I-150000J0D01*
G01*
X81500000Y-124430000D01*
G75*
G02*
X81350000Y-124280000I0J150000D01*
G01*
X81350000Y-123980000D01*
G75*
G02*
X81500000Y-123830000I150000J0D01*
G01*
X83175000Y-123830000D01*
G75*
G02*
X83325000Y-123980000I0J-150000D01*
G01*
G37*
G36*
G01*
X83325000Y-122710000D02*
X83325000Y-123010000D01*
G75*
G02*
X83175000Y-123160000I-150000J0D01*
G01*
X81500000Y-123160000D01*
G75*
G02*
X81350000Y-123010000I0J150000D01*
G01*
X81350000Y-122710000D01*
G75*
G02*
X81500000Y-122560000I150000J0D01*
G01*
X83175000Y-122560000D01*
G75*
G02*
X83325000Y-122710000I0J-150000D01*
G01*
G37*
G36*
G01*
X83325000Y-121440000D02*
X83325000Y-121740000D01*
G75*
G02*
X83175000Y-121890000I-150000J0D01*
G01*
X81500000Y-121890000D01*
G75*
G02*
X81350000Y-121740000I0J150000D01*
G01*
X81350000Y-121440000D01*
G75*
G02*
X81500000Y-121290000I150000J0D01*
G01*
X83175000Y-121290000D01*
G75*
G02*
X83325000Y-121440000I0J-150000D01*
G01*
G37*
G36*
G01*
X90250000Y-121440000D02*
X90250000Y-121740000D01*
G75*
G02*
X90100000Y-121890000I-150000J0D01*
G01*
X88425000Y-121890000D01*
G75*
G02*
X88275000Y-121740000I0J150000D01*
G01*
X88275000Y-121440000D01*
G75*
G02*
X88425000Y-121290000I150000J0D01*
G01*
X90100000Y-121290000D01*
G75*
G02*
X90250000Y-121440000I0J-150000D01*
G01*
G37*
G36*
G01*
X90250000Y-122710000D02*
X90250000Y-123010000D01*
G75*
G02*
X90100000Y-123160000I-150000J0D01*
G01*
X88425000Y-123160000D01*
G75*
G02*
X88275000Y-123010000I0J150000D01*
G01*
X88275000Y-122710000D01*
G75*
G02*
X88425000Y-122560000I150000J0D01*
G01*
X90100000Y-122560000D01*
G75*
G02*
X90250000Y-122710000I0J-150000D01*
G01*
G37*
G36*
G01*
X90250000Y-123980000D02*
X90250000Y-124280000D01*
G75*
G02*
X90100000Y-124430000I-150000J0D01*
G01*
X88425000Y-124430000D01*
G75*
G02*
X88275000Y-124280000I0J150000D01*
G01*
X88275000Y-123980000D01*
G75*
G02*
X88425000Y-123830000I150000J0D01*
G01*
X90100000Y-123830000D01*
G75*
G02*
X90250000Y-123980000I0J-150000D01*
G01*
G37*
G36*
G01*
X90250000Y-125250000D02*
X90250000Y-125550000D01*
G75*
G02*
X90100000Y-125700000I-150000J0D01*
G01*
X88425000Y-125700000D01*
G75*
G02*
X88275000Y-125550000I0J150000D01*
G01*
X88275000Y-125250000D01*
G75*
G02*
X88425000Y-125100000I150000J0D01*
G01*
X90100000Y-125100000D01*
G75*
G02*
X90250000Y-125250000I0J-150000D01*
G01*
G37*
G36*
G01*
X90250000Y-126520000D02*
X90250000Y-126820000D01*
G75*
G02*
X90100000Y-126970000I-150000J0D01*
G01*
X88425000Y-126970000D01*
G75*
G02*
X88275000Y-126820000I0J150000D01*
G01*
X88275000Y-126520000D01*
G75*
G02*
X88425000Y-126370000I150000J0D01*
G01*
X90100000Y-126370000D01*
G75*
G02*
X90250000Y-126520000I0J-150000D01*
G01*
G37*
G36*
G01*
X90250000Y-127790000D02*
X90250000Y-128090000D01*
G75*
G02*
X90100000Y-128240000I-150000J0D01*
G01*
X88425000Y-128240000D01*
G75*
G02*
X88275000Y-128090000I0J150000D01*
G01*
X88275000Y-127790000D01*
G75*
G02*
X88425000Y-127640000I150000J0D01*
G01*
X90100000Y-127640000D01*
G75*
G02*
X90250000Y-127790000I0J-150000D01*
G01*
G37*
G36*
G01*
X90250000Y-129060000D02*
X90250000Y-129360000D01*
G75*
G02*
X90100000Y-129510000I-150000J0D01*
G01*
X88425000Y-129510000D01*
G75*
G02*
X88275000Y-129360000I0J150000D01*
G01*
X88275000Y-129060000D01*
G75*
G02*
X88425000Y-128910000I150000J0D01*
G01*
X90100000Y-128910000D01*
G75*
G02*
X90250000Y-129060000I0J-150000D01*
G01*
G37*
%TD*%
%TO.C,U16*%
G36*
G01*
X100600000Y-129060000D02*
X100600000Y-129360000D01*
G75*
G02*
X100450000Y-129510000I-150000J0D01*
G01*
X98775000Y-129510000D01*
G75*
G02*
X98625000Y-129360000I0J150000D01*
G01*
X98625000Y-129060000D01*
G75*
G02*
X98775000Y-128910000I150000J0D01*
G01*
X100450000Y-128910000D01*
G75*
G02*
X100600000Y-129060000I0J-150000D01*
G01*
G37*
G36*
G01*
X100600000Y-127790000D02*
X100600000Y-128090000D01*
G75*
G02*
X100450000Y-128240000I-150000J0D01*
G01*
X98775000Y-128240000D01*
G75*
G02*
X98625000Y-128090000I0J150000D01*
G01*
X98625000Y-127790000D01*
G75*
G02*
X98775000Y-127640000I150000J0D01*
G01*
X100450000Y-127640000D01*
G75*
G02*
X100600000Y-127790000I0J-150000D01*
G01*
G37*
G36*
G01*
X100600000Y-126520000D02*
X100600000Y-126820000D01*
G75*
G02*
X100450000Y-126970000I-150000J0D01*
G01*
X98775000Y-126970000D01*
G75*
G02*
X98625000Y-126820000I0J150000D01*
G01*
X98625000Y-126520000D01*
G75*
G02*
X98775000Y-126370000I150000J0D01*
G01*
X100450000Y-126370000D01*
G75*
G02*
X100600000Y-126520000I0J-150000D01*
G01*
G37*
G36*
G01*
X100600000Y-125250000D02*
X100600000Y-125550000D01*
G75*
G02*
X100450000Y-125700000I-150000J0D01*
G01*
X98775000Y-125700000D01*
G75*
G02*
X98625000Y-125550000I0J150000D01*
G01*
X98625000Y-125250000D01*
G75*
G02*
X98775000Y-125100000I150000J0D01*
G01*
X100450000Y-125100000D01*
G75*
G02*
X100600000Y-125250000I0J-150000D01*
G01*
G37*
G36*
G01*
X100600000Y-123980000D02*
X100600000Y-124280000D01*
G75*
G02*
X100450000Y-124430000I-150000J0D01*
G01*
X98775000Y-124430000D01*
G75*
G02*
X98625000Y-124280000I0J150000D01*
G01*
X98625000Y-123980000D01*
G75*
G02*
X98775000Y-123830000I150000J0D01*
G01*
X100450000Y-123830000D01*
G75*
G02*
X100600000Y-123980000I0J-150000D01*
G01*
G37*
G36*
G01*
X100600000Y-122710000D02*
X100600000Y-123010000D01*
G75*
G02*
X100450000Y-123160000I-150000J0D01*
G01*
X98775000Y-123160000D01*
G75*
G02*
X98625000Y-123010000I0J150000D01*
G01*
X98625000Y-122710000D01*
G75*
G02*
X98775000Y-122560000I150000J0D01*
G01*
X100450000Y-122560000D01*
G75*
G02*
X100600000Y-122710000I0J-150000D01*
G01*
G37*
G36*
G01*
X100600000Y-121440000D02*
X100600000Y-121740000D01*
G75*
G02*
X100450000Y-121890000I-150000J0D01*
G01*
X98775000Y-121890000D01*
G75*
G02*
X98625000Y-121740000I0J150000D01*
G01*
X98625000Y-121440000D01*
G75*
G02*
X98775000Y-121290000I150000J0D01*
G01*
X100450000Y-121290000D01*
G75*
G02*
X100600000Y-121440000I0J-150000D01*
G01*
G37*
G36*
G01*
X93675000Y-121440000D02*
X93675000Y-121740000D01*
G75*
G02*
X93525000Y-121890000I-150000J0D01*
G01*
X91850000Y-121890000D01*
G75*
G02*
X91700000Y-121740000I0J150000D01*
G01*
X91700000Y-121440000D01*
G75*
G02*
X91850000Y-121290000I150000J0D01*
G01*
X93525000Y-121290000D01*
G75*
G02*
X93675000Y-121440000I0J-150000D01*
G01*
G37*
G36*
G01*
X93675000Y-122710000D02*
X93675000Y-123010000D01*
G75*
G02*
X93525000Y-123160000I-150000J0D01*
G01*
X91850000Y-123160000D01*
G75*
G02*
X91700000Y-123010000I0J150000D01*
G01*
X91700000Y-122710000D01*
G75*
G02*
X91850000Y-122560000I150000J0D01*
G01*
X93525000Y-122560000D01*
G75*
G02*
X93675000Y-122710000I0J-150000D01*
G01*
G37*
G36*
G01*
X93675000Y-123980000D02*
X93675000Y-124280000D01*
G75*
G02*
X93525000Y-124430000I-150000J0D01*
G01*
X91850000Y-124430000D01*
G75*
G02*
X91700000Y-124280000I0J150000D01*
G01*
X91700000Y-123980000D01*
G75*
G02*
X91850000Y-123830000I150000J0D01*
G01*
X93525000Y-123830000D01*
G75*
G02*
X93675000Y-123980000I0J-150000D01*
G01*
G37*
G36*
G01*
X93675000Y-125250000D02*
X93675000Y-125550000D01*
G75*
G02*
X93525000Y-125700000I-150000J0D01*
G01*
X91850000Y-125700000D01*
G75*
G02*
X91700000Y-125550000I0J150000D01*
G01*
X91700000Y-125250000D01*
G75*
G02*
X91850000Y-125100000I150000J0D01*
G01*
X93525000Y-125100000D01*
G75*
G02*
X93675000Y-125250000I0J-150000D01*
G01*
G37*
G36*
G01*
X93675000Y-126520000D02*
X93675000Y-126820000D01*
G75*
G02*
X93525000Y-126970000I-150000J0D01*
G01*
X91850000Y-126970000D01*
G75*
G02*
X91700000Y-126820000I0J150000D01*
G01*
X91700000Y-126520000D01*
G75*
G02*
X91850000Y-126370000I150000J0D01*
G01*
X93525000Y-126370000D01*
G75*
G02*
X93675000Y-126520000I0J-150000D01*
G01*
G37*
G36*
G01*
X93675000Y-127790000D02*
X93675000Y-128090000D01*
G75*
G02*
X93525000Y-128240000I-150000J0D01*
G01*
X91850000Y-128240000D01*
G75*
G02*
X91700000Y-128090000I0J150000D01*
G01*
X91700000Y-127790000D01*
G75*
G02*
X91850000Y-127640000I150000J0D01*
G01*
X93525000Y-127640000D01*
G75*
G02*
X93675000Y-127790000I0J-150000D01*
G01*
G37*
G36*
G01*
X93675000Y-129060000D02*
X93675000Y-129360000D01*
G75*
G02*
X93525000Y-129510000I-150000J0D01*
G01*
X91850000Y-129510000D01*
G75*
G02*
X91700000Y-129360000I0J150000D01*
G01*
X91700000Y-129060000D01*
G75*
G02*
X91850000Y-128910000I150000J0D01*
G01*
X93525000Y-128910000D01*
G75*
G02*
X93675000Y-129060000I0J-150000D01*
G01*
G37*
%TD*%
%TO.C,U17*%
G36*
G01*
X107165000Y-108825000D02*
X106865000Y-108825000D01*
G75*
G02*
X106715000Y-108675000I0J150000D01*
G01*
X106715000Y-106925000D01*
G75*
G02*
X106865000Y-106775000I150000J0D01*
G01*
X107165000Y-106775000D01*
G75*
G02*
X107315000Y-106925000I0J-150000D01*
G01*
X107315000Y-108675000D01*
G75*
G02*
X107165000Y-108825000I-150000J0D01*
G01*
G37*
G36*
G01*
X108435000Y-108825000D02*
X108135000Y-108825000D01*
G75*
G02*
X107985000Y-108675000I0J150000D01*
G01*
X107985000Y-106925000D01*
G75*
G02*
X108135000Y-106775000I150000J0D01*
G01*
X108435000Y-106775000D01*
G75*
G02*
X108585000Y-106925000I0J-150000D01*
G01*
X108585000Y-108675000D01*
G75*
G02*
X108435000Y-108825000I-150000J0D01*
G01*
G37*
G36*
G01*
X109705000Y-108825000D02*
X109405000Y-108825000D01*
G75*
G02*
X109255000Y-108675000I0J150000D01*
G01*
X109255000Y-106925000D01*
G75*
G02*
X109405000Y-106775000I150000J0D01*
G01*
X109705000Y-106775000D01*
G75*
G02*
X109855000Y-106925000I0J-150000D01*
G01*
X109855000Y-108675000D01*
G75*
G02*
X109705000Y-108825000I-150000J0D01*
G01*
G37*
G36*
G01*
X110975000Y-108825000D02*
X110675000Y-108825000D01*
G75*
G02*
X110525000Y-108675000I0J150000D01*
G01*
X110525000Y-106925000D01*
G75*
G02*
X110675000Y-106775000I150000J0D01*
G01*
X110975000Y-106775000D01*
G75*
G02*
X111125000Y-106925000I0J-150000D01*
G01*
X111125000Y-108675000D01*
G75*
G02*
X110975000Y-108825000I-150000J0D01*
G01*
G37*
G36*
G01*
X112245000Y-108825000D02*
X111945000Y-108825000D01*
G75*
G02*
X111795000Y-108675000I0J150000D01*
G01*
X111795000Y-106925000D01*
G75*
G02*
X111945000Y-106775000I150000J0D01*
G01*
X112245000Y-106775000D01*
G75*
G02*
X112395000Y-106925000I0J-150000D01*
G01*
X112395000Y-108675000D01*
G75*
G02*
X112245000Y-108825000I-150000J0D01*
G01*
G37*
G36*
G01*
X113515000Y-108825000D02*
X113215000Y-108825000D01*
G75*
G02*
X113065000Y-108675000I0J150000D01*
G01*
X113065000Y-106925000D01*
G75*
G02*
X113215000Y-106775000I150000J0D01*
G01*
X113515000Y-106775000D01*
G75*
G02*
X113665000Y-106925000I0J-150000D01*
G01*
X113665000Y-108675000D01*
G75*
G02*
X113515000Y-108825000I-150000J0D01*
G01*
G37*
G36*
G01*
X114785000Y-108825000D02*
X114485000Y-108825000D01*
G75*
G02*
X114335000Y-108675000I0J150000D01*
G01*
X114335000Y-106925000D01*
G75*
G02*
X114485000Y-106775000I150000J0D01*
G01*
X114785000Y-106775000D01*
G75*
G02*
X114935000Y-106925000I0J-150000D01*
G01*
X114935000Y-108675000D01*
G75*
G02*
X114785000Y-108825000I-150000J0D01*
G01*
G37*
G36*
G01*
X116055000Y-108825000D02*
X115755000Y-108825000D01*
G75*
G02*
X115605000Y-108675000I0J150000D01*
G01*
X115605000Y-106925000D01*
G75*
G02*
X115755000Y-106775000I150000J0D01*
G01*
X116055000Y-106775000D01*
G75*
G02*
X116205000Y-106925000I0J-150000D01*
G01*
X116205000Y-108675000D01*
G75*
G02*
X116055000Y-108825000I-150000J0D01*
G01*
G37*
G36*
G01*
X117325000Y-108825000D02*
X117025000Y-108825000D01*
G75*
G02*
X116875000Y-108675000I0J150000D01*
G01*
X116875000Y-106925000D01*
G75*
G02*
X117025000Y-106775000I150000J0D01*
G01*
X117325000Y-106775000D01*
G75*
G02*
X117475000Y-106925000I0J-150000D01*
G01*
X117475000Y-108675000D01*
G75*
G02*
X117325000Y-108825000I-150000J0D01*
G01*
G37*
G36*
G01*
X118595000Y-108825000D02*
X118295000Y-108825000D01*
G75*
G02*
X118145000Y-108675000I0J150000D01*
G01*
X118145000Y-106925000D01*
G75*
G02*
X118295000Y-106775000I150000J0D01*
G01*
X118595000Y-106775000D01*
G75*
G02*
X118745000Y-106925000I0J-150000D01*
G01*
X118745000Y-108675000D01*
G75*
G02*
X118595000Y-108825000I-150000J0D01*
G01*
G37*
G36*
G01*
X119865000Y-108825000D02*
X119565000Y-108825000D01*
G75*
G02*
X119415000Y-108675000I0J150000D01*
G01*
X119415000Y-106925000D01*
G75*
G02*
X119565000Y-106775000I150000J0D01*
G01*
X119865000Y-106775000D01*
G75*
G02*
X120015000Y-106925000I0J-150000D01*
G01*
X120015000Y-108675000D01*
G75*
G02*
X119865000Y-108825000I-150000J0D01*
G01*
G37*
G36*
G01*
X121135000Y-108825000D02*
X120835000Y-108825000D01*
G75*
G02*
X120685000Y-108675000I0J150000D01*
G01*
X120685000Y-106925000D01*
G75*
G02*
X120835000Y-106775000I150000J0D01*
G01*
X121135000Y-106775000D01*
G75*
G02*
X121285000Y-106925000I0J-150000D01*
G01*
X121285000Y-108675000D01*
G75*
G02*
X121135000Y-108825000I-150000J0D01*
G01*
G37*
G36*
G01*
X121135000Y-118125000D02*
X120835000Y-118125000D01*
G75*
G02*
X120685000Y-117975000I0J150000D01*
G01*
X120685000Y-116225000D01*
G75*
G02*
X120835000Y-116075000I150000J0D01*
G01*
X121135000Y-116075000D01*
G75*
G02*
X121285000Y-116225000I0J-150000D01*
G01*
X121285000Y-117975000D01*
G75*
G02*
X121135000Y-118125000I-150000J0D01*
G01*
G37*
G36*
G01*
X119865000Y-118125000D02*
X119565000Y-118125000D01*
G75*
G02*
X119415000Y-117975000I0J150000D01*
G01*
X119415000Y-116225000D01*
G75*
G02*
X119565000Y-116075000I150000J0D01*
G01*
X119865000Y-116075000D01*
G75*
G02*
X120015000Y-116225000I0J-150000D01*
G01*
X120015000Y-117975000D01*
G75*
G02*
X119865000Y-118125000I-150000J0D01*
G01*
G37*
G36*
G01*
X118595000Y-118125000D02*
X118295000Y-118125000D01*
G75*
G02*
X118145000Y-117975000I0J150000D01*
G01*
X118145000Y-116225000D01*
G75*
G02*
X118295000Y-116075000I150000J0D01*
G01*
X118595000Y-116075000D01*
G75*
G02*
X118745000Y-116225000I0J-150000D01*
G01*
X118745000Y-117975000D01*
G75*
G02*
X118595000Y-118125000I-150000J0D01*
G01*
G37*
G36*
G01*
X117325000Y-118125000D02*
X117025000Y-118125000D01*
G75*
G02*
X116875000Y-117975000I0J150000D01*
G01*
X116875000Y-116225000D01*
G75*
G02*
X117025000Y-116075000I150000J0D01*
G01*
X117325000Y-116075000D01*
G75*
G02*
X117475000Y-116225000I0J-150000D01*
G01*
X117475000Y-117975000D01*
G75*
G02*
X117325000Y-118125000I-150000J0D01*
G01*
G37*
G36*
G01*
X116055000Y-118125000D02*
X115755000Y-118125000D01*
G75*
G02*
X115605000Y-117975000I0J150000D01*
G01*
X115605000Y-116225000D01*
G75*
G02*
X115755000Y-116075000I150000J0D01*
G01*
X116055000Y-116075000D01*
G75*
G02*
X116205000Y-116225000I0J-150000D01*
G01*
X116205000Y-117975000D01*
G75*
G02*
X116055000Y-118125000I-150000J0D01*
G01*
G37*
G36*
G01*
X114785000Y-118125000D02*
X114485000Y-118125000D01*
G75*
G02*
X114335000Y-117975000I0J150000D01*
G01*
X114335000Y-116225000D01*
G75*
G02*
X114485000Y-116075000I150000J0D01*
G01*
X114785000Y-116075000D01*
G75*
G02*
X114935000Y-116225000I0J-150000D01*
G01*
X114935000Y-117975000D01*
G75*
G02*
X114785000Y-118125000I-150000J0D01*
G01*
G37*
G36*
G01*
X113515000Y-118125000D02*
X113215000Y-118125000D01*
G75*
G02*
X113065000Y-117975000I0J150000D01*
G01*
X113065000Y-116225000D01*
G75*
G02*
X113215000Y-116075000I150000J0D01*
G01*
X113515000Y-116075000D01*
G75*
G02*
X113665000Y-116225000I0J-150000D01*
G01*
X113665000Y-117975000D01*
G75*
G02*
X113515000Y-118125000I-150000J0D01*
G01*
G37*
G36*
G01*
X112245000Y-118125000D02*
X111945000Y-118125000D01*
G75*
G02*
X111795000Y-117975000I0J150000D01*
G01*
X111795000Y-116225000D01*
G75*
G02*
X111945000Y-116075000I150000J0D01*
G01*
X112245000Y-116075000D01*
G75*
G02*
X112395000Y-116225000I0J-150000D01*
G01*
X112395000Y-117975000D01*
G75*
G02*
X112245000Y-118125000I-150000J0D01*
G01*
G37*
G36*
G01*
X110975000Y-118125000D02*
X110675000Y-118125000D01*
G75*
G02*
X110525000Y-117975000I0J150000D01*
G01*
X110525000Y-116225000D01*
G75*
G02*
X110675000Y-116075000I150000J0D01*
G01*
X110975000Y-116075000D01*
G75*
G02*
X111125000Y-116225000I0J-150000D01*
G01*
X111125000Y-117975000D01*
G75*
G02*
X110975000Y-118125000I-150000J0D01*
G01*
G37*
G36*
G01*
X109705000Y-118125000D02*
X109405000Y-118125000D01*
G75*
G02*
X109255000Y-117975000I0J150000D01*
G01*
X109255000Y-116225000D01*
G75*
G02*
X109405000Y-116075000I150000J0D01*
G01*
X109705000Y-116075000D01*
G75*
G02*
X109855000Y-116225000I0J-150000D01*
G01*
X109855000Y-117975000D01*
G75*
G02*
X109705000Y-118125000I-150000J0D01*
G01*
G37*
G36*
G01*
X108435000Y-118125000D02*
X108135000Y-118125000D01*
G75*
G02*
X107985000Y-117975000I0J150000D01*
G01*
X107985000Y-116225000D01*
G75*
G02*
X108135000Y-116075000I150000J0D01*
G01*
X108435000Y-116075000D01*
G75*
G02*
X108585000Y-116225000I0J-150000D01*
G01*
X108585000Y-117975000D01*
G75*
G02*
X108435000Y-118125000I-150000J0D01*
G01*
G37*
G36*
G01*
X107165000Y-118125000D02*
X106865000Y-118125000D01*
G75*
G02*
X106715000Y-117975000I0J150000D01*
G01*
X106715000Y-116225000D01*
G75*
G02*
X106865000Y-116075000I150000J0D01*
G01*
X107165000Y-116075000D01*
G75*
G02*
X107315000Y-116225000I0J-150000D01*
G01*
X107315000Y-117975000D01*
G75*
G02*
X107165000Y-118125000I-150000J0D01*
G01*
G37*
%TD*%
%TO.C,U18*%
G36*
G01*
X113250000Y-129060000D02*
X113250000Y-129360000D01*
G75*
G02*
X113100000Y-129510000I-150000J0D01*
G01*
X111425000Y-129510000D01*
G75*
G02*
X111275000Y-129360000I0J150000D01*
G01*
X111275000Y-129060000D01*
G75*
G02*
X111425000Y-128910000I150000J0D01*
G01*
X113100000Y-128910000D01*
G75*
G02*
X113250000Y-129060000I0J-150000D01*
G01*
G37*
G36*
G01*
X113250000Y-127790000D02*
X113250000Y-128090000D01*
G75*
G02*
X113100000Y-128240000I-150000J0D01*
G01*
X111425000Y-128240000D01*
G75*
G02*
X111275000Y-128090000I0J150000D01*
G01*
X111275000Y-127790000D01*
G75*
G02*
X111425000Y-127640000I150000J0D01*
G01*
X113100000Y-127640000D01*
G75*
G02*
X113250000Y-127790000I0J-150000D01*
G01*
G37*
G36*
G01*
X113250000Y-126520000D02*
X113250000Y-126820000D01*
G75*
G02*
X113100000Y-126970000I-150000J0D01*
G01*
X111425000Y-126970000D01*
G75*
G02*
X111275000Y-126820000I0J150000D01*
G01*
X111275000Y-126520000D01*
G75*
G02*
X111425000Y-126370000I150000J0D01*
G01*
X113100000Y-126370000D01*
G75*
G02*
X113250000Y-126520000I0J-150000D01*
G01*
G37*
G36*
G01*
X113250000Y-125250000D02*
X113250000Y-125550000D01*
G75*
G02*
X113100000Y-125700000I-150000J0D01*
G01*
X111425000Y-125700000D01*
G75*
G02*
X111275000Y-125550000I0J150000D01*
G01*
X111275000Y-125250000D01*
G75*
G02*
X111425000Y-125100000I150000J0D01*
G01*
X113100000Y-125100000D01*
G75*
G02*
X113250000Y-125250000I0J-150000D01*
G01*
G37*
G36*
G01*
X113250000Y-123980000D02*
X113250000Y-124280000D01*
G75*
G02*
X113100000Y-124430000I-150000J0D01*
G01*
X111425000Y-124430000D01*
G75*
G02*
X111275000Y-124280000I0J150000D01*
G01*
X111275000Y-123980000D01*
G75*
G02*
X111425000Y-123830000I150000J0D01*
G01*
X113100000Y-123830000D01*
G75*
G02*
X113250000Y-123980000I0J-150000D01*
G01*
G37*
G36*
G01*
X113250000Y-122710000D02*
X113250000Y-123010000D01*
G75*
G02*
X113100000Y-123160000I-150000J0D01*
G01*
X111425000Y-123160000D01*
G75*
G02*
X111275000Y-123010000I0J150000D01*
G01*
X111275000Y-122710000D01*
G75*
G02*
X111425000Y-122560000I150000J0D01*
G01*
X113100000Y-122560000D01*
G75*
G02*
X113250000Y-122710000I0J-150000D01*
G01*
G37*
G36*
G01*
X113250000Y-121440000D02*
X113250000Y-121740000D01*
G75*
G02*
X113100000Y-121890000I-150000J0D01*
G01*
X111425000Y-121890000D01*
G75*
G02*
X111275000Y-121740000I0J150000D01*
G01*
X111275000Y-121440000D01*
G75*
G02*
X111425000Y-121290000I150000J0D01*
G01*
X113100000Y-121290000D01*
G75*
G02*
X113250000Y-121440000I0J-150000D01*
G01*
G37*
G36*
G01*
X106325000Y-121440000D02*
X106325000Y-121740000D01*
G75*
G02*
X106175000Y-121890000I-150000J0D01*
G01*
X104500000Y-121890000D01*
G75*
G02*
X104350000Y-121740000I0J150000D01*
G01*
X104350000Y-121440000D01*
G75*
G02*
X104500000Y-121290000I150000J0D01*
G01*
X106175000Y-121290000D01*
G75*
G02*
X106325000Y-121440000I0J-150000D01*
G01*
G37*
G36*
G01*
X106325000Y-122710000D02*
X106325000Y-123010000D01*
G75*
G02*
X106175000Y-123160000I-150000J0D01*
G01*
X104500000Y-123160000D01*
G75*
G02*
X104350000Y-123010000I0J150000D01*
G01*
X104350000Y-122710000D01*
G75*
G02*
X104500000Y-122560000I150000J0D01*
G01*
X106175000Y-122560000D01*
G75*
G02*
X106325000Y-122710000I0J-150000D01*
G01*
G37*
G36*
G01*
X106325000Y-123980000D02*
X106325000Y-124280000D01*
G75*
G02*
X106175000Y-124430000I-150000J0D01*
G01*
X104500000Y-124430000D01*
G75*
G02*
X104350000Y-124280000I0J150000D01*
G01*
X104350000Y-123980000D01*
G75*
G02*
X104500000Y-123830000I150000J0D01*
G01*
X106175000Y-123830000D01*
G75*
G02*
X106325000Y-123980000I0J-150000D01*
G01*
G37*
G36*
G01*
X106325000Y-125250000D02*
X106325000Y-125550000D01*
G75*
G02*
X106175000Y-125700000I-150000J0D01*
G01*
X104500000Y-125700000D01*
G75*
G02*
X104350000Y-125550000I0J150000D01*
G01*
X104350000Y-125250000D01*
G75*
G02*
X104500000Y-125100000I150000J0D01*
G01*
X106175000Y-125100000D01*
G75*
G02*
X106325000Y-125250000I0J-150000D01*
G01*
G37*
G36*
G01*
X106325000Y-126520000D02*
X106325000Y-126820000D01*
G75*
G02*
X106175000Y-126970000I-150000J0D01*
G01*
X104500000Y-126970000D01*
G75*
G02*
X104350000Y-126820000I0J150000D01*
G01*
X104350000Y-126520000D01*
G75*
G02*
X104500000Y-126370000I150000J0D01*
G01*
X106175000Y-126370000D01*
G75*
G02*
X106325000Y-126520000I0J-150000D01*
G01*
G37*
G36*
G01*
X106325000Y-127790000D02*
X106325000Y-128090000D01*
G75*
G02*
X106175000Y-128240000I-150000J0D01*
G01*
X104500000Y-128240000D01*
G75*
G02*
X104350000Y-128090000I0J150000D01*
G01*
X104350000Y-127790000D01*
G75*
G02*
X104500000Y-127640000I150000J0D01*
G01*
X106175000Y-127640000D01*
G75*
G02*
X106325000Y-127790000I0J-150000D01*
G01*
G37*
G36*
G01*
X106325000Y-129060000D02*
X106325000Y-129360000D01*
G75*
G02*
X106175000Y-129510000I-150000J0D01*
G01*
X104500000Y-129510000D01*
G75*
G02*
X104350000Y-129360000I0J150000D01*
G01*
X104350000Y-129060000D01*
G75*
G02*
X104500000Y-128910000I150000J0D01*
G01*
X106175000Y-128910000D01*
G75*
G02*
X106325000Y-129060000I0J-150000D01*
G01*
G37*
%TD*%
%TO.C,U19*%
G36*
G01*
X123600000Y-129060000D02*
X123600000Y-129360000D01*
G75*
G02*
X123450000Y-129510000I-150000J0D01*
G01*
X121775000Y-129510000D01*
G75*
G02*
X121625000Y-129360000I0J150000D01*
G01*
X121625000Y-129060000D01*
G75*
G02*
X121775000Y-128910000I150000J0D01*
G01*
X123450000Y-128910000D01*
G75*
G02*
X123600000Y-129060000I0J-150000D01*
G01*
G37*
G36*
G01*
X123600000Y-127790000D02*
X123600000Y-128090000D01*
G75*
G02*
X123450000Y-128240000I-150000J0D01*
G01*
X121775000Y-128240000D01*
G75*
G02*
X121625000Y-128090000I0J150000D01*
G01*
X121625000Y-127790000D01*
G75*
G02*
X121775000Y-127640000I150000J0D01*
G01*
X123450000Y-127640000D01*
G75*
G02*
X123600000Y-127790000I0J-150000D01*
G01*
G37*
G36*
G01*
X123600000Y-126520000D02*
X123600000Y-126820000D01*
G75*
G02*
X123450000Y-126970000I-150000J0D01*
G01*
X121775000Y-126970000D01*
G75*
G02*
X121625000Y-126820000I0J150000D01*
G01*
X121625000Y-126520000D01*
G75*
G02*
X121775000Y-126370000I150000J0D01*
G01*
X123450000Y-126370000D01*
G75*
G02*
X123600000Y-126520000I0J-150000D01*
G01*
G37*
G36*
G01*
X123600000Y-125250000D02*
X123600000Y-125550000D01*
G75*
G02*
X123450000Y-125700000I-150000J0D01*
G01*
X121775000Y-125700000D01*
G75*
G02*
X121625000Y-125550000I0J150000D01*
G01*
X121625000Y-125250000D01*
G75*
G02*
X121775000Y-125100000I150000J0D01*
G01*
X123450000Y-125100000D01*
G75*
G02*
X123600000Y-125250000I0J-150000D01*
G01*
G37*
G36*
G01*
X123600000Y-123980000D02*
X123600000Y-124280000D01*
G75*
G02*
X123450000Y-124430000I-150000J0D01*
G01*
X121775000Y-124430000D01*
G75*
G02*
X121625000Y-124280000I0J150000D01*
G01*
X121625000Y-123980000D01*
G75*
G02*
X121775000Y-123830000I150000J0D01*
G01*
X123450000Y-123830000D01*
G75*
G02*
X123600000Y-123980000I0J-150000D01*
G01*
G37*
G36*
G01*
X123600000Y-122710000D02*
X123600000Y-123010000D01*
G75*
G02*
X123450000Y-123160000I-150000J0D01*
G01*
X121775000Y-123160000D01*
G75*
G02*
X121625000Y-123010000I0J150000D01*
G01*
X121625000Y-122710000D01*
G75*
G02*
X121775000Y-122560000I150000J0D01*
G01*
X123450000Y-122560000D01*
G75*
G02*
X123600000Y-122710000I0J-150000D01*
G01*
G37*
G36*
G01*
X123600000Y-121440000D02*
X123600000Y-121740000D01*
G75*
G02*
X123450000Y-121890000I-150000J0D01*
G01*
X121775000Y-121890000D01*
G75*
G02*
X121625000Y-121740000I0J150000D01*
G01*
X121625000Y-121440000D01*
G75*
G02*
X121775000Y-121290000I150000J0D01*
G01*
X123450000Y-121290000D01*
G75*
G02*
X123600000Y-121440000I0J-150000D01*
G01*
G37*
G36*
G01*
X116675000Y-121440000D02*
X116675000Y-121740000D01*
G75*
G02*
X116525000Y-121890000I-150000J0D01*
G01*
X114850000Y-121890000D01*
G75*
G02*
X114700000Y-121740000I0J150000D01*
G01*
X114700000Y-121440000D01*
G75*
G02*
X114850000Y-121290000I150000J0D01*
G01*
X116525000Y-121290000D01*
G75*
G02*
X116675000Y-121440000I0J-150000D01*
G01*
G37*
G36*
G01*
X116675000Y-122710000D02*
X116675000Y-123010000D01*
G75*
G02*
X116525000Y-123160000I-150000J0D01*
G01*
X114850000Y-123160000D01*
G75*
G02*
X114700000Y-123010000I0J150000D01*
G01*
X114700000Y-122710000D01*
G75*
G02*
X114850000Y-122560000I150000J0D01*
G01*
X116525000Y-122560000D01*
G75*
G02*
X116675000Y-122710000I0J-150000D01*
G01*
G37*
G36*
G01*
X116675000Y-123980000D02*
X116675000Y-124280000D01*
G75*
G02*
X116525000Y-124430000I-150000J0D01*
G01*
X114850000Y-124430000D01*
G75*
G02*
X114700000Y-124280000I0J150000D01*
G01*
X114700000Y-123980000D01*
G75*
G02*
X114850000Y-123830000I150000J0D01*
G01*
X116525000Y-123830000D01*
G75*
G02*
X116675000Y-123980000I0J-150000D01*
G01*
G37*
G36*
G01*
X116675000Y-125250000D02*
X116675000Y-125550000D01*
G75*
G02*
X116525000Y-125700000I-150000J0D01*
G01*
X114850000Y-125700000D01*
G75*
G02*
X114700000Y-125550000I0J150000D01*
G01*
X114700000Y-125250000D01*
G75*
G02*
X114850000Y-125100000I150000J0D01*
G01*
X116525000Y-125100000D01*
G75*
G02*
X116675000Y-125250000I0J-150000D01*
G01*
G37*
G36*
G01*
X116675000Y-126520000D02*
X116675000Y-126820000D01*
G75*
G02*
X116525000Y-126970000I-150000J0D01*
G01*
X114850000Y-126970000D01*
G75*
G02*
X114700000Y-126820000I0J150000D01*
G01*
X114700000Y-126520000D01*
G75*
G02*
X114850000Y-126370000I150000J0D01*
G01*
X116525000Y-126370000D01*
G75*
G02*
X116675000Y-126520000I0J-150000D01*
G01*
G37*
G36*
G01*
X116675000Y-127790000D02*
X116675000Y-128090000D01*
G75*
G02*
X116525000Y-128240000I-150000J0D01*
G01*
X114850000Y-128240000D01*
G75*
G02*
X114700000Y-128090000I0J150000D01*
G01*
X114700000Y-127790000D01*
G75*
G02*
X114850000Y-127640000I150000J0D01*
G01*
X116525000Y-127640000D01*
G75*
G02*
X116675000Y-127790000I0J-150000D01*
G01*
G37*
G36*
G01*
X116675000Y-129060000D02*
X116675000Y-129360000D01*
G75*
G02*
X116525000Y-129510000I-150000J0D01*
G01*
X114850000Y-129510000D01*
G75*
G02*
X114700000Y-129360000I0J150000D01*
G01*
X114700000Y-129060000D01*
G75*
G02*
X114850000Y-128910000I150000J0D01*
G01*
X116525000Y-128910000D01*
G75*
G02*
X116675000Y-129060000I0J-150000D01*
G01*
G37*
%TD*%
%TO.C,U20*%
G36*
G01*
X130165000Y-108825000D02*
X129865000Y-108825000D01*
G75*
G02*
X129715000Y-108675000I0J150000D01*
G01*
X129715000Y-106925000D01*
G75*
G02*
X129865000Y-106775000I150000J0D01*
G01*
X130165000Y-106775000D01*
G75*
G02*
X130315000Y-106925000I0J-150000D01*
G01*
X130315000Y-108675000D01*
G75*
G02*
X130165000Y-108825000I-150000J0D01*
G01*
G37*
G36*
G01*
X131435000Y-108825000D02*
X131135000Y-108825000D01*
G75*
G02*
X130985000Y-108675000I0J150000D01*
G01*
X130985000Y-106925000D01*
G75*
G02*
X131135000Y-106775000I150000J0D01*
G01*
X131435000Y-106775000D01*
G75*
G02*
X131585000Y-106925000I0J-150000D01*
G01*
X131585000Y-108675000D01*
G75*
G02*
X131435000Y-108825000I-150000J0D01*
G01*
G37*
G36*
G01*
X132705000Y-108825000D02*
X132405000Y-108825000D01*
G75*
G02*
X132255000Y-108675000I0J150000D01*
G01*
X132255000Y-106925000D01*
G75*
G02*
X132405000Y-106775000I150000J0D01*
G01*
X132705000Y-106775000D01*
G75*
G02*
X132855000Y-106925000I0J-150000D01*
G01*
X132855000Y-108675000D01*
G75*
G02*
X132705000Y-108825000I-150000J0D01*
G01*
G37*
G36*
G01*
X133975000Y-108825000D02*
X133675000Y-108825000D01*
G75*
G02*
X133525000Y-108675000I0J150000D01*
G01*
X133525000Y-106925000D01*
G75*
G02*
X133675000Y-106775000I150000J0D01*
G01*
X133975000Y-106775000D01*
G75*
G02*
X134125000Y-106925000I0J-150000D01*
G01*
X134125000Y-108675000D01*
G75*
G02*
X133975000Y-108825000I-150000J0D01*
G01*
G37*
G36*
G01*
X135245000Y-108825000D02*
X134945000Y-108825000D01*
G75*
G02*
X134795000Y-108675000I0J150000D01*
G01*
X134795000Y-106925000D01*
G75*
G02*
X134945000Y-106775000I150000J0D01*
G01*
X135245000Y-106775000D01*
G75*
G02*
X135395000Y-106925000I0J-150000D01*
G01*
X135395000Y-108675000D01*
G75*
G02*
X135245000Y-108825000I-150000J0D01*
G01*
G37*
G36*
G01*
X136515000Y-108825000D02*
X136215000Y-108825000D01*
G75*
G02*
X136065000Y-108675000I0J150000D01*
G01*
X136065000Y-106925000D01*
G75*
G02*
X136215000Y-106775000I150000J0D01*
G01*
X136515000Y-106775000D01*
G75*
G02*
X136665000Y-106925000I0J-150000D01*
G01*
X136665000Y-108675000D01*
G75*
G02*
X136515000Y-108825000I-150000J0D01*
G01*
G37*
G36*
G01*
X137785000Y-108825000D02*
X137485000Y-108825000D01*
G75*
G02*
X137335000Y-108675000I0J150000D01*
G01*
X137335000Y-106925000D01*
G75*
G02*
X137485000Y-106775000I150000J0D01*
G01*
X137785000Y-106775000D01*
G75*
G02*
X137935000Y-106925000I0J-150000D01*
G01*
X137935000Y-108675000D01*
G75*
G02*
X137785000Y-108825000I-150000J0D01*
G01*
G37*
G36*
G01*
X139055000Y-108825000D02*
X138755000Y-108825000D01*
G75*
G02*
X138605000Y-108675000I0J150000D01*
G01*
X138605000Y-106925000D01*
G75*
G02*
X138755000Y-106775000I150000J0D01*
G01*
X139055000Y-106775000D01*
G75*
G02*
X139205000Y-106925000I0J-150000D01*
G01*
X139205000Y-108675000D01*
G75*
G02*
X139055000Y-108825000I-150000J0D01*
G01*
G37*
G36*
G01*
X140325000Y-108825000D02*
X140025000Y-108825000D01*
G75*
G02*
X139875000Y-108675000I0J150000D01*
G01*
X139875000Y-106925000D01*
G75*
G02*
X140025000Y-106775000I150000J0D01*
G01*
X140325000Y-106775000D01*
G75*
G02*
X140475000Y-106925000I0J-150000D01*
G01*
X140475000Y-108675000D01*
G75*
G02*
X140325000Y-108825000I-150000J0D01*
G01*
G37*
G36*
G01*
X141595000Y-108825000D02*
X141295000Y-108825000D01*
G75*
G02*
X141145000Y-108675000I0J150000D01*
G01*
X141145000Y-106925000D01*
G75*
G02*
X141295000Y-106775000I150000J0D01*
G01*
X141595000Y-106775000D01*
G75*
G02*
X141745000Y-106925000I0J-150000D01*
G01*
X141745000Y-108675000D01*
G75*
G02*
X141595000Y-108825000I-150000J0D01*
G01*
G37*
G36*
G01*
X142865000Y-108825000D02*
X142565000Y-108825000D01*
G75*
G02*
X142415000Y-108675000I0J150000D01*
G01*
X142415000Y-106925000D01*
G75*
G02*
X142565000Y-106775000I150000J0D01*
G01*
X142865000Y-106775000D01*
G75*
G02*
X143015000Y-106925000I0J-150000D01*
G01*
X143015000Y-108675000D01*
G75*
G02*
X142865000Y-108825000I-150000J0D01*
G01*
G37*
G36*
G01*
X144135000Y-108825000D02*
X143835000Y-108825000D01*
G75*
G02*
X143685000Y-108675000I0J150000D01*
G01*
X143685000Y-106925000D01*
G75*
G02*
X143835000Y-106775000I150000J0D01*
G01*
X144135000Y-106775000D01*
G75*
G02*
X144285000Y-106925000I0J-150000D01*
G01*
X144285000Y-108675000D01*
G75*
G02*
X144135000Y-108825000I-150000J0D01*
G01*
G37*
G36*
G01*
X144135000Y-118125000D02*
X143835000Y-118125000D01*
G75*
G02*
X143685000Y-117975000I0J150000D01*
G01*
X143685000Y-116225000D01*
G75*
G02*
X143835000Y-116075000I150000J0D01*
G01*
X144135000Y-116075000D01*
G75*
G02*
X144285000Y-116225000I0J-150000D01*
G01*
X144285000Y-117975000D01*
G75*
G02*
X144135000Y-118125000I-150000J0D01*
G01*
G37*
G36*
G01*
X142865000Y-118125000D02*
X142565000Y-118125000D01*
G75*
G02*
X142415000Y-117975000I0J150000D01*
G01*
X142415000Y-116225000D01*
G75*
G02*
X142565000Y-116075000I150000J0D01*
G01*
X142865000Y-116075000D01*
G75*
G02*
X143015000Y-116225000I0J-150000D01*
G01*
X143015000Y-117975000D01*
G75*
G02*
X142865000Y-118125000I-150000J0D01*
G01*
G37*
G36*
G01*
X141595000Y-118125000D02*
X141295000Y-118125000D01*
G75*
G02*
X141145000Y-117975000I0J150000D01*
G01*
X141145000Y-116225000D01*
G75*
G02*
X141295000Y-116075000I150000J0D01*
G01*
X141595000Y-116075000D01*
G75*
G02*
X141745000Y-116225000I0J-150000D01*
G01*
X141745000Y-117975000D01*
G75*
G02*
X141595000Y-118125000I-150000J0D01*
G01*
G37*
G36*
G01*
X140325000Y-118125000D02*
X140025000Y-118125000D01*
G75*
G02*
X139875000Y-117975000I0J150000D01*
G01*
X139875000Y-116225000D01*
G75*
G02*
X140025000Y-116075000I150000J0D01*
G01*
X140325000Y-116075000D01*
G75*
G02*
X140475000Y-116225000I0J-150000D01*
G01*
X140475000Y-117975000D01*
G75*
G02*
X140325000Y-118125000I-150000J0D01*
G01*
G37*
G36*
G01*
X139055000Y-118125000D02*
X138755000Y-118125000D01*
G75*
G02*
X138605000Y-117975000I0J150000D01*
G01*
X138605000Y-116225000D01*
G75*
G02*
X138755000Y-116075000I150000J0D01*
G01*
X139055000Y-116075000D01*
G75*
G02*
X139205000Y-116225000I0J-150000D01*
G01*
X139205000Y-117975000D01*
G75*
G02*
X139055000Y-118125000I-150000J0D01*
G01*
G37*
G36*
G01*
X137785000Y-118125000D02*
X137485000Y-118125000D01*
G75*
G02*
X137335000Y-117975000I0J150000D01*
G01*
X137335000Y-116225000D01*
G75*
G02*
X137485000Y-116075000I150000J0D01*
G01*
X137785000Y-116075000D01*
G75*
G02*
X137935000Y-116225000I0J-150000D01*
G01*
X137935000Y-117975000D01*
G75*
G02*
X137785000Y-118125000I-150000J0D01*
G01*
G37*
G36*
G01*
X136515000Y-118125000D02*
X136215000Y-118125000D01*
G75*
G02*
X136065000Y-117975000I0J150000D01*
G01*
X136065000Y-116225000D01*
G75*
G02*
X136215000Y-116075000I150000J0D01*
G01*
X136515000Y-116075000D01*
G75*
G02*
X136665000Y-116225000I0J-150000D01*
G01*
X136665000Y-117975000D01*
G75*
G02*
X136515000Y-118125000I-150000J0D01*
G01*
G37*
G36*
G01*
X135245000Y-118125000D02*
X134945000Y-118125000D01*
G75*
G02*
X134795000Y-117975000I0J150000D01*
G01*
X134795000Y-116225000D01*
G75*
G02*
X134945000Y-116075000I150000J0D01*
G01*
X135245000Y-116075000D01*
G75*
G02*
X135395000Y-116225000I0J-150000D01*
G01*
X135395000Y-117975000D01*
G75*
G02*
X135245000Y-118125000I-150000J0D01*
G01*
G37*
G36*
G01*
X133975000Y-118125000D02*
X133675000Y-118125000D01*
G75*
G02*
X133525000Y-117975000I0J150000D01*
G01*
X133525000Y-116225000D01*
G75*
G02*
X133675000Y-116075000I150000J0D01*
G01*
X133975000Y-116075000D01*
G75*
G02*
X134125000Y-116225000I0J-150000D01*
G01*
X134125000Y-117975000D01*
G75*
G02*
X133975000Y-118125000I-150000J0D01*
G01*
G37*
G36*
G01*
X132705000Y-118125000D02*
X132405000Y-118125000D01*
G75*
G02*
X132255000Y-117975000I0J150000D01*
G01*
X132255000Y-116225000D01*
G75*
G02*
X132405000Y-116075000I150000J0D01*
G01*
X132705000Y-116075000D01*
G75*
G02*
X132855000Y-116225000I0J-150000D01*
G01*
X132855000Y-117975000D01*
G75*
G02*
X132705000Y-118125000I-150000J0D01*
G01*
G37*
G36*
G01*
X131435000Y-118125000D02*
X131135000Y-118125000D01*
G75*
G02*
X130985000Y-117975000I0J150000D01*
G01*
X130985000Y-116225000D01*
G75*
G02*
X131135000Y-116075000I150000J0D01*
G01*
X131435000Y-116075000D01*
G75*
G02*
X131585000Y-116225000I0J-150000D01*
G01*
X131585000Y-117975000D01*
G75*
G02*
X131435000Y-118125000I-150000J0D01*
G01*
G37*
G36*
G01*
X130165000Y-118125000D02*
X129865000Y-118125000D01*
G75*
G02*
X129715000Y-117975000I0J150000D01*
G01*
X129715000Y-116225000D01*
G75*
G02*
X129865000Y-116075000I150000J0D01*
G01*
X130165000Y-116075000D01*
G75*
G02*
X130315000Y-116225000I0J-150000D01*
G01*
X130315000Y-117975000D01*
G75*
G02*
X130165000Y-118125000I-150000J0D01*
G01*
G37*
%TD*%
%TO.C,U21*%
G36*
G01*
X129325000Y-129060000D02*
X129325000Y-129360000D01*
G75*
G02*
X129175000Y-129510000I-150000J0D01*
G01*
X127500000Y-129510000D01*
G75*
G02*
X127350000Y-129360000I0J150000D01*
G01*
X127350000Y-129060000D01*
G75*
G02*
X127500000Y-128910000I150000J0D01*
G01*
X129175000Y-128910000D01*
G75*
G02*
X129325000Y-129060000I0J-150000D01*
G01*
G37*
G36*
G01*
X129325000Y-127790000D02*
X129325000Y-128090000D01*
G75*
G02*
X129175000Y-128240000I-150000J0D01*
G01*
X127500000Y-128240000D01*
G75*
G02*
X127350000Y-128090000I0J150000D01*
G01*
X127350000Y-127790000D01*
G75*
G02*
X127500000Y-127640000I150000J0D01*
G01*
X129175000Y-127640000D01*
G75*
G02*
X129325000Y-127790000I0J-150000D01*
G01*
G37*
G36*
G01*
X129325000Y-126520000D02*
X129325000Y-126820000D01*
G75*
G02*
X129175000Y-126970000I-150000J0D01*
G01*
X127500000Y-126970000D01*
G75*
G02*
X127350000Y-126820000I0J150000D01*
G01*
X127350000Y-126520000D01*
G75*
G02*
X127500000Y-126370000I150000J0D01*
G01*
X129175000Y-126370000D01*
G75*
G02*
X129325000Y-126520000I0J-150000D01*
G01*
G37*
G36*
G01*
X129325000Y-125250000D02*
X129325000Y-125550000D01*
G75*
G02*
X129175000Y-125700000I-150000J0D01*
G01*
X127500000Y-125700000D01*
G75*
G02*
X127350000Y-125550000I0J150000D01*
G01*
X127350000Y-125250000D01*
G75*
G02*
X127500000Y-125100000I150000J0D01*
G01*
X129175000Y-125100000D01*
G75*
G02*
X129325000Y-125250000I0J-150000D01*
G01*
G37*
G36*
G01*
X129325000Y-123980000D02*
X129325000Y-124280000D01*
G75*
G02*
X129175000Y-124430000I-150000J0D01*
G01*
X127500000Y-124430000D01*
G75*
G02*
X127350000Y-124280000I0J150000D01*
G01*
X127350000Y-123980000D01*
G75*
G02*
X127500000Y-123830000I150000J0D01*
G01*
X129175000Y-123830000D01*
G75*
G02*
X129325000Y-123980000I0J-150000D01*
G01*
G37*
G36*
G01*
X129325000Y-122710000D02*
X129325000Y-123010000D01*
G75*
G02*
X129175000Y-123160000I-150000J0D01*
G01*
X127500000Y-123160000D01*
G75*
G02*
X127350000Y-123010000I0J150000D01*
G01*
X127350000Y-122710000D01*
G75*
G02*
X127500000Y-122560000I150000J0D01*
G01*
X129175000Y-122560000D01*
G75*
G02*
X129325000Y-122710000I0J-150000D01*
G01*
G37*
G36*
G01*
X129325000Y-121440000D02*
X129325000Y-121740000D01*
G75*
G02*
X129175000Y-121890000I-150000J0D01*
G01*
X127500000Y-121890000D01*
G75*
G02*
X127350000Y-121740000I0J150000D01*
G01*
X127350000Y-121440000D01*
G75*
G02*
X127500000Y-121290000I150000J0D01*
G01*
X129175000Y-121290000D01*
G75*
G02*
X129325000Y-121440000I0J-150000D01*
G01*
G37*
G36*
G01*
X136250000Y-121440000D02*
X136250000Y-121740000D01*
G75*
G02*
X136100000Y-121890000I-150000J0D01*
G01*
X134425000Y-121890000D01*
G75*
G02*
X134275000Y-121740000I0J150000D01*
G01*
X134275000Y-121440000D01*
G75*
G02*
X134425000Y-121290000I150000J0D01*
G01*
X136100000Y-121290000D01*
G75*
G02*
X136250000Y-121440000I0J-150000D01*
G01*
G37*
G36*
G01*
X136250000Y-122710000D02*
X136250000Y-123010000D01*
G75*
G02*
X136100000Y-123160000I-150000J0D01*
G01*
X134425000Y-123160000D01*
G75*
G02*
X134275000Y-123010000I0J150000D01*
G01*
X134275000Y-122710000D01*
G75*
G02*
X134425000Y-122560000I150000J0D01*
G01*
X136100000Y-122560000D01*
G75*
G02*
X136250000Y-122710000I0J-150000D01*
G01*
G37*
G36*
G01*
X136250000Y-123980000D02*
X136250000Y-124280000D01*
G75*
G02*
X136100000Y-124430000I-150000J0D01*
G01*
X134425000Y-124430000D01*
G75*
G02*
X134275000Y-124280000I0J150000D01*
G01*
X134275000Y-123980000D01*
G75*
G02*
X134425000Y-123830000I150000J0D01*
G01*
X136100000Y-123830000D01*
G75*
G02*
X136250000Y-123980000I0J-150000D01*
G01*
G37*
G36*
G01*
X136250000Y-125250000D02*
X136250000Y-125550000D01*
G75*
G02*
X136100000Y-125700000I-150000J0D01*
G01*
X134425000Y-125700000D01*
G75*
G02*
X134275000Y-125550000I0J150000D01*
G01*
X134275000Y-125250000D01*
G75*
G02*
X134425000Y-125100000I150000J0D01*
G01*
X136100000Y-125100000D01*
G75*
G02*
X136250000Y-125250000I0J-150000D01*
G01*
G37*
G36*
G01*
X136250000Y-126520000D02*
X136250000Y-126820000D01*
G75*
G02*
X136100000Y-126970000I-150000J0D01*
G01*
X134425000Y-126970000D01*
G75*
G02*
X134275000Y-126820000I0J150000D01*
G01*
X134275000Y-126520000D01*
G75*
G02*
X134425000Y-126370000I150000J0D01*
G01*
X136100000Y-126370000D01*
G75*
G02*
X136250000Y-126520000I0J-150000D01*
G01*
G37*
G36*
G01*
X136250000Y-127790000D02*
X136250000Y-128090000D01*
G75*
G02*
X136100000Y-128240000I-150000J0D01*
G01*
X134425000Y-128240000D01*
G75*
G02*
X134275000Y-128090000I0J150000D01*
G01*
X134275000Y-127790000D01*
G75*
G02*
X134425000Y-127640000I150000J0D01*
G01*
X136100000Y-127640000D01*
G75*
G02*
X136250000Y-127790000I0J-150000D01*
G01*
G37*
G36*
G01*
X136250000Y-129060000D02*
X136250000Y-129360000D01*
G75*
G02*
X136100000Y-129510000I-150000J0D01*
G01*
X134425000Y-129510000D01*
G75*
G02*
X134275000Y-129360000I0J150000D01*
G01*
X134275000Y-129060000D01*
G75*
G02*
X134425000Y-128910000I150000J0D01*
G01*
X136100000Y-128910000D01*
G75*
G02*
X136250000Y-129060000I0J-150000D01*
G01*
G37*
%TD*%
%TO.C,U22*%
G36*
G01*
X146600000Y-129060000D02*
X146600000Y-129360000D01*
G75*
G02*
X146450000Y-129510000I-150000J0D01*
G01*
X144775000Y-129510000D01*
G75*
G02*
X144625000Y-129360000I0J150000D01*
G01*
X144625000Y-129060000D01*
G75*
G02*
X144775000Y-128910000I150000J0D01*
G01*
X146450000Y-128910000D01*
G75*
G02*
X146600000Y-129060000I0J-150000D01*
G01*
G37*
G36*
G01*
X146600000Y-127790000D02*
X146600000Y-128090000D01*
G75*
G02*
X146450000Y-128240000I-150000J0D01*
G01*
X144775000Y-128240000D01*
G75*
G02*
X144625000Y-128090000I0J150000D01*
G01*
X144625000Y-127790000D01*
G75*
G02*
X144775000Y-127640000I150000J0D01*
G01*
X146450000Y-127640000D01*
G75*
G02*
X146600000Y-127790000I0J-150000D01*
G01*
G37*
G36*
G01*
X146600000Y-126520000D02*
X146600000Y-126820000D01*
G75*
G02*
X146450000Y-126970000I-150000J0D01*
G01*
X144775000Y-126970000D01*
G75*
G02*
X144625000Y-126820000I0J150000D01*
G01*
X144625000Y-126520000D01*
G75*
G02*
X144775000Y-126370000I150000J0D01*
G01*
X146450000Y-126370000D01*
G75*
G02*
X146600000Y-126520000I0J-150000D01*
G01*
G37*
G36*
G01*
X146600000Y-125250000D02*
X146600000Y-125550000D01*
G75*
G02*
X146450000Y-125700000I-150000J0D01*
G01*
X144775000Y-125700000D01*
G75*
G02*
X144625000Y-125550000I0J150000D01*
G01*
X144625000Y-125250000D01*
G75*
G02*
X144775000Y-125100000I150000J0D01*
G01*
X146450000Y-125100000D01*
G75*
G02*
X146600000Y-125250000I0J-150000D01*
G01*
G37*
G36*
G01*
X146600000Y-123980000D02*
X146600000Y-124280000D01*
G75*
G02*
X146450000Y-124430000I-150000J0D01*
G01*
X144775000Y-124430000D01*
G75*
G02*
X144625000Y-124280000I0J150000D01*
G01*
X144625000Y-123980000D01*
G75*
G02*
X144775000Y-123830000I150000J0D01*
G01*
X146450000Y-123830000D01*
G75*
G02*
X146600000Y-123980000I0J-150000D01*
G01*
G37*
G36*
G01*
X146600000Y-122710000D02*
X146600000Y-123010000D01*
G75*
G02*
X146450000Y-123160000I-150000J0D01*
G01*
X144775000Y-123160000D01*
G75*
G02*
X144625000Y-123010000I0J150000D01*
G01*
X144625000Y-122710000D01*
G75*
G02*
X144775000Y-122560000I150000J0D01*
G01*
X146450000Y-122560000D01*
G75*
G02*
X146600000Y-122710000I0J-150000D01*
G01*
G37*
G36*
G01*
X146600000Y-121440000D02*
X146600000Y-121740000D01*
G75*
G02*
X146450000Y-121890000I-150000J0D01*
G01*
X144775000Y-121890000D01*
G75*
G02*
X144625000Y-121740000I0J150000D01*
G01*
X144625000Y-121440000D01*
G75*
G02*
X144775000Y-121290000I150000J0D01*
G01*
X146450000Y-121290000D01*
G75*
G02*
X146600000Y-121440000I0J-150000D01*
G01*
G37*
G36*
G01*
X139675000Y-121440000D02*
X139675000Y-121740000D01*
G75*
G02*
X139525000Y-121890000I-150000J0D01*
G01*
X137850000Y-121890000D01*
G75*
G02*
X137700000Y-121740000I0J150000D01*
G01*
X137700000Y-121440000D01*
G75*
G02*
X137850000Y-121290000I150000J0D01*
G01*
X139525000Y-121290000D01*
G75*
G02*
X139675000Y-121440000I0J-150000D01*
G01*
G37*
G36*
G01*
X139675000Y-122710000D02*
X139675000Y-123010000D01*
G75*
G02*
X139525000Y-123160000I-150000J0D01*
G01*
X137850000Y-123160000D01*
G75*
G02*
X137700000Y-123010000I0J150000D01*
G01*
X137700000Y-122710000D01*
G75*
G02*
X137850000Y-122560000I150000J0D01*
G01*
X139525000Y-122560000D01*
G75*
G02*
X139675000Y-122710000I0J-150000D01*
G01*
G37*
G36*
G01*
X139675000Y-123980000D02*
X139675000Y-124280000D01*
G75*
G02*
X139525000Y-124430000I-150000J0D01*
G01*
X137850000Y-124430000D01*
G75*
G02*
X137700000Y-124280000I0J150000D01*
G01*
X137700000Y-123980000D01*
G75*
G02*
X137850000Y-123830000I150000J0D01*
G01*
X139525000Y-123830000D01*
G75*
G02*
X139675000Y-123980000I0J-150000D01*
G01*
G37*
G36*
G01*
X139675000Y-125250000D02*
X139675000Y-125550000D01*
G75*
G02*
X139525000Y-125700000I-150000J0D01*
G01*
X137850000Y-125700000D01*
G75*
G02*
X137700000Y-125550000I0J150000D01*
G01*
X137700000Y-125250000D01*
G75*
G02*
X137850000Y-125100000I150000J0D01*
G01*
X139525000Y-125100000D01*
G75*
G02*
X139675000Y-125250000I0J-150000D01*
G01*
G37*
G36*
G01*
X139675000Y-126520000D02*
X139675000Y-126820000D01*
G75*
G02*
X139525000Y-126970000I-150000J0D01*
G01*
X137850000Y-126970000D01*
G75*
G02*
X137700000Y-126820000I0J150000D01*
G01*
X137700000Y-126520000D01*
G75*
G02*
X137850000Y-126370000I150000J0D01*
G01*
X139525000Y-126370000D01*
G75*
G02*
X139675000Y-126520000I0J-150000D01*
G01*
G37*
G36*
G01*
X139675000Y-127790000D02*
X139675000Y-128090000D01*
G75*
G02*
X139525000Y-128240000I-150000J0D01*
G01*
X137850000Y-128240000D01*
G75*
G02*
X137700000Y-128090000I0J150000D01*
G01*
X137700000Y-127790000D01*
G75*
G02*
X137850000Y-127640000I150000J0D01*
G01*
X139525000Y-127640000D01*
G75*
G02*
X139675000Y-127790000I0J-150000D01*
G01*
G37*
G36*
G01*
X139675000Y-129060000D02*
X139675000Y-129360000D01*
G75*
G02*
X139525000Y-129510000I-150000J0D01*
G01*
X137850000Y-129510000D01*
G75*
G02*
X137700000Y-129360000I0J150000D01*
G01*
X137700000Y-129060000D01*
G75*
G02*
X137850000Y-128910000I150000J0D01*
G01*
X139525000Y-128910000D01*
G75*
G02*
X139675000Y-129060000I0J-150000D01*
G01*
G37*
%TD*%
%TO.C,U23*%
G36*
G01*
X176165000Y-118125000D02*
X175865000Y-118125000D01*
G75*
G02*
X175715000Y-117975000I0J150000D01*
G01*
X175715000Y-116225000D01*
G75*
G02*
X175865000Y-116075000I150000J0D01*
G01*
X176165000Y-116075000D01*
G75*
G02*
X176315000Y-116225000I0J-150000D01*
G01*
X176315000Y-117975000D01*
G75*
G02*
X176165000Y-118125000I-150000J0D01*
G01*
G37*
G36*
G01*
X177435000Y-118125000D02*
X177135000Y-118125000D01*
G75*
G02*
X176985000Y-117975000I0J150000D01*
G01*
X176985000Y-116225000D01*
G75*
G02*
X177135000Y-116075000I150000J0D01*
G01*
X177435000Y-116075000D01*
G75*
G02*
X177585000Y-116225000I0J-150000D01*
G01*
X177585000Y-117975000D01*
G75*
G02*
X177435000Y-118125000I-150000J0D01*
G01*
G37*
G36*
G01*
X178705000Y-118125000D02*
X178405000Y-118125000D01*
G75*
G02*
X178255000Y-117975000I0J150000D01*
G01*
X178255000Y-116225000D01*
G75*
G02*
X178405000Y-116075000I150000J0D01*
G01*
X178705000Y-116075000D01*
G75*
G02*
X178855000Y-116225000I0J-150000D01*
G01*
X178855000Y-117975000D01*
G75*
G02*
X178705000Y-118125000I-150000J0D01*
G01*
G37*
G36*
G01*
X179975000Y-118125000D02*
X179675000Y-118125000D01*
G75*
G02*
X179525000Y-117975000I0J150000D01*
G01*
X179525000Y-116225000D01*
G75*
G02*
X179675000Y-116075000I150000J0D01*
G01*
X179975000Y-116075000D01*
G75*
G02*
X180125000Y-116225000I0J-150000D01*
G01*
X180125000Y-117975000D01*
G75*
G02*
X179975000Y-118125000I-150000J0D01*
G01*
G37*
G36*
G01*
X181245000Y-118125000D02*
X180945000Y-118125000D01*
G75*
G02*
X180795000Y-117975000I0J150000D01*
G01*
X180795000Y-116225000D01*
G75*
G02*
X180945000Y-116075000I150000J0D01*
G01*
X181245000Y-116075000D01*
G75*
G02*
X181395000Y-116225000I0J-150000D01*
G01*
X181395000Y-117975000D01*
G75*
G02*
X181245000Y-118125000I-150000J0D01*
G01*
G37*
G36*
G01*
X182515000Y-118125000D02*
X182215000Y-118125000D01*
G75*
G02*
X182065000Y-117975000I0J150000D01*
G01*
X182065000Y-116225000D01*
G75*
G02*
X182215000Y-116075000I150000J0D01*
G01*
X182515000Y-116075000D01*
G75*
G02*
X182665000Y-116225000I0J-150000D01*
G01*
X182665000Y-117975000D01*
G75*
G02*
X182515000Y-118125000I-150000J0D01*
G01*
G37*
G36*
G01*
X183785000Y-118125000D02*
X183485000Y-118125000D01*
G75*
G02*
X183335000Y-117975000I0J150000D01*
G01*
X183335000Y-116225000D01*
G75*
G02*
X183485000Y-116075000I150000J0D01*
G01*
X183785000Y-116075000D01*
G75*
G02*
X183935000Y-116225000I0J-150000D01*
G01*
X183935000Y-117975000D01*
G75*
G02*
X183785000Y-118125000I-150000J0D01*
G01*
G37*
G36*
G01*
X185055000Y-118125000D02*
X184755000Y-118125000D01*
G75*
G02*
X184605000Y-117975000I0J150000D01*
G01*
X184605000Y-116225000D01*
G75*
G02*
X184755000Y-116075000I150000J0D01*
G01*
X185055000Y-116075000D01*
G75*
G02*
X185205000Y-116225000I0J-150000D01*
G01*
X185205000Y-117975000D01*
G75*
G02*
X185055000Y-118125000I-150000J0D01*
G01*
G37*
G36*
G01*
X186325000Y-118125000D02*
X186025000Y-118125000D01*
G75*
G02*
X185875000Y-117975000I0J150000D01*
G01*
X185875000Y-116225000D01*
G75*
G02*
X186025000Y-116075000I150000J0D01*
G01*
X186325000Y-116075000D01*
G75*
G02*
X186475000Y-116225000I0J-150000D01*
G01*
X186475000Y-117975000D01*
G75*
G02*
X186325000Y-118125000I-150000J0D01*
G01*
G37*
G36*
G01*
X187595000Y-118125000D02*
X187295000Y-118125000D01*
G75*
G02*
X187145000Y-117975000I0J150000D01*
G01*
X187145000Y-116225000D01*
G75*
G02*
X187295000Y-116075000I150000J0D01*
G01*
X187595000Y-116075000D01*
G75*
G02*
X187745000Y-116225000I0J-150000D01*
G01*
X187745000Y-117975000D01*
G75*
G02*
X187595000Y-118125000I-150000J0D01*
G01*
G37*
G36*
G01*
X188865000Y-118125000D02*
X188565000Y-118125000D01*
G75*
G02*
X188415000Y-117975000I0J150000D01*
G01*
X188415000Y-116225000D01*
G75*
G02*
X188565000Y-116075000I150000J0D01*
G01*
X188865000Y-116075000D01*
G75*
G02*
X189015000Y-116225000I0J-150000D01*
G01*
X189015000Y-117975000D01*
G75*
G02*
X188865000Y-118125000I-150000J0D01*
G01*
G37*
G36*
G01*
X190135000Y-118125000D02*
X189835000Y-118125000D01*
G75*
G02*
X189685000Y-117975000I0J150000D01*
G01*
X189685000Y-116225000D01*
G75*
G02*
X189835000Y-116075000I150000J0D01*
G01*
X190135000Y-116075000D01*
G75*
G02*
X190285000Y-116225000I0J-150000D01*
G01*
X190285000Y-117975000D01*
G75*
G02*
X190135000Y-118125000I-150000J0D01*
G01*
G37*
G36*
G01*
X190135000Y-108825000D02*
X189835000Y-108825000D01*
G75*
G02*
X189685000Y-108675000I0J150000D01*
G01*
X189685000Y-106925000D01*
G75*
G02*
X189835000Y-106775000I150000J0D01*
G01*
X190135000Y-106775000D01*
G75*
G02*
X190285000Y-106925000I0J-150000D01*
G01*
X190285000Y-108675000D01*
G75*
G02*
X190135000Y-108825000I-150000J0D01*
G01*
G37*
G36*
G01*
X188865000Y-108825000D02*
X188565000Y-108825000D01*
G75*
G02*
X188415000Y-108675000I0J150000D01*
G01*
X188415000Y-106925000D01*
G75*
G02*
X188565000Y-106775000I150000J0D01*
G01*
X188865000Y-106775000D01*
G75*
G02*
X189015000Y-106925000I0J-150000D01*
G01*
X189015000Y-108675000D01*
G75*
G02*
X188865000Y-108825000I-150000J0D01*
G01*
G37*
G36*
G01*
X187595000Y-108825000D02*
X187295000Y-108825000D01*
G75*
G02*
X187145000Y-108675000I0J150000D01*
G01*
X187145000Y-106925000D01*
G75*
G02*
X187295000Y-106775000I150000J0D01*
G01*
X187595000Y-106775000D01*
G75*
G02*
X187745000Y-106925000I0J-150000D01*
G01*
X187745000Y-108675000D01*
G75*
G02*
X187595000Y-108825000I-150000J0D01*
G01*
G37*
G36*
G01*
X186325000Y-108825000D02*
X186025000Y-108825000D01*
G75*
G02*
X185875000Y-108675000I0J150000D01*
G01*
X185875000Y-106925000D01*
G75*
G02*
X186025000Y-106775000I150000J0D01*
G01*
X186325000Y-106775000D01*
G75*
G02*
X186475000Y-106925000I0J-150000D01*
G01*
X186475000Y-108675000D01*
G75*
G02*
X186325000Y-108825000I-150000J0D01*
G01*
G37*
G36*
G01*
X185055000Y-108825000D02*
X184755000Y-108825000D01*
G75*
G02*
X184605000Y-108675000I0J150000D01*
G01*
X184605000Y-106925000D01*
G75*
G02*
X184755000Y-106775000I150000J0D01*
G01*
X185055000Y-106775000D01*
G75*
G02*
X185205000Y-106925000I0J-150000D01*
G01*
X185205000Y-108675000D01*
G75*
G02*
X185055000Y-108825000I-150000J0D01*
G01*
G37*
G36*
G01*
X183785000Y-108825000D02*
X183485000Y-108825000D01*
G75*
G02*
X183335000Y-108675000I0J150000D01*
G01*
X183335000Y-106925000D01*
G75*
G02*
X183485000Y-106775000I150000J0D01*
G01*
X183785000Y-106775000D01*
G75*
G02*
X183935000Y-106925000I0J-150000D01*
G01*
X183935000Y-108675000D01*
G75*
G02*
X183785000Y-108825000I-150000J0D01*
G01*
G37*
G36*
G01*
X182515000Y-108825000D02*
X182215000Y-108825000D01*
G75*
G02*
X182065000Y-108675000I0J150000D01*
G01*
X182065000Y-106925000D01*
G75*
G02*
X182215000Y-106775000I150000J0D01*
G01*
X182515000Y-106775000D01*
G75*
G02*
X182665000Y-106925000I0J-150000D01*
G01*
X182665000Y-108675000D01*
G75*
G02*
X182515000Y-108825000I-150000J0D01*
G01*
G37*
G36*
G01*
X181245000Y-108825000D02*
X180945000Y-108825000D01*
G75*
G02*
X180795000Y-108675000I0J150000D01*
G01*
X180795000Y-106925000D01*
G75*
G02*
X180945000Y-106775000I150000J0D01*
G01*
X181245000Y-106775000D01*
G75*
G02*
X181395000Y-106925000I0J-150000D01*
G01*
X181395000Y-108675000D01*
G75*
G02*
X181245000Y-108825000I-150000J0D01*
G01*
G37*
G36*
G01*
X179975000Y-108825000D02*
X179675000Y-108825000D01*
G75*
G02*
X179525000Y-108675000I0J150000D01*
G01*
X179525000Y-106925000D01*
G75*
G02*
X179675000Y-106775000I150000J0D01*
G01*
X179975000Y-106775000D01*
G75*
G02*
X180125000Y-106925000I0J-150000D01*
G01*
X180125000Y-108675000D01*
G75*
G02*
X179975000Y-108825000I-150000J0D01*
G01*
G37*
G36*
G01*
X178705000Y-108825000D02*
X178405000Y-108825000D01*
G75*
G02*
X178255000Y-108675000I0J150000D01*
G01*
X178255000Y-106925000D01*
G75*
G02*
X178405000Y-106775000I150000J0D01*
G01*
X178705000Y-106775000D01*
G75*
G02*
X178855000Y-106925000I0J-150000D01*
G01*
X178855000Y-108675000D01*
G75*
G02*
X178705000Y-108825000I-150000J0D01*
G01*
G37*
G36*
G01*
X177435000Y-108825000D02*
X177135000Y-108825000D01*
G75*
G02*
X176985000Y-108675000I0J150000D01*
G01*
X176985000Y-106925000D01*
G75*
G02*
X177135000Y-106775000I150000J0D01*
G01*
X177435000Y-106775000D01*
G75*
G02*
X177585000Y-106925000I0J-150000D01*
G01*
X177585000Y-108675000D01*
G75*
G02*
X177435000Y-108825000I-150000J0D01*
G01*
G37*
G36*
G01*
X176165000Y-108825000D02*
X175865000Y-108825000D01*
G75*
G02*
X175715000Y-108675000I0J150000D01*
G01*
X175715000Y-106925000D01*
G75*
G02*
X175865000Y-106775000I150000J0D01*
G01*
X176165000Y-106775000D01*
G75*
G02*
X176315000Y-106925000I0J-150000D01*
G01*
X176315000Y-108675000D01*
G75*
G02*
X176165000Y-108825000I-150000J0D01*
G01*
G37*
%TD*%
%TO.C,U24*%
G36*
G01*
X175325000Y-129060000D02*
X175325000Y-129360000D01*
G75*
G02*
X175175000Y-129510000I-150000J0D01*
G01*
X173500000Y-129510000D01*
G75*
G02*
X173350000Y-129360000I0J150000D01*
G01*
X173350000Y-129060000D01*
G75*
G02*
X173500000Y-128910000I150000J0D01*
G01*
X175175000Y-128910000D01*
G75*
G02*
X175325000Y-129060000I0J-150000D01*
G01*
G37*
G36*
G01*
X175325000Y-127790000D02*
X175325000Y-128090000D01*
G75*
G02*
X175175000Y-128240000I-150000J0D01*
G01*
X173500000Y-128240000D01*
G75*
G02*
X173350000Y-128090000I0J150000D01*
G01*
X173350000Y-127790000D01*
G75*
G02*
X173500000Y-127640000I150000J0D01*
G01*
X175175000Y-127640000D01*
G75*
G02*
X175325000Y-127790000I0J-150000D01*
G01*
G37*
G36*
G01*
X175325000Y-126520000D02*
X175325000Y-126820000D01*
G75*
G02*
X175175000Y-126970000I-150000J0D01*
G01*
X173500000Y-126970000D01*
G75*
G02*
X173350000Y-126820000I0J150000D01*
G01*
X173350000Y-126520000D01*
G75*
G02*
X173500000Y-126370000I150000J0D01*
G01*
X175175000Y-126370000D01*
G75*
G02*
X175325000Y-126520000I0J-150000D01*
G01*
G37*
G36*
G01*
X175325000Y-125250000D02*
X175325000Y-125550000D01*
G75*
G02*
X175175000Y-125700000I-150000J0D01*
G01*
X173500000Y-125700000D01*
G75*
G02*
X173350000Y-125550000I0J150000D01*
G01*
X173350000Y-125250000D01*
G75*
G02*
X173500000Y-125100000I150000J0D01*
G01*
X175175000Y-125100000D01*
G75*
G02*
X175325000Y-125250000I0J-150000D01*
G01*
G37*
G36*
G01*
X175325000Y-123980000D02*
X175325000Y-124280000D01*
G75*
G02*
X175175000Y-124430000I-150000J0D01*
G01*
X173500000Y-124430000D01*
G75*
G02*
X173350000Y-124280000I0J150000D01*
G01*
X173350000Y-123980000D01*
G75*
G02*
X173500000Y-123830000I150000J0D01*
G01*
X175175000Y-123830000D01*
G75*
G02*
X175325000Y-123980000I0J-150000D01*
G01*
G37*
G36*
G01*
X175325000Y-122710000D02*
X175325000Y-123010000D01*
G75*
G02*
X175175000Y-123160000I-150000J0D01*
G01*
X173500000Y-123160000D01*
G75*
G02*
X173350000Y-123010000I0J150000D01*
G01*
X173350000Y-122710000D01*
G75*
G02*
X173500000Y-122560000I150000J0D01*
G01*
X175175000Y-122560000D01*
G75*
G02*
X175325000Y-122710000I0J-150000D01*
G01*
G37*
G36*
G01*
X175325000Y-121440000D02*
X175325000Y-121740000D01*
G75*
G02*
X175175000Y-121890000I-150000J0D01*
G01*
X173500000Y-121890000D01*
G75*
G02*
X173350000Y-121740000I0J150000D01*
G01*
X173350000Y-121440000D01*
G75*
G02*
X173500000Y-121290000I150000J0D01*
G01*
X175175000Y-121290000D01*
G75*
G02*
X175325000Y-121440000I0J-150000D01*
G01*
G37*
G36*
G01*
X182250000Y-121440000D02*
X182250000Y-121740000D01*
G75*
G02*
X182100000Y-121890000I-150000J0D01*
G01*
X180425000Y-121890000D01*
G75*
G02*
X180275000Y-121740000I0J150000D01*
G01*
X180275000Y-121440000D01*
G75*
G02*
X180425000Y-121290000I150000J0D01*
G01*
X182100000Y-121290000D01*
G75*
G02*
X182250000Y-121440000I0J-150000D01*
G01*
G37*
G36*
G01*
X182250000Y-122710000D02*
X182250000Y-123010000D01*
G75*
G02*
X182100000Y-123160000I-150000J0D01*
G01*
X180425000Y-123160000D01*
G75*
G02*
X180275000Y-123010000I0J150000D01*
G01*
X180275000Y-122710000D01*
G75*
G02*
X180425000Y-122560000I150000J0D01*
G01*
X182100000Y-122560000D01*
G75*
G02*
X182250000Y-122710000I0J-150000D01*
G01*
G37*
G36*
G01*
X182250000Y-123980000D02*
X182250000Y-124280000D01*
G75*
G02*
X182100000Y-124430000I-150000J0D01*
G01*
X180425000Y-124430000D01*
G75*
G02*
X180275000Y-124280000I0J150000D01*
G01*
X180275000Y-123980000D01*
G75*
G02*
X180425000Y-123830000I150000J0D01*
G01*
X182100000Y-123830000D01*
G75*
G02*
X182250000Y-123980000I0J-150000D01*
G01*
G37*
G36*
G01*
X182250000Y-125250000D02*
X182250000Y-125550000D01*
G75*
G02*
X182100000Y-125700000I-150000J0D01*
G01*
X180425000Y-125700000D01*
G75*
G02*
X180275000Y-125550000I0J150000D01*
G01*
X180275000Y-125250000D01*
G75*
G02*
X180425000Y-125100000I150000J0D01*
G01*
X182100000Y-125100000D01*
G75*
G02*
X182250000Y-125250000I0J-150000D01*
G01*
G37*
G36*
G01*
X182250000Y-126520000D02*
X182250000Y-126820000D01*
G75*
G02*
X182100000Y-126970000I-150000J0D01*
G01*
X180425000Y-126970000D01*
G75*
G02*
X180275000Y-126820000I0J150000D01*
G01*
X180275000Y-126520000D01*
G75*
G02*
X180425000Y-126370000I150000J0D01*
G01*
X182100000Y-126370000D01*
G75*
G02*
X182250000Y-126520000I0J-150000D01*
G01*
G37*
G36*
G01*
X182250000Y-127790000D02*
X182250000Y-128090000D01*
G75*
G02*
X182100000Y-128240000I-150000J0D01*
G01*
X180425000Y-128240000D01*
G75*
G02*
X180275000Y-128090000I0J150000D01*
G01*
X180275000Y-127790000D01*
G75*
G02*
X180425000Y-127640000I150000J0D01*
G01*
X182100000Y-127640000D01*
G75*
G02*
X182250000Y-127790000I0J-150000D01*
G01*
G37*
G36*
G01*
X182250000Y-129060000D02*
X182250000Y-129360000D01*
G75*
G02*
X182100000Y-129510000I-150000J0D01*
G01*
X180425000Y-129510000D01*
G75*
G02*
X180275000Y-129360000I0J150000D01*
G01*
X180275000Y-129060000D01*
G75*
G02*
X180425000Y-128910000I150000J0D01*
G01*
X182100000Y-128910000D01*
G75*
G02*
X182250000Y-129060000I0J-150000D01*
G01*
G37*
%TD*%
%TO.C,U25*%
G36*
G01*
X185675000Y-129060000D02*
X185675000Y-129360000D01*
G75*
G02*
X185525000Y-129510000I-150000J0D01*
G01*
X183850000Y-129510000D01*
G75*
G02*
X183700000Y-129360000I0J150000D01*
G01*
X183700000Y-129060000D01*
G75*
G02*
X183850000Y-128910000I150000J0D01*
G01*
X185525000Y-128910000D01*
G75*
G02*
X185675000Y-129060000I0J-150000D01*
G01*
G37*
G36*
G01*
X185675000Y-127790000D02*
X185675000Y-128090000D01*
G75*
G02*
X185525000Y-128240000I-150000J0D01*
G01*
X183850000Y-128240000D01*
G75*
G02*
X183700000Y-128090000I0J150000D01*
G01*
X183700000Y-127790000D01*
G75*
G02*
X183850000Y-127640000I150000J0D01*
G01*
X185525000Y-127640000D01*
G75*
G02*
X185675000Y-127790000I0J-150000D01*
G01*
G37*
G36*
G01*
X185675000Y-126520000D02*
X185675000Y-126820000D01*
G75*
G02*
X185525000Y-126970000I-150000J0D01*
G01*
X183850000Y-126970000D01*
G75*
G02*
X183700000Y-126820000I0J150000D01*
G01*
X183700000Y-126520000D01*
G75*
G02*
X183850000Y-126370000I150000J0D01*
G01*
X185525000Y-126370000D01*
G75*
G02*
X185675000Y-126520000I0J-150000D01*
G01*
G37*
G36*
G01*
X185675000Y-125250000D02*
X185675000Y-125550000D01*
G75*
G02*
X185525000Y-125700000I-150000J0D01*
G01*
X183850000Y-125700000D01*
G75*
G02*
X183700000Y-125550000I0J150000D01*
G01*
X183700000Y-125250000D01*
G75*
G02*
X183850000Y-125100000I150000J0D01*
G01*
X185525000Y-125100000D01*
G75*
G02*
X185675000Y-125250000I0J-150000D01*
G01*
G37*
G36*
G01*
X185675000Y-123980000D02*
X185675000Y-124280000D01*
G75*
G02*
X185525000Y-124430000I-150000J0D01*
G01*
X183850000Y-124430000D01*
G75*
G02*
X183700000Y-124280000I0J150000D01*
G01*
X183700000Y-123980000D01*
G75*
G02*
X183850000Y-123830000I150000J0D01*
G01*
X185525000Y-123830000D01*
G75*
G02*
X185675000Y-123980000I0J-150000D01*
G01*
G37*
G36*
G01*
X185675000Y-122710000D02*
X185675000Y-123010000D01*
G75*
G02*
X185525000Y-123160000I-150000J0D01*
G01*
X183850000Y-123160000D01*
G75*
G02*
X183700000Y-123010000I0J150000D01*
G01*
X183700000Y-122710000D01*
G75*
G02*
X183850000Y-122560000I150000J0D01*
G01*
X185525000Y-122560000D01*
G75*
G02*
X185675000Y-122710000I0J-150000D01*
G01*
G37*
G36*
G01*
X185675000Y-121440000D02*
X185675000Y-121740000D01*
G75*
G02*
X185525000Y-121890000I-150000J0D01*
G01*
X183850000Y-121890000D01*
G75*
G02*
X183700000Y-121740000I0J150000D01*
G01*
X183700000Y-121440000D01*
G75*
G02*
X183850000Y-121290000I150000J0D01*
G01*
X185525000Y-121290000D01*
G75*
G02*
X185675000Y-121440000I0J-150000D01*
G01*
G37*
G36*
G01*
X192600000Y-121440000D02*
X192600000Y-121740000D01*
G75*
G02*
X192450000Y-121890000I-150000J0D01*
G01*
X190775000Y-121890000D01*
G75*
G02*
X190625000Y-121740000I0J150000D01*
G01*
X190625000Y-121440000D01*
G75*
G02*
X190775000Y-121290000I150000J0D01*
G01*
X192450000Y-121290000D01*
G75*
G02*
X192600000Y-121440000I0J-150000D01*
G01*
G37*
G36*
G01*
X192600000Y-122710000D02*
X192600000Y-123010000D01*
G75*
G02*
X192450000Y-123160000I-150000J0D01*
G01*
X190775000Y-123160000D01*
G75*
G02*
X190625000Y-123010000I0J150000D01*
G01*
X190625000Y-122710000D01*
G75*
G02*
X190775000Y-122560000I150000J0D01*
G01*
X192450000Y-122560000D01*
G75*
G02*
X192600000Y-122710000I0J-150000D01*
G01*
G37*
G36*
G01*
X192600000Y-123980000D02*
X192600000Y-124280000D01*
G75*
G02*
X192450000Y-124430000I-150000J0D01*
G01*
X190775000Y-124430000D01*
G75*
G02*
X190625000Y-124280000I0J150000D01*
G01*
X190625000Y-123980000D01*
G75*
G02*
X190775000Y-123830000I150000J0D01*
G01*
X192450000Y-123830000D01*
G75*
G02*
X192600000Y-123980000I0J-150000D01*
G01*
G37*
G36*
G01*
X192600000Y-125250000D02*
X192600000Y-125550000D01*
G75*
G02*
X192450000Y-125700000I-150000J0D01*
G01*
X190775000Y-125700000D01*
G75*
G02*
X190625000Y-125550000I0J150000D01*
G01*
X190625000Y-125250000D01*
G75*
G02*
X190775000Y-125100000I150000J0D01*
G01*
X192450000Y-125100000D01*
G75*
G02*
X192600000Y-125250000I0J-150000D01*
G01*
G37*
G36*
G01*
X192600000Y-126520000D02*
X192600000Y-126820000D01*
G75*
G02*
X192450000Y-126970000I-150000J0D01*
G01*
X190775000Y-126970000D01*
G75*
G02*
X190625000Y-126820000I0J150000D01*
G01*
X190625000Y-126520000D01*
G75*
G02*
X190775000Y-126370000I150000J0D01*
G01*
X192450000Y-126370000D01*
G75*
G02*
X192600000Y-126520000I0J-150000D01*
G01*
G37*
G36*
G01*
X192600000Y-127790000D02*
X192600000Y-128090000D01*
G75*
G02*
X192450000Y-128240000I-150000J0D01*
G01*
X190775000Y-128240000D01*
G75*
G02*
X190625000Y-128090000I0J150000D01*
G01*
X190625000Y-127790000D01*
G75*
G02*
X190775000Y-127640000I150000J0D01*
G01*
X192450000Y-127640000D01*
G75*
G02*
X192600000Y-127790000I0J-150000D01*
G01*
G37*
G36*
G01*
X192600000Y-129060000D02*
X192600000Y-129360000D01*
G75*
G02*
X192450000Y-129510000I-150000J0D01*
G01*
X190775000Y-129510000D01*
G75*
G02*
X190625000Y-129360000I0J150000D01*
G01*
X190625000Y-129060000D01*
G75*
G02*
X190775000Y-128910000I150000J0D01*
G01*
X192450000Y-128910000D01*
G75*
G02*
X192600000Y-129060000I0J-150000D01*
G01*
G37*
%TD*%
%TO.C,U26*%
G36*
G01*
X199165000Y-118125000D02*
X198865000Y-118125000D01*
G75*
G02*
X198715000Y-117975000I0J150000D01*
G01*
X198715000Y-116225000D01*
G75*
G02*
X198865000Y-116075000I150000J0D01*
G01*
X199165000Y-116075000D01*
G75*
G02*
X199315000Y-116225000I0J-150000D01*
G01*
X199315000Y-117975000D01*
G75*
G02*
X199165000Y-118125000I-150000J0D01*
G01*
G37*
G36*
G01*
X200435000Y-118125000D02*
X200135000Y-118125000D01*
G75*
G02*
X199985000Y-117975000I0J150000D01*
G01*
X199985000Y-116225000D01*
G75*
G02*
X200135000Y-116075000I150000J0D01*
G01*
X200435000Y-116075000D01*
G75*
G02*
X200585000Y-116225000I0J-150000D01*
G01*
X200585000Y-117975000D01*
G75*
G02*
X200435000Y-118125000I-150000J0D01*
G01*
G37*
G36*
G01*
X201705000Y-118125000D02*
X201405000Y-118125000D01*
G75*
G02*
X201255000Y-117975000I0J150000D01*
G01*
X201255000Y-116225000D01*
G75*
G02*
X201405000Y-116075000I150000J0D01*
G01*
X201705000Y-116075000D01*
G75*
G02*
X201855000Y-116225000I0J-150000D01*
G01*
X201855000Y-117975000D01*
G75*
G02*
X201705000Y-118125000I-150000J0D01*
G01*
G37*
G36*
G01*
X202975000Y-118125000D02*
X202675000Y-118125000D01*
G75*
G02*
X202525000Y-117975000I0J150000D01*
G01*
X202525000Y-116225000D01*
G75*
G02*
X202675000Y-116075000I150000J0D01*
G01*
X202975000Y-116075000D01*
G75*
G02*
X203125000Y-116225000I0J-150000D01*
G01*
X203125000Y-117975000D01*
G75*
G02*
X202975000Y-118125000I-150000J0D01*
G01*
G37*
G36*
G01*
X204245000Y-118125000D02*
X203945000Y-118125000D01*
G75*
G02*
X203795000Y-117975000I0J150000D01*
G01*
X203795000Y-116225000D01*
G75*
G02*
X203945000Y-116075000I150000J0D01*
G01*
X204245000Y-116075000D01*
G75*
G02*
X204395000Y-116225000I0J-150000D01*
G01*
X204395000Y-117975000D01*
G75*
G02*
X204245000Y-118125000I-150000J0D01*
G01*
G37*
G36*
G01*
X205515000Y-118125000D02*
X205215000Y-118125000D01*
G75*
G02*
X205065000Y-117975000I0J150000D01*
G01*
X205065000Y-116225000D01*
G75*
G02*
X205215000Y-116075000I150000J0D01*
G01*
X205515000Y-116075000D01*
G75*
G02*
X205665000Y-116225000I0J-150000D01*
G01*
X205665000Y-117975000D01*
G75*
G02*
X205515000Y-118125000I-150000J0D01*
G01*
G37*
G36*
G01*
X206785000Y-118125000D02*
X206485000Y-118125000D01*
G75*
G02*
X206335000Y-117975000I0J150000D01*
G01*
X206335000Y-116225000D01*
G75*
G02*
X206485000Y-116075000I150000J0D01*
G01*
X206785000Y-116075000D01*
G75*
G02*
X206935000Y-116225000I0J-150000D01*
G01*
X206935000Y-117975000D01*
G75*
G02*
X206785000Y-118125000I-150000J0D01*
G01*
G37*
G36*
G01*
X208055000Y-118125000D02*
X207755000Y-118125000D01*
G75*
G02*
X207605000Y-117975000I0J150000D01*
G01*
X207605000Y-116225000D01*
G75*
G02*
X207755000Y-116075000I150000J0D01*
G01*
X208055000Y-116075000D01*
G75*
G02*
X208205000Y-116225000I0J-150000D01*
G01*
X208205000Y-117975000D01*
G75*
G02*
X208055000Y-118125000I-150000J0D01*
G01*
G37*
G36*
G01*
X209325000Y-118125000D02*
X209025000Y-118125000D01*
G75*
G02*
X208875000Y-117975000I0J150000D01*
G01*
X208875000Y-116225000D01*
G75*
G02*
X209025000Y-116075000I150000J0D01*
G01*
X209325000Y-116075000D01*
G75*
G02*
X209475000Y-116225000I0J-150000D01*
G01*
X209475000Y-117975000D01*
G75*
G02*
X209325000Y-118125000I-150000J0D01*
G01*
G37*
G36*
G01*
X210595000Y-118125000D02*
X210295000Y-118125000D01*
G75*
G02*
X210145000Y-117975000I0J150000D01*
G01*
X210145000Y-116225000D01*
G75*
G02*
X210295000Y-116075000I150000J0D01*
G01*
X210595000Y-116075000D01*
G75*
G02*
X210745000Y-116225000I0J-150000D01*
G01*
X210745000Y-117975000D01*
G75*
G02*
X210595000Y-118125000I-150000J0D01*
G01*
G37*
G36*
G01*
X211865000Y-118125000D02*
X211565000Y-118125000D01*
G75*
G02*
X211415000Y-117975000I0J150000D01*
G01*
X211415000Y-116225000D01*
G75*
G02*
X211565000Y-116075000I150000J0D01*
G01*
X211865000Y-116075000D01*
G75*
G02*
X212015000Y-116225000I0J-150000D01*
G01*
X212015000Y-117975000D01*
G75*
G02*
X211865000Y-118125000I-150000J0D01*
G01*
G37*
G36*
G01*
X213135000Y-118125000D02*
X212835000Y-118125000D01*
G75*
G02*
X212685000Y-117975000I0J150000D01*
G01*
X212685000Y-116225000D01*
G75*
G02*
X212835000Y-116075000I150000J0D01*
G01*
X213135000Y-116075000D01*
G75*
G02*
X213285000Y-116225000I0J-150000D01*
G01*
X213285000Y-117975000D01*
G75*
G02*
X213135000Y-118125000I-150000J0D01*
G01*
G37*
G36*
G01*
X213135000Y-108825000D02*
X212835000Y-108825000D01*
G75*
G02*
X212685000Y-108675000I0J150000D01*
G01*
X212685000Y-106925000D01*
G75*
G02*
X212835000Y-106775000I150000J0D01*
G01*
X213135000Y-106775000D01*
G75*
G02*
X213285000Y-106925000I0J-150000D01*
G01*
X213285000Y-108675000D01*
G75*
G02*
X213135000Y-108825000I-150000J0D01*
G01*
G37*
G36*
G01*
X211865000Y-108825000D02*
X211565000Y-108825000D01*
G75*
G02*
X211415000Y-108675000I0J150000D01*
G01*
X211415000Y-106925000D01*
G75*
G02*
X211565000Y-106775000I150000J0D01*
G01*
X211865000Y-106775000D01*
G75*
G02*
X212015000Y-106925000I0J-150000D01*
G01*
X212015000Y-108675000D01*
G75*
G02*
X211865000Y-108825000I-150000J0D01*
G01*
G37*
G36*
G01*
X210595000Y-108825000D02*
X210295000Y-108825000D01*
G75*
G02*
X210145000Y-108675000I0J150000D01*
G01*
X210145000Y-106925000D01*
G75*
G02*
X210295000Y-106775000I150000J0D01*
G01*
X210595000Y-106775000D01*
G75*
G02*
X210745000Y-106925000I0J-150000D01*
G01*
X210745000Y-108675000D01*
G75*
G02*
X210595000Y-108825000I-150000J0D01*
G01*
G37*
G36*
G01*
X209325000Y-108825000D02*
X209025000Y-108825000D01*
G75*
G02*
X208875000Y-108675000I0J150000D01*
G01*
X208875000Y-106925000D01*
G75*
G02*
X209025000Y-106775000I150000J0D01*
G01*
X209325000Y-106775000D01*
G75*
G02*
X209475000Y-106925000I0J-150000D01*
G01*
X209475000Y-108675000D01*
G75*
G02*
X209325000Y-108825000I-150000J0D01*
G01*
G37*
G36*
G01*
X208055000Y-108825000D02*
X207755000Y-108825000D01*
G75*
G02*
X207605000Y-108675000I0J150000D01*
G01*
X207605000Y-106925000D01*
G75*
G02*
X207755000Y-106775000I150000J0D01*
G01*
X208055000Y-106775000D01*
G75*
G02*
X208205000Y-106925000I0J-150000D01*
G01*
X208205000Y-108675000D01*
G75*
G02*
X208055000Y-108825000I-150000J0D01*
G01*
G37*
G36*
G01*
X206785000Y-108825000D02*
X206485000Y-108825000D01*
G75*
G02*
X206335000Y-108675000I0J150000D01*
G01*
X206335000Y-106925000D01*
G75*
G02*
X206485000Y-106775000I150000J0D01*
G01*
X206785000Y-106775000D01*
G75*
G02*
X206935000Y-106925000I0J-150000D01*
G01*
X206935000Y-108675000D01*
G75*
G02*
X206785000Y-108825000I-150000J0D01*
G01*
G37*
G36*
G01*
X205515000Y-108825000D02*
X205215000Y-108825000D01*
G75*
G02*
X205065000Y-108675000I0J150000D01*
G01*
X205065000Y-106925000D01*
G75*
G02*
X205215000Y-106775000I150000J0D01*
G01*
X205515000Y-106775000D01*
G75*
G02*
X205665000Y-106925000I0J-150000D01*
G01*
X205665000Y-108675000D01*
G75*
G02*
X205515000Y-108825000I-150000J0D01*
G01*
G37*
G36*
G01*
X204245000Y-108825000D02*
X203945000Y-108825000D01*
G75*
G02*
X203795000Y-108675000I0J150000D01*
G01*
X203795000Y-106925000D01*
G75*
G02*
X203945000Y-106775000I150000J0D01*
G01*
X204245000Y-106775000D01*
G75*
G02*
X204395000Y-106925000I0J-150000D01*
G01*
X204395000Y-108675000D01*
G75*
G02*
X204245000Y-108825000I-150000J0D01*
G01*
G37*
G36*
G01*
X202975000Y-108825000D02*
X202675000Y-108825000D01*
G75*
G02*
X202525000Y-108675000I0J150000D01*
G01*
X202525000Y-106925000D01*
G75*
G02*
X202675000Y-106775000I150000J0D01*
G01*
X202975000Y-106775000D01*
G75*
G02*
X203125000Y-106925000I0J-150000D01*
G01*
X203125000Y-108675000D01*
G75*
G02*
X202975000Y-108825000I-150000J0D01*
G01*
G37*
G36*
G01*
X201705000Y-108825000D02*
X201405000Y-108825000D01*
G75*
G02*
X201255000Y-108675000I0J150000D01*
G01*
X201255000Y-106925000D01*
G75*
G02*
X201405000Y-106775000I150000J0D01*
G01*
X201705000Y-106775000D01*
G75*
G02*
X201855000Y-106925000I0J-150000D01*
G01*
X201855000Y-108675000D01*
G75*
G02*
X201705000Y-108825000I-150000J0D01*
G01*
G37*
G36*
G01*
X200435000Y-108825000D02*
X200135000Y-108825000D01*
G75*
G02*
X199985000Y-108675000I0J150000D01*
G01*
X199985000Y-106925000D01*
G75*
G02*
X200135000Y-106775000I150000J0D01*
G01*
X200435000Y-106775000D01*
G75*
G02*
X200585000Y-106925000I0J-150000D01*
G01*
X200585000Y-108675000D01*
G75*
G02*
X200435000Y-108825000I-150000J0D01*
G01*
G37*
G36*
G01*
X199165000Y-108825000D02*
X198865000Y-108825000D01*
G75*
G02*
X198715000Y-108675000I0J150000D01*
G01*
X198715000Y-106925000D01*
G75*
G02*
X198865000Y-106775000I150000J0D01*
G01*
X199165000Y-106775000D01*
G75*
G02*
X199315000Y-106925000I0J-150000D01*
G01*
X199315000Y-108675000D01*
G75*
G02*
X199165000Y-108825000I-150000J0D01*
G01*
G37*
%TD*%
%TO.C,U27*%
G36*
G01*
X205250000Y-129060000D02*
X205250000Y-129360000D01*
G75*
G02*
X205100000Y-129510000I-150000J0D01*
G01*
X203425000Y-129510000D01*
G75*
G02*
X203275000Y-129360000I0J150000D01*
G01*
X203275000Y-129060000D01*
G75*
G02*
X203425000Y-128910000I150000J0D01*
G01*
X205100000Y-128910000D01*
G75*
G02*
X205250000Y-129060000I0J-150000D01*
G01*
G37*
G36*
G01*
X205250000Y-127790000D02*
X205250000Y-128090000D01*
G75*
G02*
X205100000Y-128240000I-150000J0D01*
G01*
X203425000Y-128240000D01*
G75*
G02*
X203275000Y-128090000I0J150000D01*
G01*
X203275000Y-127790000D01*
G75*
G02*
X203425000Y-127640000I150000J0D01*
G01*
X205100000Y-127640000D01*
G75*
G02*
X205250000Y-127790000I0J-150000D01*
G01*
G37*
G36*
G01*
X205250000Y-126520000D02*
X205250000Y-126820000D01*
G75*
G02*
X205100000Y-126970000I-150000J0D01*
G01*
X203425000Y-126970000D01*
G75*
G02*
X203275000Y-126820000I0J150000D01*
G01*
X203275000Y-126520000D01*
G75*
G02*
X203425000Y-126370000I150000J0D01*
G01*
X205100000Y-126370000D01*
G75*
G02*
X205250000Y-126520000I0J-150000D01*
G01*
G37*
G36*
G01*
X205250000Y-125250000D02*
X205250000Y-125550000D01*
G75*
G02*
X205100000Y-125700000I-150000J0D01*
G01*
X203425000Y-125700000D01*
G75*
G02*
X203275000Y-125550000I0J150000D01*
G01*
X203275000Y-125250000D01*
G75*
G02*
X203425000Y-125100000I150000J0D01*
G01*
X205100000Y-125100000D01*
G75*
G02*
X205250000Y-125250000I0J-150000D01*
G01*
G37*
G36*
G01*
X205250000Y-123980000D02*
X205250000Y-124280000D01*
G75*
G02*
X205100000Y-124430000I-150000J0D01*
G01*
X203425000Y-124430000D01*
G75*
G02*
X203275000Y-124280000I0J150000D01*
G01*
X203275000Y-123980000D01*
G75*
G02*
X203425000Y-123830000I150000J0D01*
G01*
X205100000Y-123830000D01*
G75*
G02*
X205250000Y-123980000I0J-150000D01*
G01*
G37*
G36*
G01*
X205250000Y-122710000D02*
X205250000Y-123010000D01*
G75*
G02*
X205100000Y-123160000I-150000J0D01*
G01*
X203425000Y-123160000D01*
G75*
G02*
X203275000Y-123010000I0J150000D01*
G01*
X203275000Y-122710000D01*
G75*
G02*
X203425000Y-122560000I150000J0D01*
G01*
X205100000Y-122560000D01*
G75*
G02*
X205250000Y-122710000I0J-150000D01*
G01*
G37*
G36*
G01*
X205250000Y-121440000D02*
X205250000Y-121740000D01*
G75*
G02*
X205100000Y-121890000I-150000J0D01*
G01*
X203425000Y-121890000D01*
G75*
G02*
X203275000Y-121740000I0J150000D01*
G01*
X203275000Y-121440000D01*
G75*
G02*
X203425000Y-121290000I150000J0D01*
G01*
X205100000Y-121290000D01*
G75*
G02*
X205250000Y-121440000I0J-150000D01*
G01*
G37*
G36*
G01*
X198325000Y-121440000D02*
X198325000Y-121740000D01*
G75*
G02*
X198175000Y-121890000I-150000J0D01*
G01*
X196500000Y-121890000D01*
G75*
G02*
X196350000Y-121740000I0J150000D01*
G01*
X196350000Y-121440000D01*
G75*
G02*
X196500000Y-121290000I150000J0D01*
G01*
X198175000Y-121290000D01*
G75*
G02*
X198325000Y-121440000I0J-150000D01*
G01*
G37*
G36*
G01*
X198325000Y-122710000D02*
X198325000Y-123010000D01*
G75*
G02*
X198175000Y-123160000I-150000J0D01*
G01*
X196500000Y-123160000D01*
G75*
G02*
X196350000Y-123010000I0J150000D01*
G01*
X196350000Y-122710000D01*
G75*
G02*
X196500000Y-122560000I150000J0D01*
G01*
X198175000Y-122560000D01*
G75*
G02*
X198325000Y-122710000I0J-150000D01*
G01*
G37*
G36*
G01*
X198325000Y-123980000D02*
X198325000Y-124280000D01*
G75*
G02*
X198175000Y-124430000I-150000J0D01*
G01*
X196500000Y-124430000D01*
G75*
G02*
X196350000Y-124280000I0J150000D01*
G01*
X196350000Y-123980000D01*
G75*
G02*
X196500000Y-123830000I150000J0D01*
G01*
X198175000Y-123830000D01*
G75*
G02*
X198325000Y-123980000I0J-150000D01*
G01*
G37*
G36*
G01*
X198325000Y-125250000D02*
X198325000Y-125550000D01*
G75*
G02*
X198175000Y-125700000I-150000J0D01*
G01*
X196500000Y-125700000D01*
G75*
G02*
X196350000Y-125550000I0J150000D01*
G01*
X196350000Y-125250000D01*
G75*
G02*
X196500000Y-125100000I150000J0D01*
G01*
X198175000Y-125100000D01*
G75*
G02*
X198325000Y-125250000I0J-150000D01*
G01*
G37*
G36*
G01*
X198325000Y-126520000D02*
X198325000Y-126820000D01*
G75*
G02*
X198175000Y-126970000I-150000J0D01*
G01*
X196500000Y-126970000D01*
G75*
G02*
X196350000Y-126820000I0J150000D01*
G01*
X196350000Y-126520000D01*
G75*
G02*
X196500000Y-126370000I150000J0D01*
G01*
X198175000Y-126370000D01*
G75*
G02*
X198325000Y-126520000I0J-150000D01*
G01*
G37*
G36*
G01*
X198325000Y-127790000D02*
X198325000Y-128090000D01*
G75*
G02*
X198175000Y-128240000I-150000J0D01*
G01*
X196500000Y-128240000D01*
G75*
G02*
X196350000Y-128090000I0J150000D01*
G01*
X196350000Y-127790000D01*
G75*
G02*
X196500000Y-127640000I150000J0D01*
G01*
X198175000Y-127640000D01*
G75*
G02*
X198325000Y-127790000I0J-150000D01*
G01*
G37*
G36*
G01*
X198325000Y-129060000D02*
X198325000Y-129360000D01*
G75*
G02*
X198175000Y-129510000I-150000J0D01*
G01*
X196500000Y-129510000D01*
G75*
G02*
X196350000Y-129360000I0J150000D01*
G01*
X196350000Y-129060000D01*
G75*
G02*
X196500000Y-128910000I150000J0D01*
G01*
X198175000Y-128910000D01*
G75*
G02*
X198325000Y-129060000I0J-150000D01*
G01*
G37*
%TD*%
%TO.C,U28*%
G36*
G01*
X208675000Y-129060000D02*
X208675000Y-129360000D01*
G75*
G02*
X208525000Y-129510000I-150000J0D01*
G01*
X206850000Y-129510000D01*
G75*
G02*
X206700000Y-129360000I0J150000D01*
G01*
X206700000Y-129060000D01*
G75*
G02*
X206850000Y-128910000I150000J0D01*
G01*
X208525000Y-128910000D01*
G75*
G02*
X208675000Y-129060000I0J-150000D01*
G01*
G37*
G36*
G01*
X208675000Y-127790000D02*
X208675000Y-128090000D01*
G75*
G02*
X208525000Y-128240000I-150000J0D01*
G01*
X206850000Y-128240000D01*
G75*
G02*
X206700000Y-128090000I0J150000D01*
G01*
X206700000Y-127790000D01*
G75*
G02*
X206850000Y-127640000I150000J0D01*
G01*
X208525000Y-127640000D01*
G75*
G02*
X208675000Y-127790000I0J-150000D01*
G01*
G37*
G36*
G01*
X208675000Y-126520000D02*
X208675000Y-126820000D01*
G75*
G02*
X208525000Y-126970000I-150000J0D01*
G01*
X206850000Y-126970000D01*
G75*
G02*
X206700000Y-126820000I0J150000D01*
G01*
X206700000Y-126520000D01*
G75*
G02*
X206850000Y-126370000I150000J0D01*
G01*
X208525000Y-126370000D01*
G75*
G02*
X208675000Y-126520000I0J-150000D01*
G01*
G37*
G36*
G01*
X208675000Y-125250000D02*
X208675000Y-125550000D01*
G75*
G02*
X208525000Y-125700000I-150000J0D01*
G01*
X206850000Y-125700000D01*
G75*
G02*
X206700000Y-125550000I0J150000D01*
G01*
X206700000Y-125250000D01*
G75*
G02*
X206850000Y-125100000I150000J0D01*
G01*
X208525000Y-125100000D01*
G75*
G02*
X208675000Y-125250000I0J-150000D01*
G01*
G37*
G36*
G01*
X208675000Y-123980000D02*
X208675000Y-124280000D01*
G75*
G02*
X208525000Y-124430000I-150000J0D01*
G01*
X206850000Y-124430000D01*
G75*
G02*
X206700000Y-124280000I0J150000D01*
G01*
X206700000Y-123980000D01*
G75*
G02*
X206850000Y-123830000I150000J0D01*
G01*
X208525000Y-123830000D01*
G75*
G02*
X208675000Y-123980000I0J-150000D01*
G01*
G37*
G36*
G01*
X208675000Y-122710000D02*
X208675000Y-123010000D01*
G75*
G02*
X208525000Y-123160000I-150000J0D01*
G01*
X206850000Y-123160000D01*
G75*
G02*
X206700000Y-123010000I0J150000D01*
G01*
X206700000Y-122710000D01*
G75*
G02*
X206850000Y-122560000I150000J0D01*
G01*
X208525000Y-122560000D01*
G75*
G02*
X208675000Y-122710000I0J-150000D01*
G01*
G37*
G36*
G01*
X208675000Y-121440000D02*
X208675000Y-121740000D01*
G75*
G02*
X208525000Y-121890000I-150000J0D01*
G01*
X206850000Y-121890000D01*
G75*
G02*
X206700000Y-121740000I0J150000D01*
G01*
X206700000Y-121440000D01*
G75*
G02*
X206850000Y-121290000I150000J0D01*
G01*
X208525000Y-121290000D01*
G75*
G02*
X208675000Y-121440000I0J-150000D01*
G01*
G37*
G36*
G01*
X215600000Y-121440000D02*
X215600000Y-121740000D01*
G75*
G02*
X215450000Y-121890000I-150000J0D01*
G01*
X213775000Y-121890000D01*
G75*
G02*
X213625000Y-121740000I0J150000D01*
G01*
X213625000Y-121440000D01*
G75*
G02*
X213775000Y-121290000I150000J0D01*
G01*
X215450000Y-121290000D01*
G75*
G02*
X215600000Y-121440000I0J-150000D01*
G01*
G37*
G36*
G01*
X215600000Y-122710000D02*
X215600000Y-123010000D01*
G75*
G02*
X215450000Y-123160000I-150000J0D01*
G01*
X213775000Y-123160000D01*
G75*
G02*
X213625000Y-123010000I0J150000D01*
G01*
X213625000Y-122710000D01*
G75*
G02*
X213775000Y-122560000I150000J0D01*
G01*
X215450000Y-122560000D01*
G75*
G02*
X215600000Y-122710000I0J-150000D01*
G01*
G37*
G36*
G01*
X215600000Y-123980000D02*
X215600000Y-124280000D01*
G75*
G02*
X215450000Y-124430000I-150000J0D01*
G01*
X213775000Y-124430000D01*
G75*
G02*
X213625000Y-124280000I0J150000D01*
G01*
X213625000Y-123980000D01*
G75*
G02*
X213775000Y-123830000I150000J0D01*
G01*
X215450000Y-123830000D01*
G75*
G02*
X215600000Y-123980000I0J-150000D01*
G01*
G37*
G36*
G01*
X215600000Y-125250000D02*
X215600000Y-125550000D01*
G75*
G02*
X215450000Y-125700000I-150000J0D01*
G01*
X213775000Y-125700000D01*
G75*
G02*
X213625000Y-125550000I0J150000D01*
G01*
X213625000Y-125250000D01*
G75*
G02*
X213775000Y-125100000I150000J0D01*
G01*
X215450000Y-125100000D01*
G75*
G02*
X215600000Y-125250000I0J-150000D01*
G01*
G37*
G36*
G01*
X215600000Y-126520000D02*
X215600000Y-126820000D01*
G75*
G02*
X215450000Y-126970000I-150000J0D01*
G01*
X213775000Y-126970000D01*
G75*
G02*
X213625000Y-126820000I0J150000D01*
G01*
X213625000Y-126520000D01*
G75*
G02*
X213775000Y-126370000I150000J0D01*
G01*
X215450000Y-126370000D01*
G75*
G02*
X215600000Y-126520000I0J-150000D01*
G01*
G37*
G36*
G01*
X215600000Y-127790000D02*
X215600000Y-128090000D01*
G75*
G02*
X215450000Y-128240000I-150000J0D01*
G01*
X213775000Y-128240000D01*
G75*
G02*
X213625000Y-128090000I0J150000D01*
G01*
X213625000Y-127790000D01*
G75*
G02*
X213775000Y-127640000I150000J0D01*
G01*
X215450000Y-127640000D01*
G75*
G02*
X215600000Y-127790000I0J-150000D01*
G01*
G37*
G36*
G01*
X215600000Y-129060000D02*
X215600000Y-129360000D01*
G75*
G02*
X215450000Y-129510000I-150000J0D01*
G01*
X213775000Y-129510000D01*
G75*
G02*
X213625000Y-129360000I0J150000D01*
G01*
X213625000Y-129060000D01*
G75*
G02*
X213775000Y-128910000I150000J0D01*
G01*
X215450000Y-128910000D01*
G75*
G02*
X215600000Y-129060000I0J-150000D01*
G01*
G37*
%TD*%
%TO.C,U29*%
G36*
G01*
X153165000Y-118125000D02*
X152865000Y-118125000D01*
G75*
G02*
X152715000Y-117975000I0J150000D01*
G01*
X152715000Y-116225000D01*
G75*
G02*
X152865000Y-116075000I150000J0D01*
G01*
X153165000Y-116075000D01*
G75*
G02*
X153315000Y-116225000I0J-150000D01*
G01*
X153315000Y-117975000D01*
G75*
G02*
X153165000Y-118125000I-150000J0D01*
G01*
G37*
G36*
G01*
X154435000Y-118125000D02*
X154135000Y-118125000D01*
G75*
G02*
X153985000Y-117975000I0J150000D01*
G01*
X153985000Y-116225000D01*
G75*
G02*
X154135000Y-116075000I150000J0D01*
G01*
X154435000Y-116075000D01*
G75*
G02*
X154585000Y-116225000I0J-150000D01*
G01*
X154585000Y-117975000D01*
G75*
G02*
X154435000Y-118125000I-150000J0D01*
G01*
G37*
G36*
G01*
X155705000Y-118125000D02*
X155405000Y-118125000D01*
G75*
G02*
X155255000Y-117975000I0J150000D01*
G01*
X155255000Y-116225000D01*
G75*
G02*
X155405000Y-116075000I150000J0D01*
G01*
X155705000Y-116075000D01*
G75*
G02*
X155855000Y-116225000I0J-150000D01*
G01*
X155855000Y-117975000D01*
G75*
G02*
X155705000Y-118125000I-150000J0D01*
G01*
G37*
G36*
G01*
X156975000Y-118125000D02*
X156675000Y-118125000D01*
G75*
G02*
X156525000Y-117975000I0J150000D01*
G01*
X156525000Y-116225000D01*
G75*
G02*
X156675000Y-116075000I150000J0D01*
G01*
X156975000Y-116075000D01*
G75*
G02*
X157125000Y-116225000I0J-150000D01*
G01*
X157125000Y-117975000D01*
G75*
G02*
X156975000Y-118125000I-150000J0D01*
G01*
G37*
G36*
G01*
X158245000Y-118125000D02*
X157945000Y-118125000D01*
G75*
G02*
X157795000Y-117975000I0J150000D01*
G01*
X157795000Y-116225000D01*
G75*
G02*
X157945000Y-116075000I150000J0D01*
G01*
X158245000Y-116075000D01*
G75*
G02*
X158395000Y-116225000I0J-150000D01*
G01*
X158395000Y-117975000D01*
G75*
G02*
X158245000Y-118125000I-150000J0D01*
G01*
G37*
G36*
G01*
X159515000Y-118125000D02*
X159215000Y-118125000D01*
G75*
G02*
X159065000Y-117975000I0J150000D01*
G01*
X159065000Y-116225000D01*
G75*
G02*
X159215000Y-116075000I150000J0D01*
G01*
X159515000Y-116075000D01*
G75*
G02*
X159665000Y-116225000I0J-150000D01*
G01*
X159665000Y-117975000D01*
G75*
G02*
X159515000Y-118125000I-150000J0D01*
G01*
G37*
G36*
G01*
X160785000Y-118125000D02*
X160485000Y-118125000D01*
G75*
G02*
X160335000Y-117975000I0J150000D01*
G01*
X160335000Y-116225000D01*
G75*
G02*
X160485000Y-116075000I150000J0D01*
G01*
X160785000Y-116075000D01*
G75*
G02*
X160935000Y-116225000I0J-150000D01*
G01*
X160935000Y-117975000D01*
G75*
G02*
X160785000Y-118125000I-150000J0D01*
G01*
G37*
G36*
G01*
X162055000Y-118125000D02*
X161755000Y-118125000D01*
G75*
G02*
X161605000Y-117975000I0J150000D01*
G01*
X161605000Y-116225000D01*
G75*
G02*
X161755000Y-116075000I150000J0D01*
G01*
X162055000Y-116075000D01*
G75*
G02*
X162205000Y-116225000I0J-150000D01*
G01*
X162205000Y-117975000D01*
G75*
G02*
X162055000Y-118125000I-150000J0D01*
G01*
G37*
G36*
G01*
X163325000Y-118125000D02*
X163025000Y-118125000D01*
G75*
G02*
X162875000Y-117975000I0J150000D01*
G01*
X162875000Y-116225000D01*
G75*
G02*
X163025000Y-116075000I150000J0D01*
G01*
X163325000Y-116075000D01*
G75*
G02*
X163475000Y-116225000I0J-150000D01*
G01*
X163475000Y-117975000D01*
G75*
G02*
X163325000Y-118125000I-150000J0D01*
G01*
G37*
G36*
G01*
X164595000Y-118125000D02*
X164295000Y-118125000D01*
G75*
G02*
X164145000Y-117975000I0J150000D01*
G01*
X164145000Y-116225000D01*
G75*
G02*
X164295000Y-116075000I150000J0D01*
G01*
X164595000Y-116075000D01*
G75*
G02*
X164745000Y-116225000I0J-150000D01*
G01*
X164745000Y-117975000D01*
G75*
G02*
X164595000Y-118125000I-150000J0D01*
G01*
G37*
G36*
G01*
X165865000Y-118125000D02*
X165565000Y-118125000D01*
G75*
G02*
X165415000Y-117975000I0J150000D01*
G01*
X165415000Y-116225000D01*
G75*
G02*
X165565000Y-116075000I150000J0D01*
G01*
X165865000Y-116075000D01*
G75*
G02*
X166015000Y-116225000I0J-150000D01*
G01*
X166015000Y-117975000D01*
G75*
G02*
X165865000Y-118125000I-150000J0D01*
G01*
G37*
G36*
G01*
X167135000Y-118125000D02*
X166835000Y-118125000D01*
G75*
G02*
X166685000Y-117975000I0J150000D01*
G01*
X166685000Y-116225000D01*
G75*
G02*
X166835000Y-116075000I150000J0D01*
G01*
X167135000Y-116075000D01*
G75*
G02*
X167285000Y-116225000I0J-150000D01*
G01*
X167285000Y-117975000D01*
G75*
G02*
X167135000Y-118125000I-150000J0D01*
G01*
G37*
G36*
G01*
X167135000Y-108825000D02*
X166835000Y-108825000D01*
G75*
G02*
X166685000Y-108675000I0J150000D01*
G01*
X166685000Y-106925000D01*
G75*
G02*
X166835000Y-106775000I150000J0D01*
G01*
X167135000Y-106775000D01*
G75*
G02*
X167285000Y-106925000I0J-150000D01*
G01*
X167285000Y-108675000D01*
G75*
G02*
X167135000Y-108825000I-150000J0D01*
G01*
G37*
G36*
G01*
X165865000Y-108825000D02*
X165565000Y-108825000D01*
G75*
G02*
X165415000Y-108675000I0J150000D01*
G01*
X165415000Y-106925000D01*
G75*
G02*
X165565000Y-106775000I150000J0D01*
G01*
X165865000Y-106775000D01*
G75*
G02*
X166015000Y-106925000I0J-150000D01*
G01*
X166015000Y-108675000D01*
G75*
G02*
X165865000Y-108825000I-150000J0D01*
G01*
G37*
G36*
G01*
X164595000Y-108825000D02*
X164295000Y-108825000D01*
G75*
G02*
X164145000Y-108675000I0J150000D01*
G01*
X164145000Y-106925000D01*
G75*
G02*
X164295000Y-106775000I150000J0D01*
G01*
X164595000Y-106775000D01*
G75*
G02*
X164745000Y-106925000I0J-150000D01*
G01*
X164745000Y-108675000D01*
G75*
G02*
X164595000Y-108825000I-150000J0D01*
G01*
G37*
G36*
G01*
X163325000Y-108825000D02*
X163025000Y-108825000D01*
G75*
G02*
X162875000Y-108675000I0J150000D01*
G01*
X162875000Y-106925000D01*
G75*
G02*
X163025000Y-106775000I150000J0D01*
G01*
X163325000Y-106775000D01*
G75*
G02*
X163475000Y-106925000I0J-150000D01*
G01*
X163475000Y-108675000D01*
G75*
G02*
X163325000Y-108825000I-150000J0D01*
G01*
G37*
G36*
G01*
X162055000Y-108825000D02*
X161755000Y-108825000D01*
G75*
G02*
X161605000Y-108675000I0J150000D01*
G01*
X161605000Y-106925000D01*
G75*
G02*
X161755000Y-106775000I150000J0D01*
G01*
X162055000Y-106775000D01*
G75*
G02*
X162205000Y-106925000I0J-150000D01*
G01*
X162205000Y-108675000D01*
G75*
G02*
X162055000Y-108825000I-150000J0D01*
G01*
G37*
G36*
G01*
X160785000Y-108825000D02*
X160485000Y-108825000D01*
G75*
G02*
X160335000Y-108675000I0J150000D01*
G01*
X160335000Y-106925000D01*
G75*
G02*
X160485000Y-106775000I150000J0D01*
G01*
X160785000Y-106775000D01*
G75*
G02*
X160935000Y-106925000I0J-150000D01*
G01*
X160935000Y-108675000D01*
G75*
G02*
X160785000Y-108825000I-150000J0D01*
G01*
G37*
G36*
G01*
X159515000Y-108825000D02*
X159215000Y-108825000D01*
G75*
G02*
X159065000Y-108675000I0J150000D01*
G01*
X159065000Y-106925000D01*
G75*
G02*
X159215000Y-106775000I150000J0D01*
G01*
X159515000Y-106775000D01*
G75*
G02*
X159665000Y-106925000I0J-150000D01*
G01*
X159665000Y-108675000D01*
G75*
G02*
X159515000Y-108825000I-150000J0D01*
G01*
G37*
G36*
G01*
X158245000Y-108825000D02*
X157945000Y-108825000D01*
G75*
G02*
X157795000Y-108675000I0J150000D01*
G01*
X157795000Y-106925000D01*
G75*
G02*
X157945000Y-106775000I150000J0D01*
G01*
X158245000Y-106775000D01*
G75*
G02*
X158395000Y-106925000I0J-150000D01*
G01*
X158395000Y-108675000D01*
G75*
G02*
X158245000Y-108825000I-150000J0D01*
G01*
G37*
G36*
G01*
X156975000Y-108825000D02*
X156675000Y-108825000D01*
G75*
G02*
X156525000Y-108675000I0J150000D01*
G01*
X156525000Y-106925000D01*
G75*
G02*
X156675000Y-106775000I150000J0D01*
G01*
X156975000Y-106775000D01*
G75*
G02*
X157125000Y-106925000I0J-150000D01*
G01*
X157125000Y-108675000D01*
G75*
G02*
X156975000Y-108825000I-150000J0D01*
G01*
G37*
G36*
G01*
X155705000Y-108825000D02*
X155405000Y-108825000D01*
G75*
G02*
X155255000Y-108675000I0J150000D01*
G01*
X155255000Y-106925000D01*
G75*
G02*
X155405000Y-106775000I150000J0D01*
G01*
X155705000Y-106775000D01*
G75*
G02*
X155855000Y-106925000I0J-150000D01*
G01*
X155855000Y-108675000D01*
G75*
G02*
X155705000Y-108825000I-150000J0D01*
G01*
G37*
G36*
G01*
X154435000Y-108825000D02*
X154135000Y-108825000D01*
G75*
G02*
X153985000Y-108675000I0J150000D01*
G01*
X153985000Y-106925000D01*
G75*
G02*
X154135000Y-106775000I150000J0D01*
G01*
X154435000Y-106775000D01*
G75*
G02*
X154585000Y-106925000I0J-150000D01*
G01*
X154585000Y-108675000D01*
G75*
G02*
X154435000Y-108825000I-150000J0D01*
G01*
G37*
G36*
G01*
X153165000Y-108825000D02*
X152865000Y-108825000D01*
G75*
G02*
X152715000Y-108675000I0J150000D01*
G01*
X152715000Y-106925000D01*
G75*
G02*
X152865000Y-106775000I150000J0D01*
G01*
X153165000Y-106775000D01*
G75*
G02*
X153315000Y-106925000I0J-150000D01*
G01*
X153315000Y-108675000D01*
G75*
G02*
X153165000Y-108825000I-150000J0D01*
G01*
G37*
%TD*%
%TO.C,U30*%
G36*
G01*
X152325000Y-129010000D02*
X152325000Y-129310000D01*
G75*
G02*
X152175000Y-129460000I-150000J0D01*
G01*
X150500000Y-129460000D01*
G75*
G02*
X150350000Y-129310000I0J150000D01*
G01*
X150350000Y-129010000D01*
G75*
G02*
X150500000Y-128860000I150000J0D01*
G01*
X152175000Y-128860000D01*
G75*
G02*
X152325000Y-129010000I0J-150000D01*
G01*
G37*
G36*
G01*
X152325000Y-127740000D02*
X152325000Y-128040000D01*
G75*
G02*
X152175000Y-128190000I-150000J0D01*
G01*
X150500000Y-128190000D01*
G75*
G02*
X150350000Y-128040000I0J150000D01*
G01*
X150350000Y-127740000D01*
G75*
G02*
X150500000Y-127590000I150000J0D01*
G01*
X152175000Y-127590000D01*
G75*
G02*
X152325000Y-127740000I0J-150000D01*
G01*
G37*
G36*
G01*
X152325000Y-126470000D02*
X152325000Y-126770000D01*
G75*
G02*
X152175000Y-126920000I-150000J0D01*
G01*
X150500000Y-126920000D01*
G75*
G02*
X150350000Y-126770000I0J150000D01*
G01*
X150350000Y-126470000D01*
G75*
G02*
X150500000Y-126320000I150000J0D01*
G01*
X152175000Y-126320000D01*
G75*
G02*
X152325000Y-126470000I0J-150000D01*
G01*
G37*
G36*
G01*
X152325000Y-125200000D02*
X152325000Y-125500000D01*
G75*
G02*
X152175000Y-125650000I-150000J0D01*
G01*
X150500000Y-125650000D01*
G75*
G02*
X150350000Y-125500000I0J150000D01*
G01*
X150350000Y-125200000D01*
G75*
G02*
X150500000Y-125050000I150000J0D01*
G01*
X152175000Y-125050000D01*
G75*
G02*
X152325000Y-125200000I0J-150000D01*
G01*
G37*
G36*
G01*
X152325000Y-123930000D02*
X152325000Y-124230000D01*
G75*
G02*
X152175000Y-124380000I-150000J0D01*
G01*
X150500000Y-124380000D01*
G75*
G02*
X150350000Y-124230000I0J150000D01*
G01*
X150350000Y-123930000D01*
G75*
G02*
X150500000Y-123780000I150000J0D01*
G01*
X152175000Y-123780000D01*
G75*
G02*
X152325000Y-123930000I0J-150000D01*
G01*
G37*
G36*
G01*
X152325000Y-122660000D02*
X152325000Y-122960000D01*
G75*
G02*
X152175000Y-123110000I-150000J0D01*
G01*
X150500000Y-123110000D01*
G75*
G02*
X150350000Y-122960000I0J150000D01*
G01*
X150350000Y-122660000D01*
G75*
G02*
X150500000Y-122510000I150000J0D01*
G01*
X152175000Y-122510000D01*
G75*
G02*
X152325000Y-122660000I0J-150000D01*
G01*
G37*
G36*
G01*
X152325000Y-121390000D02*
X152325000Y-121690000D01*
G75*
G02*
X152175000Y-121840000I-150000J0D01*
G01*
X150500000Y-121840000D01*
G75*
G02*
X150350000Y-121690000I0J150000D01*
G01*
X150350000Y-121390000D01*
G75*
G02*
X150500000Y-121240000I150000J0D01*
G01*
X152175000Y-121240000D01*
G75*
G02*
X152325000Y-121390000I0J-150000D01*
G01*
G37*
G36*
G01*
X159250000Y-121390000D02*
X159250000Y-121690000D01*
G75*
G02*
X159100000Y-121840000I-150000J0D01*
G01*
X157425000Y-121840000D01*
G75*
G02*
X157275000Y-121690000I0J150000D01*
G01*
X157275000Y-121390000D01*
G75*
G02*
X157425000Y-121240000I150000J0D01*
G01*
X159100000Y-121240000D01*
G75*
G02*
X159250000Y-121390000I0J-150000D01*
G01*
G37*
G36*
G01*
X159250000Y-122660000D02*
X159250000Y-122960000D01*
G75*
G02*
X159100000Y-123110000I-150000J0D01*
G01*
X157425000Y-123110000D01*
G75*
G02*
X157275000Y-122960000I0J150000D01*
G01*
X157275000Y-122660000D01*
G75*
G02*
X157425000Y-122510000I150000J0D01*
G01*
X159100000Y-122510000D01*
G75*
G02*
X159250000Y-122660000I0J-150000D01*
G01*
G37*
G36*
G01*
X159250000Y-123930000D02*
X159250000Y-124230000D01*
G75*
G02*
X159100000Y-124380000I-150000J0D01*
G01*
X157425000Y-124380000D01*
G75*
G02*
X157275000Y-124230000I0J150000D01*
G01*
X157275000Y-123930000D01*
G75*
G02*
X157425000Y-123780000I150000J0D01*
G01*
X159100000Y-123780000D01*
G75*
G02*
X159250000Y-123930000I0J-150000D01*
G01*
G37*
G36*
G01*
X159250000Y-125200000D02*
X159250000Y-125500000D01*
G75*
G02*
X159100000Y-125650000I-150000J0D01*
G01*
X157425000Y-125650000D01*
G75*
G02*
X157275000Y-125500000I0J150000D01*
G01*
X157275000Y-125200000D01*
G75*
G02*
X157425000Y-125050000I150000J0D01*
G01*
X159100000Y-125050000D01*
G75*
G02*
X159250000Y-125200000I0J-150000D01*
G01*
G37*
G36*
G01*
X159250000Y-126470000D02*
X159250000Y-126770000D01*
G75*
G02*
X159100000Y-126920000I-150000J0D01*
G01*
X157425000Y-126920000D01*
G75*
G02*
X157275000Y-126770000I0J150000D01*
G01*
X157275000Y-126470000D01*
G75*
G02*
X157425000Y-126320000I150000J0D01*
G01*
X159100000Y-126320000D01*
G75*
G02*
X159250000Y-126470000I0J-150000D01*
G01*
G37*
G36*
G01*
X159250000Y-127740000D02*
X159250000Y-128040000D01*
G75*
G02*
X159100000Y-128190000I-150000J0D01*
G01*
X157425000Y-128190000D01*
G75*
G02*
X157275000Y-128040000I0J150000D01*
G01*
X157275000Y-127740000D01*
G75*
G02*
X157425000Y-127590000I150000J0D01*
G01*
X159100000Y-127590000D01*
G75*
G02*
X159250000Y-127740000I0J-150000D01*
G01*
G37*
G36*
G01*
X159250000Y-129010000D02*
X159250000Y-129310000D01*
G75*
G02*
X159100000Y-129460000I-150000J0D01*
G01*
X157425000Y-129460000D01*
G75*
G02*
X157275000Y-129310000I0J150000D01*
G01*
X157275000Y-129010000D01*
G75*
G02*
X157425000Y-128860000I150000J0D01*
G01*
X159100000Y-128860000D01*
G75*
G02*
X159250000Y-129010000I0J-150000D01*
G01*
G37*
%TD*%
%TO.C,U31*%
G36*
G01*
X169600000Y-129060000D02*
X169600000Y-129360000D01*
G75*
G02*
X169450000Y-129510000I-150000J0D01*
G01*
X167775000Y-129510000D01*
G75*
G02*
X167625000Y-129360000I0J150000D01*
G01*
X167625000Y-129060000D01*
G75*
G02*
X167775000Y-128910000I150000J0D01*
G01*
X169450000Y-128910000D01*
G75*
G02*
X169600000Y-129060000I0J-150000D01*
G01*
G37*
G36*
G01*
X169600000Y-127790000D02*
X169600000Y-128090000D01*
G75*
G02*
X169450000Y-128240000I-150000J0D01*
G01*
X167775000Y-128240000D01*
G75*
G02*
X167625000Y-128090000I0J150000D01*
G01*
X167625000Y-127790000D01*
G75*
G02*
X167775000Y-127640000I150000J0D01*
G01*
X169450000Y-127640000D01*
G75*
G02*
X169600000Y-127790000I0J-150000D01*
G01*
G37*
G36*
G01*
X169600000Y-126520000D02*
X169600000Y-126820000D01*
G75*
G02*
X169450000Y-126970000I-150000J0D01*
G01*
X167775000Y-126970000D01*
G75*
G02*
X167625000Y-126820000I0J150000D01*
G01*
X167625000Y-126520000D01*
G75*
G02*
X167775000Y-126370000I150000J0D01*
G01*
X169450000Y-126370000D01*
G75*
G02*
X169600000Y-126520000I0J-150000D01*
G01*
G37*
G36*
G01*
X169600000Y-125250000D02*
X169600000Y-125550000D01*
G75*
G02*
X169450000Y-125700000I-150000J0D01*
G01*
X167775000Y-125700000D01*
G75*
G02*
X167625000Y-125550000I0J150000D01*
G01*
X167625000Y-125250000D01*
G75*
G02*
X167775000Y-125100000I150000J0D01*
G01*
X169450000Y-125100000D01*
G75*
G02*
X169600000Y-125250000I0J-150000D01*
G01*
G37*
G36*
G01*
X169600000Y-123980000D02*
X169600000Y-124280000D01*
G75*
G02*
X169450000Y-124430000I-150000J0D01*
G01*
X167775000Y-124430000D01*
G75*
G02*
X167625000Y-124280000I0J150000D01*
G01*
X167625000Y-123980000D01*
G75*
G02*
X167775000Y-123830000I150000J0D01*
G01*
X169450000Y-123830000D01*
G75*
G02*
X169600000Y-123980000I0J-150000D01*
G01*
G37*
G36*
G01*
X169600000Y-122710000D02*
X169600000Y-123010000D01*
G75*
G02*
X169450000Y-123160000I-150000J0D01*
G01*
X167775000Y-123160000D01*
G75*
G02*
X167625000Y-123010000I0J150000D01*
G01*
X167625000Y-122710000D01*
G75*
G02*
X167775000Y-122560000I150000J0D01*
G01*
X169450000Y-122560000D01*
G75*
G02*
X169600000Y-122710000I0J-150000D01*
G01*
G37*
G36*
G01*
X169600000Y-121440000D02*
X169600000Y-121740000D01*
G75*
G02*
X169450000Y-121890000I-150000J0D01*
G01*
X167775000Y-121890000D01*
G75*
G02*
X167625000Y-121740000I0J150000D01*
G01*
X167625000Y-121440000D01*
G75*
G02*
X167775000Y-121290000I150000J0D01*
G01*
X169450000Y-121290000D01*
G75*
G02*
X169600000Y-121440000I0J-150000D01*
G01*
G37*
G36*
G01*
X162675000Y-121440000D02*
X162675000Y-121740000D01*
G75*
G02*
X162525000Y-121890000I-150000J0D01*
G01*
X160850000Y-121890000D01*
G75*
G02*
X160700000Y-121740000I0J150000D01*
G01*
X160700000Y-121440000D01*
G75*
G02*
X160850000Y-121290000I150000J0D01*
G01*
X162525000Y-121290000D01*
G75*
G02*
X162675000Y-121440000I0J-150000D01*
G01*
G37*
G36*
G01*
X162675000Y-122710000D02*
X162675000Y-123010000D01*
G75*
G02*
X162525000Y-123160000I-150000J0D01*
G01*
X160850000Y-123160000D01*
G75*
G02*
X160700000Y-123010000I0J150000D01*
G01*
X160700000Y-122710000D01*
G75*
G02*
X160850000Y-122560000I150000J0D01*
G01*
X162525000Y-122560000D01*
G75*
G02*
X162675000Y-122710000I0J-150000D01*
G01*
G37*
G36*
G01*
X162675000Y-123980000D02*
X162675000Y-124280000D01*
G75*
G02*
X162525000Y-124430000I-150000J0D01*
G01*
X160850000Y-124430000D01*
G75*
G02*
X160700000Y-124280000I0J150000D01*
G01*
X160700000Y-123980000D01*
G75*
G02*
X160850000Y-123830000I150000J0D01*
G01*
X162525000Y-123830000D01*
G75*
G02*
X162675000Y-123980000I0J-150000D01*
G01*
G37*
G36*
G01*
X162675000Y-125250000D02*
X162675000Y-125550000D01*
G75*
G02*
X162525000Y-125700000I-150000J0D01*
G01*
X160850000Y-125700000D01*
G75*
G02*
X160700000Y-125550000I0J150000D01*
G01*
X160700000Y-125250000D01*
G75*
G02*
X160850000Y-125100000I150000J0D01*
G01*
X162525000Y-125100000D01*
G75*
G02*
X162675000Y-125250000I0J-150000D01*
G01*
G37*
G36*
G01*
X162675000Y-126520000D02*
X162675000Y-126820000D01*
G75*
G02*
X162525000Y-126970000I-150000J0D01*
G01*
X160850000Y-126970000D01*
G75*
G02*
X160700000Y-126820000I0J150000D01*
G01*
X160700000Y-126520000D01*
G75*
G02*
X160850000Y-126370000I150000J0D01*
G01*
X162525000Y-126370000D01*
G75*
G02*
X162675000Y-126520000I0J-150000D01*
G01*
G37*
G36*
G01*
X162675000Y-127790000D02*
X162675000Y-128090000D01*
G75*
G02*
X162525000Y-128240000I-150000J0D01*
G01*
X160850000Y-128240000D01*
G75*
G02*
X160700000Y-128090000I0J150000D01*
G01*
X160700000Y-127790000D01*
G75*
G02*
X160850000Y-127640000I150000J0D01*
G01*
X162525000Y-127640000D01*
G75*
G02*
X162675000Y-127790000I0J-150000D01*
G01*
G37*
G36*
G01*
X162675000Y-129060000D02*
X162675000Y-129360000D01*
G75*
G02*
X162525000Y-129510000I-150000J0D01*
G01*
X160850000Y-129510000D01*
G75*
G02*
X160700000Y-129360000I0J150000D01*
G01*
X160700000Y-129060000D01*
G75*
G02*
X160850000Y-128910000I150000J0D01*
G01*
X162525000Y-128910000D01*
G75*
G02*
X162675000Y-129060000I0J-150000D01*
G01*
G37*
%TD*%
D35*
%TO.C,Y1*%
X140000000Y-90300000D03*
X140000000Y-84800000D03*
%TD*%
%TO.C,U32*%
G36*
G01*
X125400000Y-74545000D02*
X125400000Y-74245000D01*
G75*
G02*
X125550000Y-74095000I150000J0D01*
G01*
X127200000Y-74095000D01*
G75*
G02*
X127350000Y-74245000I0J-150000D01*
G01*
X127350000Y-74545000D01*
G75*
G02*
X127200000Y-74695000I-150000J0D01*
G01*
X125550000Y-74695000D01*
G75*
G02*
X125400000Y-74545000I0J150000D01*
G01*
G37*
G36*
G01*
X125400000Y-75815000D02*
X125400000Y-75515000D01*
G75*
G02*
X125550000Y-75365000I150000J0D01*
G01*
X127200000Y-75365000D01*
G75*
G02*
X127350000Y-75515000I0J-150000D01*
G01*
X127350000Y-75815000D01*
G75*
G02*
X127200000Y-75965000I-150000J0D01*
G01*
X125550000Y-75965000D01*
G75*
G02*
X125400000Y-75815000I0J150000D01*
G01*
G37*
G36*
G01*
X125400000Y-77085000D02*
X125400000Y-76785000D01*
G75*
G02*
X125550000Y-76635000I150000J0D01*
G01*
X127200000Y-76635000D01*
G75*
G02*
X127350000Y-76785000I0J-150000D01*
G01*
X127350000Y-77085000D01*
G75*
G02*
X127200000Y-77235000I-150000J0D01*
G01*
X125550000Y-77235000D01*
G75*
G02*
X125400000Y-77085000I0J150000D01*
G01*
G37*
G36*
G01*
X125400000Y-78355000D02*
X125400000Y-78055000D01*
G75*
G02*
X125550000Y-77905000I150000J0D01*
G01*
X127200000Y-77905000D01*
G75*
G02*
X127350000Y-78055000I0J-150000D01*
G01*
X127350000Y-78355000D01*
G75*
G02*
X127200000Y-78505000I-150000J0D01*
G01*
X125550000Y-78505000D01*
G75*
G02*
X125400000Y-78355000I0J150000D01*
G01*
G37*
G36*
G01*
X130350000Y-78355000D02*
X130350000Y-78055000D01*
G75*
G02*
X130500000Y-77905000I150000J0D01*
G01*
X132150000Y-77905000D01*
G75*
G02*
X132300000Y-78055000I0J-150000D01*
G01*
X132300000Y-78355000D01*
G75*
G02*
X132150000Y-78505000I-150000J0D01*
G01*
X130500000Y-78505000D01*
G75*
G02*
X130350000Y-78355000I0J150000D01*
G01*
G37*
G36*
G01*
X130350000Y-77085000D02*
X130350000Y-76785000D01*
G75*
G02*
X130500000Y-76635000I150000J0D01*
G01*
X132150000Y-76635000D01*
G75*
G02*
X132300000Y-76785000I0J-150000D01*
G01*
X132300000Y-77085000D01*
G75*
G02*
X132150000Y-77235000I-150000J0D01*
G01*
X130500000Y-77235000D01*
G75*
G02*
X130350000Y-77085000I0J150000D01*
G01*
G37*
G36*
G01*
X130350000Y-75815000D02*
X130350000Y-75515000D01*
G75*
G02*
X130500000Y-75365000I150000J0D01*
G01*
X132150000Y-75365000D01*
G75*
G02*
X132300000Y-75515000I0J-150000D01*
G01*
X132300000Y-75815000D01*
G75*
G02*
X132150000Y-75965000I-150000J0D01*
G01*
X130500000Y-75965000D01*
G75*
G02*
X130350000Y-75815000I0J150000D01*
G01*
G37*
G36*
G01*
X130350000Y-74545000D02*
X130350000Y-74245000D01*
G75*
G02*
X130500000Y-74095000I150000J0D01*
G01*
X132150000Y-74095000D01*
G75*
G02*
X132300000Y-74245000I0J-150000D01*
G01*
X132300000Y-74545000D01*
G75*
G02*
X132150000Y-74695000I-150000J0D01*
G01*
X130500000Y-74695000D01*
G75*
G02*
X130350000Y-74545000I0J150000D01*
G01*
G37*
%TD*%
D36*
%TO.C,Y2*%
X123400000Y-75375000D03*
X123400000Y-77225000D03*
%TD*%
D23*
%TO.C,J5*%
X125500000Y-141760000D03*
D24*
X125500000Y-144300000D03*
X125500000Y-146840000D03*
%TD*%
D37*
%TO.C,Y3*%
X121950000Y-77250000D03*
X121950000Y-75350000D03*
%TD*%
M02*
