%TF.GenerationSoftware,KiCad,Pcbnew,5.1.8+dfsg1-1+b1*%
%TF.CreationDate,2021-02-15T01:52:31+02:00*%
%TF.ProjectId,nixiedisp,6e697869-6564-4697-9370-2e6b69636164,2*%
%TF.SameCoordinates,Original*%
%TF.FileFunction,Paste,Bot*%
%TF.FilePolarity,Positive*%
%FSLAX46Y46*%
G04 Gerber Fmt 4.6, Leading zero omitted, Abs format (unit mm)*
G04 Created by KiCad (PCBNEW 5.1.8+dfsg1-1+b1) date 2021-02-15 01:52:31*
%MOMM*%
%LPD*%
G01*
G04 APERTURE LIST*
%ADD10R,0.800000X0.900000*%
%ADD11R,0.900000X0.800000*%
G04 APERTURE END LIST*
%TO.C,R27*%
G36*
G01*
X122850000Y-84349999D02*
X122850000Y-85250001D01*
G75*
G02*
X122600001Y-85500000I-249999J0D01*
G01*
X121949999Y-85500000D01*
G75*
G02*
X121700000Y-85250001I0J249999D01*
G01*
X121700000Y-84349999D01*
G75*
G02*
X121949999Y-84100000I249999J0D01*
G01*
X122600001Y-84100000D01*
G75*
G02*
X122850000Y-84349999I0J-249999D01*
G01*
G37*
G36*
G01*
X124900000Y-84349999D02*
X124900000Y-85250001D01*
G75*
G02*
X124650001Y-85500000I-249999J0D01*
G01*
X123999999Y-85500000D01*
G75*
G02*
X123750000Y-85250001I0J249999D01*
G01*
X123750000Y-84349999D01*
G75*
G02*
X123999999Y-84100000I249999J0D01*
G01*
X124650001Y-84100000D01*
G75*
G02*
X124900000Y-84349999I0J-249999D01*
G01*
G37*
%TD*%
%TO.C,U19*%
G36*
G01*
X157135000Y-91875000D02*
X156835000Y-91875000D01*
G75*
G02*
X156685000Y-91725000I0J150000D01*
G01*
X156685000Y-89975000D01*
G75*
G02*
X156835000Y-89825000I150000J0D01*
G01*
X157135000Y-89825000D01*
G75*
G02*
X157285000Y-89975000I0J-150000D01*
G01*
X157285000Y-91725000D01*
G75*
G02*
X157135000Y-91875000I-150000J0D01*
G01*
G37*
G36*
G01*
X155865000Y-91875000D02*
X155565000Y-91875000D01*
G75*
G02*
X155415000Y-91725000I0J150000D01*
G01*
X155415000Y-89975000D01*
G75*
G02*
X155565000Y-89825000I150000J0D01*
G01*
X155865000Y-89825000D01*
G75*
G02*
X156015000Y-89975000I0J-150000D01*
G01*
X156015000Y-91725000D01*
G75*
G02*
X155865000Y-91875000I-150000J0D01*
G01*
G37*
G36*
G01*
X154595000Y-91875000D02*
X154295000Y-91875000D01*
G75*
G02*
X154145000Y-91725000I0J150000D01*
G01*
X154145000Y-89975000D01*
G75*
G02*
X154295000Y-89825000I150000J0D01*
G01*
X154595000Y-89825000D01*
G75*
G02*
X154745000Y-89975000I0J-150000D01*
G01*
X154745000Y-91725000D01*
G75*
G02*
X154595000Y-91875000I-150000J0D01*
G01*
G37*
G36*
G01*
X153325000Y-91875000D02*
X153025000Y-91875000D01*
G75*
G02*
X152875000Y-91725000I0J150000D01*
G01*
X152875000Y-89975000D01*
G75*
G02*
X153025000Y-89825000I150000J0D01*
G01*
X153325000Y-89825000D01*
G75*
G02*
X153475000Y-89975000I0J-150000D01*
G01*
X153475000Y-91725000D01*
G75*
G02*
X153325000Y-91875000I-150000J0D01*
G01*
G37*
G36*
G01*
X152055000Y-91875000D02*
X151755000Y-91875000D01*
G75*
G02*
X151605000Y-91725000I0J150000D01*
G01*
X151605000Y-89975000D01*
G75*
G02*
X151755000Y-89825000I150000J0D01*
G01*
X152055000Y-89825000D01*
G75*
G02*
X152205000Y-89975000I0J-150000D01*
G01*
X152205000Y-91725000D01*
G75*
G02*
X152055000Y-91875000I-150000J0D01*
G01*
G37*
G36*
G01*
X150785000Y-91875000D02*
X150485000Y-91875000D01*
G75*
G02*
X150335000Y-91725000I0J150000D01*
G01*
X150335000Y-89975000D01*
G75*
G02*
X150485000Y-89825000I150000J0D01*
G01*
X150785000Y-89825000D01*
G75*
G02*
X150935000Y-89975000I0J-150000D01*
G01*
X150935000Y-91725000D01*
G75*
G02*
X150785000Y-91875000I-150000J0D01*
G01*
G37*
G36*
G01*
X149515000Y-91875000D02*
X149215000Y-91875000D01*
G75*
G02*
X149065000Y-91725000I0J150000D01*
G01*
X149065000Y-89975000D01*
G75*
G02*
X149215000Y-89825000I150000J0D01*
G01*
X149515000Y-89825000D01*
G75*
G02*
X149665000Y-89975000I0J-150000D01*
G01*
X149665000Y-91725000D01*
G75*
G02*
X149515000Y-91875000I-150000J0D01*
G01*
G37*
G36*
G01*
X148245000Y-91875000D02*
X147945000Y-91875000D01*
G75*
G02*
X147795000Y-91725000I0J150000D01*
G01*
X147795000Y-89975000D01*
G75*
G02*
X147945000Y-89825000I150000J0D01*
G01*
X148245000Y-89825000D01*
G75*
G02*
X148395000Y-89975000I0J-150000D01*
G01*
X148395000Y-91725000D01*
G75*
G02*
X148245000Y-91875000I-150000J0D01*
G01*
G37*
G36*
G01*
X146975000Y-91875000D02*
X146675000Y-91875000D01*
G75*
G02*
X146525000Y-91725000I0J150000D01*
G01*
X146525000Y-89975000D01*
G75*
G02*
X146675000Y-89825000I150000J0D01*
G01*
X146975000Y-89825000D01*
G75*
G02*
X147125000Y-89975000I0J-150000D01*
G01*
X147125000Y-91725000D01*
G75*
G02*
X146975000Y-91875000I-150000J0D01*
G01*
G37*
G36*
G01*
X145705000Y-91875000D02*
X145405000Y-91875000D01*
G75*
G02*
X145255000Y-91725000I0J150000D01*
G01*
X145255000Y-89975000D01*
G75*
G02*
X145405000Y-89825000I150000J0D01*
G01*
X145705000Y-89825000D01*
G75*
G02*
X145855000Y-89975000I0J-150000D01*
G01*
X145855000Y-91725000D01*
G75*
G02*
X145705000Y-91875000I-150000J0D01*
G01*
G37*
G36*
G01*
X144435000Y-91875000D02*
X144135000Y-91875000D01*
G75*
G02*
X143985000Y-91725000I0J150000D01*
G01*
X143985000Y-89975000D01*
G75*
G02*
X144135000Y-89825000I150000J0D01*
G01*
X144435000Y-89825000D01*
G75*
G02*
X144585000Y-89975000I0J-150000D01*
G01*
X144585000Y-91725000D01*
G75*
G02*
X144435000Y-91875000I-150000J0D01*
G01*
G37*
G36*
G01*
X143165000Y-91875000D02*
X142865000Y-91875000D01*
G75*
G02*
X142715000Y-91725000I0J150000D01*
G01*
X142715000Y-89975000D01*
G75*
G02*
X142865000Y-89825000I150000J0D01*
G01*
X143165000Y-89825000D01*
G75*
G02*
X143315000Y-89975000I0J-150000D01*
G01*
X143315000Y-91725000D01*
G75*
G02*
X143165000Y-91875000I-150000J0D01*
G01*
G37*
G36*
G01*
X143165000Y-101175000D02*
X142865000Y-101175000D01*
G75*
G02*
X142715000Y-101025000I0J150000D01*
G01*
X142715000Y-99275000D01*
G75*
G02*
X142865000Y-99125000I150000J0D01*
G01*
X143165000Y-99125000D01*
G75*
G02*
X143315000Y-99275000I0J-150000D01*
G01*
X143315000Y-101025000D01*
G75*
G02*
X143165000Y-101175000I-150000J0D01*
G01*
G37*
G36*
G01*
X144435000Y-101175000D02*
X144135000Y-101175000D01*
G75*
G02*
X143985000Y-101025000I0J150000D01*
G01*
X143985000Y-99275000D01*
G75*
G02*
X144135000Y-99125000I150000J0D01*
G01*
X144435000Y-99125000D01*
G75*
G02*
X144585000Y-99275000I0J-150000D01*
G01*
X144585000Y-101025000D01*
G75*
G02*
X144435000Y-101175000I-150000J0D01*
G01*
G37*
G36*
G01*
X145705000Y-101175000D02*
X145405000Y-101175000D01*
G75*
G02*
X145255000Y-101025000I0J150000D01*
G01*
X145255000Y-99275000D01*
G75*
G02*
X145405000Y-99125000I150000J0D01*
G01*
X145705000Y-99125000D01*
G75*
G02*
X145855000Y-99275000I0J-150000D01*
G01*
X145855000Y-101025000D01*
G75*
G02*
X145705000Y-101175000I-150000J0D01*
G01*
G37*
G36*
G01*
X146975000Y-101175000D02*
X146675000Y-101175000D01*
G75*
G02*
X146525000Y-101025000I0J150000D01*
G01*
X146525000Y-99275000D01*
G75*
G02*
X146675000Y-99125000I150000J0D01*
G01*
X146975000Y-99125000D01*
G75*
G02*
X147125000Y-99275000I0J-150000D01*
G01*
X147125000Y-101025000D01*
G75*
G02*
X146975000Y-101175000I-150000J0D01*
G01*
G37*
G36*
G01*
X148245000Y-101175000D02*
X147945000Y-101175000D01*
G75*
G02*
X147795000Y-101025000I0J150000D01*
G01*
X147795000Y-99275000D01*
G75*
G02*
X147945000Y-99125000I150000J0D01*
G01*
X148245000Y-99125000D01*
G75*
G02*
X148395000Y-99275000I0J-150000D01*
G01*
X148395000Y-101025000D01*
G75*
G02*
X148245000Y-101175000I-150000J0D01*
G01*
G37*
G36*
G01*
X149515000Y-101175000D02*
X149215000Y-101175000D01*
G75*
G02*
X149065000Y-101025000I0J150000D01*
G01*
X149065000Y-99275000D01*
G75*
G02*
X149215000Y-99125000I150000J0D01*
G01*
X149515000Y-99125000D01*
G75*
G02*
X149665000Y-99275000I0J-150000D01*
G01*
X149665000Y-101025000D01*
G75*
G02*
X149515000Y-101175000I-150000J0D01*
G01*
G37*
G36*
G01*
X150785000Y-101175000D02*
X150485000Y-101175000D01*
G75*
G02*
X150335000Y-101025000I0J150000D01*
G01*
X150335000Y-99275000D01*
G75*
G02*
X150485000Y-99125000I150000J0D01*
G01*
X150785000Y-99125000D01*
G75*
G02*
X150935000Y-99275000I0J-150000D01*
G01*
X150935000Y-101025000D01*
G75*
G02*
X150785000Y-101175000I-150000J0D01*
G01*
G37*
G36*
G01*
X152055000Y-101175000D02*
X151755000Y-101175000D01*
G75*
G02*
X151605000Y-101025000I0J150000D01*
G01*
X151605000Y-99275000D01*
G75*
G02*
X151755000Y-99125000I150000J0D01*
G01*
X152055000Y-99125000D01*
G75*
G02*
X152205000Y-99275000I0J-150000D01*
G01*
X152205000Y-101025000D01*
G75*
G02*
X152055000Y-101175000I-150000J0D01*
G01*
G37*
G36*
G01*
X153325000Y-101175000D02*
X153025000Y-101175000D01*
G75*
G02*
X152875000Y-101025000I0J150000D01*
G01*
X152875000Y-99275000D01*
G75*
G02*
X153025000Y-99125000I150000J0D01*
G01*
X153325000Y-99125000D01*
G75*
G02*
X153475000Y-99275000I0J-150000D01*
G01*
X153475000Y-101025000D01*
G75*
G02*
X153325000Y-101175000I-150000J0D01*
G01*
G37*
G36*
G01*
X154595000Y-101175000D02*
X154295000Y-101175000D01*
G75*
G02*
X154145000Y-101025000I0J150000D01*
G01*
X154145000Y-99275000D01*
G75*
G02*
X154295000Y-99125000I150000J0D01*
G01*
X154595000Y-99125000D01*
G75*
G02*
X154745000Y-99275000I0J-150000D01*
G01*
X154745000Y-101025000D01*
G75*
G02*
X154595000Y-101175000I-150000J0D01*
G01*
G37*
G36*
G01*
X155865000Y-101175000D02*
X155565000Y-101175000D01*
G75*
G02*
X155415000Y-101025000I0J150000D01*
G01*
X155415000Y-99275000D01*
G75*
G02*
X155565000Y-99125000I150000J0D01*
G01*
X155865000Y-99125000D01*
G75*
G02*
X156015000Y-99275000I0J-150000D01*
G01*
X156015000Y-101025000D01*
G75*
G02*
X155865000Y-101175000I-150000J0D01*
G01*
G37*
G36*
G01*
X157135000Y-101175000D02*
X156835000Y-101175000D01*
G75*
G02*
X156685000Y-101025000I0J150000D01*
G01*
X156685000Y-99275000D01*
G75*
G02*
X156835000Y-99125000I150000J0D01*
G01*
X157135000Y-99125000D01*
G75*
G02*
X157285000Y-99275000I0J-150000D01*
G01*
X157285000Y-101025000D01*
G75*
G02*
X157135000Y-101175000I-150000J0D01*
G01*
G37*
%TD*%
%TO.C,U18*%
G36*
G01*
X203135000Y-91875000D02*
X202835000Y-91875000D01*
G75*
G02*
X202685000Y-91725000I0J150000D01*
G01*
X202685000Y-89975000D01*
G75*
G02*
X202835000Y-89825000I150000J0D01*
G01*
X203135000Y-89825000D01*
G75*
G02*
X203285000Y-89975000I0J-150000D01*
G01*
X203285000Y-91725000D01*
G75*
G02*
X203135000Y-91875000I-150000J0D01*
G01*
G37*
G36*
G01*
X201865000Y-91875000D02*
X201565000Y-91875000D01*
G75*
G02*
X201415000Y-91725000I0J150000D01*
G01*
X201415000Y-89975000D01*
G75*
G02*
X201565000Y-89825000I150000J0D01*
G01*
X201865000Y-89825000D01*
G75*
G02*
X202015000Y-89975000I0J-150000D01*
G01*
X202015000Y-91725000D01*
G75*
G02*
X201865000Y-91875000I-150000J0D01*
G01*
G37*
G36*
G01*
X200595000Y-91875000D02*
X200295000Y-91875000D01*
G75*
G02*
X200145000Y-91725000I0J150000D01*
G01*
X200145000Y-89975000D01*
G75*
G02*
X200295000Y-89825000I150000J0D01*
G01*
X200595000Y-89825000D01*
G75*
G02*
X200745000Y-89975000I0J-150000D01*
G01*
X200745000Y-91725000D01*
G75*
G02*
X200595000Y-91875000I-150000J0D01*
G01*
G37*
G36*
G01*
X199325000Y-91875000D02*
X199025000Y-91875000D01*
G75*
G02*
X198875000Y-91725000I0J150000D01*
G01*
X198875000Y-89975000D01*
G75*
G02*
X199025000Y-89825000I150000J0D01*
G01*
X199325000Y-89825000D01*
G75*
G02*
X199475000Y-89975000I0J-150000D01*
G01*
X199475000Y-91725000D01*
G75*
G02*
X199325000Y-91875000I-150000J0D01*
G01*
G37*
G36*
G01*
X198055000Y-91875000D02*
X197755000Y-91875000D01*
G75*
G02*
X197605000Y-91725000I0J150000D01*
G01*
X197605000Y-89975000D01*
G75*
G02*
X197755000Y-89825000I150000J0D01*
G01*
X198055000Y-89825000D01*
G75*
G02*
X198205000Y-89975000I0J-150000D01*
G01*
X198205000Y-91725000D01*
G75*
G02*
X198055000Y-91875000I-150000J0D01*
G01*
G37*
G36*
G01*
X196785000Y-91875000D02*
X196485000Y-91875000D01*
G75*
G02*
X196335000Y-91725000I0J150000D01*
G01*
X196335000Y-89975000D01*
G75*
G02*
X196485000Y-89825000I150000J0D01*
G01*
X196785000Y-89825000D01*
G75*
G02*
X196935000Y-89975000I0J-150000D01*
G01*
X196935000Y-91725000D01*
G75*
G02*
X196785000Y-91875000I-150000J0D01*
G01*
G37*
G36*
G01*
X195515000Y-91875000D02*
X195215000Y-91875000D01*
G75*
G02*
X195065000Y-91725000I0J150000D01*
G01*
X195065000Y-89975000D01*
G75*
G02*
X195215000Y-89825000I150000J0D01*
G01*
X195515000Y-89825000D01*
G75*
G02*
X195665000Y-89975000I0J-150000D01*
G01*
X195665000Y-91725000D01*
G75*
G02*
X195515000Y-91875000I-150000J0D01*
G01*
G37*
G36*
G01*
X194245000Y-91875000D02*
X193945000Y-91875000D01*
G75*
G02*
X193795000Y-91725000I0J150000D01*
G01*
X193795000Y-89975000D01*
G75*
G02*
X193945000Y-89825000I150000J0D01*
G01*
X194245000Y-89825000D01*
G75*
G02*
X194395000Y-89975000I0J-150000D01*
G01*
X194395000Y-91725000D01*
G75*
G02*
X194245000Y-91875000I-150000J0D01*
G01*
G37*
G36*
G01*
X192975000Y-91875000D02*
X192675000Y-91875000D01*
G75*
G02*
X192525000Y-91725000I0J150000D01*
G01*
X192525000Y-89975000D01*
G75*
G02*
X192675000Y-89825000I150000J0D01*
G01*
X192975000Y-89825000D01*
G75*
G02*
X193125000Y-89975000I0J-150000D01*
G01*
X193125000Y-91725000D01*
G75*
G02*
X192975000Y-91875000I-150000J0D01*
G01*
G37*
G36*
G01*
X191705000Y-91875000D02*
X191405000Y-91875000D01*
G75*
G02*
X191255000Y-91725000I0J150000D01*
G01*
X191255000Y-89975000D01*
G75*
G02*
X191405000Y-89825000I150000J0D01*
G01*
X191705000Y-89825000D01*
G75*
G02*
X191855000Y-89975000I0J-150000D01*
G01*
X191855000Y-91725000D01*
G75*
G02*
X191705000Y-91875000I-150000J0D01*
G01*
G37*
G36*
G01*
X190435000Y-91875000D02*
X190135000Y-91875000D01*
G75*
G02*
X189985000Y-91725000I0J150000D01*
G01*
X189985000Y-89975000D01*
G75*
G02*
X190135000Y-89825000I150000J0D01*
G01*
X190435000Y-89825000D01*
G75*
G02*
X190585000Y-89975000I0J-150000D01*
G01*
X190585000Y-91725000D01*
G75*
G02*
X190435000Y-91875000I-150000J0D01*
G01*
G37*
G36*
G01*
X189165000Y-91875000D02*
X188865000Y-91875000D01*
G75*
G02*
X188715000Y-91725000I0J150000D01*
G01*
X188715000Y-89975000D01*
G75*
G02*
X188865000Y-89825000I150000J0D01*
G01*
X189165000Y-89825000D01*
G75*
G02*
X189315000Y-89975000I0J-150000D01*
G01*
X189315000Y-91725000D01*
G75*
G02*
X189165000Y-91875000I-150000J0D01*
G01*
G37*
G36*
G01*
X189165000Y-101175000D02*
X188865000Y-101175000D01*
G75*
G02*
X188715000Y-101025000I0J150000D01*
G01*
X188715000Y-99275000D01*
G75*
G02*
X188865000Y-99125000I150000J0D01*
G01*
X189165000Y-99125000D01*
G75*
G02*
X189315000Y-99275000I0J-150000D01*
G01*
X189315000Y-101025000D01*
G75*
G02*
X189165000Y-101175000I-150000J0D01*
G01*
G37*
G36*
G01*
X190435000Y-101175000D02*
X190135000Y-101175000D01*
G75*
G02*
X189985000Y-101025000I0J150000D01*
G01*
X189985000Y-99275000D01*
G75*
G02*
X190135000Y-99125000I150000J0D01*
G01*
X190435000Y-99125000D01*
G75*
G02*
X190585000Y-99275000I0J-150000D01*
G01*
X190585000Y-101025000D01*
G75*
G02*
X190435000Y-101175000I-150000J0D01*
G01*
G37*
G36*
G01*
X191705000Y-101175000D02*
X191405000Y-101175000D01*
G75*
G02*
X191255000Y-101025000I0J150000D01*
G01*
X191255000Y-99275000D01*
G75*
G02*
X191405000Y-99125000I150000J0D01*
G01*
X191705000Y-99125000D01*
G75*
G02*
X191855000Y-99275000I0J-150000D01*
G01*
X191855000Y-101025000D01*
G75*
G02*
X191705000Y-101175000I-150000J0D01*
G01*
G37*
G36*
G01*
X192975000Y-101175000D02*
X192675000Y-101175000D01*
G75*
G02*
X192525000Y-101025000I0J150000D01*
G01*
X192525000Y-99275000D01*
G75*
G02*
X192675000Y-99125000I150000J0D01*
G01*
X192975000Y-99125000D01*
G75*
G02*
X193125000Y-99275000I0J-150000D01*
G01*
X193125000Y-101025000D01*
G75*
G02*
X192975000Y-101175000I-150000J0D01*
G01*
G37*
G36*
G01*
X194245000Y-101175000D02*
X193945000Y-101175000D01*
G75*
G02*
X193795000Y-101025000I0J150000D01*
G01*
X193795000Y-99275000D01*
G75*
G02*
X193945000Y-99125000I150000J0D01*
G01*
X194245000Y-99125000D01*
G75*
G02*
X194395000Y-99275000I0J-150000D01*
G01*
X194395000Y-101025000D01*
G75*
G02*
X194245000Y-101175000I-150000J0D01*
G01*
G37*
G36*
G01*
X195515000Y-101175000D02*
X195215000Y-101175000D01*
G75*
G02*
X195065000Y-101025000I0J150000D01*
G01*
X195065000Y-99275000D01*
G75*
G02*
X195215000Y-99125000I150000J0D01*
G01*
X195515000Y-99125000D01*
G75*
G02*
X195665000Y-99275000I0J-150000D01*
G01*
X195665000Y-101025000D01*
G75*
G02*
X195515000Y-101175000I-150000J0D01*
G01*
G37*
G36*
G01*
X196785000Y-101175000D02*
X196485000Y-101175000D01*
G75*
G02*
X196335000Y-101025000I0J150000D01*
G01*
X196335000Y-99275000D01*
G75*
G02*
X196485000Y-99125000I150000J0D01*
G01*
X196785000Y-99125000D01*
G75*
G02*
X196935000Y-99275000I0J-150000D01*
G01*
X196935000Y-101025000D01*
G75*
G02*
X196785000Y-101175000I-150000J0D01*
G01*
G37*
G36*
G01*
X198055000Y-101175000D02*
X197755000Y-101175000D01*
G75*
G02*
X197605000Y-101025000I0J150000D01*
G01*
X197605000Y-99275000D01*
G75*
G02*
X197755000Y-99125000I150000J0D01*
G01*
X198055000Y-99125000D01*
G75*
G02*
X198205000Y-99275000I0J-150000D01*
G01*
X198205000Y-101025000D01*
G75*
G02*
X198055000Y-101175000I-150000J0D01*
G01*
G37*
G36*
G01*
X199325000Y-101175000D02*
X199025000Y-101175000D01*
G75*
G02*
X198875000Y-101025000I0J150000D01*
G01*
X198875000Y-99275000D01*
G75*
G02*
X199025000Y-99125000I150000J0D01*
G01*
X199325000Y-99125000D01*
G75*
G02*
X199475000Y-99275000I0J-150000D01*
G01*
X199475000Y-101025000D01*
G75*
G02*
X199325000Y-101175000I-150000J0D01*
G01*
G37*
G36*
G01*
X200595000Y-101175000D02*
X200295000Y-101175000D01*
G75*
G02*
X200145000Y-101025000I0J150000D01*
G01*
X200145000Y-99275000D01*
G75*
G02*
X200295000Y-99125000I150000J0D01*
G01*
X200595000Y-99125000D01*
G75*
G02*
X200745000Y-99275000I0J-150000D01*
G01*
X200745000Y-101025000D01*
G75*
G02*
X200595000Y-101175000I-150000J0D01*
G01*
G37*
G36*
G01*
X201865000Y-101175000D02*
X201565000Y-101175000D01*
G75*
G02*
X201415000Y-101025000I0J150000D01*
G01*
X201415000Y-99275000D01*
G75*
G02*
X201565000Y-99125000I150000J0D01*
G01*
X201865000Y-99125000D01*
G75*
G02*
X202015000Y-99275000I0J-150000D01*
G01*
X202015000Y-101025000D01*
G75*
G02*
X201865000Y-101175000I-150000J0D01*
G01*
G37*
G36*
G01*
X203135000Y-101175000D02*
X202835000Y-101175000D01*
G75*
G02*
X202685000Y-101025000I0J150000D01*
G01*
X202685000Y-99275000D01*
G75*
G02*
X202835000Y-99125000I150000J0D01*
G01*
X203135000Y-99125000D01*
G75*
G02*
X203285000Y-99275000I0J-150000D01*
G01*
X203285000Y-101025000D01*
G75*
G02*
X203135000Y-101175000I-150000J0D01*
G01*
G37*
%TD*%
%TO.C,U17*%
G36*
G01*
X180135000Y-91875000D02*
X179835000Y-91875000D01*
G75*
G02*
X179685000Y-91725000I0J150000D01*
G01*
X179685000Y-89975000D01*
G75*
G02*
X179835000Y-89825000I150000J0D01*
G01*
X180135000Y-89825000D01*
G75*
G02*
X180285000Y-89975000I0J-150000D01*
G01*
X180285000Y-91725000D01*
G75*
G02*
X180135000Y-91875000I-150000J0D01*
G01*
G37*
G36*
G01*
X178865000Y-91875000D02*
X178565000Y-91875000D01*
G75*
G02*
X178415000Y-91725000I0J150000D01*
G01*
X178415000Y-89975000D01*
G75*
G02*
X178565000Y-89825000I150000J0D01*
G01*
X178865000Y-89825000D01*
G75*
G02*
X179015000Y-89975000I0J-150000D01*
G01*
X179015000Y-91725000D01*
G75*
G02*
X178865000Y-91875000I-150000J0D01*
G01*
G37*
G36*
G01*
X177595000Y-91875000D02*
X177295000Y-91875000D01*
G75*
G02*
X177145000Y-91725000I0J150000D01*
G01*
X177145000Y-89975000D01*
G75*
G02*
X177295000Y-89825000I150000J0D01*
G01*
X177595000Y-89825000D01*
G75*
G02*
X177745000Y-89975000I0J-150000D01*
G01*
X177745000Y-91725000D01*
G75*
G02*
X177595000Y-91875000I-150000J0D01*
G01*
G37*
G36*
G01*
X176325000Y-91875000D02*
X176025000Y-91875000D01*
G75*
G02*
X175875000Y-91725000I0J150000D01*
G01*
X175875000Y-89975000D01*
G75*
G02*
X176025000Y-89825000I150000J0D01*
G01*
X176325000Y-89825000D01*
G75*
G02*
X176475000Y-89975000I0J-150000D01*
G01*
X176475000Y-91725000D01*
G75*
G02*
X176325000Y-91875000I-150000J0D01*
G01*
G37*
G36*
G01*
X175055000Y-91875000D02*
X174755000Y-91875000D01*
G75*
G02*
X174605000Y-91725000I0J150000D01*
G01*
X174605000Y-89975000D01*
G75*
G02*
X174755000Y-89825000I150000J0D01*
G01*
X175055000Y-89825000D01*
G75*
G02*
X175205000Y-89975000I0J-150000D01*
G01*
X175205000Y-91725000D01*
G75*
G02*
X175055000Y-91875000I-150000J0D01*
G01*
G37*
G36*
G01*
X173785000Y-91875000D02*
X173485000Y-91875000D01*
G75*
G02*
X173335000Y-91725000I0J150000D01*
G01*
X173335000Y-89975000D01*
G75*
G02*
X173485000Y-89825000I150000J0D01*
G01*
X173785000Y-89825000D01*
G75*
G02*
X173935000Y-89975000I0J-150000D01*
G01*
X173935000Y-91725000D01*
G75*
G02*
X173785000Y-91875000I-150000J0D01*
G01*
G37*
G36*
G01*
X172515000Y-91875000D02*
X172215000Y-91875000D01*
G75*
G02*
X172065000Y-91725000I0J150000D01*
G01*
X172065000Y-89975000D01*
G75*
G02*
X172215000Y-89825000I150000J0D01*
G01*
X172515000Y-89825000D01*
G75*
G02*
X172665000Y-89975000I0J-150000D01*
G01*
X172665000Y-91725000D01*
G75*
G02*
X172515000Y-91875000I-150000J0D01*
G01*
G37*
G36*
G01*
X171245000Y-91875000D02*
X170945000Y-91875000D01*
G75*
G02*
X170795000Y-91725000I0J150000D01*
G01*
X170795000Y-89975000D01*
G75*
G02*
X170945000Y-89825000I150000J0D01*
G01*
X171245000Y-89825000D01*
G75*
G02*
X171395000Y-89975000I0J-150000D01*
G01*
X171395000Y-91725000D01*
G75*
G02*
X171245000Y-91875000I-150000J0D01*
G01*
G37*
G36*
G01*
X169975000Y-91875000D02*
X169675000Y-91875000D01*
G75*
G02*
X169525000Y-91725000I0J150000D01*
G01*
X169525000Y-89975000D01*
G75*
G02*
X169675000Y-89825000I150000J0D01*
G01*
X169975000Y-89825000D01*
G75*
G02*
X170125000Y-89975000I0J-150000D01*
G01*
X170125000Y-91725000D01*
G75*
G02*
X169975000Y-91875000I-150000J0D01*
G01*
G37*
G36*
G01*
X168705000Y-91875000D02*
X168405000Y-91875000D01*
G75*
G02*
X168255000Y-91725000I0J150000D01*
G01*
X168255000Y-89975000D01*
G75*
G02*
X168405000Y-89825000I150000J0D01*
G01*
X168705000Y-89825000D01*
G75*
G02*
X168855000Y-89975000I0J-150000D01*
G01*
X168855000Y-91725000D01*
G75*
G02*
X168705000Y-91875000I-150000J0D01*
G01*
G37*
G36*
G01*
X167435000Y-91875000D02*
X167135000Y-91875000D01*
G75*
G02*
X166985000Y-91725000I0J150000D01*
G01*
X166985000Y-89975000D01*
G75*
G02*
X167135000Y-89825000I150000J0D01*
G01*
X167435000Y-89825000D01*
G75*
G02*
X167585000Y-89975000I0J-150000D01*
G01*
X167585000Y-91725000D01*
G75*
G02*
X167435000Y-91875000I-150000J0D01*
G01*
G37*
G36*
G01*
X166165000Y-91875000D02*
X165865000Y-91875000D01*
G75*
G02*
X165715000Y-91725000I0J150000D01*
G01*
X165715000Y-89975000D01*
G75*
G02*
X165865000Y-89825000I150000J0D01*
G01*
X166165000Y-89825000D01*
G75*
G02*
X166315000Y-89975000I0J-150000D01*
G01*
X166315000Y-91725000D01*
G75*
G02*
X166165000Y-91875000I-150000J0D01*
G01*
G37*
G36*
G01*
X166165000Y-101175000D02*
X165865000Y-101175000D01*
G75*
G02*
X165715000Y-101025000I0J150000D01*
G01*
X165715000Y-99275000D01*
G75*
G02*
X165865000Y-99125000I150000J0D01*
G01*
X166165000Y-99125000D01*
G75*
G02*
X166315000Y-99275000I0J-150000D01*
G01*
X166315000Y-101025000D01*
G75*
G02*
X166165000Y-101175000I-150000J0D01*
G01*
G37*
G36*
G01*
X167435000Y-101175000D02*
X167135000Y-101175000D01*
G75*
G02*
X166985000Y-101025000I0J150000D01*
G01*
X166985000Y-99275000D01*
G75*
G02*
X167135000Y-99125000I150000J0D01*
G01*
X167435000Y-99125000D01*
G75*
G02*
X167585000Y-99275000I0J-150000D01*
G01*
X167585000Y-101025000D01*
G75*
G02*
X167435000Y-101175000I-150000J0D01*
G01*
G37*
G36*
G01*
X168705000Y-101175000D02*
X168405000Y-101175000D01*
G75*
G02*
X168255000Y-101025000I0J150000D01*
G01*
X168255000Y-99275000D01*
G75*
G02*
X168405000Y-99125000I150000J0D01*
G01*
X168705000Y-99125000D01*
G75*
G02*
X168855000Y-99275000I0J-150000D01*
G01*
X168855000Y-101025000D01*
G75*
G02*
X168705000Y-101175000I-150000J0D01*
G01*
G37*
G36*
G01*
X169975000Y-101175000D02*
X169675000Y-101175000D01*
G75*
G02*
X169525000Y-101025000I0J150000D01*
G01*
X169525000Y-99275000D01*
G75*
G02*
X169675000Y-99125000I150000J0D01*
G01*
X169975000Y-99125000D01*
G75*
G02*
X170125000Y-99275000I0J-150000D01*
G01*
X170125000Y-101025000D01*
G75*
G02*
X169975000Y-101175000I-150000J0D01*
G01*
G37*
G36*
G01*
X171245000Y-101175000D02*
X170945000Y-101175000D01*
G75*
G02*
X170795000Y-101025000I0J150000D01*
G01*
X170795000Y-99275000D01*
G75*
G02*
X170945000Y-99125000I150000J0D01*
G01*
X171245000Y-99125000D01*
G75*
G02*
X171395000Y-99275000I0J-150000D01*
G01*
X171395000Y-101025000D01*
G75*
G02*
X171245000Y-101175000I-150000J0D01*
G01*
G37*
G36*
G01*
X172515000Y-101175000D02*
X172215000Y-101175000D01*
G75*
G02*
X172065000Y-101025000I0J150000D01*
G01*
X172065000Y-99275000D01*
G75*
G02*
X172215000Y-99125000I150000J0D01*
G01*
X172515000Y-99125000D01*
G75*
G02*
X172665000Y-99275000I0J-150000D01*
G01*
X172665000Y-101025000D01*
G75*
G02*
X172515000Y-101175000I-150000J0D01*
G01*
G37*
G36*
G01*
X173785000Y-101175000D02*
X173485000Y-101175000D01*
G75*
G02*
X173335000Y-101025000I0J150000D01*
G01*
X173335000Y-99275000D01*
G75*
G02*
X173485000Y-99125000I150000J0D01*
G01*
X173785000Y-99125000D01*
G75*
G02*
X173935000Y-99275000I0J-150000D01*
G01*
X173935000Y-101025000D01*
G75*
G02*
X173785000Y-101175000I-150000J0D01*
G01*
G37*
G36*
G01*
X175055000Y-101175000D02*
X174755000Y-101175000D01*
G75*
G02*
X174605000Y-101025000I0J150000D01*
G01*
X174605000Y-99275000D01*
G75*
G02*
X174755000Y-99125000I150000J0D01*
G01*
X175055000Y-99125000D01*
G75*
G02*
X175205000Y-99275000I0J-150000D01*
G01*
X175205000Y-101025000D01*
G75*
G02*
X175055000Y-101175000I-150000J0D01*
G01*
G37*
G36*
G01*
X176325000Y-101175000D02*
X176025000Y-101175000D01*
G75*
G02*
X175875000Y-101025000I0J150000D01*
G01*
X175875000Y-99275000D01*
G75*
G02*
X176025000Y-99125000I150000J0D01*
G01*
X176325000Y-99125000D01*
G75*
G02*
X176475000Y-99275000I0J-150000D01*
G01*
X176475000Y-101025000D01*
G75*
G02*
X176325000Y-101175000I-150000J0D01*
G01*
G37*
G36*
G01*
X177595000Y-101175000D02*
X177295000Y-101175000D01*
G75*
G02*
X177145000Y-101025000I0J150000D01*
G01*
X177145000Y-99275000D01*
G75*
G02*
X177295000Y-99125000I150000J0D01*
G01*
X177595000Y-99125000D01*
G75*
G02*
X177745000Y-99275000I0J-150000D01*
G01*
X177745000Y-101025000D01*
G75*
G02*
X177595000Y-101175000I-150000J0D01*
G01*
G37*
G36*
G01*
X178865000Y-101175000D02*
X178565000Y-101175000D01*
G75*
G02*
X178415000Y-101025000I0J150000D01*
G01*
X178415000Y-99275000D01*
G75*
G02*
X178565000Y-99125000I150000J0D01*
G01*
X178865000Y-99125000D01*
G75*
G02*
X179015000Y-99275000I0J-150000D01*
G01*
X179015000Y-101025000D01*
G75*
G02*
X178865000Y-101175000I-150000J0D01*
G01*
G37*
G36*
G01*
X180135000Y-101175000D02*
X179835000Y-101175000D01*
G75*
G02*
X179685000Y-101025000I0J150000D01*
G01*
X179685000Y-99275000D01*
G75*
G02*
X179835000Y-99125000I150000J0D01*
G01*
X180135000Y-99125000D01*
G75*
G02*
X180285000Y-99275000I0J-150000D01*
G01*
X180285000Y-101025000D01*
G75*
G02*
X180135000Y-101175000I-150000J0D01*
G01*
G37*
%TD*%
%TO.C,U16*%
G36*
G01*
X134135000Y-91875000D02*
X133835000Y-91875000D01*
G75*
G02*
X133685000Y-91725000I0J150000D01*
G01*
X133685000Y-89975000D01*
G75*
G02*
X133835000Y-89825000I150000J0D01*
G01*
X134135000Y-89825000D01*
G75*
G02*
X134285000Y-89975000I0J-150000D01*
G01*
X134285000Y-91725000D01*
G75*
G02*
X134135000Y-91875000I-150000J0D01*
G01*
G37*
G36*
G01*
X132865000Y-91875000D02*
X132565000Y-91875000D01*
G75*
G02*
X132415000Y-91725000I0J150000D01*
G01*
X132415000Y-89975000D01*
G75*
G02*
X132565000Y-89825000I150000J0D01*
G01*
X132865000Y-89825000D01*
G75*
G02*
X133015000Y-89975000I0J-150000D01*
G01*
X133015000Y-91725000D01*
G75*
G02*
X132865000Y-91875000I-150000J0D01*
G01*
G37*
G36*
G01*
X131595000Y-91875000D02*
X131295000Y-91875000D01*
G75*
G02*
X131145000Y-91725000I0J150000D01*
G01*
X131145000Y-89975000D01*
G75*
G02*
X131295000Y-89825000I150000J0D01*
G01*
X131595000Y-89825000D01*
G75*
G02*
X131745000Y-89975000I0J-150000D01*
G01*
X131745000Y-91725000D01*
G75*
G02*
X131595000Y-91875000I-150000J0D01*
G01*
G37*
G36*
G01*
X130325000Y-91875000D02*
X130025000Y-91875000D01*
G75*
G02*
X129875000Y-91725000I0J150000D01*
G01*
X129875000Y-89975000D01*
G75*
G02*
X130025000Y-89825000I150000J0D01*
G01*
X130325000Y-89825000D01*
G75*
G02*
X130475000Y-89975000I0J-150000D01*
G01*
X130475000Y-91725000D01*
G75*
G02*
X130325000Y-91875000I-150000J0D01*
G01*
G37*
G36*
G01*
X129055000Y-91875000D02*
X128755000Y-91875000D01*
G75*
G02*
X128605000Y-91725000I0J150000D01*
G01*
X128605000Y-89975000D01*
G75*
G02*
X128755000Y-89825000I150000J0D01*
G01*
X129055000Y-89825000D01*
G75*
G02*
X129205000Y-89975000I0J-150000D01*
G01*
X129205000Y-91725000D01*
G75*
G02*
X129055000Y-91875000I-150000J0D01*
G01*
G37*
G36*
G01*
X127785000Y-91875000D02*
X127485000Y-91875000D01*
G75*
G02*
X127335000Y-91725000I0J150000D01*
G01*
X127335000Y-89975000D01*
G75*
G02*
X127485000Y-89825000I150000J0D01*
G01*
X127785000Y-89825000D01*
G75*
G02*
X127935000Y-89975000I0J-150000D01*
G01*
X127935000Y-91725000D01*
G75*
G02*
X127785000Y-91875000I-150000J0D01*
G01*
G37*
G36*
G01*
X126515000Y-91875000D02*
X126215000Y-91875000D01*
G75*
G02*
X126065000Y-91725000I0J150000D01*
G01*
X126065000Y-89975000D01*
G75*
G02*
X126215000Y-89825000I150000J0D01*
G01*
X126515000Y-89825000D01*
G75*
G02*
X126665000Y-89975000I0J-150000D01*
G01*
X126665000Y-91725000D01*
G75*
G02*
X126515000Y-91875000I-150000J0D01*
G01*
G37*
G36*
G01*
X125245000Y-91875000D02*
X124945000Y-91875000D01*
G75*
G02*
X124795000Y-91725000I0J150000D01*
G01*
X124795000Y-89975000D01*
G75*
G02*
X124945000Y-89825000I150000J0D01*
G01*
X125245000Y-89825000D01*
G75*
G02*
X125395000Y-89975000I0J-150000D01*
G01*
X125395000Y-91725000D01*
G75*
G02*
X125245000Y-91875000I-150000J0D01*
G01*
G37*
G36*
G01*
X123975000Y-91875000D02*
X123675000Y-91875000D01*
G75*
G02*
X123525000Y-91725000I0J150000D01*
G01*
X123525000Y-89975000D01*
G75*
G02*
X123675000Y-89825000I150000J0D01*
G01*
X123975000Y-89825000D01*
G75*
G02*
X124125000Y-89975000I0J-150000D01*
G01*
X124125000Y-91725000D01*
G75*
G02*
X123975000Y-91875000I-150000J0D01*
G01*
G37*
G36*
G01*
X122705000Y-91875000D02*
X122405000Y-91875000D01*
G75*
G02*
X122255000Y-91725000I0J150000D01*
G01*
X122255000Y-89975000D01*
G75*
G02*
X122405000Y-89825000I150000J0D01*
G01*
X122705000Y-89825000D01*
G75*
G02*
X122855000Y-89975000I0J-150000D01*
G01*
X122855000Y-91725000D01*
G75*
G02*
X122705000Y-91875000I-150000J0D01*
G01*
G37*
G36*
G01*
X121435000Y-91875000D02*
X121135000Y-91875000D01*
G75*
G02*
X120985000Y-91725000I0J150000D01*
G01*
X120985000Y-89975000D01*
G75*
G02*
X121135000Y-89825000I150000J0D01*
G01*
X121435000Y-89825000D01*
G75*
G02*
X121585000Y-89975000I0J-150000D01*
G01*
X121585000Y-91725000D01*
G75*
G02*
X121435000Y-91875000I-150000J0D01*
G01*
G37*
G36*
G01*
X120165000Y-91875000D02*
X119865000Y-91875000D01*
G75*
G02*
X119715000Y-91725000I0J150000D01*
G01*
X119715000Y-89975000D01*
G75*
G02*
X119865000Y-89825000I150000J0D01*
G01*
X120165000Y-89825000D01*
G75*
G02*
X120315000Y-89975000I0J-150000D01*
G01*
X120315000Y-91725000D01*
G75*
G02*
X120165000Y-91875000I-150000J0D01*
G01*
G37*
G36*
G01*
X120165000Y-101175000D02*
X119865000Y-101175000D01*
G75*
G02*
X119715000Y-101025000I0J150000D01*
G01*
X119715000Y-99275000D01*
G75*
G02*
X119865000Y-99125000I150000J0D01*
G01*
X120165000Y-99125000D01*
G75*
G02*
X120315000Y-99275000I0J-150000D01*
G01*
X120315000Y-101025000D01*
G75*
G02*
X120165000Y-101175000I-150000J0D01*
G01*
G37*
G36*
G01*
X121435000Y-101175000D02*
X121135000Y-101175000D01*
G75*
G02*
X120985000Y-101025000I0J150000D01*
G01*
X120985000Y-99275000D01*
G75*
G02*
X121135000Y-99125000I150000J0D01*
G01*
X121435000Y-99125000D01*
G75*
G02*
X121585000Y-99275000I0J-150000D01*
G01*
X121585000Y-101025000D01*
G75*
G02*
X121435000Y-101175000I-150000J0D01*
G01*
G37*
G36*
G01*
X122705000Y-101175000D02*
X122405000Y-101175000D01*
G75*
G02*
X122255000Y-101025000I0J150000D01*
G01*
X122255000Y-99275000D01*
G75*
G02*
X122405000Y-99125000I150000J0D01*
G01*
X122705000Y-99125000D01*
G75*
G02*
X122855000Y-99275000I0J-150000D01*
G01*
X122855000Y-101025000D01*
G75*
G02*
X122705000Y-101175000I-150000J0D01*
G01*
G37*
G36*
G01*
X123975000Y-101175000D02*
X123675000Y-101175000D01*
G75*
G02*
X123525000Y-101025000I0J150000D01*
G01*
X123525000Y-99275000D01*
G75*
G02*
X123675000Y-99125000I150000J0D01*
G01*
X123975000Y-99125000D01*
G75*
G02*
X124125000Y-99275000I0J-150000D01*
G01*
X124125000Y-101025000D01*
G75*
G02*
X123975000Y-101175000I-150000J0D01*
G01*
G37*
G36*
G01*
X125245000Y-101175000D02*
X124945000Y-101175000D01*
G75*
G02*
X124795000Y-101025000I0J150000D01*
G01*
X124795000Y-99275000D01*
G75*
G02*
X124945000Y-99125000I150000J0D01*
G01*
X125245000Y-99125000D01*
G75*
G02*
X125395000Y-99275000I0J-150000D01*
G01*
X125395000Y-101025000D01*
G75*
G02*
X125245000Y-101175000I-150000J0D01*
G01*
G37*
G36*
G01*
X126515000Y-101175000D02*
X126215000Y-101175000D01*
G75*
G02*
X126065000Y-101025000I0J150000D01*
G01*
X126065000Y-99275000D01*
G75*
G02*
X126215000Y-99125000I150000J0D01*
G01*
X126515000Y-99125000D01*
G75*
G02*
X126665000Y-99275000I0J-150000D01*
G01*
X126665000Y-101025000D01*
G75*
G02*
X126515000Y-101175000I-150000J0D01*
G01*
G37*
G36*
G01*
X127785000Y-101175000D02*
X127485000Y-101175000D01*
G75*
G02*
X127335000Y-101025000I0J150000D01*
G01*
X127335000Y-99275000D01*
G75*
G02*
X127485000Y-99125000I150000J0D01*
G01*
X127785000Y-99125000D01*
G75*
G02*
X127935000Y-99275000I0J-150000D01*
G01*
X127935000Y-101025000D01*
G75*
G02*
X127785000Y-101175000I-150000J0D01*
G01*
G37*
G36*
G01*
X129055000Y-101175000D02*
X128755000Y-101175000D01*
G75*
G02*
X128605000Y-101025000I0J150000D01*
G01*
X128605000Y-99275000D01*
G75*
G02*
X128755000Y-99125000I150000J0D01*
G01*
X129055000Y-99125000D01*
G75*
G02*
X129205000Y-99275000I0J-150000D01*
G01*
X129205000Y-101025000D01*
G75*
G02*
X129055000Y-101175000I-150000J0D01*
G01*
G37*
G36*
G01*
X130325000Y-101175000D02*
X130025000Y-101175000D01*
G75*
G02*
X129875000Y-101025000I0J150000D01*
G01*
X129875000Y-99275000D01*
G75*
G02*
X130025000Y-99125000I150000J0D01*
G01*
X130325000Y-99125000D01*
G75*
G02*
X130475000Y-99275000I0J-150000D01*
G01*
X130475000Y-101025000D01*
G75*
G02*
X130325000Y-101175000I-150000J0D01*
G01*
G37*
G36*
G01*
X131595000Y-101175000D02*
X131295000Y-101175000D01*
G75*
G02*
X131145000Y-101025000I0J150000D01*
G01*
X131145000Y-99275000D01*
G75*
G02*
X131295000Y-99125000I150000J0D01*
G01*
X131595000Y-99125000D01*
G75*
G02*
X131745000Y-99275000I0J-150000D01*
G01*
X131745000Y-101025000D01*
G75*
G02*
X131595000Y-101175000I-150000J0D01*
G01*
G37*
G36*
G01*
X132865000Y-101175000D02*
X132565000Y-101175000D01*
G75*
G02*
X132415000Y-101025000I0J150000D01*
G01*
X132415000Y-99275000D01*
G75*
G02*
X132565000Y-99125000I150000J0D01*
G01*
X132865000Y-99125000D01*
G75*
G02*
X133015000Y-99275000I0J-150000D01*
G01*
X133015000Y-101025000D01*
G75*
G02*
X132865000Y-101175000I-150000J0D01*
G01*
G37*
G36*
G01*
X134135000Y-101175000D02*
X133835000Y-101175000D01*
G75*
G02*
X133685000Y-101025000I0J150000D01*
G01*
X133685000Y-99275000D01*
G75*
G02*
X133835000Y-99125000I150000J0D01*
G01*
X134135000Y-99125000D01*
G75*
G02*
X134285000Y-99275000I0J-150000D01*
G01*
X134285000Y-101025000D01*
G75*
G02*
X134135000Y-101175000I-150000J0D01*
G01*
G37*
%TD*%
%TO.C,U15*%
G36*
G01*
X111135000Y-91875000D02*
X110835000Y-91875000D01*
G75*
G02*
X110685000Y-91725000I0J150000D01*
G01*
X110685000Y-89975000D01*
G75*
G02*
X110835000Y-89825000I150000J0D01*
G01*
X111135000Y-89825000D01*
G75*
G02*
X111285000Y-89975000I0J-150000D01*
G01*
X111285000Y-91725000D01*
G75*
G02*
X111135000Y-91875000I-150000J0D01*
G01*
G37*
G36*
G01*
X109865000Y-91875000D02*
X109565000Y-91875000D01*
G75*
G02*
X109415000Y-91725000I0J150000D01*
G01*
X109415000Y-89975000D01*
G75*
G02*
X109565000Y-89825000I150000J0D01*
G01*
X109865000Y-89825000D01*
G75*
G02*
X110015000Y-89975000I0J-150000D01*
G01*
X110015000Y-91725000D01*
G75*
G02*
X109865000Y-91875000I-150000J0D01*
G01*
G37*
G36*
G01*
X108595000Y-91875000D02*
X108295000Y-91875000D01*
G75*
G02*
X108145000Y-91725000I0J150000D01*
G01*
X108145000Y-89975000D01*
G75*
G02*
X108295000Y-89825000I150000J0D01*
G01*
X108595000Y-89825000D01*
G75*
G02*
X108745000Y-89975000I0J-150000D01*
G01*
X108745000Y-91725000D01*
G75*
G02*
X108595000Y-91875000I-150000J0D01*
G01*
G37*
G36*
G01*
X107325000Y-91875000D02*
X107025000Y-91875000D01*
G75*
G02*
X106875000Y-91725000I0J150000D01*
G01*
X106875000Y-89975000D01*
G75*
G02*
X107025000Y-89825000I150000J0D01*
G01*
X107325000Y-89825000D01*
G75*
G02*
X107475000Y-89975000I0J-150000D01*
G01*
X107475000Y-91725000D01*
G75*
G02*
X107325000Y-91875000I-150000J0D01*
G01*
G37*
G36*
G01*
X106055000Y-91875000D02*
X105755000Y-91875000D01*
G75*
G02*
X105605000Y-91725000I0J150000D01*
G01*
X105605000Y-89975000D01*
G75*
G02*
X105755000Y-89825000I150000J0D01*
G01*
X106055000Y-89825000D01*
G75*
G02*
X106205000Y-89975000I0J-150000D01*
G01*
X106205000Y-91725000D01*
G75*
G02*
X106055000Y-91875000I-150000J0D01*
G01*
G37*
G36*
G01*
X104785000Y-91875000D02*
X104485000Y-91875000D01*
G75*
G02*
X104335000Y-91725000I0J150000D01*
G01*
X104335000Y-89975000D01*
G75*
G02*
X104485000Y-89825000I150000J0D01*
G01*
X104785000Y-89825000D01*
G75*
G02*
X104935000Y-89975000I0J-150000D01*
G01*
X104935000Y-91725000D01*
G75*
G02*
X104785000Y-91875000I-150000J0D01*
G01*
G37*
G36*
G01*
X103515000Y-91875000D02*
X103215000Y-91875000D01*
G75*
G02*
X103065000Y-91725000I0J150000D01*
G01*
X103065000Y-89975000D01*
G75*
G02*
X103215000Y-89825000I150000J0D01*
G01*
X103515000Y-89825000D01*
G75*
G02*
X103665000Y-89975000I0J-150000D01*
G01*
X103665000Y-91725000D01*
G75*
G02*
X103515000Y-91875000I-150000J0D01*
G01*
G37*
G36*
G01*
X102245000Y-91875000D02*
X101945000Y-91875000D01*
G75*
G02*
X101795000Y-91725000I0J150000D01*
G01*
X101795000Y-89975000D01*
G75*
G02*
X101945000Y-89825000I150000J0D01*
G01*
X102245000Y-89825000D01*
G75*
G02*
X102395000Y-89975000I0J-150000D01*
G01*
X102395000Y-91725000D01*
G75*
G02*
X102245000Y-91875000I-150000J0D01*
G01*
G37*
G36*
G01*
X100975000Y-91875000D02*
X100675000Y-91875000D01*
G75*
G02*
X100525000Y-91725000I0J150000D01*
G01*
X100525000Y-89975000D01*
G75*
G02*
X100675000Y-89825000I150000J0D01*
G01*
X100975000Y-89825000D01*
G75*
G02*
X101125000Y-89975000I0J-150000D01*
G01*
X101125000Y-91725000D01*
G75*
G02*
X100975000Y-91875000I-150000J0D01*
G01*
G37*
G36*
G01*
X99705000Y-91875000D02*
X99405000Y-91875000D01*
G75*
G02*
X99255000Y-91725000I0J150000D01*
G01*
X99255000Y-89975000D01*
G75*
G02*
X99405000Y-89825000I150000J0D01*
G01*
X99705000Y-89825000D01*
G75*
G02*
X99855000Y-89975000I0J-150000D01*
G01*
X99855000Y-91725000D01*
G75*
G02*
X99705000Y-91875000I-150000J0D01*
G01*
G37*
G36*
G01*
X98435000Y-91875000D02*
X98135000Y-91875000D01*
G75*
G02*
X97985000Y-91725000I0J150000D01*
G01*
X97985000Y-89975000D01*
G75*
G02*
X98135000Y-89825000I150000J0D01*
G01*
X98435000Y-89825000D01*
G75*
G02*
X98585000Y-89975000I0J-150000D01*
G01*
X98585000Y-91725000D01*
G75*
G02*
X98435000Y-91875000I-150000J0D01*
G01*
G37*
G36*
G01*
X97165000Y-91875000D02*
X96865000Y-91875000D01*
G75*
G02*
X96715000Y-91725000I0J150000D01*
G01*
X96715000Y-89975000D01*
G75*
G02*
X96865000Y-89825000I150000J0D01*
G01*
X97165000Y-89825000D01*
G75*
G02*
X97315000Y-89975000I0J-150000D01*
G01*
X97315000Y-91725000D01*
G75*
G02*
X97165000Y-91875000I-150000J0D01*
G01*
G37*
G36*
G01*
X97165000Y-101175000D02*
X96865000Y-101175000D01*
G75*
G02*
X96715000Y-101025000I0J150000D01*
G01*
X96715000Y-99275000D01*
G75*
G02*
X96865000Y-99125000I150000J0D01*
G01*
X97165000Y-99125000D01*
G75*
G02*
X97315000Y-99275000I0J-150000D01*
G01*
X97315000Y-101025000D01*
G75*
G02*
X97165000Y-101175000I-150000J0D01*
G01*
G37*
G36*
G01*
X98435000Y-101175000D02*
X98135000Y-101175000D01*
G75*
G02*
X97985000Y-101025000I0J150000D01*
G01*
X97985000Y-99275000D01*
G75*
G02*
X98135000Y-99125000I150000J0D01*
G01*
X98435000Y-99125000D01*
G75*
G02*
X98585000Y-99275000I0J-150000D01*
G01*
X98585000Y-101025000D01*
G75*
G02*
X98435000Y-101175000I-150000J0D01*
G01*
G37*
G36*
G01*
X99705000Y-101175000D02*
X99405000Y-101175000D01*
G75*
G02*
X99255000Y-101025000I0J150000D01*
G01*
X99255000Y-99275000D01*
G75*
G02*
X99405000Y-99125000I150000J0D01*
G01*
X99705000Y-99125000D01*
G75*
G02*
X99855000Y-99275000I0J-150000D01*
G01*
X99855000Y-101025000D01*
G75*
G02*
X99705000Y-101175000I-150000J0D01*
G01*
G37*
G36*
G01*
X100975000Y-101175000D02*
X100675000Y-101175000D01*
G75*
G02*
X100525000Y-101025000I0J150000D01*
G01*
X100525000Y-99275000D01*
G75*
G02*
X100675000Y-99125000I150000J0D01*
G01*
X100975000Y-99125000D01*
G75*
G02*
X101125000Y-99275000I0J-150000D01*
G01*
X101125000Y-101025000D01*
G75*
G02*
X100975000Y-101175000I-150000J0D01*
G01*
G37*
G36*
G01*
X102245000Y-101175000D02*
X101945000Y-101175000D01*
G75*
G02*
X101795000Y-101025000I0J150000D01*
G01*
X101795000Y-99275000D01*
G75*
G02*
X101945000Y-99125000I150000J0D01*
G01*
X102245000Y-99125000D01*
G75*
G02*
X102395000Y-99275000I0J-150000D01*
G01*
X102395000Y-101025000D01*
G75*
G02*
X102245000Y-101175000I-150000J0D01*
G01*
G37*
G36*
G01*
X103515000Y-101175000D02*
X103215000Y-101175000D01*
G75*
G02*
X103065000Y-101025000I0J150000D01*
G01*
X103065000Y-99275000D01*
G75*
G02*
X103215000Y-99125000I150000J0D01*
G01*
X103515000Y-99125000D01*
G75*
G02*
X103665000Y-99275000I0J-150000D01*
G01*
X103665000Y-101025000D01*
G75*
G02*
X103515000Y-101175000I-150000J0D01*
G01*
G37*
G36*
G01*
X104785000Y-101175000D02*
X104485000Y-101175000D01*
G75*
G02*
X104335000Y-101025000I0J150000D01*
G01*
X104335000Y-99275000D01*
G75*
G02*
X104485000Y-99125000I150000J0D01*
G01*
X104785000Y-99125000D01*
G75*
G02*
X104935000Y-99275000I0J-150000D01*
G01*
X104935000Y-101025000D01*
G75*
G02*
X104785000Y-101175000I-150000J0D01*
G01*
G37*
G36*
G01*
X106055000Y-101175000D02*
X105755000Y-101175000D01*
G75*
G02*
X105605000Y-101025000I0J150000D01*
G01*
X105605000Y-99275000D01*
G75*
G02*
X105755000Y-99125000I150000J0D01*
G01*
X106055000Y-99125000D01*
G75*
G02*
X106205000Y-99275000I0J-150000D01*
G01*
X106205000Y-101025000D01*
G75*
G02*
X106055000Y-101175000I-150000J0D01*
G01*
G37*
G36*
G01*
X107325000Y-101175000D02*
X107025000Y-101175000D01*
G75*
G02*
X106875000Y-101025000I0J150000D01*
G01*
X106875000Y-99275000D01*
G75*
G02*
X107025000Y-99125000I150000J0D01*
G01*
X107325000Y-99125000D01*
G75*
G02*
X107475000Y-99275000I0J-150000D01*
G01*
X107475000Y-101025000D01*
G75*
G02*
X107325000Y-101175000I-150000J0D01*
G01*
G37*
G36*
G01*
X108595000Y-101175000D02*
X108295000Y-101175000D01*
G75*
G02*
X108145000Y-101025000I0J150000D01*
G01*
X108145000Y-99275000D01*
G75*
G02*
X108295000Y-99125000I150000J0D01*
G01*
X108595000Y-99125000D01*
G75*
G02*
X108745000Y-99275000I0J-150000D01*
G01*
X108745000Y-101025000D01*
G75*
G02*
X108595000Y-101175000I-150000J0D01*
G01*
G37*
G36*
G01*
X109865000Y-101175000D02*
X109565000Y-101175000D01*
G75*
G02*
X109415000Y-101025000I0J150000D01*
G01*
X109415000Y-99275000D01*
G75*
G02*
X109565000Y-99125000I150000J0D01*
G01*
X109865000Y-99125000D01*
G75*
G02*
X110015000Y-99275000I0J-150000D01*
G01*
X110015000Y-101025000D01*
G75*
G02*
X109865000Y-101175000I-150000J0D01*
G01*
G37*
G36*
G01*
X111135000Y-101175000D02*
X110835000Y-101175000D01*
G75*
G02*
X110685000Y-101025000I0J150000D01*
G01*
X110685000Y-99275000D01*
G75*
G02*
X110835000Y-99125000I150000J0D01*
G01*
X111135000Y-99125000D01*
G75*
G02*
X111285000Y-99275000I0J-150000D01*
G01*
X111285000Y-101025000D01*
G75*
G02*
X111135000Y-101175000I-150000J0D01*
G01*
G37*
%TD*%
%TO.C,U14*%
G36*
G01*
X88135000Y-91875000D02*
X87835000Y-91875000D01*
G75*
G02*
X87685000Y-91725000I0J150000D01*
G01*
X87685000Y-89975000D01*
G75*
G02*
X87835000Y-89825000I150000J0D01*
G01*
X88135000Y-89825000D01*
G75*
G02*
X88285000Y-89975000I0J-150000D01*
G01*
X88285000Y-91725000D01*
G75*
G02*
X88135000Y-91875000I-150000J0D01*
G01*
G37*
G36*
G01*
X86865000Y-91875000D02*
X86565000Y-91875000D01*
G75*
G02*
X86415000Y-91725000I0J150000D01*
G01*
X86415000Y-89975000D01*
G75*
G02*
X86565000Y-89825000I150000J0D01*
G01*
X86865000Y-89825000D01*
G75*
G02*
X87015000Y-89975000I0J-150000D01*
G01*
X87015000Y-91725000D01*
G75*
G02*
X86865000Y-91875000I-150000J0D01*
G01*
G37*
G36*
G01*
X85595000Y-91875000D02*
X85295000Y-91875000D01*
G75*
G02*
X85145000Y-91725000I0J150000D01*
G01*
X85145000Y-89975000D01*
G75*
G02*
X85295000Y-89825000I150000J0D01*
G01*
X85595000Y-89825000D01*
G75*
G02*
X85745000Y-89975000I0J-150000D01*
G01*
X85745000Y-91725000D01*
G75*
G02*
X85595000Y-91875000I-150000J0D01*
G01*
G37*
G36*
G01*
X84325000Y-91875000D02*
X84025000Y-91875000D01*
G75*
G02*
X83875000Y-91725000I0J150000D01*
G01*
X83875000Y-89975000D01*
G75*
G02*
X84025000Y-89825000I150000J0D01*
G01*
X84325000Y-89825000D01*
G75*
G02*
X84475000Y-89975000I0J-150000D01*
G01*
X84475000Y-91725000D01*
G75*
G02*
X84325000Y-91875000I-150000J0D01*
G01*
G37*
G36*
G01*
X83055000Y-91875000D02*
X82755000Y-91875000D01*
G75*
G02*
X82605000Y-91725000I0J150000D01*
G01*
X82605000Y-89975000D01*
G75*
G02*
X82755000Y-89825000I150000J0D01*
G01*
X83055000Y-89825000D01*
G75*
G02*
X83205000Y-89975000I0J-150000D01*
G01*
X83205000Y-91725000D01*
G75*
G02*
X83055000Y-91875000I-150000J0D01*
G01*
G37*
G36*
G01*
X81785000Y-91875000D02*
X81485000Y-91875000D01*
G75*
G02*
X81335000Y-91725000I0J150000D01*
G01*
X81335000Y-89975000D01*
G75*
G02*
X81485000Y-89825000I150000J0D01*
G01*
X81785000Y-89825000D01*
G75*
G02*
X81935000Y-89975000I0J-150000D01*
G01*
X81935000Y-91725000D01*
G75*
G02*
X81785000Y-91875000I-150000J0D01*
G01*
G37*
G36*
G01*
X80515000Y-91875000D02*
X80215000Y-91875000D01*
G75*
G02*
X80065000Y-91725000I0J150000D01*
G01*
X80065000Y-89975000D01*
G75*
G02*
X80215000Y-89825000I150000J0D01*
G01*
X80515000Y-89825000D01*
G75*
G02*
X80665000Y-89975000I0J-150000D01*
G01*
X80665000Y-91725000D01*
G75*
G02*
X80515000Y-91875000I-150000J0D01*
G01*
G37*
G36*
G01*
X79245000Y-91875000D02*
X78945000Y-91875000D01*
G75*
G02*
X78795000Y-91725000I0J150000D01*
G01*
X78795000Y-89975000D01*
G75*
G02*
X78945000Y-89825000I150000J0D01*
G01*
X79245000Y-89825000D01*
G75*
G02*
X79395000Y-89975000I0J-150000D01*
G01*
X79395000Y-91725000D01*
G75*
G02*
X79245000Y-91875000I-150000J0D01*
G01*
G37*
G36*
G01*
X77975000Y-91875000D02*
X77675000Y-91875000D01*
G75*
G02*
X77525000Y-91725000I0J150000D01*
G01*
X77525000Y-89975000D01*
G75*
G02*
X77675000Y-89825000I150000J0D01*
G01*
X77975000Y-89825000D01*
G75*
G02*
X78125000Y-89975000I0J-150000D01*
G01*
X78125000Y-91725000D01*
G75*
G02*
X77975000Y-91875000I-150000J0D01*
G01*
G37*
G36*
G01*
X76705000Y-91875000D02*
X76405000Y-91875000D01*
G75*
G02*
X76255000Y-91725000I0J150000D01*
G01*
X76255000Y-89975000D01*
G75*
G02*
X76405000Y-89825000I150000J0D01*
G01*
X76705000Y-89825000D01*
G75*
G02*
X76855000Y-89975000I0J-150000D01*
G01*
X76855000Y-91725000D01*
G75*
G02*
X76705000Y-91875000I-150000J0D01*
G01*
G37*
G36*
G01*
X75435000Y-91875000D02*
X75135000Y-91875000D01*
G75*
G02*
X74985000Y-91725000I0J150000D01*
G01*
X74985000Y-89975000D01*
G75*
G02*
X75135000Y-89825000I150000J0D01*
G01*
X75435000Y-89825000D01*
G75*
G02*
X75585000Y-89975000I0J-150000D01*
G01*
X75585000Y-91725000D01*
G75*
G02*
X75435000Y-91875000I-150000J0D01*
G01*
G37*
G36*
G01*
X74165000Y-91875000D02*
X73865000Y-91875000D01*
G75*
G02*
X73715000Y-91725000I0J150000D01*
G01*
X73715000Y-89975000D01*
G75*
G02*
X73865000Y-89825000I150000J0D01*
G01*
X74165000Y-89825000D01*
G75*
G02*
X74315000Y-89975000I0J-150000D01*
G01*
X74315000Y-91725000D01*
G75*
G02*
X74165000Y-91875000I-150000J0D01*
G01*
G37*
G36*
G01*
X74165000Y-101175000D02*
X73865000Y-101175000D01*
G75*
G02*
X73715000Y-101025000I0J150000D01*
G01*
X73715000Y-99275000D01*
G75*
G02*
X73865000Y-99125000I150000J0D01*
G01*
X74165000Y-99125000D01*
G75*
G02*
X74315000Y-99275000I0J-150000D01*
G01*
X74315000Y-101025000D01*
G75*
G02*
X74165000Y-101175000I-150000J0D01*
G01*
G37*
G36*
G01*
X75435000Y-101175000D02*
X75135000Y-101175000D01*
G75*
G02*
X74985000Y-101025000I0J150000D01*
G01*
X74985000Y-99275000D01*
G75*
G02*
X75135000Y-99125000I150000J0D01*
G01*
X75435000Y-99125000D01*
G75*
G02*
X75585000Y-99275000I0J-150000D01*
G01*
X75585000Y-101025000D01*
G75*
G02*
X75435000Y-101175000I-150000J0D01*
G01*
G37*
G36*
G01*
X76705000Y-101175000D02*
X76405000Y-101175000D01*
G75*
G02*
X76255000Y-101025000I0J150000D01*
G01*
X76255000Y-99275000D01*
G75*
G02*
X76405000Y-99125000I150000J0D01*
G01*
X76705000Y-99125000D01*
G75*
G02*
X76855000Y-99275000I0J-150000D01*
G01*
X76855000Y-101025000D01*
G75*
G02*
X76705000Y-101175000I-150000J0D01*
G01*
G37*
G36*
G01*
X77975000Y-101175000D02*
X77675000Y-101175000D01*
G75*
G02*
X77525000Y-101025000I0J150000D01*
G01*
X77525000Y-99275000D01*
G75*
G02*
X77675000Y-99125000I150000J0D01*
G01*
X77975000Y-99125000D01*
G75*
G02*
X78125000Y-99275000I0J-150000D01*
G01*
X78125000Y-101025000D01*
G75*
G02*
X77975000Y-101175000I-150000J0D01*
G01*
G37*
G36*
G01*
X79245000Y-101175000D02*
X78945000Y-101175000D01*
G75*
G02*
X78795000Y-101025000I0J150000D01*
G01*
X78795000Y-99275000D01*
G75*
G02*
X78945000Y-99125000I150000J0D01*
G01*
X79245000Y-99125000D01*
G75*
G02*
X79395000Y-99275000I0J-150000D01*
G01*
X79395000Y-101025000D01*
G75*
G02*
X79245000Y-101175000I-150000J0D01*
G01*
G37*
G36*
G01*
X80515000Y-101175000D02*
X80215000Y-101175000D01*
G75*
G02*
X80065000Y-101025000I0J150000D01*
G01*
X80065000Y-99275000D01*
G75*
G02*
X80215000Y-99125000I150000J0D01*
G01*
X80515000Y-99125000D01*
G75*
G02*
X80665000Y-99275000I0J-150000D01*
G01*
X80665000Y-101025000D01*
G75*
G02*
X80515000Y-101175000I-150000J0D01*
G01*
G37*
G36*
G01*
X81785000Y-101175000D02*
X81485000Y-101175000D01*
G75*
G02*
X81335000Y-101025000I0J150000D01*
G01*
X81335000Y-99275000D01*
G75*
G02*
X81485000Y-99125000I150000J0D01*
G01*
X81785000Y-99125000D01*
G75*
G02*
X81935000Y-99275000I0J-150000D01*
G01*
X81935000Y-101025000D01*
G75*
G02*
X81785000Y-101175000I-150000J0D01*
G01*
G37*
G36*
G01*
X83055000Y-101175000D02*
X82755000Y-101175000D01*
G75*
G02*
X82605000Y-101025000I0J150000D01*
G01*
X82605000Y-99275000D01*
G75*
G02*
X82755000Y-99125000I150000J0D01*
G01*
X83055000Y-99125000D01*
G75*
G02*
X83205000Y-99275000I0J-150000D01*
G01*
X83205000Y-101025000D01*
G75*
G02*
X83055000Y-101175000I-150000J0D01*
G01*
G37*
G36*
G01*
X84325000Y-101175000D02*
X84025000Y-101175000D01*
G75*
G02*
X83875000Y-101025000I0J150000D01*
G01*
X83875000Y-99275000D01*
G75*
G02*
X84025000Y-99125000I150000J0D01*
G01*
X84325000Y-99125000D01*
G75*
G02*
X84475000Y-99275000I0J-150000D01*
G01*
X84475000Y-101025000D01*
G75*
G02*
X84325000Y-101175000I-150000J0D01*
G01*
G37*
G36*
G01*
X85595000Y-101175000D02*
X85295000Y-101175000D01*
G75*
G02*
X85145000Y-101025000I0J150000D01*
G01*
X85145000Y-99275000D01*
G75*
G02*
X85295000Y-99125000I150000J0D01*
G01*
X85595000Y-99125000D01*
G75*
G02*
X85745000Y-99275000I0J-150000D01*
G01*
X85745000Y-101025000D01*
G75*
G02*
X85595000Y-101175000I-150000J0D01*
G01*
G37*
G36*
G01*
X86865000Y-101175000D02*
X86565000Y-101175000D01*
G75*
G02*
X86415000Y-101025000I0J150000D01*
G01*
X86415000Y-99275000D01*
G75*
G02*
X86565000Y-99125000I150000J0D01*
G01*
X86865000Y-99125000D01*
G75*
G02*
X87015000Y-99275000I0J-150000D01*
G01*
X87015000Y-101025000D01*
G75*
G02*
X86865000Y-101175000I-150000J0D01*
G01*
G37*
G36*
G01*
X88135000Y-101175000D02*
X87835000Y-101175000D01*
G75*
G02*
X87685000Y-101025000I0J150000D01*
G01*
X87685000Y-99275000D01*
G75*
G02*
X87835000Y-99125000I150000J0D01*
G01*
X88135000Y-99125000D01*
G75*
G02*
X88285000Y-99275000I0J-150000D01*
G01*
X88285000Y-101025000D01*
G75*
G02*
X88135000Y-101175000I-150000J0D01*
G01*
G37*
%TD*%
%TO.C,C18*%
G36*
G01*
X90249999Y-95850000D02*
X91150001Y-95850000D01*
G75*
G02*
X91400000Y-96099999I0J-249999D01*
G01*
X91400000Y-96750001D01*
G75*
G02*
X91150001Y-97000000I-249999J0D01*
G01*
X90249999Y-97000000D01*
G75*
G02*
X90000000Y-96750001I0J249999D01*
G01*
X90000000Y-96099999D01*
G75*
G02*
X90249999Y-95850000I249999J0D01*
G01*
G37*
G36*
G01*
X90249999Y-93800000D02*
X91150001Y-93800000D01*
G75*
G02*
X91400000Y-94049999I0J-249999D01*
G01*
X91400000Y-94700001D01*
G75*
G02*
X91150001Y-94950000I-249999J0D01*
G01*
X90249999Y-94950000D01*
G75*
G02*
X90000000Y-94700001I0J249999D01*
G01*
X90000000Y-94049999D01*
G75*
G02*
X90249999Y-93800000I249999J0D01*
G01*
G37*
%TD*%
%TO.C,C21*%
G36*
G01*
X112400000Y-87049999D02*
X112400000Y-87950001D01*
G75*
G02*
X112150001Y-88200000I-249999J0D01*
G01*
X111499999Y-88200000D01*
G75*
G02*
X111250000Y-87950001I0J249999D01*
G01*
X111250000Y-87049999D01*
G75*
G02*
X111499999Y-86800000I249999J0D01*
G01*
X112150001Y-86800000D01*
G75*
G02*
X112400000Y-87049999I0J-249999D01*
G01*
G37*
G36*
G01*
X110350000Y-87049999D02*
X110350000Y-87950001D01*
G75*
G02*
X110100001Y-88200000I-249999J0D01*
G01*
X109449999Y-88200000D01*
G75*
G02*
X109200000Y-87950001I0J249999D01*
G01*
X109200000Y-87049999D01*
G75*
G02*
X109449999Y-86800000I249999J0D01*
G01*
X110100001Y-86800000D01*
G75*
G02*
X110350000Y-87049999I0J-249999D01*
G01*
G37*
%TD*%
%TO.C,C24*%
G36*
G01*
X136149999Y-93650000D02*
X137050001Y-93650000D01*
G75*
G02*
X137300000Y-93899999I0J-249999D01*
G01*
X137300000Y-94550001D01*
G75*
G02*
X137050001Y-94800000I-249999J0D01*
G01*
X136149999Y-94800000D01*
G75*
G02*
X135900000Y-94550001I0J249999D01*
G01*
X135900000Y-93899999D01*
G75*
G02*
X136149999Y-93650000I249999J0D01*
G01*
G37*
G36*
G01*
X136149999Y-91600000D02*
X137050001Y-91600000D01*
G75*
G02*
X137300000Y-91849999I0J-249999D01*
G01*
X137300000Y-92500001D01*
G75*
G02*
X137050001Y-92750000I-249999J0D01*
G01*
X136149999Y-92750000D01*
G75*
G02*
X135900000Y-92500001I0J249999D01*
G01*
X135900000Y-91849999D01*
G75*
G02*
X136149999Y-91600000I249999J0D01*
G01*
G37*
%TD*%
%TO.C,C27*%
G36*
G01*
X182149999Y-96250000D02*
X183050001Y-96250000D01*
G75*
G02*
X183300000Y-96499999I0J-249999D01*
G01*
X183300000Y-97150001D01*
G75*
G02*
X183050001Y-97400000I-249999J0D01*
G01*
X182149999Y-97400000D01*
G75*
G02*
X181900000Y-97150001I0J249999D01*
G01*
X181900000Y-96499999D01*
G75*
G02*
X182149999Y-96250000I249999J0D01*
G01*
G37*
G36*
G01*
X182149999Y-94200000D02*
X183050001Y-94200000D01*
G75*
G02*
X183300000Y-94449999I0J-249999D01*
G01*
X183300000Y-95100001D01*
G75*
G02*
X183050001Y-95350000I-249999J0D01*
G01*
X182149999Y-95350000D01*
G75*
G02*
X181900000Y-95100001I0J249999D01*
G01*
X181900000Y-94449999D01*
G75*
G02*
X182149999Y-94200000I249999J0D01*
G01*
G37*
%TD*%
%TO.C,C30*%
G36*
G01*
X204949999Y-95950000D02*
X205850001Y-95950000D01*
G75*
G02*
X206100000Y-96199999I0J-249999D01*
G01*
X206100000Y-96850001D01*
G75*
G02*
X205850001Y-97100000I-249999J0D01*
G01*
X204949999Y-97100000D01*
G75*
G02*
X204700000Y-96850001I0J249999D01*
G01*
X204700000Y-96199999D01*
G75*
G02*
X204949999Y-95950000I249999J0D01*
G01*
G37*
G36*
G01*
X204949999Y-93900000D02*
X205850001Y-93900000D01*
G75*
G02*
X206100000Y-94149999I0J-249999D01*
G01*
X206100000Y-94800001D01*
G75*
G02*
X205850001Y-95050000I-249999J0D01*
G01*
X204949999Y-95050000D01*
G75*
G02*
X204700000Y-94800001I0J249999D01*
G01*
X204700000Y-94149999D01*
G75*
G02*
X204949999Y-93900000I249999J0D01*
G01*
G37*
%TD*%
%TO.C,C33*%
G36*
G01*
X158849999Y-93900000D02*
X159750001Y-93900000D01*
G75*
G02*
X160000000Y-94149999I0J-249999D01*
G01*
X160000000Y-94800001D01*
G75*
G02*
X159750001Y-95050000I-249999J0D01*
G01*
X158849999Y-95050000D01*
G75*
G02*
X158600000Y-94800001I0J249999D01*
G01*
X158600000Y-94149999D01*
G75*
G02*
X158849999Y-93900000I249999J0D01*
G01*
G37*
G36*
G01*
X158849999Y-95950000D02*
X159750001Y-95950000D01*
G75*
G02*
X160000000Y-96199999I0J-249999D01*
G01*
X160000000Y-96850001D01*
G75*
G02*
X159750001Y-97100000I-249999J0D01*
G01*
X158849999Y-97100000D01*
G75*
G02*
X158600000Y-96850001I0J249999D01*
G01*
X158600000Y-96199999D01*
G75*
G02*
X158849999Y-95950000I249999J0D01*
G01*
G37*
%TD*%
D10*
%TO.C,Q3*%
X83500000Y-115000000D03*
X84450000Y-113000000D03*
X82550000Y-113000000D03*
%TD*%
%TO.C,Q4*%
X75050000Y-110900000D03*
X76000000Y-108900000D03*
X74100000Y-108900000D03*
%TD*%
D11*
%TO.C,Q5*%
X75600000Y-134850000D03*
X73600000Y-133900000D03*
X73600000Y-135800000D03*
%TD*%
D10*
%TO.C,Q6*%
X83000000Y-135500000D03*
X82050000Y-137500000D03*
X83950000Y-137500000D03*
%TD*%
%TO.C,Q7*%
X89000000Y-117500000D03*
X89950000Y-115500000D03*
X88050000Y-115500000D03*
%TD*%
D11*
%TO.C,Q8*%
X85200000Y-104600000D03*
X83200000Y-103650000D03*
X83200000Y-105550000D03*
%TD*%
D10*
%TO.C,Q9*%
X77550000Y-113000000D03*
X79450000Y-113000000D03*
X78500000Y-115000000D03*
%TD*%
%TO.C,Q10*%
X72450000Y-115300000D03*
X74350000Y-115300000D03*
X73400000Y-117300000D03*
%TD*%
%TO.C,Q11*%
X79950000Y-137500000D03*
X78050000Y-137500000D03*
X79000000Y-135500000D03*
%TD*%
%TO.C,Q12*%
X87500000Y-136500000D03*
X85600000Y-136500000D03*
X86550000Y-134500000D03*
%TD*%
%TO.C,Q13*%
X87500000Y-113000000D03*
X88450000Y-111000000D03*
X86550000Y-111000000D03*
%TD*%
%TO.C,Q14*%
X105550000Y-113050000D03*
X107450000Y-113050000D03*
X106500000Y-115050000D03*
%TD*%
%TO.C,Q15*%
X97100000Y-108900000D03*
X99000000Y-108900000D03*
X98050000Y-110900000D03*
%TD*%
%TO.C,Q16*%
X99450000Y-136500000D03*
X97550000Y-136500000D03*
X98500000Y-134500000D03*
%TD*%
%TO.C,Q17*%
X106950000Y-137500000D03*
X105050000Y-137500000D03*
X106000000Y-135500000D03*
%TD*%
%TO.C,Q18*%
X110750000Y-115500000D03*
X112650000Y-115500000D03*
X111700000Y-117500000D03*
%TD*%
D11*
%TO.C,Q19*%
X108100000Y-104600000D03*
X106100000Y-103650000D03*
X106100000Y-105550000D03*
%TD*%
D10*
%TO.C,Q20*%
X101500000Y-115050000D03*
X102450000Y-113050000D03*
X100550000Y-113050000D03*
%TD*%
%TO.C,Q21*%
X96400000Y-117300000D03*
X97350000Y-115300000D03*
X95450000Y-115300000D03*
%TD*%
%TO.C,Q22*%
X102000000Y-135500000D03*
X101050000Y-137500000D03*
X102950000Y-137500000D03*
%TD*%
%TO.C,Q23*%
X109550000Y-134500000D03*
X108600000Y-136500000D03*
X110500000Y-136500000D03*
%TD*%
%TO.C,Q24*%
X109550000Y-111000000D03*
X111450000Y-111000000D03*
X110500000Y-113000000D03*
%TD*%
%TO.C,Q25*%
X129500000Y-115000000D03*
X130450000Y-113000000D03*
X128550000Y-113000000D03*
%TD*%
%TO.C,Q26*%
X120100000Y-108900000D03*
X122000000Y-108900000D03*
X121050000Y-110900000D03*
%TD*%
%TO.C,Q27*%
X121500000Y-134500000D03*
X120550000Y-136500000D03*
X122450000Y-136500000D03*
%TD*%
%TO.C,Q28*%
X129000000Y-135500000D03*
X128050000Y-137500000D03*
X129950000Y-137500000D03*
%TD*%
%TO.C,Q29*%
X134050000Y-115500000D03*
X135950000Y-115500000D03*
X135000000Y-117500000D03*
%TD*%
D11*
%TO.C,Q30*%
X129400000Y-105550000D03*
X129400000Y-103650000D03*
X131400000Y-104600000D03*
%TD*%
D10*
%TO.C,Q31*%
X123550000Y-113000000D03*
X125450000Y-113000000D03*
X124500000Y-115000000D03*
%TD*%
%TO.C,Q32*%
X118450000Y-115350000D03*
X120350000Y-115350000D03*
X119400000Y-117350000D03*
%TD*%
%TO.C,Q33*%
X125950000Y-137500000D03*
X124050000Y-137500000D03*
X125000000Y-135500000D03*
%TD*%
%TO.C,Q34*%
X133500000Y-136500000D03*
X131600000Y-136500000D03*
X132550000Y-134500000D03*
%TD*%
%TO.C,Q35*%
X133500000Y-113000000D03*
X134450000Y-111000000D03*
X132550000Y-111000000D03*
%TD*%
%TO.C,Q36*%
X175500000Y-115000000D03*
X176450000Y-113000000D03*
X174550000Y-113000000D03*
%TD*%
%TO.C,Q37*%
X167050000Y-110900000D03*
X168000000Y-108900000D03*
X166100000Y-108900000D03*
%TD*%
%TO.C,Q38*%
X168450000Y-136500000D03*
X166550000Y-136500000D03*
X167500000Y-134500000D03*
%TD*%
%TO.C,Q39*%
X175000000Y-135500000D03*
X174050000Y-137500000D03*
X175950000Y-137500000D03*
%TD*%
%TO.C,Q40*%
X181000000Y-117500000D03*
X181950000Y-115500000D03*
X180050000Y-115500000D03*
%TD*%
D11*
%TO.C,Q41*%
X177300000Y-104600000D03*
X175300000Y-103650000D03*
X175300000Y-105550000D03*
%TD*%
D10*
%TO.C,Q42*%
X170500000Y-115050000D03*
X171450000Y-113050000D03*
X169550000Y-113050000D03*
%TD*%
%TO.C,Q43*%
X164450000Y-115300000D03*
X166350000Y-115300000D03*
X165400000Y-117300000D03*
%TD*%
%TO.C,Q44*%
X171000000Y-135500000D03*
X170050000Y-137500000D03*
X171950000Y-137500000D03*
%TD*%
%TO.C,Q45*%
X178550000Y-134500000D03*
X177600000Y-136500000D03*
X179500000Y-136500000D03*
%TD*%
%TO.C,Q46*%
X178550000Y-111000000D03*
X180450000Y-111000000D03*
X179500000Y-113000000D03*
%TD*%
%TO.C,Q47*%
X197500000Y-113000000D03*
X199400000Y-113000000D03*
X198450000Y-115000000D03*
%TD*%
%TO.C,Q48*%
X189100000Y-108900000D03*
X191000000Y-108900000D03*
X190050000Y-110900000D03*
%TD*%
%TO.C,Q49*%
X188250000Y-133000000D03*
X187300000Y-135000000D03*
X189200000Y-135000000D03*
%TD*%
%TO.C,Q50*%
X197150000Y-135200000D03*
X196200000Y-137200000D03*
X198100000Y-137200000D03*
%TD*%
%TO.C,Q51*%
X204000000Y-117500000D03*
X204950000Y-115500000D03*
X203050000Y-115500000D03*
%TD*%
D11*
%TO.C,Q52*%
X200300000Y-104500000D03*
X198300000Y-103550000D03*
X198300000Y-105450000D03*
%TD*%
D10*
%TO.C,Q53*%
X192550000Y-113000000D03*
X194450000Y-113000000D03*
X193500000Y-115000000D03*
%TD*%
%TO.C,Q54*%
X187450000Y-115300000D03*
X189350000Y-115300000D03*
X188400000Y-117300000D03*
%TD*%
%TO.C,Q55*%
X193450000Y-137550000D03*
X191550000Y-137550000D03*
X192500000Y-135550000D03*
%TD*%
%TO.C,Q56*%
X202950000Y-136100000D03*
X201050000Y-136100000D03*
X202000000Y-134100000D03*
%TD*%
%TO.C,Q57*%
X202500000Y-113000000D03*
X203450000Y-111000000D03*
X201550000Y-111000000D03*
%TD*%
%TO.C,Q58*%
X152500000Y-115000000D03*
X153450000Y-113000000D03*
X151550000Y-113000000D03*
%TD*%
%TO.C,Q59*%
X143100000Y-108900000D03*
X145000000Y-108900000D03*
X144050000Y-110900000D03*
%TD*%
%TO.C,Q60*%
X143200000Y-134950000D03*
X141300000Y-134950000D03*
X142250000Y-132950000D03*
%TD*%
%TO.C,Q61*%
X152100000Y-137150000D03*
X150200000Y-137150000D03*
X151150000Y-135150000D03*
%TD*%
%TO.C,Q62*%
X158000000Y-117500000D03*
X158950000Y-115500000D03*
X157050000Y-115500000D03*
%TD*%
D11*
%TO.C,Q63*%
X152400000Y-105550000D03*
X152400000Y-103650000D03*
X154400000Y-104600000D03*
%TD*%
D10*
%TO.C,Q64*%
X146550000Y-113000000D03*
X148450000Y-113000000D03*
X147500000Y-115000000D03*
%TD*%
%TO.C,Q65*%
X142400000Y-117300000D03*
X143350000Y-115300000D03*
X141450000Y-115300000D03*
%TD*%
%TO.C,Q66*%
X147450000Y-137500000D03*
X145550000Y-137500000D03*
X146500000Y-135500000D03*
%TD*%
%TO.C,Q67*%
X156950000Y-136050000D03*
X155050000Y-136050000D03*
X156000000Y-134050000D03*
%TD*%
%TO.C,Q68*%
X156500000Y-113000000D03*
X157450000Y-111000000D03*
X155550000Y-111000000D03*
%TD*%
%TO.C,R9*%
G36*
G01*
X81925000Y-116749999D02*
X81925000Y-117650001D01*
G75*
G02*
X81675001Y-117900000I-249999J0D01*
G01*
X81024999Y-117900000D01*
G75*
G02*
X80775000Y-117650001I0J249999D01*
G01*
X80775000Y-116749999D01*
G75*
G02*
X81024999Y-116500000I249999J0D01*
G01*
X81675001Y-116500000D01*
G75*
G02*
X81925000Y-116749999I0J-249999D01*
G01*
G37*
G36*
G01*
X83975000Y-116749999D02*
X83975000Y-117650001D01*
G75*
G02*
X83725001Y-117900000I-249999J0D01*
G01*
X83074999Y-117900000D01*
G75*
G02*
X82825000Y-117650001I0J249999D01*
G01*
X82825000Y-116749999D01*
G75*
G02*
X83074999Y-116500000I249999J0D01*
G01*
X83725001Y-116500000D01*
G75*
G02*
X83975000Y-116749999I0J-249999D01*
G01*
G37*
%TD*%
%TO.C,R10*%
G36*
G01*
X107000000Y-116799999D02*
X107000000Y-117700001D01*
G75*
G02*
X106750001Y-117950000I-249999J0D01*
G01*
X106099999Y-117950000D01*
G75*
G02*
X105850000Y-117700001I0J249999D01*
G01*
X105850000Y-116799999D01*
G75*
G02*
X106099999Y-116550000I249999J0D01*
G01*
X106750001Y-116550000D01*
G75*
G02*
X107000000Y-116799999I0J-249999D01*
G01*
G37*
G36*
G01*
X104950000Y-116799999D02*
X104950000Y-117700001D01*
G75*
G02*
X104700001Y-117950000I-249999J0D01*
G01*
X104049999Y-117950000D01*
G75*
G02*
X103800000Y-117700001I0J249999D01*
G01*
X103800000Y-116799999D01*
G75*
G02*
X104049999Y-116550000I249999J0D01*
G01*
X104700001Y-116550000D01*
G75*
G02*
X104950000Y-116799999I0J-249999D01*
G01*
G37*
%TD*%
%TO.C,R11*%
G36*
G01*
X127950000Y-116749999D02*
X127950000Y-117650001D01*
G75*
G02*
X127700001Y-117900000I-249999J0D01*
G01*
X127049999Y-117900000D01*
G75*
G02*
X126800000Y-117650001I0J249999D01*
G01*
X126800000Y-116749999D01*
G75*
G02*
X127049999Y-116500000I249999J0D01*
G01*
X127700001Y-116500000D01*
G75*
G02*
X127950000Y-116749999I0J-249999D01*
G01*
G37*
G36*
G01*
X130000000Y-116749999D02*
X130000000Y-117650001D01*
G75*
G02*
X129750001Y-117900000I-249999J0D01*
G01*
X129099999Y-117900000D01*
G75*
G02*
X128850000Y-117650001I0J249999D01*
G01*
X128850000Y-116749999D01*
G75*
G02*
X129099999Y-116500000I249999J0D01*
G01*
X129750001Y-116500000D01*
G75*
G02*
X130000000Y-116749999I0J-249999D01*
G01*
G37*
%TD*%
%TO.C,R12*%
G36*
G01*
X152975000Y-116749999D02*
X152975000Y-117650001D01*
G75*
G02*
X152725001Y-117900000I-249999J0D01*
G01*
X152074999Y-117900000D01*
G75*
G02*
X151825000Y-117650001I0J249999D01*
G01*
X151825000Y-116749999D01*
G75*
G02*
X152074999Y-116500000I249999J0D01*
G01*
X152725001Y-116500000D01*
G75*
G02*
X152975000Y-116749999I0J-249999D01*
G01*
G37*
G36*
G01*
X150925000Y-116749999D02*
X150925000Y-117650001D01*
G75*
G02*
X150675001Y-117900000I-249999J0D01*
G01*
X150024999Y-117900000D01*
G75*
G02*
X149775000Y-117650001I0J249999D01*
G01*
X149775000Y-116749999D01*
G75*
G02*
X150024999Y-116500000I249999J0D01*
G01*
X150675001Y-116500000D01*
G75*
G02*
X150925000Y-116749999I0J-249999D01*
G01*
G37*
%TD*%
%TO.C,R13*%
G36*
G01*
X173925000Y-116749999D02*
X173925000Y-117650001D01*
G75*
G02*
X173675001Y-117900000I-249999J0D01*
G01*
X173024999Y-117900000D01*
G75*
G02*
X172775000Y-117650001I0J249999D01*
G01*
X172775000Y-116749999D01*
G75*
G02*
X173024999Y-116500000I249999J0D01*
G01*
X173675001Y-116500000D01*
G75*
G02*
X173925000Y-116749999I0J-249999D01*
G01*
G37*
G36*
G01*
X175975000Y-116749999D02*
X175975000Y-117650001D01*
G75*
G02*
X175725001Y-117900000I-249999J0D01*
G01*
X175074999Y-117900000D01*
G75*
G02*
X174825000Y-117650001I0J249999D01*
G01*
X174825000Y-116749999D01*
G75*
G02*
X175074999Y-116500000I249999J0D01*
G01*
X175725001Y-116500000D01*
G75*
G02*
X175975000Y-116749999I0J-249999D01*
G01*
G37*
%TD*%
%TO.C,R14*%
G36*
G01*
X198975000Y-116749999D02*
X198975000Y-117650001D01*
G75*
G02*
X198725001Y-117900000I-249999J0D01*
G01*
X198074999Y-117900000D01*
G75*
G02*
X197825000Y-117650001I0J249999D01*
G01*
X197825000Y-116749999D01*
G75*
G02*
X198074999Y-116500000I249999J0D01*
G01*
X198725001Y-116500000D01*
G75*
G02*
X198975000Y-116749999I0J-249999D01*
G01*
G37*
G36*
G01*
X196925000Y-116749999D02*
X196925000Y-117650001D01*
G75*
G02*
X196675001Y-117900000I-249999J0D01*
G01*
X196024999Y-117900000D01*
G75*
G02*
X195775000Y-117650001I0J249999D01*
G01*
X195775000Y-116749999D01*
G75*
G02*
X196024999Y-116500000I249999J0D01*
G01*
X196675001Y-116500000D01*
G75*
G02*
X196925000Y-116749999I0J-249999D01*
G01*
G37*
%TD*%
%TO.C,R15*%
G36*
G01*
X84250001Y-110600000D02*
X83349999Y-110600000D01*
G75*
G02*
X83100000Y-110350001I0J249999D01*
G01*
X83100000Y-109699999D01*
G75*
G02*
X83349999Y-109450000I249999J0D01*
G01*
X84250001Y-109450000D01*
G75*
G02*
X84500000Y-109699999I0J-249999D01*
G01*
X84500000Y-110350001D01*
G75*
G02*
X84250001Y-110600000I-249999J0D01*
G01*
G37*
G36*
G01*
X84250001Y-108550000D02*
X83349999Y-108550000D01*
G75*
G02*
X83100000Y-108300001I0J249999D01*
G01*
X83100000Y-107649999D01*
G75*
G02*
X83349999Y-107400000I249999J0D01*
G01*
X84250001Y-107400000D01*
G75*
G02*
X84500000Y-107649999I0J-249999D01*
G01*
X84500000Y-108300001D01*
G75*
G02*
X84250001Y-108550000I-249999J0D01*
G01*
G37*
%TD*%
%TO.C,R16*%
G36*
G01*
X75425000Y-107150001D02*
X75425000Y-106249999D01*
G75*
G02*
X75674999Y-106000000I249999J0D01*
G01*
X76325001Y-106000000D01*
G75*
G02*
X76575000Y-106249999I0J-249999D01*
G01*
X76575000Y-107150001D01*
G75*
G02*
X76325001Y-107400000I-249999J0D01*
G01*
X75674999Y-107400000D01*
G75*
G02*
X75425000Y-107150001I0J249999D01*
G01*
G37*
G36*
G01*
X73375000Y-107150001D02*
X73375000Y-106249999D01*
G75*
G02*
X73624999Y-106000000I249999J0D01*
G01*
X74275001Y-106000000D01*
G75*
G02*
X74525000Y-106249999I0J-249999D01*
G01*
X74525000Y-107150001D01*
G75*
G02*
X74275001Y-107400000I-249999J0D01*
G01*
X73624999Y-107400000D01*
G75*
G02*
X73375000Y-107150001I0J249999D01*
G01*
G37*
%TD*%
%TO.C,R17*%
G36*
G01*
X72200001Y-130600000D02*
X71299999Y-130600000D01*
G75*
G02*
X71050000Y-130350001I0J249999D01*
G01*
X71050000Y-129699999D01*
G75*
G02*
X71299999Y-129450000I249999J0D01*
G01*
X72200001Y-129450000D01*
G75*
G02*
X72450000Y-129699999I0J-249999D01*
G01*
X72450000Y-130350001D01*
G75*
G02*
X72200001Y-130600000I-249999J0D01*
G01*
G37*
G36*
G01*
X72200001Y-132650000D02*
X71299999Y-132650000D01*
G75*
G02*
X71050000Y-132400001I0J249999D01*
G01*
X71050000Y-131749999D01*
G75*
G02*
X71299999Y-131500000I249999J0D01*
G01*
X72200001Y-131500000D01*
G75*
G02*
X72450000Y-131749999I0J-249999D01*
G01*
X72450000Y-132400001D01*
G75*
G02*
X72200001Y-132650000I-249999J0D01*
G01*
G37*
%TD*%
%TO.C,R18*%
G36*
G01*
X85450000Y-139549999D02*
X85450000Y-140450001D01*
G75*
G02*
X85200001Y-140700000I-249999J0D01*
G01*
X84549999Y-140700000D01*
G75*
G02*
X84300000Y-140450001I0J249999D01*
G01*
X84300000Y-139549999D01*
G75*
G02*
X84549999Y-139300000I249999J0D01*
G01*
X85200001Y-139300000D01*
G75*
G02*
X85450000Y-139549999I0J-249999D01*
G01*
G37*
G36*
G01*
X83400000Y-139549999D02*
X83400000Y-140450001D01*
G75*
G02*
X83150001Y-140700000I-249999J0D01*
G01*
X82499999Y-140700000D01*
G75*
G02*
X82250000Y-140450001I0J249999D01*
G01*
X82250000Y-139549999D01*
G75*
G02*
X82499999Y-139300000I249999J0D01*
G01*
X83150001Y-139300000D01*
G75*
G02*
X83400000Y-139549999I0J-249999D01*
G01*
G37*
%TD*%
%TO.C,R19*%
G36*
G01*
X88850001Y-104825000D02*
X87949999Y-104825000D01*
G75*
G02*
X87700000Y-104575001I0J249999D01*
G01*
X87700000Y-103924999D01*
G75*
G02*
X87949999Y-103675000I249999J0D01*
G01*
X88850001Y-103675000D01*
G75*
G02*
X89100000Y-103924999I0J-249999D01*
G01*
X89100000Y-104575001D01*
G75*
G02*
X88850001Y-104825000I-249999J0D01*
G01*
G37*
G36*
G01*
X88850001Y-106875000D02*
X87949999Y-106875000D01*
G75*
G02*
X87700000Y-106625001I0J249999D01*
G01*
X87700000Y-105974999D01*
G75*
G02*
X87949999Y-105725000I249999J0D01*
G01*
X88850001Y-105725000D01*
G75*
G02*
X89100000Y-105974999I0J-249999D01*
G01*
X89100000Y-106625001D01*
G75*
G02*
X88850001Y-106875000I-249999J0D01*
G01*
G37*
%TD*%
%TO.C,R20*%
G36*
G01*
X81450001Y-106225000D02*
X80549999Y-106225000D01*
G75*
G02*
X80300000Y-105975001I0J249999D01*
G01*
X80300000Y-105324999D01*
G75*
G02*
X80549999Y-105075000I249999J0D01*
G01*
X81450001Y-105075000D01*
G75*
G02*
X81700000Y-105324999I0J-249999D01*
G01*
X81700000Y-105975001D01*
G75*
G02*
X81450001Y-106225000I-249999J0D01*
G01*
G37*
G36*
G01*
X81450001Y-104175000D02*
X80549999Y-104175000D01*
G75*
G02*
X80300000Y-103925001I0J249999D01*
G01*
X80300000Y-103274999D01*
G75*
G02*
X80549999Y-103025000I249999J0D01*
G01*
X81450001Y-103025000D01*
G75*
G02*
X81700000Y-103274999I0J-249999D01*
G01*
X81700000Y-103925001D01*
G75*
G02*
X81450001Y-104175000I-249999J0D01*
G01*
G37*
%TD*%
%TO.C,R21*%
G36*
G01*
X81450001Y-109650000D02*
X80549999Y-109650000D01*
G75*
G02*
X80300000Y-109400001I0J249999D01*
G01*
X80300000Y-108749999D01*
G75*
G02*
X80549999Y-108500000I249999J0D01*
G01*
X81450001Y-108500000D01*
G75*
G02*
X81700000Y-108749999I0J-249999D01*
G01*
X81700000Y-109400001D01*
G75*
G02*
X81450001Y-109650000I-249999J0D01*
G01*
G37*
G36*
G01*
X81450001Y-111700000D02*
X80549999Y-111700000D01*
G75*
G02*
X80300000Y-111450001I0J249999D01*
G01*
X80300000Y-110799999D01*
G75*
G02*
X80549999Y-110550000I249999J0D01*
G01*
X81450001Y-110550000D01*
G75*
G02*
X81700000Y-110799999I0J-249999D01*
G01*
X81700000Y-111450001D01*
G75*
G02*
X81450001Y-111700000I-249999J0D01*
G01*
G37*
%TD*%
%TO.C,R22*%
G36*
G01*
X78950001Y-109500000D02*
X78049999Y-109500000D01*
G75*
G02*
X77800000Y-109250001I0J249999D01*
G01*
X77800000Y-108599999D01*
G75*
G02*
X78049999Y-108350000I249999J0D01*
G01*
X78950001Y-108350000D01*
G75*
G02*
X79200000Y-108599999I0J-249999D01*
G01*
X79200000Y-109250001D01*
G75*
G02*
X78950001Y-109500000I-249999J0D01*
G01*
G37*
G36*
G01*
X78950001Y-107450000D02*
X78049999Y-107450000D01*
G75*
G02*
X77800000Y-107200001I0J249999D01*
G01*
X77800000Y-106549999D01*
G75*
G02*
X78049999Y-106300000I249999J0D01*
G01*
X78950001Y-106300000D01*
G75*
G02*
X79200000Y-106549999I0J-249999D01*
G01*
X79200000Y-107200001D01*
G75*
G02*
X78950001Y-107450000I-249999J0D01*
G01*
G37*
%TD*%
%TO.C,R23*%
G36*
G01*
X71775000Y-113500001D02*
X71775000Y-112599999D01*
G75*
G02*
X72024999Y-112350000I249999J0D01*
G01*
X72675001Y-112350000D01*
G75*
G02*
X72925000Y-112599999I0J-249999D01*
G01*
X72925000Y-113500001D01*
G75*
G02*
X72675001Y-113750000I-249999J0D01*
G01*
X72024999Y-113750000D01*
G75*
G02*
X71775000Y-113500001I0J249999D01*
G01*
G37*
G36*
G01*
X73825000Y-113500001D02*
X73825000Y-112599999D01*
G75*
G02*
X74074999Y-112350000I249999J0D01*
G01*
X74725001Y-112350000D01*
G75*
G02*
X74975000Y-112599999I0J-249999D01*
G01*
X74975000Y-113500001D01*
G75*
G02*
X74725001Y-113750000I-249999J0D01*
G01*
X74074999Y-113750000D01*
G75*
G02*
X73825000Y-113500001I0J249999D01*
G01*
G37*
%TD*%
%TO.C,R24*%
G36*
G01*
X79050000Y-139549999D02*
X79050000Y-140450001D01*
G75*
G02*
X78800001Y-140700000I-249999J0D01*
G01*
X78149999Y-140700000D01*
G75*
G02*
X77900000Y-140450001I0J249999D01*
G01*
X77900000Y-139549999D01*
G75*
G02*
X78149999Y-139300000I249999J0D01*
G01*
X78800001Y-139300000D01*
G75*
G02*
X79050000Y-139549999I0J-249999D01*
G01*
G37*
G36*
G01*
X81100000Y-139549999D02*
X81100000Y-140450001D01*
G75*
G02*
X80850001Y-140700000I-249999J0D01*
G01*
X80199999Y-140700000D01*
G75*
G02*
X79950000Y-140450001I0J249999D01*
G01*
X79950000Y-139549999D01*
G75*
G02*
X80199999Y-139300000I249999J0D01*
G01*
X80850001Y-139300000D01*
G75*
G02*
X81100000Y-139549999I0J-249999D01*
G01*
G37*
%TD*%
%TO.C,R25*%
G36*
G01*
X86899999Y-137750000D02*
X87800001Y-137750000D01*
G75*
G02*
X88050000Y-137999999I0J-249999D01*
G01*
X88050000Y-138650001D01*
G75*
G02*
X87800001Y-138900000I-249999J0D01*
G01*
X86899999Y-138900000D01*
G75*
G02*
X86650000Y-138650001I0J249999D01*
G01*
X86650000Y-137999999D01*
G75*
G02*
X86899999Y-137750000I249999J0D01*
G01*
G37*
G36*
G01*
X86899999Y-139800000D02*
X87800001Y-139800000D01*
G75*
G02*
X88050000Y-140049999I0J-249999D01*
G01*
X88050000Y-140700001D01*
G75*
G02*
X87800001Y-140950000I-249999J0D01*
G01*
X86899999Y-140950000D01*
G75*
G02*
X86650000Y-140700001I0J249999D01*
G01*
X86650000Y-140049999D01*
G75*
G02*
X86899999Y-139800000I249999J0D01*
G01*
G37*
%TD*%
%TO.C,R26*%
G36*
G01*
X87975000Y-109200001D02*
X87975000Y-108299999D01*
G75*
G02*
X88224999Y-108050000I249999J0D01*
G01*
X88875001Y-108050000D01*
G75*
G02*
X89125000Y-108299999I0J-249999D01*
G01*
X89125000Y-109200001D01*
G75*
G02*
X88875001Y-109450000I-249999J0D01*
G01*
X88224999Y-109450000D01*
G75*
G02*
X87975000Y-109200001I0J249999D01*
G01*
G37*
G36*
G01*
X85925000Y-109200001D02*
X85925000Y-108299999D01*
G75*
G02*
X86174999Y-108050000I249999J0D01*
G01*
X86825001Y-108050000D01*
G75*
G02*
X87075000Y-108299999I0J-249999D01*
G01*
X87075000Y-109200001D01*
G75*
G02*
X86825001Y-109450000I-249999J0D01*
G01*
X86174999Y-109450000D01*
G75*
G02*
X85925000Y-109200001I0J249999D01*
G01*
G37*
%TD*%
%TO.C,R28*%
G36*
G01*
X107350001Y-108650000D02*
X106449999Y-108650000D01*
G75*
G02*
X106200000Y-108400001I0J249999D01*
G01*
X106200000Y-107749999D01*
G75*
G02*
X106449999Y-107500000I249999J0D01*
G01*
X107350001Y-107500000D01*
G75*
G02*
X107600000Y-107749999I0J-249999D01*
G01*
X107600000Y-108400001D01*
G75*
G02*
X107350001Y-108650000I-249999J0D01*
G01*
G37*
G36*
G01*
X107350001Y-110700000D02*
X106449999Y-110700000D01*
G75*
G02*
X106200000Y-110450001I0J249999D01*
G01*
X106200000Y-109799999D01*
G75*
G02*
X106449999Y-109550000I249999J0D01*
G01*
X107350001Y-109550000D01*
G75*
G02*
X107600000Y-109799999I0J-249999D01*
G01*
X107600000Y-110450001D01*
G75*
G02*
X107350001Y-110700000I-249999J0D01*
G01*
G37*
%TD*%
%TO.C,R29*%
G36*
G01*
X96375000Y-107150001D02*
X96375000Y-106249999D01*
G75*
G02*
X96624999Y-106000000I249999J0D01*
G01*
X97275001Y-106000000D01*
G75*
G02*
X97525000Y-106249999I0J-249999D01*
G01*
X97525000Y-107150001D01*
G75*
G02*
X97275001Y-107400000I-249999J0D01*
G01*
X96624999Y-107400000D01*
G75*
G02*
X96375000Y-107150001I0J249999D01*
G01*
G37*
G36*
G01*
X98425000Y-107150001D02*
X98425000Y-106249999D01*
G75*
G02*
X98674999Y-106000000I249999J0D01*
G01*
X99325001Y-106000000D01*
G75*
G02*
X99575000Y-106249999I0J-249999D01*
G01*
X99575000Y-107150001D01*
G75*
G02*
X99325001Y-107400000I-249999J0D01*
G01*
X98674999Y-107400000D01*
G75*
G02*
X98425000Y-107150001I0J249999D01*
G01*
G37*
%TD*%
%TO.C,R30*%
G36*
G01*
X98049999Y-139800000D02*
X98950001Y-139800000D01*
G75*
G02*
X99200000Y-140049999I0J-249999D01*
G01*
X99200000Y-140700001D01*
G75*
G02*
X98950001Y-140950000I-249999J0D01*
G01*
X98049999Y-140950000D01*
G75*
G02*
X97800000Y-140700001I0J249999D01*
G01*
X97800000Y-140049999D01*
G75*
G02*
X98049999Y-139800000I249999J0D01*
G01*
G37*
G36*
G01*
X98049999Y-137750000D02*
X98950001Y-137750000D01*
G75*
G02*
X99200000Y-137999999I0J-249999D01*
G01*
X99200000Y-138650001D01*
G75*
G02*
X98950001Y-138900000I-249999J0D01*
G01*
X98049999Y-138900000D01*
G75*
G02*
X97800000Y-138650001I0J249999D01*
G01*
X97800000Y-137999999D01*
G75*
G02*
X98049999Y-137750000I249999J0D01*
G01*
G37*
%TD*%
%TO.C,R31*%
G36*
G01*
X107700000Y-139549999D02*
X107700000Y-140450001D01*
G75*
G02*
X107450001Y-140700000I-249999J0D01*
G01*
X106799999Y-140700000D01*
G75*
G02*
X106550000Y-140450001I0J249999D01*
G01*
X106550000Y-139549999D01*
G75*
G02*
X106799999Y-139300000I249999J0D01*
G01*
X107450001Y-139300000D01*
G75*
G02*
X107700000Y-139549999I0J-249999D01*
G01*
G37*
G36*
G01*
X105650000Y-139549999D02*
X105650000Y-140450001D01*
G75*
G02*
X105400001Y-140700000I-249999J0D01*
G01*
X104749999Y-140700000D01*
G75*
G02*
X104500000Y-140450001I0J249999D01*
G01*
X104500000Y-139549999D01*
G75*
G02*
X104749999Y-139300000I249999J0D01*
G01*
X105400001Y-139300000D01*
G75*
G02*
X105650000Y-139549999I0J-249999D01*
G01*
G37*
%TD*%
%TO.C,R32*%
G36*
G01*
X111850001Y-104825000D02*
X110949999Y-104825000D01*
G75*
G02*
X110700000Y-104575001I0J249999D01*
G01*
X110700000Y-103924999D01*
G75*
G02*
X110949999Y-103675000I249999J0D01*
G01*
X111850001Y-103675000D01*
G75*
G02*
X112100000Y-103924999I0J-249999D01*
G01*
X112100000Y-104575001D01*
G75*
G02*
X111850001Y-104825000I-249999J0D01*
G01*
G37*
G36*
G01*
X111850001Y-106875000D02*
X110949999Y-106875000D01*
G75*
G02*
X110700000Y-106625001I0J249999D01*
G01*
X110700000Y-105974999D01*
G75*
G02*
X110949999Y-105725000I249999J0D01*
G01*
X111850001Y-105725000D01*
G75*
G02*
X112100000Y-105974999I0J-249999D01*
G01*
X112100000Y-106625001D01*
G75*
G02*
X111850001Y-106875000I-249999J0D01*
G01*
G37*
%TD*%
%TO.C,R33*%
G36*
G01*
X104350001Y-106225000D02*
X103449999Y-106225000D01*
G75*
G02*
X103200000Y-105975001I0J249999D01*
G01*
X103200000Y-105324999D01*
G75*
G02*
X103449999Y-105075000I249999J0D01*
G01*
X104350001Y-105075000D01*
G75*
G02*
X104600000Y-105324999I0J-249999D01*
G01*
X104600000Y-105975001D01*
G75*
G02*
X104350001Y-106225000I-249999J0D01*
G01*
G37*
G36*
G01*
X104350001Y-104175000D02*
X103449999Y-104175000D01*
G75*
G02*
X103200000Y-103925001I0J249999D01*
G01*
X103200000Y-103274999D01*
G75*
G02*
X103449999Y-103025000I249999J0D01*
G01*
X104350001Y-103025000D01*
G75*
G02*
X104600000Y-103274999I0J-249999D01*
G01*
X104600000Y-103925001D01*
G75*
G02*
X104350001Y-104175000I-249999J0D01*
G01*
G37*
%TD*%
%TO.C,R34*%
G36*
G01*
X104450001Y-109650000D02*
X103549999Y-109650000D01*
G75*
G02*
X103300000Y-109400001I0J249999D01*
G01*
X103300000Y-108749999D01*
G75*
G02*
X103549999Y-108500000I249999J0D01*
G01*
X104450001Y-108500000D01*
G75*
G02*
X104700000Y-108749999I0J-249999D01*
G01*
X104700000Y-109400001D01*
G75*
G02*
X104450001Y-109650000I-249999J0D01*
G01*
G37*
G36*
G01*
X104450001Y-111700000D02*
X103549999Y-111700000D01*
G75*
G02*
X103300000Y-111450001I0J249999D01*
G01*
X103300000Y-110799999D01*
G75*
G02*
X103549999Y-110550000I249999J0D01*
G01*
X104450001Y-110550000D01*
G75*
G02*
X104700000Y-110799999I0J-249999D01*
G01*
X104700000Y-111450001D01*
G75*
G02*
X104450001Y-111700000I-249999J0D01*
G01*
G37*
%TD*%
%TO.C,R35*%
G36*
G01*
X101950001Y-109500000D02*
X101049999Y-109500000D01*
G75*
G02*
X100800000Y-109250001I0J249999D01*
G01*
X100800000Y-108599999D01*
G75*
G02*
X101049999Y-108350000I249999J0D01*
G01*
X101950001Y-108350000D01*
G75*
G02*
X102200000Y-108599999I0J-249999D01*
G01*
X102200000Y-109250001D01*
G75*
G02*
X101950001Y-109500000I-249999J0D01*
G01*
G37*
G36*
G01*
X101950001Y-107450000D02*
X101049999Y-107450000D01*
G75*
G02*
X100800000Y-107200001I0J249999D01*
G01*
X100800000Y-106549999D01*
G75*
G02*
X101049999Y-106300000I249999J0D01*
G01*
X101950001Y-106300000D01*
G75*
G02*
X102200000Y-106549999I0J-249999D01*
G01*
X102200000Y-107200001D01*
G75*
G02*
X101950001Y-107450000I-249999J0D01*
G01*
G37*
%TD*%
%TO.C,R36*%
G36*
G01*
X96825000Y-113500001D02*
X96825000Y-112599999D01*
G75*
G02*
X97074999Y-112350000I249999J0D01*
G01*
X97725001Y-112350000D01*
G75*
G02*
X97975000Y-112599999I0J-249999D01*
G01*
X97975000Y-113500001D01*
G75*
G02*
X97725001Y-113750000I-249999J0D01*
G01*
X97074999Y-113750000D01*
G75*
G02*
X96825000Y-113500001I0J249999D01*
G01*
G37*
G36*
G01*
X94775000Y-113500001D02*
X94775000Y-112599999D01*
G75*
G02*
X95024999Y-112350000I249999J0D01*
G01*
X95675001Y-112350000D01*
G75*
G02*
X95925000Y-112599999I0J-249999D01*
G01*
X95925000Y-113500001D01*
G75*
G02*
X95675001Y-113750000I-249999J0D01*
G01*
X95024999Y-113750000D01*
G75*
G02*
X94775000Y-113500001I0J249999D01*
G01*
G37*
%TD*%
%TO.C,R37*%
G36*
G01*
X101450000Y-139549999D02*
X101450000Y-140450001D01*
G75*
G02*
X101200001Y-140700000I-249999J0D01*
G01*
X100549999Y-140700000D01*
G75*
G02*
X100300000Y-140450001I0J249999D01*
G01*
X100300000Y-139549999D01*
G75*
G02*
X100549999Y-139300000I249999J0D01*
G01*
X101200001Y-139300000D01*
G75*
G02*
X101450000Y-139549999I0J-249999D01*
G01*
G37*
G36*
G01*
X103500000Y-139549999D02*
X103500000Y-140450001D01*
G75*
G02*
X103250001Y-140700000I-249999J0D01*
G01*
X102599999Y-140700000D01*
G75*
G02*
X102350000Y-140450001I0J249999D01*
G01*
X102350000Y-139549999D01*
G75*
G02*
X102599999Y-139300000I249999J0D01*
G01*
X103250001Y-139300000D01*
G75*
G02*
X103500000Y-139549999I0J-249999D01*
G01*
G37*
%TD*%
%TO.C,R38*%
G36*
G01*
X109099999Y-139750000D02*
X110000001Y-139750000D01*
G75*
G02*
X110250000Y-139999999I0J-249999D01*
G01*
X110250000Y-140650001D01*
G75*
G02*
X110000001Y-140900000I-249999J0D01*
G01*
X109099999Y-140900000D01*
G75*
G02*
X108850000Y-140650001I0J249999D01*
G01*
X108850000Y-139999999D01*
G75*
G02*
X109099999Y-139750000I249999J0D01*
G01*
G37*
G36*
G01*
X109099999Y-137700000D02*
X110000001Y-137700000D01*
G75*
G02*
X110250000Y-137949999I0J-249999D01*
G01*
X110250000Y-138600001D01*
G75*
G02*
X110000001Y-138850000I-249999J0D01*
G01*
X109099999Y-138850000D01*
G75*
G02*
X108850000Y-138600001I0J249999D01*
G01*
X108850000Y-137949999D01*
G75*
G02*
X109099999Y-137700000I249999J0D01*
G01*
G37*
%TD*%
%TO.C,R39*%
G36*
G01*
X108850000Y-109200001D02*
X108850000Y-108299999D01*
G75*
G02*
X109099999Y-108050000I249999J0D01*
G01*
X109750001Y-108050000D01*
G75*
G02*
X110000000Y-108299999I0J-249999D01*
G01*
X110000000Y-109200001D01*
G75*
G02*
X109750001Y-109450000I-249999J0D01*
G01*
X109099999Y-109450000D01*
G75*
G02*
X108850000Y-109200001I0J249999D01*
G01*
G37*
G36*
G01*
X110900000Y-109200001D02*
X110900000Y-108299999D01*
G75*
G02*
X111149999Y-108050000I249999J0D01*
G01*
X111800001Y-108050000D01*
G75*
G02*
X112050000Y-108299999I0J-249999D01*
G01*
X112050000Y-109200001D01*
G75*
G02*
X111800001Y-109450000I-249999J0D01*
G01*
X111149999Y-109450000D01*
G75*
G02*
X110900000Y-109200001I0J249999D01*
G01*
G37*
%TD*%
%TO.C,R41*%
G36*
G01*
X130550001Y-110700000D02*
X129649999Y-110700000D01*
G75*
G02*
X129400000Y-110450001I0J249999D01*
G01*
X129400000Y-109799999D01*
G75*
G02*
X129649999Y-109550000I249999J0D01*
G01*
X130550001Y-109550000D01*
G75*
G02*
X130800000Y-109799999I0J-249999D01*
G01*
X130800000Y-110450001D01*
G75*
G02*
X130550001Y-110700000I-249999J0D01*
G01*
G37*
G36*
G01*
X130550001Y-108650000D02*
X129649999Y-108650000D01*
G75*
G02*
X129400000Y-108400001I0J249999D01*
G01*
X129400000Y-107749999D01*
G75*
G02*
X129649999Y-107500000I249999J0D01*
G01*
X130550001Y-107500000D01*
G75*
G02*
X130800000Y-107749999I0J-249999D01*
G01*
X130800000Y-108400001D01*
G75*
G02*
X130550001Y-108650000I-249999J0D01*
G01*
G37*
%TD*%
%TO.C,R42*%
G36*
G01*
X121450000Y-107150001D02*
X121450000Y-106249999D01*
G75*
G02*
X121699999Y-106000000I249999J0D01*
G01*
X122350001Y-106000000D01*
G75*
G02*
X122600000Y-106249999I0J-249999D01*
G01*
X122600000Y-107150001D01*
G75*
G02*
X122350001Y-107400000I-249999J0D01*
G01*
X121699999Y-107400000D01*
G75*
G02*
X121450000Y-107150001I0J249999D01*
G01*
G37*
G36*
G01*
X119400000Y-107150001D02*
X119400000Y-106249999D01*
G75*
G02*
X119649999Y-106000000I249999J0D01*
G01*
X120300001Y-106000000D01*
G75*
G02*
X120550000Y-106249999I0J-249999D01*
G01*
X120550000Y-107150001D01*
G75*
G02*
X120300001Y-107400000I-249999J0D01*
G01*
X119649999Y-107400000D01*
G75*
G02*
X119400000Y-107150001I0J249999D01*
G01*
G37*
%TD*%
%TO.C,R43*%
G36*
G01*
X121049999Y-137700000D02*
X121950001Y-137700000D01*
G75*
G02*
X122200000Y-137949999I0J-249999D01*
G01*
X122200000Y-138600001D01*
G75*
G02*
X121950001Y-138850000I-249999J0D01*
G01*
X121049999Y-138850000D01*
G75*
G02*
X120800000Y-138600001I0J249999D01*
G01*
X120800000Y-137949999D01*
G75*
G02*
X121049999Y-137700000I249999J0D01*
G01*
G37*
G36*
G01*
X121049999Y-139750000D02*
X121950001Y-139750000D01*
G75*
G02*
X122200000Y-139999999I0J-249999D01*
G01*
X122200000Y-140650001D01*
G75*
G02*
X121950001Y-140900000I-249999J0D01*
G01*
X121049999Y-140900000D01*
G75*
G02*
X120800000Y-140650001I0J249999D01*
G01*
X120800000Y-139999999D01*
G75*
G02*
X121049999Y-139750000I249999J0D01*
G01*
G37*
%TD*%
%TO.C,R44*%
G36*
G01*
X128650000Y-139549999D02*
X128650000Y-140450001D01*
G75*
G02*
X128400001Y-140700000I-249999J0D01*
G01*
X127749999Y-140700000D01*
G75*
G02*
X127500000Y-140450001I0J249999D01*
G01*
X127500000Y-139549999D01*
G75*
G02*
X127749999Y-139300000I249999J0D01*
G01*
X128400001Y-139300000D01*
G75*
G02*
X128650000Y-139549999I0J-249999D01*
G01*
G37*
G36*
G01*
X130700000Y-139549999D02*
X130700000Y-140450001D01*
G75*
G02*
X130450001Y-140700000I-249999J0D01*
G01*
X129799999Y-140700000D01*
G75*
G02*
X129550000Y-140450001I0J249999D01*
G01*
X129550000Y-139549999D01*
G75*
G02*
X129799999Y-139300000I249999J0D01*
G01*
X130450001Y-139300000D01*
G75*
G02*
X130700000Y-139549999I0J-249999D01*
G01*
G37*
%TD*%
%TO.C,R45*%
G36*
G01*
X134850001Y-104825000D02*
X133949999Y-104825000D01*
G75*
G02*
X133700000Y-104575001I0J249999D01*
G01*
X133700000Y-103924999D01*
G75*
G02*
X133949999Y-103675000I249999J0D01*
G01*
X134850001Y-103675000D01*
G75*
G02*
X135100000Y-103924999I0J-249999D01*
G01*
X135100000Y-104575001D01*
G75*
G02*
X134850001Y-104825000I-249999J0D01*
G01*
G37*
G36*
G01*
X134850001Y-106875000D02*
X133949999Y-106875000D01*
G75*
G02*
X133700000Y-106625001I0J249999D01*
G01*
X133700000Y-105974999D01*
G75*
G02*
X133949999Y-105725000I249999J0D01*
G01*
X134850001Y-105725000D01*
G75*
G02*
X135100000Y-105974999I0J-249999D01*
G01*
X135100000Y-106625001D01*
G75*
G02*
X134850001Y-106875000I-249999J0D01*
G01*
G37*
%TD*%
%TO.C,R46*%
G36*
G01*
X127650001Y-106225000D02*
X126749999Y-106225000D01*
G75*
G02*
X126500000Y-105975001I0J249999D01*
G01*
X126500000Y-105324999D01*
G75*
G02*
X126749999Y-105075000I249999J0D01*
G01*
X127650001Y-105075000D01*
G75*
G02*
X127900000Y-105324999I0J-249999D01*
G01*
X127900000Y-105975001D01*
G75*
G02*
X127650001Y-106225000I-249999J0D01*
G01*
G37*
G36*
G01*
X127650001Y-104175000D02*
X126749999Y-104175000D01*
G75*
G02*
X126500000Y-103925001I0J249999D01*
G01*
X126500000Y-103274999D01*
G75*
G02*
X126749999Y-103025000I249999J0D01*
G01*
X127650001Y-103025000D01*
G75*
G02*
X127900000Y-103274999I0J-249999D01*
G01*
X127900000Y-103925001D01*
G75*
G02*
X127650001Y-104175000I-249999J0D01*
G01*
G37*
%TD*%
%TO.C,R47*%
G36*
G01*
X127450001Y-111700000D02*
X126549999Y-111700000D01*
G75*
G02*
X126300000Y-111450001I0J249999D01*
G01*
X126300000Y-110799999D01*
G75*
G02*
X126549999Y-110550000I249999J0D01*
G01*
X127450001Y-110550000D01*
G75*
G02*
X127700000Y-110799999I0J-249999D01*
G01*
X127700000Y-111450001D01*
G75*
G02*
X127450001Y-111700000I-249999J0D01*
G01*
G37*
G36*
G01*
X127450001Y-109650000D02*
X126549999Y-109650000D01*
G75*
G02*
X126300000Y-109400001I0J249999D01*
G01*
X126300000Y-108749999D01*
G75*
G02*
X126549999Y-108500000I249999J0D01*
G01*
X127450001Y-108500000D01*
G75*
G02*
X127700000Y-108749999I0J-249999D01*
G01*
X127700000Y-109400001D01*
G75*
G02*
X127450001Y-109650000I-249999J0D01*
G01*
G37*
%TD*%
%TO.C,R48*%
G36*
G01*
X124950001Y-107450000D02*
X124049999Y-107450000D01*
G75*
G02*
X123800000Y-107200001I0J249999D01*
G01*
X123800000Y-106549999D01*
G75*
G02*
X124049999Y-106300000I249999J0D01*
G01*
X124950001Y-106300000D01*
G75*
G02*
X125200000Y-106549999I0J-249999D01*
G01*
X125200000Y-107200001D01*
G75*
G02*
X124950001Y-107450000I-249999J0D01*
G01*
G37*
G36*
G01*
X124950001Y-109500000D02*
X124049999Y-109500000D01*
G75*
G02*
X123800000Y-109250001I0J249999D01*
G01*
X123800000Y-108599999D01*
G75*
G02*
X124049999Y-108350000I249999J0D01*
G01*
X124950001Y-108350000D01*
G75*
G02*
X125200000Y-108599999I0J-249999D01*
G01*
X125200000Y-109250001D01*
G75*
G02*
X124950001Y-109500000I-249999J0D01*
G01*
G37*
%TD*%
%TO.C,R49*%
G36*
G01*
X117800000Y-113500001D02*
X117800000Y-112599999D01*
G75*
G02*
X118049999Y-112350000I249999J0D01*
G01*
X118700001Y-112350000D01*
G75*
G02*
X118950000Y-112599999I0J-249999D01*
G01*
X118950000Y-113500001D01*
G75*
G02*
X118700001Y-113750000I-249999J0D01*
G01*
X118049999Y-113750000D01*
G75*
G02*
X117800000Y-113500001I0J249999D01*
G01*
G37*
G36*
G01*
X119850000Y-113500001D02*
X119850000Y-112599999D01*
G75*
G02*
X120099999Y-112350000I249999J0D01*
G01*
X120750001Y-112350000D01*
G75*
G02*
X121000000Y-112599999I0J-249999D01*
G01*
X121000000Y-113500001D01*
G75*
G02*
X120750001Y-113750000I-249999J0D01*
G01*
X120099999Y-113750000D01*
G75*
G02*
X119850000Y-113500001I0J249999D01*
G01*
G37*
%TD*%
%TO.C,R50*%
G36*
G01*
X124450000Y-139549999D02*
X124450000Y-140450001D01*
G75*
G02*
X124200001Y-140700000I-249999J0D01*
G01*
X123549999Y-140700000D01*
G75*
G02*
X123300000Y-140450001I0J249999D01*
G01*
X123300000Y-139549999D01*
G75*
G02*
X123549999Y-139300000I249999J0D01*
G01*
X124200001Y-139300000D01*
G75*
G02*
X124450000Y-139549999I0J-249999D01*
G01*
G37*
G36*
G01*
X126500000Y-139549999D02*
X126500000Y-140450001D01*
G75*
G02*
X126250001Y-140700000I-249999J0D01*
G01*
X125599999Y-140700000D01*
G75*
G02*
X125350000Y-140450001I0J249999D01*
G01*
X125350000Y-139549999D01*
G75*
G02*
X125599999Y-139300000I249999J0D01*
G01*
X126250001Y-139300000D01*
G75*
G02*
X126500000Y-139549999I0J-249999D01*
G01*
G37*
%TD*%
%TO.C,R51*%
G36*
G01*
X132099999Y-139750000D02*
X133000001Y-139750000D01*
G75*
G02*
X133250000Y-139999999I0J-249999D01*
G01*
X133250000Y-140650001D01*
G75*
G02*
X133000001Y-140900000I-249999J0D01*
G01*
X132099999Y-140900000D01*
G75*
G02*
X131850000Y-140650001I0J249999D01*
G01*
X131850000Y-139999999D01*
G75*
G02*
X132099999Y-139750000I249999J0D01*
G01*
G37*
G36*
G01*
X132099999Y-137700000D02*
X133000001Y-137700000D01*
G75*
G02*
X133250000Y-137949999I0J-249999D01*
G01*
X133250000Y-138600001D01*
G75*
G02*
X133000001Y-138850000I-249999J0D01*
G01*
X132099999Y-138850000D01*
G75*
G02*
X131850000Y-138600001I0J249999D01*
G01*
X131850000Y-137949999D01*
G75*
G02*
X132099999Y-137700000I249999J0D01*
G01*
G37*
%TD*%
%TO.C,R52*%
G36*
G01*
X133950000Y-109200001D02*
X133950000Y-108299999D01*
G75*
G02*
X134199999Y-108050000I249999J0D01*
G01*
X134850001Y-108050000D01*
G75*
G02*
X135100000Y-108299999I0J-249999D01*
G01*
X135100000Y-109200001D01*
G75*
G02*
X134850001Y-109450000I-249999J0D01*
G01*
X134199999Y-109450000D01*
G75*
G02*
X133950000Y-109200001I0J249999D01*
G01*
G37*
G36*
G01*
X131900000Y-109200001D02*
X131900000Y-108299999D01*
G75*
G02*
X132149999Y-108050000I249999J0D01*
G01*
X132800001Y-108050000D01*
G75*
G02*
X133050000Y-108299999I0J-249999D01*
G01*
X133050000Y-109200001D01*
G75*
G02*
X132800001Y-109450000I-249999J0D01*
G01*
X132149999Y-109450000D01*
G75*
G02*
X131900000Y-109200001I0J249999D01*
G01*
G37*
%TD*%
%TO.C,R54*%
G36*
G01*
X176550001Y-108550000D02*
X175649999Y-108550000D01*
G75*
G02*
X175400000Y-108300001I0J249999D01*
G01*
X175400000Y-107649999D01*
G75*
G02*
X175649999Y-107400000I249999J0D01*
G01*
X176550001Y-107400000D01*
G75*
G02*
X176800000Y-107649999I0J-249999D01*
G01*
X176800000Y-108300001D01*
G75*
G02*
X176550001Y-108550000I-249999J0D01*
G01*
G37*
G36*
G01*
X176550001Y-110600000D02*
X175649999Y-110600000D01*
G75*
G02*
X175400000Y-110350001I0J249999D01*
G01*
X175400000Y-109699999D01*
G75*
G02*
X175649999Y-109450000I249999J0D01*
G01*
X176550001Y-109450000D01*
G75*
G02*
X176800000Y-109699999I0J-249999D01*
G01*
X176800000Y-110350001D01*
G75*
G02*
X176550001Y-110600000I-249999J0D01*
G01*
G37*
%TD*%
%TO.C,R55*%
G36*
G01*
X167425000Y-107150001D02*
X167425000Y-106249999D01*
G75*
G02*
X167674999Y-106000000I249999J0D01*
G01*
X168325001Y-106000000D01*
G75*
G02*
X168575000Y-106249999I0J-249999D01*
G01*
X168575000Y-107150001D01*
G75*
G02*
X168325001Y-107400000I-249999J0D01*
G01*
X167674999Y-107400000D01*
G75*
G02*
X167425000Y-107150001I0J249999D01*
G01*
G37*
G36*
G01*
X165375000Y-107150001D02*
X165375000Y-106249999D01*
G75*
G02*
X165624999Y-106000000I249999J0D01*
G01*
X166275001Y-106000000D01*
G75*
G02*
X166525000Y-106249999I0J-249999D01*
G01*
X166525000Y-107150001D01*
G75*
G02*
X166275001Y-107400000I-249999J0D01*
G01*
X165624999Y-107400000D01*
G75*
G02*
X165375000Y-107150001I0J249999D01*
G01*
G37*
%TD*%
%TO.C,R56*%
G36*
G01*
X167049999Y-139750000D02*
X167950001Y-139750000D01*
G75*
G02*
X168200000Y-139999999I0J-249999D01*
G01*
X168200000Y-140650001D01*
G75*
G02*
X167950001Y-140900000I-249999J0D01*
G01*
X167049999Y-140900000D01*
G75*
G02*
X166800000Y-140650001I0J249999D01*
G01*
X166800000Y-139999999D01*
G75*
G02*
X167049999Y-139750000I249999J0D01*
G01*
G37*
G36*
G01*
X167049999Y-137700000D02*
X167950001Y-137700000D01*
G75*
G02*
X168200000Y-137949999I0J-249999D01*
G01*
X168200000Y-138600001D01*
G75*
G02*
X167950001Y-138850000I-249999J0D01*
G01*
X167049999Y-138850000D01*
G75*
G02*
X166800000Y-138600001I0J249999D01*
G01*
X166800000Y-137949999D01*
G75*
G02*
X167049999Y-137700000I249999J0D01*
G01*
G37*
%TD*%
%TO.C,R57*%
G36*
G01*
X176650000Y-139549999D02*
X176650000Y-140450001D01*
G75*
G02*
X176400001Y-140700000I-249999J0D01*
G01*
X175749999Y-140700000D01*
G75*
G02*
X175500000Y-140450001I0J249999D01*
G01*
X175500000Y-139549999D01*
G75*
G02*
X175749999Y-139300000I249999J0D01*
G01*
X176400001Y-139300000D01*
G75*
G02*
X176650000Y-139549999I0J-249999D01*
G01*
G37*
G36*
G01*
X174600000Y-139549999D02*
X174600000Y-140450001D01*
G75*
G02*
X174350001Y-140700000I-249999J0D01*
G01*
X173699999Y-140700000D01*
G75*
G02*
X173450000Y-140450001I0J249999D01*
G01*
X173450000Y-139549999D01*
G75*
G02*
X173699999Y-139300000I249999J0D01*
G01*
X174350001Y-139300000D01*
G75*
G02*
X174600000Y-139549999I0J-249999D01*
G01*
G37*
%TD*%
%TO.C,R58*%
G36*
G01*
X180850001Y-106875000D02*
X179949999Y-106875000D01*
G75*
G02*
X179700000Y-106625001I0J249999D01*
G01*
X179700000Y-105974999D01*
G75*
G02*
X179949999Y-105725000I249999J0D01*
G01*
X180850001Y-105725000D01*
G75*
G02*
X181100000Y-105974999I0J-249999D01*
G01*
X181100000Y-106625001D01*
G75*
G02*
X180850001Y-106875000I-249999J0D01*
G01*
G37*
G36*
G01*
X180850001Y-104825000D02*
X179949999Y-104825000D01*
G75*
G02*
X179700000Y-104575001I0J249999D01*
G01*
X179700000Y-103924999D01*
G75*
G02*
X179949999Y-103675000I249999J0D01*
G01*
X180850001Y-103675000D01*
G75*
G02*
X181100000Y-103924999I0J-249999D01*
G01*
X181100000Y-104575001D01*
G75*
G02*
X180850001Y-104825000I-249999J0D01*
G01*
G37*
%TD*%
%TO.C,R59*%
G36*
G01*
X173550001Y-106225000D02*
X172649999Y-106225000D01*
G75*
G02*
X172400000Y-105975001I0J249999D01*
G01*
X172400000Y-105324999D01*
G75*
G02*
X172649999Y-105075000I249999J0D01*
G01*
X173550001Y-105075000D01*
G75*
G02*
X173800000Y-105324999I0J-249999D01*
G01*
X173800000Y-105975001D01*
G75*
G02*
X173550001Y-106225000I-249999J0D01*
G01*
G37*
G36*
G01*
X173550001Y-104175000D02*
X172649999Y-104175000D01*
G75*
G02*
X172400000Y-103925001I0J249999D01*
G01*
X172400000Y-103274999D01*
G75*
G02*
X172649999Y-103025000I249999J0D01*
G01*
X173550001Y-103025000D01*
G75*
G02*
X173800000Y-103274999I0J-249999D01*
G01*
X173800000Y-103925001D01*
G75*
G02*
X173550001Y-104175000I-249999J0D01*
G01*
G37*
%TD*%
%TO.C,R60*%
G36*
G01*
X173450001Y-109650000D02*
X172549999Y-109650000D01*
G75*
G02*
X172300000Y-109400001I0J249999D01*
G01*
X172300000Y-108749999D01*
G75*
G02*
X172549999Y-108500000I249999J0D01*
G01*
X173450001Y-108500000D01*
G75*
G02*
X173700000Y-108749999I0J-249999D01*
G01*
X173700000Y-109400001D01*
G75*
G02*
X173450001Y-109650000I-249999J0D01*
G01*
G37*
G36*
G01*
X173450001Y-111700000D02*
X172549999Y-111700000D01*
G75*
G02*
X172300000Y-111450001I0J249999D01*
G01*
X172300000Y-110799999D01*
G75*
G02*
X172549999Y-110550000I249999J0D01*
G01*
X173450001Y-110550000D01*
G75*
G02*
X173700000Y-110799999I0J-249999D01*
G01*
X173700000Y-111450001D01*
G75*
G02*
X173450001Y-111700000I-249999J0D01*
G01*
G37*
%TD*%
%TO.C,R61*%
G36*
G01*
X170950001Y-109500000D02*
X170049999Y-109500000D01*
G75*
G02*
X169800000Y-109250001I0J249999D01*
G01*
X169800000Y-108599999D01*
G75*
G02*
X170049999Y-108350000I249999J0D01*
G01*
X170950001Y-108350000D01*
G75*
G02*
X171200000Y-108599999I0J-249999D01*
G01*
X171200000Y-109250001D01*
G75*
G02*
X170950001Y-109500000I-249999J0D01*
G01*
G37*
G36*
G01*
X170950001Y-107450000D02*
X170049999Y-107450000D01*
G75*
G02*
X169800000Y-107200001I0J249999D01*
G01*
X169800000Y-106549999D01*
G75*
G02*
X170049999Y-106300000I249999J0D01*
G01*
X170950001Y-106300000D01*
G75*
G02*
X171200000Y-106549999I0J-249999D01*
G01*
X171200000Y-107200001D01*
G75*
G02*
X170950001Y-107450000I-249999J0D01*
G01*
G37*
%TD*%
%TO.C,R62*%
G36*
G01*
X163775000Y-113500001D02*
X163775000Y-112599999D01*
G75*
G02*
X164024999Y-112350000I249999J0D01*
G01*
X164675001Y-112350000D01*
G75*
G02*
X164925000Y-112599999I0J-249999D01*
G01*
X164925000Y-113500001D01*
G75*
G02*
X164675001Y-113750000I-249999J0D01*
G01*
X164024999Y-113750000D01*
G75*
G02*
X163775000Y-113500001I0J249999D01*
G01*
G37*
G36*
G01*
X165825000Y-113500001D02*
X165825000Y-112599999D01*
G75*
G02*
X166074999Y-112350000I249999J0D01*
G01*
X166725001Y-112350000D01*
G75*
G02*
X166975000Y-112599999I0J-249999D01*
G01*
X166975000Y-113500001D01*
G75*
G02*
X166725001Y-113750000I-249999J0D01*
G01*
X166074999Y-113750000D01*
G75*
G02*
X165825000Y-113500001I0J249999D01*
G01*
G37*
%TD*%
%TO.C,R63*%
G36*
G01*
X170450000Y-139549999D02*
X170450000Y-140450001D01*
G75*
G02*
X170200001Y-140700000I-249999J0D01*
G01*
X169549999Y-140700000D01*
G75*
G02*
X169300000Y-140450001I0J249999D01*
G01*
X169300000Y-139549999D01*
G75*
G02*
X169549999Y-139300000I249999J0D01*
G01*
X170200001Y-139300000D01*
G75*
G02*
X170450000Y-139549999I0J-249999D01*
G01*
G37*
G36*
G01*
X172500000Y-139549999D02*
X172500000Y-140450001D01*
G75*
G02*
X172250001Y-140700000I-249999J0D01*
G01*
X171599999Y-140700000D01*
G75*
G02*
X171350000Y-140450001I0J249999D01*
G01*
X171350000Y-139549999D01*
G75*
G02*
X171599999Y-139300000I249999J0D01*
G01*
X172250001Y-139300000D01*
G75*
G02*
X172500000Y-139549999I0J-249999D01*
G01*
G37*
%TD*%
%TO.C,R64*%
G36*
G01*
X178099999Y-137700000D02*
X179000001Y-137700000D01*
G75*
G02*
X179250000Y-137949999I0J-249999D01*
G01*
X179250000Y-138600001D01*
G75*
G02*
X179000001Y-138850000I-249999J0D01*
G01*
X178099999Y-138850000D01*
G75*
G02*
X177850000Y-138600001I0J249999D01*
G01*
X177850000Y-137949999D01*
G75*
G02*
X178099999Y-137700000I249999J0D01*
G01*
G37*
G36*
G01*
X178099999Y-139750000D02*
X179000001Y-139750000D01*
G75*
G02*
X179250000Y-139999999I0J-249999D01*
G01*
X179250000Y-140650001D01*
G75*
G02*
X179000001Y-140900000I-249999J0D01*
G01*
X178099999Y-140900000D01*
G75*
G02*
X177850000Y-140650001I0J249999D01*
G01*
X177850000Y-139999999D01*
G75*
G02*
X178099999Y-139750000I249999J0D01*
G01*
G37*
%TD*%
%TO.C,R65*%
G36*
G01*
X179975000Y-109200001D02*
X179975000Y-108299999D01*
G75*
G02*
X180224999Y-108050000I249999J0D01*
G01*
X180875001Y-108050000D01*
G75*
G02*
X181125000Y-108299999I0J-249999D01*
G01*
X181125000Y-109200001D01*
G75*
G02*
X180875001Y-109450000I-249999J0D01*
G01*
X180224999Y-109450000D01*
G75*
G02*
X179975000Y-109200001I0J249999D01*
G01*
G37*
G36*
G01*
X177925000Y-109200001D02*
X177925000Y-108299999D01*
G75*
G02*
X178174999Y-108050000I249999J0D01*
G01*
X178825001Y-108050000D01*
G75*
G02*
X179075000Y-108299999I0J-249999D01*
G01*
X179075000Y-109200001D01*
G75*
G02*
X178825001Y-109450000I-249999J0D01*
G01*
X178174999Y-109450000D01*
G75*
G02*
X177925000Y-109200001I0J249999D01*
G01*
G37*
%TD*%
%TO.C,R67*%
G36*
G01*
X199550001Y-108375000D02*
X198649999Y-108375000D01*
G75*
G02*
X198400000Y-108125001I0J249999D01*
G01*
X198400000Y-107474999D01*
G75*
G02*
X198649999Y-107225000I249999J0D01*
G01*
X199550001Y-107225000D01*
G75*
G02*
X199800000Y-107474999I0J-249999D01*
G01*
X199800000Y-108125001D01*
G75*
G02*
X199550001Y-108375000I-249999J0D01*
G01*
G37*
G36*
G01*
X199550001Y-110425000D02*
X198649999Y-110425000D01*
G75*
G02*
X198400000Y-110175001I0J249999D01*
G01*
X198400000Y-109524999D01*
G75*
G02*
X198649999Y-109275000I249999J0D01*
G01*
X199550001Y-109275000D01*
G75*
G02*
X199800000Y-109524999I0J-249999D01*
G01*
X199800000Y-110175001D01*
G75*
G02*
X199550001Y-110425000I-249999J0D01*
G01*
G37*
%TD*%
%TO.C,R68*%
G36*
G01*
X188375000Y-107150001D02*
X188375000Y-106249999D01*
G75*
G02*
X188624999Y-106000000I249999J0D01*
G01*
X189275001Y-106000000D01*
G75*
G02*
X189525000Y-106249999I0J-249999D01*
G01*
X189525000Y-107150001D01*
G75*
G02*
X189275001Y-107400000I-249999J0D01*
G01*
X188624999Y-107400000D01*
G75*
G02*
X188375000Y-107150001I0J249999D01*
G01*
G37*
G36*
G01*
X190425000Y-107150001D02*
X190425000Y-106249999D01*
G75*
G02*
X190674999Y-106000000I249999J0D01*
G01*
X191325001Y-106000000D01*
G75*
G02*
X191575000Y-106249999I0J-249999D01*
G01*
X191575000Y-107150001D01*
G75*
G02*
X191325001Y-107400000I-249999J0D01*
G01*
X190674999Y-107400000D01*
G75*
G02*
X190425000Y-107150001I0J249999D01*
G01*
G37*
%TD*%
%TO.C,R69*%
G36*
G01*
X189875000Y-136849999D02*
X189875000Y-137750001D01*
G75*
G02*
X189625001Y-138000000I-249999J0D01*
G01*
X188974999Y-138000000D01*
G75*
G02*
X188725000Y-137750001I0J249999D01*
G01*
X188725000Y-136849999D01*
G75*
G02*
X188974999Y-136600000I249999J0D01*
G01*
X189625001Y-136600000D01*
G75*
G02*
X189875000Y-136849999I0J-249999D01*
G01*
G37*
G36*
G01*
X187825000Y-136849999D02*
X187825000Y-137750001D01*
G75*
G02*
X187575001Y-138000000I-249999J0D01*
G01*
X186924999Y-138000000D01*
G75*
G02*
X186675000Y-137750001I0J249999D01*
G01*
X186675000Y-136849999D01*
G75*
G02*
X186924999Y-136600000I249999J0D01*
G01*
X187575001Y-136600000D01*
G75*
G02*
X187825000Y-136849999I0J-249999D01*
G01*
G37*
%TD*%
%TO.C,R70*%
G36*
G01*
X197400000Y-139850001D02*
X197400000Y-138949999D01*
G75*
G02*
X197649999Y-138700000I249999J0D01*
G01*
X198300001Y-138700000D01*
G75*
G02*
X198550000Y-138949999I0J-249999D01*
G01*
X198550000Y-139850001D01*
G75*
G02*
X198300001Y-140100000I-249999J0D01*
G01*
X197649999Y-140100000D01*
G75*
G02*
X197400000Y-139850001I0J249999D01*
G01*
G37*
G36*
G01*
X195350000Y-139850001D02*
X195350000Y-138949999D01*
G75*
G02*
X195599999Y-138700000I249999J0D01*
G01*
X196250001Y-138700000D01*
G75*
G02*
X196500000Y-138949999I0J-249999D01*
G01*
X196500000Y-139850001D01*
G75*
G02*
X196250001Y-140100000I-249999J0D01*
G01*
X195599999Y-140100000D01*
G75*
G02*
X195350000Y-139850001I0J249999D01*
G01*
G37*
%TD*%
%TO.C,R71*%
G36*
G01*
X203850001Y-104825000D02*
X202949999Y-104825000D01*
G75*
G02*
X202700000Y-104575001I0J249999D01*
G01*
X202700000Y-103924999D01*
G75*
G02*
X202949999Y-103675000I249999J0D01*
G01*
X203850001Y-103675000D01*
G75*
G02*
X204100000Y-103924999I0J-249999D01*
G01*
X204100000Y-104575001D01*
G75*
G02*
X203850001Y-104825000I-249999J0D01*
G01*
G37*
G36*
G01*
X203850001Y-106875000D02*
X202949999Y-106875000D01*
G75*
G02*
X202700000Y-106625001I0J249999D01*
G01*
X202700000Y-105974999D01*
G75*
G02*
X202949999Y-105725000I249999J0D01*
G01*
X203850001Y-105725000D01*
G75*
G02*
X204100000Y-105974999I0J-249999D01*
G01*
X204100000Y-106625001D01*
G75*
G02*
X203850001Y-106875000I-249999J0D01*
G01*
G37*
%TD*%
%TO.C,R72*%
G36*
G01*
X196550001Y-106125000D02*
X195649999Y-106125000D01*
G75*
G02*
X195400000Y-105875001I0J249999D01*
G01*
X195400000Y-105224999D01*
G75*
G02*
X195649999Y-104975000I249999J0D01*
G01*
X196550001Y-104975000D01*
G75*
G02*
X196800000Y-105224999I0J-249999D01*
G01*
X196800000Y-105875001D01*
G75*
G02*
X196550001Y-106125000I-249999J0D01*
G01*
G37*
G36*
G01*
X196550001Y-104075000D02*
X195649999Y-104075000D01*
G75*
G02*
X195400000Y-103825001I0J249999D01*
G01*
X195400000Y-103174999D01*
G75*
G02*
X195649999Y-102925000I249999J0D01*
G01*
X196550001Y-102925000D01*
G75*
G02*
X196800000Y-103174999I0J-249999D01*
G01*
X196800000Y-103825001D01*
G75*
G02*
X196550001Y-104075000I-249999J0D01*
G01*
G37*
%TD*%
%TO.C,R73*%
G36*
G01*
X196450001Y-109550000D02*
X195549999Y-109550000D01*
G75*
G02*
X195300000Y-109300001I0J249999D01*
G01*
X195300000Y-108649999D01*
G75*
G02*
X195549999Y-108400000I249999J0D01*
G01*
X196450001Y-108400000D01*
G75*
G02*
X196700000Y-108649999I0J-249999D01*
G01*
X196700000Y-109300001D01*
G75*
G02*
X196450001Y-109550000I-249999J0D01*
G01*
G37*
G36*
G01*
X196450001Y-111600000D02*
X195549999Y-111600000D01*
G75*
G02*
X195300000Y-111350001I0J249999D01*
G01*
X195300000Y-110699999D01*
G75*
G02*
X195549999Y-110450000I249999J0D01*
G01*
X196450001Y-110450000D01*
G75*
G02*
X196700000Y-110699999I0J-249999D01*
G01*
X196700000Y-111350001D01*
G75*
G02*
X196450001Y-111600000I-249999J0D01*
G01*
G37*
%TD*%
%TO.C,R74*%
G36*
G01*
X193950001Y-109500000D02*
X193049999Y-109500000D01*
G75*
G02*
X192800000Y-109250001I0J249999D01*
G01*
X192800000Y-108599999D01*
G75*
G02*
X193049999Y-108350000I249999J0D01*
G01*
X193950001Y-108350000D01*
G75*
G02*
X194200000Y-108599999I0J-249999D01*
G01*
X194200000Y-109250001D01*
G75*
G02*
X193950001Y-109500000I-249999J0D01*
G01*
G37*
G36*
G01*
X193950001Y-107450000D02*
X193049999Y-107450000D01*
G75*
G02*
X192800000Y-107200001I0J249999D01*
G01*
X192800000Y-106549999D01*
G75*
G02*
X193049999Y-106300000I249999J0D01*
G01*
X193950001Y-106300000D01*
G75*
G02*
X194200000Y-106549999I0J-249999D01*
G01*
X194200000Y-107200001D01*
G75*
G02*
X193950001Y-107450000I-249999J0D01*
G01*
G37*
%TD*%
%TO.C,R75*%
G36*
G01*
X188825000Y-113500001D02*
X188825000Y-112599999D01*
G75*
G02*
X189074999Y-112350000I249999J0D01*
G01*
X189725001Y-112350000D01*
G75*
G02*
X189975000Y-112599999I0J-249999D01*
G01*
X189975000Y-113500001D01*
G75*
G02*
X189725001Y-113750000I-249999J0D01*
G01*
X189074999Y-113750000D01*
G75*
G02*
X188825000Y-113500001I0J249999D01*
G01*
G37*
G36*
G01*
X186775000Y-113500001D02*
X186775000Y-112599999D01*
G75*
G02*
X187024999Y-112350000I249999J0D01*
G01*
X187675001Y-112350000D01*
G75*
G02*
X187925000Y-112599999I0J-249999D01*
G01*
X187925000Y-113500001D01*
G75*
G02*
X187675001Y-113750000I-249999J0D01*
G01*
X187024999Y-113750000D01*
G75*
G02*
X186775000Y-113500001I0J249999D01*
G01*
G37*
%TD*%
%TO.C,R76*%
G36*
G01*
X192050000Y-139349999D02*
X192050000Y-140250001D01*
G75*
G02*
X191800001Y-140500000I-249999J0D01*
G01*
X191149999Y-140500000D01*
G75*
G02*
X190900000Y-140250001I0J249999D01*
G01*
X190900000Y-139349999D01*
G75*
G02*
X191149999Y-139100000I249999J0D01*
G01*
X191800001Y-139100000D01*
G75*
G02*
X192050000Y-139349999I0J-249999D01*
G01*
G37*
G36*
G01*
X190000000Y-139349999D02*
X190000000Y-140250001D01*
G75*
G02*
X189750001Y-140500000I-249999J0D01*
G01*
X189099999Y-140500000D01*
G75*
G02*
X188850000Y-140250001I0J249999D01*
G01*
X188850000Y-139349999D01*
G75*
G02*
X189099999Y-139100000I249999J0D01*
G01*
X189750001Y-139100000D01*
G75*
G02*
X190000000Y-139349999I0J-249999D01*
G01*
G37*
%TD*%
%TO.C,R77*%
G36*
G01*
X203500000Y-132600001D02*
X203500000Y-131699999D01*
G75*
G02*
X203749999Y-131450000I249999J0D01*
G01*
X204400001Y-131450000D01*
G75*
G02*
X204650000Y-131699999I0J-249999D01*
G01*
X204650000Y-132600001D01*
G75*
G02*
X204400001Y-132850000I-249999J0D01*
G01*
X203749999Y-132850000D01*
G75*
G02*
X203500000Y-132600001I0J249999D01*
G01*
G37*
G36*
G01*
X205550000Y-132600001D02*
X205550000Y-131699999D01*
G75*
G02*
X205799999Y-131450000I249999J0D01*
G01*
X206450001Y-131450000D01*
G75*
G02*
X206700000Y-131699999I0J-249999D01*
G01*
X206700000Y-132600001D01*
G75*
G02*
X206450001Y-132850000I-249999J0D01*
G01*
X205799999Y-132850000D01*
G75*
G02*
X205550000Y-132600001I0J249999D01*
G01*
G37*
%TD*%
%TO.C,R78*%
G36*
G01*
X200925000Y-109200001D02*
X200925000Y-108299999D01*
G75*
G02*
X201174999Y-108050000I249999J0D01*
G01*
X201825001Y-108050000D01*
G75*
G02*
X202075000Y-108299999I0J-249999D01*
G01*
X202075000Y-109200001D01*
G75*
G02*
X201825001Y-109450000I-249999J0D01*
G01*
X201174999Y-109450000D01*
G75*
G02*
X200925000Y-109200001I0J249999D01*
G01*
G37*
G36*
G01*
X202975000Y-109200001D02*
X202975000Y-108299999D01*
G75*
G02*
X203224999Y-108050000I249999J0D01*
G01*
X203875001Y-108050000D01*
G75*
G02*
X204125000Y-108299999I0J-249999D01*
G01*
X204125000Y-109200001D01*
G75*
G02*
X203875001Y-109450000I-249999J0D01*
G01*
X203224999Y-109450000D01*
G75*
G02*
X202975000Y-109200001I0J249999D01*
G01*
G37*
%TD*%
%TO.C,R80*%
G36*
G01*
X153650001Y-110600000D02*
X152749999Y-110600000D01*
G75*
G02*
X152500000Y-110350001I0J249999D01*
G01*
X152500000Y-109699999D01*
G75*
G02*
X152749999Y-109450000I249999J0D01*
G01*
X153650001Y-109450000D01*
G75*
G02*
X153900000Y-109699999I0J-249999D01*
G01*
X153900000Y-110350001D01*
G75*
G02*
X153650001Y-110600000I-249999J0D01*
G01*
G37*
G36*
G01*
X153650001Y-108550000D02*
X152749999Y-108550000D01*
G75*
G02*
X152500000Y-108300001I0J249999D01*
G01*
X152500000Y-107649999D01*
G75*
G02*
X152749999Y-107400000I249999J0D01*
G01*
X153650001Y-107400000D01*
G75*
G02*
X153900000Y-107649999I0J-249999D01*
G01*
X153900000Y-108300001D01*
G75*
G02*
X153650001Y-108550000I-249999J0D01*
G01*
G37*
%TD*%
%TO.C,R81*%
G36*
G01*
X144425000Y-107100001D02*
X144425000Y-106199999D01*
G75*
G02*
X144674999Y-105950000I249999J0D01*
G01*
X145325001Y-105950000D01*
G75*
G02*
X145575000Y-106199999I0J-249999D01*
G01*
X145575000Y-107100001D01*
G75*
G02*
X145325001Y-107350000I-249999J0D01*
G01*
X144674999Y-107350000D01*
G75*
G02*
X144425000Y-107100001I0J249999D01*
G01*
G37*
G36*
G01*
X142375000Y-107100001D02*
X142375000Y-106199999D01*
G75*
G02*
X142624999Y-105950000I249999J0D01*
G01*
X143275001Y-105950000D01*
G75*
G02*
X143525000Y-106199999I0J-249999D01*
G01*
X143525000Y-107100001D01*
G75*
G02*
X143275001Y-107350000I-249999J0D01*
G01*
X142624999Y-107350000D01*
G75*
G02*
X142375000Y-107100001I0J249999D01*
G01*
G37*
%TD*%
%TO.C,R82*%
G36*
G01*
X141800000Y-136799999D02*
X141800000Y-137700001D01*
G75*
G02*
X141550001Y-137950000I-249999J0D01*
G01*
X140899999Y-137950000D01*
G75*
G02*
X140650000Y-137700001I0J249999D01*
G01*
X140650000Y-136799999D01*
G75*
G02*
X140899999Y-136550000I249999J0D01*
G01*
X141550001Y-136550000D01*
G75*
G02*
X141800000Y-136799999I0J-249999D01*
G01*
G37*
G36*
G01*
X143850000Y-136799999D02*
X143850000Y-137700001D01*
G75*
G02*
X143600001Y-137950000I-249999J0D01*
G01*
X142949999Y-137950000D01*
G75*
G02*
X142700000Y-137700001I0J249999D01*
G01*
X142700000Y-136799999D01*
G75*
G02*
X142949999Y-136550000I249999J0D01*
G01*
X143600001Y-136550000D01*
G75*
G02*
X143850000Y-136799999I0J-249999D01*
G01*
G37*
%TD*%
%TO.C,R83*%
G36*
G01*
X151400000Y-139800001D02*
X151400000Y-138899999D01*
G75*
G02*
X151649999Y-138650000I249999J0D01*
G01*
X152300001Y-138650000D01*
G75*
G02*
X152550000Y-138899999I0J-249999D01*
G01*
X152550000Y-139800001D01*
G75*
G02*
X152300001Y-140050000I-249999J0D01*
G01*
X151649999Y-140050000D01*
G75*
G02*
X151400000Y-139800001I0J249999D01*
G01*
G37*
G36*
G01*
X149350000Y-139800001D02*
X149350000Y-138899999D01*
G75*
G02*
X149599999Y-138650000I249999J0D01*
G01*
X150250001Y-138650000D01*
G75*
G02*
X150500000Y-138899999I0J-249999D01*
G01*
X150500000Y-139800001D01*
G75*
G02*
X150250001Y-140050000I-249999J0D01*
G01*
X149599999Y-140050000D01*
G75*
G02*
X149350000Y-139800001I0J249999D01*
G01*
G37*
%TD*%
%TO.C,R84*%
G36*
G01*
X157850001Y-106875000D02*
X156949999Y-106875000D01*
G75*
G02*
X156700000Y-106625001I0J249999D01*
G01*
X156700000Y-105974999D01*
G75*
G02*
X156949999Y-105725000I249999J0D01*
G01*
X157850001Y-105725000D01*
G75*
G02*
X158100000Y-105974999I0J-249999D01*
G01*
X158100000Y-106625001D01*
G75*
G02*
X157850001Y-106875000I-249999J0D01*
G01*
G37*
G36*
G01*
X157850001Y-104825000D02*
X156949999Y-104825000D01*
G75*
G02*
X156700000Y-104575001I0J249999D01*
G01*
X156700000Y-103924999D01*
G75*
G02*
X156949999Y-103675000I249999J0D01*
G01*
X157850001Y-103675000D01*
G75*
G02*
X158100000Y-103924999I0J-249999D01*
G01*
X158100000Y-104575001D01*
G75*
G02*
X157850001Y-104825000I-249999J0D01*
G01*
G37*
%TD*%
%TO.C,R85*%
G36*
G01*
X150650001Y-106225000D02*
X149749999Y-106225000D01*
G75*
G02*
X149500000Y-105975001I0J249999D01*
G01*
X149500000Y-105324999D01*
G75*
G02*
X149749999Y-105075000I249999J0D01*
G01*
X150650001Y-105075000D01*
G75*
G02*
X150900000Y-105324999I0J-249999D01*
G01*
X150900000Y-105975001D01*
G75*
G02*
X150650001Y-106225000I-249999J0D01*
G01*
G37*
G36*
G01*
X150650001Y-104175000D02*
X149749999Y-104175000D01*
G75*
G02*
X149500000Y-103925001I0J249999D01*
G01*
X149500000Y-103274999D01*
G75*
G02*
X149749999Y-103025000I249999J0D01*
G01*
X150650001Y-103025000D01*
G75*
G02*
X150900000Y-103274999I0J-249999D01*
G01*
X150900000Y-103925001D01*
G75*
G02*
X150650001Y-104175000I-249999J0D01*
G01*
G37*
%TD*%
%TO.C,R86*%
G36*
G01*
X150450001Y-111700000D02*
X149549999Y-111700000D01*
G75*
G02*
X149300000Y-111450001I0J249999D01*
G01*
X149300000Y-110799999D01*
G75*
G02*
X149549999Y-110550000I249999J0D01*
G01*
X150450001Y-110550000D01*
G75*
G02*
X150700000Y-110799999I0J-249999D01*
G01*
X150700000Y-111450001D01*
G75*
G02*
X150450001Y-111700000I-249999J0D01*
G01*
G37*
G36*
G01*
X150450001Y-109650000D02*
X149549999Y-109650000D01*
G75*
G02*
X149300000Y-109400001I0J249999D01*
G01*
X149300000Y-108749999D01*
G75*
G02*
X149549999Y-108500000I249999J0D01*
G01*
X150450001Y-108500000D01*
G75*
G02*
X150700000Y-108749999I0J-249999D01*
G01*
X150700000Y-109400001D01*
G75*
G02*
X150450001Y-109650000I-249999J0D01*
G01*
G37*
%TD*%
%TO.C,R87*%
G36*
G01*
X147950001Y-109500000D02*
X147049999Y-109500000D01*
G75*
G02*
X146800000Y-109250001I0J249999D01*
G01*
X146800000Y-108599999D01*
G75*
G02*
X147049999Y-108350000I249999J0D01*
G01*
X147950001Y-108350000D01*
G75*
G02*
X148200000Y-108599999I0J-249999D01*
G01*
X148200000Y-109250001D01*
G75*
G02*
X147950001Y-109500000I-249999J0D01*
G01*
G37*
G36*
G01*
X147950001Y-107450000D02*
X147049999Y-107450000D01*
G75*
G02*
X146800000Y-107200001I0J249999D01*
G01*
X146800000Y-106549999D01*
G75*
G02*
X147049999Y-106300000I249999J0D01*
G01*
X147950001Y-106300000D01*
G75*
G02*
X148200000Y-106549999I0J-249999D01*
G01*
X148200000Y-107200001D01*
G75*
G02*
X147950001Y-107450000I-249999J0D01*
G01*
G37*
%TD*%
%TO.C,R88*%
G36*
G01*
X142800000Y-113500001D02*
X142800000Y-112599999D01*
G75*
G02*
X143049999Y-112350000I249999J0D01*
G01*
X143700001Y-112350000D01*
G75*
G02*
X143950000Y-112599999I0J-249999D01*
G01*
X143950000Y-113500001D01*
G75*
G02*
X143700001Y-113750000I-249999J0D01*
G01*
X143049999Y-113750000D01*
G75*
G02*
X142800000Y-113500001I0J249999D01*
G01*
G37*
G36*
G01*
X140750000Y-113500001D02*
X140750000Y-112599999D01*
G75*
G02*
X140999999Y-112350000I249999J0D01*
G01*
X141650001Y-112350000D01*
G75*
G02*
X141900000Y-112599999I0J-249999D01*
G01*
X141900000Y-113500001D01*
G75*
G02*
X141650001Y-113750000I-249999J0D01*
G01*
X140999999Y-113750000D01*
G75*
G02*
X140750000Y-113500001I0J249999D01*
G01*
G37*
%TD*%
%TO.C,R89*%
G36*
G01*
X146050000Y-139299999D02*
X146050000Y-140200001D01*
G75*
G02*
X145800001Y-140450000I-249999J0D01*
G01*
X145149999Y-140450000D01*
G75*
G02*
X144900000Y-140200001I0J249999D01*
G01*
X144900000Y-139299999D01*
G75*
G02*
X145149999Y-139050000I249999J0D01*
G01*
X145800001Y-139050000D01*
G75*
G02*
X146050000Y-139299999I0J-249999D01*
G01*
G37*
G36*
G01*
X144000000Y-139299999D02*
X144000000Y-140200001D01*
G75*
G02*
X143750001Y-140450000I-249999J0D01*
G01*
X143099999Y-140450000D01*
G75*
G02*
X142850000Y-140200001I0J249999D01*
G01*
X142850000Y-139299999D01*
G75*
G02*
X143099999Y-139050000I249999J0D01*
G01*
X143750001Y-139050000D01*
G75*
G02*
X144000000Y-139299999I0J-249999D01*
G01*
G37*
%TD*%
%TO.C,R90*%
G36*
G01*
X159550000Y-132550001D02*
X159550000Y-131649999D01*
G75*
G02*
X159799999Y-131400000I249999J0D01*
G01*
X160450001Y-131400000D01*
G75*
G02*
X160700000Y-131649999I0J-249999D01*
G01*
X160700000Y-132550001D01*
G75*
G02*
X160450001Y-132800000I-249999J0D01*
G01*
X159799999Y-132800000D01*
G75*
G02*
X159550000Y-132550001I0J249999D01*
G01*
G37*
G36*
G01*
X157500000Y-132550001D02*
X157500000Y-131649999D01*
G75*
G02*
X157749999Y-131400000I249999J0D01*
G01*
X158400001Y-131400000D01*
G75*
G02*
X158650000Y-131649999I0J-249999D01*
G01*
X158650000Y-132550001D01*
G75*
G02*
X158400001Y-132800000I-249999J0D01*
G01*
X157749999Y-132800000D01*
G75*
G02*
X157500000Y-132550001I0J249999D01*
G01*
G37*
%TD*%
%TO.C,R91*%
G36*
G01*
X156950000Y-109200001D02*
X156950000Y-108299999D01*
G75*
G02*
X157199999Y-108050000I249999J0D01*
G01*
X157850001Y-108050000D01*
G75*
G02*
X158100000Y-108299999I0J-249999D01*
G01*
X158100000Y-109200001D01*
G75*
G02*
X157850001Y-109450000I-249999J0D01*
G01*
X157199999Y-109450000D01*
G75*
G02*
X156950000Y-109200001I0J249999D01*
G01*
G37*
G36*
G01*
X154900000Y-109200001D02*
X154900000Y-108299999D01*
G75*
G02*
X155149999Y-108050000I249999J0D01*
G01*
X155800001Y-108050000D01*
G75*
G02*
X156050000Y-108299999I0J-249999D01*
G01*
X156050000Y-109200001D01*
G75*
G02*
X155800001Y-109450000I-249999J0D01*
G01*
X155149999Y-109450000D01*
G75*
G02*
X154900000Y-109200001I0J249999D01*
G01*
G37*
%TD*%
M02*
