M48
; DRILL file {KiCad 5.1.8+dfsg1-1+b1} date Mon Feb 15 01:52:33 2021
; FORMAT={-:-/ absolute / metric / decimal}
; #@! TF.CreationDate,2021-02-15T01:52:33+02:00
; #@! TF.GenerationSoftware,Kicad,Pcbnew,5.1.8+dfsg1-1+b1
; #@! TF.FileFunction,Plated,1,2,PTH
FMAT,2
METRIC
T1C0.400
T2C0.500
T3C0.600
T4C0.762
T5C0.800
T6C0.850
T7C1.000
T8C3.200
%
G90
G05
T1
X70.3Y-95.2
X72.5Y-133.9
X74.5Y-118.5
X74.5Y-129.6
X75.1Y-97.2
X75.8Y-93.3
X76.5Y-78.5
X76.5Y-80.6
X76.5Y-82.35
X76.5Y-84.15
X76.5Y-86.25
X76.7Y-110.1
X77.8Y-133.7
X78.85Y-78.5
X78.85Y-80.6
X78.85Y-82.35
X78.85Y-84.15
X78.85Y-86.25
X79.0Y-111.3
X79.9Y-102.1
X80.9Y-133.8
X81.05Y-78.5
X81.05Y-80.6
X81.05Y-82.35
X81.05Y-84.15
X81.05Y-86.25
X83.15Y-78.5
X83.15Y-80.6
X83.15Y-82.35
X83.15Y-84.15
X83.15Y-86.25
X83.8Y-132.9
X84.5Y-111.6
X84.8Y-106.4
X85.5Y-78.5
X85.5Y-80.6
X85.5Y-82.35
X85.5Y-84.15
X85.5Y-86.25
X86.6Y-91.6
X89.0Y-94.1
X89.3Y-129.4
X90.221Y-111.966
X90.47Y-108.226
X90.8Y-118.9
X91.5Y-142.1
X92.228Y-107.032
X92.47Y-108.084
X95.2Y-118.9
X96.4Y-132.4
X96.7Y-104.8
X98.0Y-116.7
X99.6Y-110.5
X99.9Y-85.3
X100.6Y-133.7
X101.5Y-71.5
X101.6Y-110.6
X102.5Y-102.1
X103.1Y-114.4
X104.0Y-134.0
X104.2Y-106.9
X104.514Y-92.851
X105.35Y-95.232
X105.4Y-94.063
X106.887Y-102.113
X107.0Y-95.4
X107.4Y-133.6
X108.2Y-88.7
X108.8Y-112.3
X109.1Y-93.5
X109.8Y-81.5
X109.825Y-105.7
X110.57Y-102.096
X110.6Y-110.1
X110.8Y-73.7
X110.833Y-103.061
X111.55Y-89.05
X112.5Y-111.4
X112.7Y-114.4
X112.937Y-92.998
X113.0Y-97.7
X113.4Y-133.8
X113.5Y-86.7
X113.909Y-117.684
X114.45Y-134.8
X114.999Y-117.697
X115.1Y-83.0
X115.2Y-97.525
X115.209Y-118.675
X115.3Y-133.9
X115.856Y-98.319
X117.4Y-83.0
X117.4Y-93.6
X117.5Y-96.6
X118.2Y-95.4
X118.5Y-142.1
X120.0Y-104.6
X120.6Y-118.7
X121.1Y-131.6
X122.3Y-73.3
X122.5Y-110.2
X123.6Y-134.0
X124.7Y-111.4
X127.0Y-102.2
X127.2Y-134.1
X128.4Y-102.0
X129.3Y-94.9
X130.0Y-87.8
X130.2Y-95.8
X130.4Y-133.6
X131.1Y-111.6
X131.2Y-96.7
X132.6Y-84.4
X133.1Y-92.9
X133.3Y-89.2
X134.0Y-93.8
X134.5Y-79.0
X135.1Y-128.9
X135.9Y-107.225
X136.1Y-119.1
X136.675Y-105.763
X136.7Y-96.0
X136.751Y-108.125
X137.0Y-81.1
X137.4Y-107.1
X137.6Y-101.5
X138.4Y-102.2
X138.6Y-141.6
X139.0Y-126.7
X141.2Y-75.3
X141.2Y-119.3
X141.325Y-104.7
X142.1Y-128.9
X143.2Y-102.1
X143.575Y-118.5
X145.9Y-132.2
X146.0Y-110.1
X147.2Y-104.2
X148.1Y-111.6
X149.1Y-134.1
X152.4Y-102.3
X152.5Y-86.5
X153.1Y-97.8
X153.4Y-133.9
X154.2Y-112.0
X155.5Y-93.8
X155.7Y-137.9
X156.4Y-80.2
X157.3Y-86.5
X158.5Y-77.3
X158.6Y-141.6
X158.7Y-129.1
X158.8Y-107.5
X159.0Y-98.7
X159.134Y-113.922
X159.5Y-86.4
X160.4Y-114.4
X160.423Y-111.608
X161.3Y-84.3
X161.325Y-109.6
X161.507Y-110.593
X161.7Y-103.3
X162.5Y-84.3
X163.4Y-88.4
X165.6Y-114.4
X165.7Y-130.7
X165.8Y-82.6
X166.0Y-102.0
X168.9Y-111.3
X169.7Y-133.7
X171.4Y-112.0
X171.5Y-103.3
X172.5Y-107.1
X173.1Y-133.9
X175.3Y-102.4
X176.1Y-133.2
X176.4Y-111.6
X178.7Y-92.7
X181.3Y-132.0
X181.931Y-107.517
X182.4Y-118.3
X182.425Y-106.648
X182.6Y-98.7
X184.0Y-109.2
X184.096Y-107.804
X187.5Y-92.4
X187.6Y-84.6
X187.6Y-100.6
X187.8Y-105.8
X188.3Y-129.4
X189.5Y-119.2
X191.1Y-133.4
X192.0Y-108.9
X193.9Y-110.7
X194.7Y-134.5
X195.25Y-107.15
X197.4Y-102.2
X198.9Y-111.3
X199.4Y-134.4
X200.8Y-115.6
X201.7Y-93.0
X201.925Y-105.2
X202.0Y-130.8
X204.9Y-111.7
X205.4Y-98.2
X205.4Y-106.6
X205.7Y-104.7
X206.4Y-105.8
T2
X201.6Y-74.0
X202.303Y-72.303
X202.303Y-75.697
X204.0Y-71.6
X204.0Y-76.4
X205.697Y-72.303
X205.697Y-75.697
X206.4Y-74.0
X70.6Y-141.05
X71.303Y-139.353
X71.303Y-142.747
X73.0Y-138.65
X73.0Y-143.45
X74.697Y-139.353
X74.697Y-142.747
X75.4Y-141.05
X160.9Y-73.5
X162.8Y-73.5
X201.6Y-141.05
X202.303Y-139.353
X202.303Y-142.747
X204.0Y-138.65
X204.0Y-143.45
X205.697Y-139.353
X205.697Y-142.747
X206.4Y-141.05
X70.6Y-74.0
X71.303Y-72.303
X71.303Y-75.697
X73.0Y-71.6
X73.0Y-76.4
X74.697Y-72.303
X74.697Y-75.697
X75.4Y-74.0
T3
X84.3Y-118.45
X90.0Y-92.2
X91.85Y-111.5
X93.4Y-109.4
X107.3Y-118.4
X113.5Y-94.6
X123.3Y-83.3
X130.3Y-118.45
X135.0Y-101.2
X135.8Y-90.6
X138.624Y-109.82
X139.3Y-115.44
X148.4Y-75.1
X153.25Y-118.35
X159.5Y-90.9
X176.3Y-118.25
X181.9Y-90.9
X183.9Y-111.4
X185.2Y-119.0
X199.3Y-118.35
X204.9Y-90.9
T4
X121.54Y-124.34
X121.86Y-126.95
X122.48Y-121.88
X123.36Y-129.12
X124.45Y-120.1
X125.69Y-130.34
X127.0Y-119.5
X128.31Y-130.34
X129.56Y-120.13
X130.65Y-129.11
X131.52Y-121.89
X132.14Y-126.95
X132.46Y-124.34
X75.54Y-124.34
X75.86Y-126.95
X76.48Y-121.88
X77.36Y-129.12
X78.45Y-120.1
X79.69Y-130.34
X81.0Y-119.5
X82.31Y-130.34
X83.56Y-120.13
X84.65Y-129.11
X85.52Y-121.89
X86.14Y-126.95
X86.46Y-124.34
X98.54Y-124.34
X98.86Y-126.95
X99.48Y-121.88
X100.36Y-129.12
X101.45Y-120.1
X102.69Y-130.34
X104.0Y-119.5
X105.31Y-130.34
X106.56Y-120.13
X107.65Y-129.11
X108.52Y-121.89
X109.14Y-126.95
X109.46Y-124.34
X190.54Y-124.34
X190.86Y-126.95
X191.48Y-121.88
X192.36Y-129.12
X193.45Y-120.1
X194.69Y-130.34
X196.0Y-119.5
X197.31Y-130.34
X198.56Y-120.13
X199.65Y-129.11
X200.52Y-121.89
X201.14Y-126.95
X201.46Y-124.34
X167.54Y-124.34
X167.86Y-126.95
X168.48Y-121.88
X169.36Y-129.12
X170.45Y-120.1
X171.69Y-130.34
X173.0Y-119.5
X174.31Y-130.34
X175.56Y-120.13
X176.65Y-129.11
X177.52Y-121.89
X178.14Y-126.95
X178.46Y-124.34
X144.54Y-124.34
X144.86Y-126.95
X145.48Y-121.88
X146.36Y-129.12
X147.45Y-120.1
X148.69Y-130.34
X150.0Y-119.5
X151.31Y-130.34
X152.56Y-120.13
X153.65Y-129.11
X154.52Y-121.89
X155.14Y-126.95
X155.46Y-124.34
T5
X72.3Y-103.7
X74.8Y-103.7
T6
X140.8Y-73.612
X145.8Y-73.612
T7
X177.92Y-80.45
X179.305Y-77.61
X180.69Y-80.45
X182.075Y-77.61
X183.46Y-80.45
X184.845Y-77.61
X186.23Y-80.45
X187.615Y-77.61
X189.0Y-80.45
X115.45Y-109.3
X115.45Y-111.84
X115.45Y-114.38
X127.15Y-84.8
X129.69Y-84.8
X127.15Y-74.76
X127.15Y-77.3
X129.69Y-74.76
X129.69Y-77.3
X132.23Y-74.76
X132.23Y-77.3
X106.25Y-84.46
X106.25Y-87.0
T8
X204.0Y-74.0
X73.0Y-141.05
X170.96Y-79.03
X195.96Y-79.03
X204.0Y-141.05
X73.0Y-74.0
T3
G00X139.8Y-71.263
M15
G01X139.8Y-70.562
M16
G05
G00X146.8Y-70.562
M15
G01X146.8Y-71.263
M16
G05
T7
G00X101.55Y-75.7
M15
G01X101.55Y-77.7
M16
G05
G00X107.25Y-73.7
M15
G01X105.25Y-73.7
M16
G05
G00X107.25Y-79.7
M15
G01X105.25Y-79.7
M16
G05
T0
M30
