M48
; DRILL file {KiCad 5.1.8+dfsg1-1+b1} date Sun Dec 27 19:17:41 2020
; FORMAT={-:-/ absolute / metric / decimal}
; #@! TF.CreationDate,2020-12-27T19:17:41+02:00
; #@! TF.GenerationSoftware,Kicad,Pcbnew,5.1.8+dfsg1-1+b1
; #@! TF.FileFunction,Plated,1,2,PTH
FMAT,2
METRIC
T1C0.400
T2C0.500
T3C0.600
T4C0.762
T5C0.800
T6C0.850
T7C1.000
T8C1.100
T9C1.200
T10C1.300
T11C3.200
%
G90
G05
T1
X80.75Y-117.6
X80.75Y-130.65
X81.038Y-126.162
X83.95Y-121.6
X84.0Y-124.1
X84.55Y-139.35
X84.8Y-151.8
X86.35Y-156.9
X86.65Y-130.4
X86.8Y-79.8
X86.85Y-134.75
X87.5Y-121.1
X87.6Y-122.85
X87.65Y-125.4
X88.4Y-162.85
X89.85Y-131.8
X90.0Y-134.35
X90.15Y-112.2
X91.0Y-153.9
X91.2Y-119.25
X91.4Y-73.9
X92.15Y-120.15
X92.25Y-86.0
X92.65Y-131.55
X92.8Y-81.6
X94.5Y-153.8
X95.4Y-118.85
X95.75Y-134.85
X96.05Y-126.9
X96.7Y-105.4
X96.7Y-112.2
X96.85Y-121.05
X97.55Y-151.55
X98.0Y-123.05
X99.55Y-131.0
X99.95Y-134.15
X100.1Y-138.65
X100.8Y-81.45
X101.0Y-126.0
X101.5Y-74.4
X102.0Y-90.85
X102.3Y-128.1
X102.3Y-144.65
X102.3Y-162.8
X102.55Y-118.55
X104.038Y-126.162
X106.95Y-121.6
X106.95Y-150.8
X107.0Y-124.1
X107.5Y-139.05
X110.05Y-134.85
X110.35Y-154.9
X110.6Y-122.85
X110.65Y-125.4
X110.7Y-121.0
X111.4Y-96.7
X112.85Y-132.0
X112.9Y-134.45
X114.0Y-153.95
X114.2Y-119.25
X115.15Y-120.15
X115.45Y-90.75
X115.5Y-81.0
X115.65Y-131.55
X116.35Y-102.35
X117.8Y-154.85
X118.35Y-127.55
X118.4Y-118.85
X118.5Y-134.6
X119.85Y-121.05
X120.4Y-151.85
X121.0Y-123.05
X121.3Y-102.35
X121.7Y-132.05
X121.9Y-90.15
X122.6Y-93.55
X122.9Y-134.45
X123.35Y-131.75
X124.0Y-126.0
X125.4Y-111.3
X125.4Y-162.55
X126.65Y-111.3
X126.95Y-119.15
X127.0Y-80.05
X127.038Y-126.162
X127.95Y-78.2
X128.771Y-75.152
X129.45Y-92.5
X129.95Y-121.6
X130.0Y-124.1
X130.5Y-80.9
X130.55Y-138.9
X130.75Y-87.1
X130.75Y-96.15
X131.05Y-72.5
X131.1Y-150.55
X132.0Y-87.175
X132.35Y-84.15
X132.35Y-92.8
X132.85Y-129.95
X133.15Y-134.6
X133.3Y-154.8
X133.6Y-122.85
X133.65Y-125.4
X133.8Y-121.0
X134.0Y-98.65
X134.35Y-89.55
X134.5Y-92.65
X136.0Y-131.95
X136.002Y-101.975
X136.1Y-85.7
X136.2Y-93.6
X136.2Y-99.15
X137.0Y-155.65
X137.1Y-94.25
X137.1Y-95.65
X137.2Y-119.25
X137.25Y-83.4
X137.45Y-102.55
X137.9Y-85.0
X138.15Y-120.15
X138.65Y-131.55
X138.85Y-102.55
X140.3Y-102.55
X140.85Y-154.95
X140.95Y-94.8
X141.4Y-118.85
X141.4Y-127.5
X141.6Y-102.6
X141.7Y-87.55
X141.7Y-134.7
X142.25Y-82.2
X142.85Y-121.05
X142.95Y-112.6
X143.7Y-151.75
X144.0Y-123.05
X144.7Y-132.05
X145.4Y-88.5
X145.95Y-134.2
X146.1Y-139.05
X147.0Y-126.0
X148.15Y-82.15
X148.4Y-131.95
X148.4Y-145.05
X148.45Y-101.75
X148.45Y-113.55
X148.65Y-162.55
X149.8Y-106.3
X150.038Y-126.162
X152.45Y-149.75
X152.55Y-134.4
X152.65Y-77.85
X152.95Y-121.6
X153.0Y-124.1
X153.5Y-139.1
X154.7Y-153.75
X155.75Y-134.95
X155.8Y-130.45
X156.5Y-121.5
X156.6Y-122.85
X156.65Y-125.4
X158.85Y-134.6
X158.9Y-155.25
X158.95Y-131.65
X160.2Y-119.25
X161.15Y-120.15
X161.65Y-131.55
X162.5Y-76.05
X162.6Y-163.4
X163.3Y-154.15
X164.4Y-118.85
X164.4Y-127.6
X164.45Y-134.65
X164.8Y-114.55
X165.85Y-121.05
X166.75Y-149.65
X167.0Y-123.05
X168.05Y-134.35
X168.35Y-100.15
X168.45Y-131.0
X169.1Y-139.05
X170.0Y-126.0
X170.9Y-117.05
X171.4Y-144.0
X171.45Y-136.1
X173.175Y-126.35
X175.9Y-151.8
X175.95Y-121.6
X176.0Y-124.1
X176.55Y-138.4
X177.0Y-100.2
X178.7Y-130.35
X178.75Y-135.1
X179.25Y-155.15
X179.6Y-122.85
X179.65Y-121.15
X179.65Y-125.4
X181.9Y-132.0
X183.0Y-156.15
X183.2Y-119.25
X184.15Y-120.15
X184.65Y-131.55
X186.85Y-155.1
X187.4Y-118.85
X187.85Y-133.65
X187.95Y-127.0
X188.85Y-121.05
X189.8Y-151.5
X190.0Y-123.05
X191.2Y-132.05
X191.7Y-94.8
X191.85Y-134.3
X192.1Y-139.05
X193.0Y-126.0
X194.35Y-136.0
X194.35Y-143.6
X194.35Y-160.5
X196.038Y-126.162
X198.15Y-150.15
X198.95Y-121.6
X199.0Y-124.1
X199.55Y-139.05
X200.6Y-154.0
X201.75Y-135.15
X202.4Y-121.25
X202.6Y-122.85
X202.65Y-125.4
X204.75Y-131.85
X204.75Y-156.15
X204.85Y-134.55
X206.2Y-119.25
X206.25Y-100.2
X207.15Y-120.15
X207.65Y-131.55
X208.4Y-75.85
X209.1Y-162.7
X209.7Y-154.85
X210.4Y-118.85
X210.85Y-133.85
X211.05Y-127.05
X211.85Y-121.05
X212.55Y-150.3
X213.0Y-123.05
X214.0Y-132.15
X214.5Y-90.05
X214.8Y-134.1
X215.1Y-139.05
X216.0Y-126.0
T2
X165.1Y-161.05
X165.803Y-159.353
X165.803Y-162.747
X167.5Y-158.65
X167.5Y-163.45
X169.197Y-159.353
X169.197Y-162.747
X169.9Y-161.05
X121.95Y-75.35
X121.95Y-77.25
X80.6Y-161.05
X81.303Y-159.353
X81.303Y-162.747
X83.0Y-158.65
X83.0Y-163.45
X84.697Y-159.353
X84.697Y-162.747
X85.4Y-161.05
X165.1Y-76.0
X165.803Y-74.303
X165.803Y-77.697
X167.5Y-73.6
X167.5Y-78.4
X169.197Y-74.303
X169.197Y-77.697
X169.9Y-76.0
X211.6Y-76.0
X212.303Y-74.303
X212.303Y-77.697
X214.0Y-73.6
X214.0Y-78.4
X215.697Y-74.303
X215.697Y-77.697
X216.4Y-76.0
X211.6Y-161.05
X212.303Y-159.353
X212.303Y-162.747
X214.0Y-158.65
X214.0Y-163.45
X215.697Y-159.353
X215.697Y-162.747
X216.4Y-161.05
X80.6Y-76.0
X81.303Y-74.303
X81.303Y-77.697
X83.0Y-73.6
X83.0Y-78.4
X84.697Y-74.303
X84.697Y-77.697
X85.4Y-76.0
T3
X84.8Y-109.9
X87.8Y-119.25
X94.3Y-138.45
X107.8Y-109.9
X110.8Y-119.25
X117.25Y-96.0
X117.3Y-138.4
X130.8Y-109.9
X133.8Y-119.25
X140.3Y-138.45
X147.35Y-89.975
X148.45Y-95.75
X153.8Y-109.9
X156.8Y-119.25
X163.25Y-138.35
X176.8Y-109.9
X179.8Y-119.25
X186.3Y-138.25
X199.8Y-109.9
X202.8Y-119.25
X209.3Y-138.35
T4
X154.54Y-144.34
X154.86Y-146.95
X155.48Y-141.88
X156.36Y-149.12
X157.45Y-140.1
X158.69Y-150.34
X160.0Y-139.5
X161.31Y-150.34
X162.56Y-140.13
X163.65Y-149.11
X164.52Y-141.89
X165.14Y-146.95
X165.46Y-144.34
X131.54Y-144.34
X131.86Y-146.95
X132.48Y-141.88
X133.36Y-149.12
X134.45Y-140.1
X135.69Y-150.34
X137.0Y-139.5
X138.31Y-150.34
X139.56Y-140.13
X140.65Y-149.11
X141.52Y-141.89
X142.14Y-146.95
X142.46Y-144.34
X85.54Y-144.34
X85.86Y-146.95
X86.48Y-141.88
X87.36Y-149.12
X88.45Y-140.1
X89.69Y-150.34
X91.0Y-139.5
X92.31Y-150.34
X93.56Y-140.13
X94.65Y-149.11
X95.52Y-141.89
X96.14Y-146.95
X96.46Y-144.34
X177.54Y-144.34
X177.86Y-146.95
X178.48Y-141.88
X179.36Y-149.12
X180.45Y-140.1
X181.69Y-150.34
X183.0Y-139.5
X184.31Y-150.34
X185.56Y-140.13
X186.65Y-149.11
X187.52Y-141.89
X188.14Y-146.95
X188.46Y-144.34
X108.54Y-144.34
X108.86Y-146.95
X109.48Y-141.88
X110.36Y-149.12
X111.45Y-140.1
X112.69Y-150.34
X114.0Y-139.5
X115.31Y-150.34
X116.56Y-140.13
X117.65Y-149.11
X118.52Y-141.89
X119.14Y-146.95
X119.46Y-144.34
X200.54Y-144.34
X200.86Y-146.95
X201.48Y-141.88
X202.36Y-149.12
X203.45Y-140.1
X204.69Y-150.34
X206.0Y-139.5
X207.31Y-150.34
X208.56Y-140.13
X209.65Y-149.11
X210.52Y-141.89
X211.14Y-146.95
X211.46Y-144.34
T5
X82.45Y-101.7
X84.95Y-101.7
X91.5Y-93.55
X91.5Y-96.09
X91.5Y-98.63
X91.5Y-101.17
X99.12Y-93.55
X99.12Y-96.09
X99.12Y-98.63
X99.12Y-101.17
T6
X153.2Y-75.662
X158.2Y-75.662
T7
X117.05Y-74.26
X117.05Y-76.8
X125.5Y-141.76
X125.5Y-144.3
X125.5Y-146.84
X140.0Y-75.41
X140.0Y-77.95
X142.54Y-75.41
X142.54Y-77.95
X145.08Y-75.41
X145.08Y-77.95
T8
X118.1Y-83.5
X118.1Y-86.04
X118.1Y-88.58
X92.8Y-77.7
X95.34Y-77.7
X97.88Y-77.7
T9
X82.45Y-83.45
X82.45Y-96.15
T10
X97.15Y-83.45
X97.15Y-88.45
T11
X167.5Y-161.05
X83.0Y-161.05
X167.5Y-76.0
X214.0Y-76.0
X214.0Y-161.05
X83.0Y-76.0
T3
G00X152.2Y-73.312
M15
G01X152.2Y-72.612
M16
G05
G00X159.2Y-72.612
M15
G01X159.2Y-73.312
M16
G05
T7
G00X104.2Y-77.75
M15
G01X104.2Y-79.75
M16
G05
G00X109.9Y-75.75
M15
G01X107.9Y-75.75
M16
G05
G00X109.9Y-81.75
M15
G01X107.9Y-81.75
M16
G05
T0
M30
