%TF.GenerationSoftware,KiCad,Pcbnew,5.1.8+dfsg1-1+b1*%
%TF.CreationDate,2021-02-09T07:03:43+02:00*%
%TF.ProjectId,nixiedisp,6e697869-6564-4697-9370-2e6b69636164,2*%
%TF.SameCoordinates,Original*%
%TF.FileFunction,Paste,Top*%
%TF.FilePolarity,Positive*%
%FSLAX46Y46*%
G04 Gerber Fmt 4.6, Leading zero omitted, Abs format (unit mm)*
G04 Created by KiCad (PCBNEW 5.1.8+dfsg1-1+b1) date 2021-02-09 07:03:43*
%MOMM*%
%LPD*%
G01*
G04 APERTURE LIST*
%ADD10R,0.990600X1.905000*%
%ADD11R,1.498600X1.295400*%
%ADD12R,2.750000X3.050000*%
%ADD13R,1.200000X2.200000*%
%ADD14R,5.250000X4.550000*%
%ADD15R,1.100000X4.600000*%
%ADD16R,0.800000X0.900000*%
%ADD17R,2.900000X3.000000*%
%ADD18C,0.100000*%
%ADD19R,1.500000X1.900000*%
%ADD20R,0.400000X1.350000*%
%ADD21R,1.600000X0.550000*%
%ADD22R,0.550000X1.600000*%
%ADD23R,1.200000X3.500000*%
%ADD24R,2.600000X3.600000*%
%ADD25R,1.050000X1.100000*%
G04 APERTURE END LIST*
D10*
%TO.C,SW3*%
X160750001Y-141549700D03*
X156249999Y-141549700D03*
D11*
X162800002Y-143899708D03*
X154199998Y-143899708D03*
X162800002Y-139299700D03*
X154199998Y-139299700D03*
%TD*%
D10*
%TO.C,SW2*%
X140750001Y-141549700D03*
X136249999Y-141549700D03*
D11*
X142800002Y-143899708D03*
X134199998Y-143899708D03*
X142800002Y-139299700D03*
X134199998Y-139299700D03*
%TD*%
D10*
%TO.C,SW1*%
X120750001Y-141549700D03*
X116249999Y-141549700D03*
D11*
X122800002Y-143899708D03*
X114199998Y-143899708D03*
X122800002Y-139299700D03*
X114199998Y-139299700D03*
%TD*%
%TO.C,C17*%
G36*
G01*
X188550000Y-107950001D02*
X188550000Y-107049999D01*
G75*
G02*
X188799999Y-106800000I249999J0D01*
G01*
X189450001Y-106800000D01*
G75*
G02*
X189700000Y-107049999I0J-249999D01*
G01*
X189700000Y-107950001D01*
G75*
G02*
X189450001Y-108200000I-249999J0D01*
G01*
X188799999Y-108200000D01*
G75*
G02*
X188550000Y-107950001I0J249999D01*
G01*
G37*
G36*
G01*
X186500000Y-107950001D02*
X186500000Y-107049999D01*
G75*
G02*
X186749999Y-106800000I249999J0D01*
G01*
X187400001Y-106800000D01*
G75*
G02*
X187650000Y-107049999I0J-249999D01*
G01*
X187650000Y-107950001D01*
G75*
G02*
X187400001Y-108200000I-249999J0D01*
G01*
X186749999Y-108200000D01*
G75*
G02*
X186500000Y-107950001I0J249999D01*
G01*
G37*
%TD*%
D12*
%TO.C,U34*%
X117775000Y-76125000D03*
X114725000Y-72775000D03*
X114725000Y-76125000D03*
X117775000Y-72775000D03*
D13*
X118530000Y-80750000D03*
X113970000Y-80750000D03*
%TD*%
%TO.C,U33*%
G36*
G01*
X88200000Y-96345000D02*
X88200000Y-96045000D01*
G75*
G02*
X88350000Y-95895000I150000J0D01*
G01*
X90000000Y-95895000D01*
G75*
G02*
X90150000Y-96045000I0J-150000D01*
G01*
X90150000Y-96345000D01*
G75*
G02*
X90000000Y-96495000I-150000J0D01*
G01*
X88350000Y-96495000D01*
G75*
G02*
X88200000Y-96345000I0J150000D01*
G01*
G37*
G36*
G01*
X88200000Y-97615000D02*
X88200000Y-97315000D01*
G75*
G02*
X88350000Y-97165000I150000J0D01*
G01*
X90000000Y-97165000D01*
G75*
G02*
X90150000Y-97315000I0J-150000D01*
G01*
X90150000Y-97615000D01*
G75*
G02*
X90000000Y-97765000I-150000J0D01*
G01*
X88350000Y-97765000D01*
G75*
G02*
X88200000Y-97615000I0J150000D01*
G01*
G37*
G36*
G01*
X88200000Y-98885000D02*
X88200000Y-98585000D01*
G75*
G02*
X88350000Y-98435000I150000J0D01*
G01*
X90000000Y-98435000D01*
G75*
G02*
X90150000Y-98585000I0J-150000D01*
G01*
X90150000Y-98885000D01*
G75*
G02*
X90000000Y-99035000I-150000J0D01*
G01*
X88350000Y-99035000D01*
G75*
G02*
X88200000Y-98885000I0J150000D01*
G01*
G37*
G36*
G01*
X88200000Y-100155000D02*
X88200000Y-99855000D01*
G75*
G02*
X88350000Y-99705000I150000J0D01*
G01*
X90000000Y-99705000D01*
G75*
G02*
X90150000Y-99855000I0J-150000D01*
G01*
X90150000Y-100155000D01*
G75*
G02*
X90000000Y-100305000I-150000J0D01*
G01*
X88350000Y-100305000D01*
G75*
G02*
X88200000Y-100155000I0J150000D01*
G01*
G37*
G36*
G01*
X83250000Y-100155000D02*
X83250000Y-99855000D01*
G75*
G02*
X83400000Y-99705000I150000J0D01*
G01*
X85050000Y-99705000D01*
G75*
G02*
X85200000Y-99855000I0J-150000D01*
G01*
X85200000Y-100155000D01*
G75*
G02*
X85050000Y-100305000I-150000J0D01*
G01*
X83400000Y-100305000D01*
G75*
G02*
X83250000Y-100155000I0J150000D01*
G01*
G37*
G36*
G01*
X83250000Y-98885000D02*
X83250000Y-98585000D01*
G75*
G02*
X83400000Y-98435000I150000J0D01*
G01*
X85050000Y-98435000D01*
G75*
G02*
X85200000Y-98585000I0J-150000D01*
G01*
X85200000Y-98885000D01*
G75*
G02*
X85050000Y-99035000I-150000J0D01*
G01*
X83400000Y-99035000D01*
G75*
G02*
X83250000Y-98885000I0J150000D01*
G01*
G37*
G36*
G01*
X83250000Y-97615000D02*
X83250000Y-97315000D01*
G75*
G02*
X83400000Y-97165000I150000J0D01*
G01*
X85050000Y-97165000D01*
G75*
G02*
X85200000Y-97315000I0J-150000D01*
G01*
X85200000Y-97615000D01*
G75*
G02*
X85050000Y-97765000I-150000J0D01*
G01*
X83400000Y-97765000D01*
G75*
G02*
X83250000Y-97615000I0J150000D01*
G01*
G37*
G36*
G01*
X83250000Y-96345000D02*
X83250000Y-96045000D01*
G75*
G02*
X83400000Y-95895000I150000J0D01*
G01*
X85050000Y-95895000D01*
G75*
G02*
X85200000Y-96045000I0J-150000D01*
G01*
X85200000Y-96345000D01*
G75*
G02*
X85050000Y-96495000I-150000J0D01*
G01*
X83400000Y-96495000D01*
G75*
G02*
X83250000Y-96345000I0J150000D01*
G01*
G37*
%TD*%
%TO.C,U3*%
G36*
G01*
X153350000Y-81590000D02*
X153350000Y-81290000D01*
G75*
G02*
X153500000Y-81140000I150000J0D01*
G01*
X155150000Y-81140000D01*
G75*
G02*
X155300000Y-81290000I0J-150000D01*
G01*
X155300000Y-81590000D01*
G75*
G02*
X155150000Y-81740000I-150000J0D01*
G01*
X153500000Y-81740000D01*
G75*
G02*
X153350000Y-81590000I0J150000D01*
G01*
G37*
G36*
G01*
X153350000Y-82860000D02*
X153350000Y-82560000D01*
G75*
G02*
X153500000Y-82410000I150000J0D01*
G01*
X155150000Y-82410000D01*
G75*
G02*
X155300000Y-82560000I0J-150000D01*
G01*
X155300000Y-82860000D01*
G75*
G02*
X155150000Y-83010000I-150000J0D01*
G01*
X153500000Y-83010000D01*
G75*
G02*
X153350000Y-82860000I0J150000D01*
G01*
G37*
G36*
G01*
X153350000Y-84130000D02*
X153350000Y-83830000D01*
G75*
G02*
X153500000Y-83680000I150000J0D01*
G01*
X155150000Y-83680000D01*
G75*
G02*
X155300000Y-83830000I0J-150000D01*
G01*
X155300000Y-84130000D01*
G75*
G02*
X155150000Y-84280000I-150000J0D01*
G01*
X153500000Y-84280000D01*
G75*
G02*
X153350000Y-84130000I0J150000D01*
G01*
G37*
G36*
G01*
X153350000Y-85400000D02*
X153350000Y-85100000D01*
G75*
G02*
X153500000Y-84950000I150000J0D01*
G01*
X155150000Y-84950000D01*
G75*
G02*
X155300000Y-85100000I0J-150000D01*
G01*
X155300000Y-85400000D01*
G75*
G02*
X155150000Y-85550000I-150000J0D01*
G01*
X153500000Y-85550000D01*
G75*
G02*
X153350000Y-85400000I0J150000D01*
G01*
G37*
G36*
G01*
X153350000Y-86670000D02*
X153350000Y-86370000D01*
G75*
G02*
X153500000Y-86220000I150000J0D01*
G01*
X155150000Y-86220000D01*
G75*
G02*
X155300000Y-86370000I0J-150000D01*
G01*
X155300000Y-86670000D01*
G75*
G02*
X155150000Y-86820000I-150000J0D01*
G01*
X153500000Y-86820000D01*
G75*
G02*
X153350000Y-86670000I0J150000D01*
G01*
G37*
G36*
G01*
X153350000Y-87940000D02*
X153350000Y-87640000D01*
G75*
G02*
X153500000Y-87490000I150000J0D01*
G01*
X155150000Y-87490000D01*
G75*
G02*
X155300000Y-87640000I0J-150000D01*
G01*
X155300000Y-87940000D01*
G75*
G02*
X155150000Y-88090000I-150000J0D01*
G01*
X153500000Y-88090000D01*
G75*
G02*
X153350000Y-87940000I0J150000D01*
G01*
G37*
G36*
G01*
X153350000Y-89210000D02*
X153350000Y-88910000D01*
G75*
G02*
X153500000Y-88760000I150000J0D01*
G01*
X155150000Y-88760000D01*
G75*
G02*
X155300000Y-88910000I0J-150000D01*
G01*
X155300000Y-89210000D01*
G75*
G02*
X155150000Y-89360000I-150000J0D01*
G01*
X153500000Y-89360000D01*
G75*
G02*
X153350000Y-89210000I0J150000D01*
G01*
G37*
G36*
G01*
X148400000Y-89210000D02*
X148400000Y-88910000D01*
G75*
G02*
X148550000Y-88760000I150000J0D01*
G01*
X150200000Y-88760000D01*
G75*
G02*
X150350000Y-88910000I0J-150000D01*
G01*
X150350000Y-89210000D01*
G75*
G02*
X150200000Y-89360000I-150000J0D01*
G01*
X148550000Y-89360000D01*
G75*
G02*
X148400000Y-89210000I0J150000D01*
G01*
G37*
G36*
G01*
X148400000Y-87940000D02*
X148400000Y-87640000D01*
G75*
G02*
X148550000Y-87490000I150000J0D01*
G01*
X150200000Y-87490000D01*
G75*
G02*
X150350000Y-87640000I0J-150000D01*
G01*
X150350000Y-87940000D01*
G75*
G02*
X150200000Y-88090000I-150000J0D01*
G01*
X148550000Y-88090000D01*
G75*
G02*
X148400000Y-87940000I0J150000D01*
G01*
G37*
G36*
G01*
X148400000Y-86670000D02*
X148400000Y-86370000D01*
G75*
G02*
X148550000Y-86220000I150000J0D01*
G01*
X150200000Y-86220000D01*
G75*
G02*
X150350000Y-86370000I0J-150000D01*
G01*
X150350000Y-86670000D01*
G75*
G02*
X150200000Y-86820000I-150000J0D01*
G01*
X148550000Y-86820000D01*
G75*
G02*
X148400000Y-86670000I0J150000D01*
G01*
G37*
G36*
G01*
X148400000Y-85400000D02*
X148400000Y-85100000D01*
G75*
G02*
X148550000Y-84950000I150000J0D01*
G01*
X150200000Y-84950000D01*
G75*
G02*
X150350000Y-85100000I0J-150000D01*
G01*
X150350000Y-85400000D01*
G75*
G02*
X150200000Y-85550000I-150000J0D01*
G01*
X148550000Y-85550000D01*
G75*
G02*
X148400000Y-85400000I0J150000D01*
G01*
G37*
G36*
G01*
X148400000Y-84130000D02*
X148400000Y-83830000D01*
G75*
G02*
X148550000Y-83680000I150000J0D01*
G01*
X150200000Y-83680000D01*
G75*
G02*
X150350000Y-83830000I0J-150000D01*
G01*
X150350000Y-84130000D01*
G75*
G02*
X150200000Y-84280000I-150000J0D01*
G01*
X148550000Y-84280000D01*
G75*
G02*
X148400000Y-84130000I0J150000D01*
G01*
G37*
G36*
G01*
X148400000Y-82860000D02*
X148400000Y-82560000D01*
G75*
G02*
X148550000Y-82410000I150000J0D01*
G01*
X150200000Y-82410000D01*
G75*
G02*
X150350000Y-82560000I0J-150000D01*
G01*
X150350000Y-82860000D01*
G75*
G02*
X150200000Y-83010000I-150000J0D01*
G01*
X148550000Y-83010000D01*
G75*
G02*
X148400000Y-82860000I0J150000D01*
G01*
G37*
G36*
G01*
X148400000Y-81590000D02*
X148400000Y-81290000D01*
G75*
G02*
X148550000Y-81140000I150000J0D01*
G01*
X150200000Y-81140000D01*
G75*
G02*
X150350000Y-81290000I0J-150000D01*
G01*
X150350000Y-81590000D01*
G75*
G02*
X150200000Y-81740000I-150000J0D01*
G01*
X148550000Y-81740000D01*
G75*
G02*
X148400000Y-81590000I0J150000D01*
G01*
G37*
%TD*%
%TO.C,U2*%
G36*
G01*
X190400000Y-99895000D02*
X190400000Y-100195000D01*
G75*
G02*
X190250000Y-100345000I-150000J0D01*
G01*
X188600000Y-100345000D01*
G75*
G02*
X188450000Y-100195000I0J150000D01*
G01*
X188450000Y-99895000D01*
G75*
G02*
X188600000Y-99745000I150000J0D01*
G01*
X190250000Y-99745000D01*
G75*
G02*
X190400000Y-99895000I0J-150000D01*
G01*
G37*
G36*
G01*
X190400000Y-98625000D02*
X190400000Y-98925000D01*
G75*
G02*
X190250000Y-99075000I-150000J0D01*
G01*
X188600000Y-99075000D01*
G75*
G02*
X188450000Y-98925000I0J150000D01*
G01*
X188450000Y-98625000D01*
G75*
G02*
X188600000Y-98475000I150000J0D01*
G01*
X190250000Y-98475000D01*
G75*
G02*
X190400000Y-98625000I0J-150000D01*
G01*
G37*
G36*
G01*
X190400000Y-97355000D02*
X190400000Y-97655000D01*
G75*
G02*
X190250000Y-97805000I-150000J0D01*
G01*
X188600000Y-97805000D01*
G75*
G02*
X188450000Y-97655000I0J150000D01*
G01*
X188450000Y-97355000D01*
G75*
G02*
X188600000Y-97205000I150000J0D01*
G01*
X190250000Y-97205000D01*
G75*
G02*
X190400000Y-97355000I0J-150000D01*
G01*
G37*
G36*
G01*
X190400000Y-96085000D02*
X190400000Y-96385000D01*
G75*
G02*
X190250000Y-96535000I-150000J0D01*
G01*
X188600000Y-96535000D01*
G75*
G02*
X188450000Y-96385000I0J150000D01*
G01*
X188450000Y-96085000D01*
G75*
G02*
X188600000Y-95935000I150000J0D01*
G01*
X190250000Y-95935000D01*
G75*
G02*
X190400000Y-96085000I0J-150000D01*
G01*
G37*
G36*
G01*
X190400000Y-94815000D02*
X190400000Y-95115000D01*
G75*
G02*
X190250000Y-95265000I-150000J0D01*
G01*
X188600000Y-95265000D01*
G75*
G02*
X188450000Y-95115000I0J150000D01*
G01*
X188450000Y-94815000D01*
G75*
G02*
X188600000Y-94665000I150000J0D01*
G01*
X190250000Y-94665000D01*
G75*
G02*
X190400000Y-94815000I0J-150000D01*
G01*
G37*
G36*
G01*
X190400000Y-93545000D02*
X190400000Y-93845000D01*
G75*
G02*
X190250000Y-93995000I-150000J0D01*
G01*
X188600000Y-93995000D01*
G75*
G02*
X188450000Y-93845000I0J150000D01*
G01*
X188450000Y-93545000D01*
G75*
G02*
X188600000Y-93395000I150000J0D01*
G01*
X190250000Y-93395000D01*
G75*
G02*
X190400000Y-93545000I0J-150000D01*
G01*
G37*
G36*
G01*
X190400000Y-92275000D02*
X190400000Y-92575000D01*
G75*
G02*
X190250000Y-92725000I-150000J0D01*
G01*
X188600000Y-92725000D01*
G75*
G02*
X188450000Y-92575000I0J150000D01*
G01*
X188450000Y-92275000D01*
G75*
G02*
X188600000Y-92125000I150000J0D01*
G01*
X190250000Y-92125000D01*
G75*
G02*
X190400000Y-92275000I0J-150000D01*
G01*
G37*
G36*
G01*
X190400000Y-91005000D02*
X190400000Y-91305000D01*
G75*
G02*
X190250000Y-91455000I-150000J0D01*
G01*
X188600000Y-91455000D01*
G75*
G02*
X188450000Y-91305000I0J150000D01*
G01*
X188450000Y-91005000D01*
G75*
G02*
X188600000Y-90855000I150000J0D01*
G01*
X190250000Y-90855000D01*
G75*
G02*
X190400000Y-91005000I0J-150000D01*
G01*
G37*
G36*
G01*
X195350000Y-91005000D02*
X195350000Y-91305000D01*
G75*
G02*
X195200000Y-91455000I-150000J0D01*
G01*
X193550000Y-91455000D01*
G75*
G02*
X193400000Y-91305000I0J150000D01*
G01*
X193400000Y-91005000D01*
G75*
G02*
X193550000Y-90855000I150000J0D01*
G01*
X195200000Y-90855000D01*
G75*
G02*
X195350000Y-91005000I0J-150000D01*
G01*
G37*
G36*
G01*
X195350000Y-92275000D02*
X195350000Y-92575000D01*
G75*
G02*
X195200000Y-92725000I-150000J0D01*
G01*
X193550000Y-92725000D01*
G75*
G02*
X193400000Y-92575000I0J150000D01*
G01*
X193400000Y-92275000D01*
G75*
G02*
X193550000Y-92125000I150000J0D01*
G01*
X195200000Y-92125000D01*
G75*
G02*
X195350000Y-92275000I0J-150000D01*
G01*
G37*
G36*
G01*
X195350000Y-93545000D02*
X195350000Y-93845000D01*
G75*
G02*
X195200000Y-93995000I-150000J0D01*
G01*
X193550000Y-93995000D01*
G75*
G02*
X193400000Y-93845000I0J150000D01*
G01*
X193400000Y-93545000D01*
G75*
G02*
X193550000Y-93395000I150000J0D01*
G01*
X195200000Y-93395000D01*
G75*
G02*
X195350000Y-93545000I0J-150000D01*
G01*
G37*
G36*
G01*
X195350000Y-94815000D02*
X195350000Y-95115000D01*
G75*
G02*
X195200000Y-95265000I-150000J0D01*
G01*
X193550000Y-95265000D01*
G75*
G02*
X193400000Y-95115000I0J150000D01*
G01*
X193400000Y-94815000D01*
G75*
G02*
X193550000Y-94665000I150000J0D01*
G01*
X195200000Y-94665000D01*
G75*
G02*
X195350000Y-94815000I0J-150000D01*
G01*
G37*
G36*
G01*
X195350000Y-96085000D02*
X195350000Y-96385000D01*
G75*
G02*
X195200000Y-96535000I-150000J0D01*
G01*
X193550000Y-96535000D01*
G75*
G02*
X193400000Y-96385000I0J150000D01*
G01*
X193400000Y-96085000D01*
G75*
G02*
X193550000Y-95935000I150000J0D01*
G01*
X195200000Y-95935000D01*
G75*
G02*
X195350000Y-96085000I0J-150000D01*
G01*
G37*
G36*
G01*
X195350000Y-97355000D02*
X195350000Y-97655000D01*
G75*
G02*
X195200000Y-97805000I-150000J0D01*
G01*
X193550000Y-97805000D01*
G75*
G02*
X193400000Y-97655000I0J150000D01*
G01*
X193400000Y-97355000D01*
G75*
G02*
X193550000Y-97205000I150000J0D01*
G01*
X195200000Y-97205000D01*
G75*
G02*
X195350000Y-97355000I0J-150000D01*
G01*
G37*
G36*
G01*
X195350000Y-98625000D02*
X195350000Y-98925000D01*
G75*
G02*
X195200000Y-99075000I-150000J0D01*
G01*
X193550000Y-99075000D01*
G75*
G02*
X193400000Y-98925000I0J150000D01*
G01*
X193400000Y-98625000D01*
G75*
G02*
X193550000Y-98475000I150000J0D01*
G01*
X195200000Y-98475000D01*
G75*
G02*
X195350000Y-98625000I0J-150000D01*
G01*
G37*
G36*
G01*
X195350000Y-99895000D02*
X195350000Y-100195000D01*
G75*
G02*
X195200000Y-100345000I-150000J0D01*
G01*
X193550000Y-100345000D01*
G75*
G02*
X193400000Y-100195000I0J150000D01*
G01*
X193400000Y-99895000D01*
G75*
G02*
X193550000Y-99745000I150000J0D01*
G01*
X195200000Y-99745000D01*
G75*
G02*
X195350000Y-99895000I0J-150000D01*
G01*
G37*
%TD*%
%TO.C,R94*%
G36*
G01*
X86249999Y-103750000D02*
X87150001Y-103750000D01*
G75*
G02*
X87400000Y-103999999I0J-249999D01*
G01*
X87400000Y-104650001D01*
G75*
G02*
X87150001Y-104900000I-249999J0D01*
G01*
X86249999Y-104900000D01*
G75*
G02*
X86000000Y-104650001I0J249999D01*
G01*
X86000000Y-103999999D01*
G75*
G02*
X86249999Y-103750000I249999J0D01*
G01*
G37*
G36*
G01*
X86249999Y-101700000D02*
X87150001Y-101700000D01*
G75*
G02*
X87400000Y-101949999I0J-249999D01*
G01*
X87400000Y-102600001D01*
G75*
G02*
X87150001Y-102850000I-249999J0D01*
G01*
X86249999Y-102850000D01*
G75*
G02*
X86000000Y-102600001I0J249999D01*
G01*
X86000000Y-101949999D01*
G75*
G02*
X86249999Y-101700000I249999J0D01*
G01*
G37*
%TD*%
%TO.C,R93*%
G36*
G01*
X80450000Y-104750001D02*
X80450000Y-103849999D01*
G75*
G02*
X80699999Y-103600000I249999J0D01*
G01*
X81350001Y-103600000D01*
G75*
G02*
X81600000Y-103849999I0J-249999D01*
G01*
X81600000Y-104750001D01*
G75*
G02*
X81350001Y-105000000I-249999J0D01*
G01*
X80699999Y-105000000D01*
G75*
G02*
X80450000Y-104750001I0J249999D01*
G01*
G37*
G36*
G01*
X78400000Y-104750001D02*
X78400000Y-103849999D01*
G75*
G02*
X78649999Y-103600000I249999J0D01*
G01*
X79300001Y-103600000D01*
G75*
G02*
X79550000Y-103849999I0J-249999D01*
G01*
X79550000Y-104750001D01*
G75*
G02*
X79300001Y-105000000I-249999J0D01*
G01*
X78649999Y-105000000D01*
G75*
G02*
X78400000Y-104750001I0J249999D01*
G01*
G37*
%TD*%
%TO.C,R8*%
G36*
G01*
X81149999Y-98950000D02*
X82050001Y-98950000D01*
G75*
G02*
X82300000Y-99199999I0J-249999D01*
G01*
X82300000Y-99850001D01*
G75*
G02*
X82050001Y-100100000I-249999J0D01*
G01*
X81149999Y-100100000D01*
G75*
G02*
X80900000Y-99850001I0J249999D01*
G01*
X80900000Y-99199999D01*
G75*
G02*
X81149999Y-98950000I249999J0D01*
G01*
G37*
G36*
G01*
X81149999Y-96900000D02*
X82050001Y-96900000D01*
G75*
G02*
X82300000Y-97149999I0J-249999D01*
G01*
X82300000Y-97800001D01*
G75*
G02*
X82050001Y-98050000I-249999J0D01*
G01*
X81149999Y-98050000D01*
G75*
G02*
X80900000Y-97800001I0J249999D01*
G01*
X80900000Y-97149999D01*
G75*
G02*
X81149999Y-96900000I249999J0D01*
G01*
G37*
%TD*%
%TO.C,R7*%
G36*
G01*
X101450000Y-96150001D02*
X101450000Y-95249999D01*
G75*
G02*
X101699999Y-95000000I249999J0D01*
G01*
X102350001Y-95000000D01*
G75*
G02*
X102600000Y-95249999I0J-249999D01*
G01*
X102600000Y-96150001D01*
G75*
G02*
X102350001Y-96400000I-249999J0D01*
G01*
X101699999Y-96400000D01*
G75*
G02*
X101450000Y-96150001I0J249999D01*
G01*
G37*
G36*
G01*
X99400000Y-96150001D02*
X99400000Y-95249999D01*
G75*
G02*
X99649999Y-95000000I249999J0D01*
G01*
X100300001Y-95000000D01*
G75*
G02*
X100550000Y-95249999I0J-249999D01*
G01*
X100550000Y-96150001D01*
G75*
G02*
X100300001Y-96400000I-249999J0D01*
G01*
X99649999Y-96400000D01*
G75*
G02*
X99400000Y-96150001I0J249999D01*
G01*
G37*
%TD*%
%TO.C,R4*%
G36*
G01*
X102750000Y-93850001D02*
X102750000Y-92949999D01*
G75*
G02*
X102999999Y-92700000I249999J0D01*
G01*
X103650001Y-92700000D01*
G75*
G02*
X103900000Y-92949999I0J-249999D01*
G01*
X103900000Y-93850001D01*
G75*
G02*
X103650001Y-94100000I-249999J0D01*
G01*
X102999999Y-94100000D01*
G75*
G02*
X102750000Y-93850001I0J249999D01*
G01*
G37*
G36*
G01*
X100700000Y-93850001D02*
X100700000Y-92949999D01*
G75*
G02*
X100949999Y-92700000I249999J0D01*
G01*
X101600001Y-92700000D01*
G75*
G02*
X101850000Y-92949999I0J-249999D01*
G01*
X101850000Y-93850001D01*
G75*
G02*
X101600001Y-94100000I-249999J0D01*
G01*
X100949999Y-94100000D01*
G75*
G02*
X100700000Y-93850001I0J249999D01*
G01*
G37*
%TD*%
%TO.C,R3*%
G36*
G01*
X104250000Y-91550001D02*
X104250000Y-90649999D01*
G75*
G02*
X104499999Y-90400000I249999J0D01*
G01*
X105150001Y-90400000D01*
G75*
G02*
X105400000Y-90649999I0J-249999D01*
G01*
X105400000Y-91550001D01*
G75*
G02*
X105150001Y-91800000I-249999J0D01*
G01*
X104499999Y-91800000D01*
G75*
G02*
X104250000Y-91550001I0J249999D01*
G01*
G37*
G36*
G01*
X102200000Y-91550001D02*
X102200000Y-90649999D01*
G75*
G02*
X102449999Y-90400000I249999J0D01*
G01*
X103100001Y-90400000D01*
G75*
G02*
X103350000Y-90649999I0J-249999D01*
G01*
X103350000Y-91550001D01*
G75*
G02*
X103100001Y-91800000I-249999J0D01*
G01*
X102449999Y-91800000D01*
G75*
G02*
X102200000Y-91550001I0J249999D01*
G01*
G37*
%TD*%
%TO.C,R2*%
G36*
G01*
X155600001Y-77300000D02*
X154699999Y-77300000D01*
G75*
G02*
X154450000Y-77050001I0J249999D01*
G01*
X154450000Y-76399999D01*
G75*
G02*
X154699999Y-76150000I249999J0D01*
G01*
X155600001Y-76150000D01*
G75*
G02*
X155850000Y-76399999I0J-249999D01*
G01*
X155850000Y-77050001D01*
G75*
G02*
X155600001Y-77300000I-249999J0D01*
G01*
G37*
G36*
G01*
X155600001Y-79350000D02*
X154699999Y-79350000D01*
G75*
G02*
X154450000Y-79100001I0J249999D01*
G01*
X154450000Y-78449999D01*
G75*
G02*
X154699999Y-78200000I249999J0D01*
G01*
X155600001Y-78200000D01*
G75*
G02*
X155850000Y-78449999I0J-249999D01*
G01*
X155850000Y-79100001D01*
G75*
G02*
X155600001Y-79350000I-249999J0D01*
G01*
G37*
%TD*%
%TO.C,R1*%
G36*
G01*
X152199999Y-78200000D02*
X153100001Y-78200000D01*
G75*
G02*
X153350000Y-78449999I0J-249999D01*
G01*
X153350000Y-79100001D01*
G75*
G02*
X153100001Y-79350000I-249999J0D01*
G01*
X152199999Y-79350000D01*
G75*
G02*
X151950000Y-79100001I0J249999D01*
G01*
X151950000Y-78449999D01*
G75*
G02*
X152199999Y-78200000I249999J0D01*
G01*
G37*
G36*
G01*
X152199999Y-76150000D02*
X153100001Y-76150000D01*
G75*
G02*
X153350000Y-76399999I0J-249999D01*
G01*
X153350000Y-77050001D01*
G75*
G02*
X153100001Y-77300000I-249999J0D01*
G01*
X152199999Y-77300000D01*
G75*
G02*
X151950000Y-77050001I0J249999D01*
G01*
X151950000Y-76399999D01*
G75*
G02*
X152199999Y-76150000I249999J0D01*
G01*
G37*
%TD*%
D14*
%TO.C,Q69*%
X83800000Y-84800000D03*
X78250000Y-79950000D03*
X78250000Y-84800000D03*
X83800000Y-79950000D03*
D15*
X83565000Y-91525000D03*
X78485000Y-91525000D03*
%TD*%
D16*
%TO.C,Q2*%
X78400000Y-101500000D03*
X77450000Y-99500000D03*
X79350000Y-99500000D03*
%TD*%
%TO.C,Q1*%
X149350000Y-78750000D03*
X148400000Y-76750000D03*
X150300000Y-76750000D03*
%TD*%
D17*
%TO.C,L1*%
X95000000Y-78650000D03*
X95000000Y-94350000D03*
%TD*%
D18*
%TO.C,D2*%
G36*
X71550000Y-91000000D02*
G01*
X73850000Y-91000000D01*
X73250000Y-94600000D01*
X72150000Y-94600000D01*
X71550000Y-91000000D01*
G37*
G36*
X73850000Y-100400000D02*
G01*
X71550000Y-100400000D01*
X72150000Y-96800000D01*
X73250000Y-96800000D01*
X73850000Y-100400000D01*
G37*
%TD*%
%TO.C,D1*%
G36*
G01*
X78749999Y-96850000D02*
X79650001Y-96850000D01*
G75*
G02*
X79900000Y-97099999I0J-249999D01*
G01*
X79900000Y-97750001D01*
G75*
G02*
X79650001Y-98000000I-249999J0D01*
G01*
X78749999Y-98000000D01*
G75*
G02*
X78500000Y-97750001I0J249999D01*
G01*
X78500000Y-97099999D01*
G75*
G02*
X78749999Y-96850000I249999J0D01*
G01*
G37*
G36*
G01*
X78749999Y-94800000D02*
X79650001Y-94800000D01*
G75*
G02*
X79900000Y-95049999I0J-249999D01*
G01*
X79900000Y-95700001D01*
G75*
G02*
X79650001Y-95950000I-249999J0D01*
G01*
X78749999Y-95950000D01*
G75*
G02*
X78500000Y-95700001I0J249999D01*
G01*
X78500000Y-95049999D01*
G75*
G02*
X78749999Y-94800000I249999J0D01*
G01*
G37*
%TD*%
%TO.C,C38*%
G36*
G01*
X89850001Y-102850000D02*
X88949999Y-102850000D01*
G75*
G02*
X88700000Y-102600001I0J249999D01*
G01*
X88700000Y-101949999D01*
G75*
G02*
X88949999Y-101700000I249999J0D01*
G01*
X89850001Y-101700000D01*
G75*
G02*
X90100000Y-101949999I0J-249999D01*
G01*
X90100000Y-102600001D01*
G75*
G02*
X89850001Y-102850000I-249999J0D01*
G01*
G37*
G36*
G01*
X89850001Y-104900000D02*
X88949999Y-104900000D01*
G75*
G02*
X88700000Y-104650001I0J249999D01*
G01*
X88700000Y-103999999D01*
G75*
G02*
X88949999Y-103750000I249999J0D01*
G01*
X89850001Y-103750000D01*
G75*
G02*
X90100000Y-103999999I0J-249999D01*
G01*
X90100000Y-104650001D01*
G75*
G02*
X89850001Y-104900000I-249999J0D01*
G01*
G37*
%TD*%
%TO.C,C37*%
G36*
G01*
X98100000Y-102500000D02*
X98100000Y-100500000D01*
G75*
G02*
X98350000Y-100250000I250000J0D01*
G01*
X101350000Y-100250000D01*
G75*
G02*
X101600000Y-100500000I0J-250000D01*
G01*
X101600000Y-102500000D01*
G75*
G02*
X101350000Y-102750000I-250000J0D01*
G01*
X98350000Y-102750000D01*
G75*
G02*
X98100000Y-102500000I0J250000D01*
G01*
G37*
G36*
G01*
X91600000Y-102500000D02*
X91600000Y-100500000D01*
G75*
G02*
X91850000Y-100250000I250000J0D01*
G01*
X94850000Y-100250000D01*
G75*
G02*
X95100000Y-100500000I0J-250000D01*
G01*
X95100000Y-102500000D01*
G75*
G02*
X94850000Y-102750000I-250000J0D01*
G01*
X91850000Y-102750000D01*
G75*
G02*
X91600000Y-102500000I0J250000D01*
G01*
G37*
%TD*%
%TO.C,C36*%
G36*
G01*
X119800000Y-84450000D02*
X119800000Y-85550000D01*
G75*
G02*
X119550000Y-85800000I-250000J0D01*
G01*
X117450000Y-85800000D01*
G75*
G02*
X117200000Y-85550000I0J250000D01*
G01*
X117200000Y-84450000D01*
G75*
G02*
X117450000Y-84200000I250000J0D01*
G01*
X119550000Y-84200000D01*
G75*
G02*
X119800000Y-84450000I0J-250000D01*
G01*
G37*
G36*
G01*
X123400000Y-84450000D02*
X123400000Y-85550000D01*
G75*
G02*
X123150000Y-85800000I-250000J0D01*
G01*
X121050000Y-85800000D01*
G75*
G02*
X120800000Y-85550000I0J250000D01*
G01*
X120800000Y-84450000D01*
G75*
G02*
X121050000Y-84200000I250000J0D01*
G01*
X123150000Y-84200000D01*
G75*
G02*
X123400000Y-84450000I0J-250000D01*
G01*
G37*
%TD*%
%TO.C,C35*%
G36*
G01*
X112650000Y-85550000D02*
X112650000Y-84450000D01*
G75*
G02*
X112900000Y-84200000I250000J0D01*
G01*
X115000000Y-84200000D01*
G75*
G02*
X115250000Y-84450000I0J-250000D01*
G01*
X115250000Y-85550000D01*
G75*
G02*
X115000000Y-85800000I-250000J0D01*
G01*
X112900000Y-85800000D01*
G75*
G02*
X112650000Y-85550000I0J250000D01*
G01*
G37*
G36*
G01*
X109050000Y-85550000D02*
X109050000Y-84450000D01*
G75*
G02*
X109300000Y-84200000I250000J0D01*
G01*
X111400000Y-84200000D01*
G75*
G02*
X111650000Y-84450000I0J-250000D01*
G01*
X111650000Y-85550000D01*
G75*
G02*
X111400000Y-85800000I-250000J0D01*
G01*
X109300000Y-85800000D01*
G75*
G02*
X109050000Y-85550000I0J250000D01*
G01*
G37*
%TD*%
%TO.C,C16*%
G36*
G01*
X83549999Y-103775000D02*
X84450001Y-103775000D01*
G75*
G02*
X84700000Y-104024999I0J-249999D01*
G01*
X84700000Y-104675001D01*
G75*
G02*
X84450001Y-104925000I-249999J0D01*
G01*
X83549999Y-104925000D01*
G75*
G02*
X83300000Y-104675001I0J249999D01*
G01*
X83300000Y-104024999D01*
G75*
G02*
X83549999Y-103775000I249999J0D01*
G01*
G37*
G36*
G01*
X83549999Y-101725000D02*
X84450001Y-101725000D01*
G75*
G02*
X84700000Y-101974999I0J-249999D01*
G01*
X84700000Y-102625001D01*
G75*
G02*
X84450001Y-102875000I-249999J0D01*
G01*
X83549999Y-102875000D01*
G75*
G02*
X83300000Y-102625001I0J249999D01*
G01*
X83300000Y-101974999D01*
G75*
G02*
X83549999Y-101725000I249999J0D01*
G01*
G37*
%TD*%
%TO.C,C15*%
G36*
G01*
X191000000Y-87150000D02*
X191000000Y-86050000D01*
G75*
G02*
X191250000Y-85800000I250000J0D01*
G01*
X193350000Y-85800000D01*
G75*
G02*
X193600000Y-86050000I0J-250000D01*
G01*
X193600000Y-87150000D01*
G75*
G02*
X193350000Y-87400000I-250000J0D01*
G01*
X191250000Y-87400000D01*
G75*
G02*
X191000000Y-87150000I0J250000D01*
G01*
G37*
G36*
G01*
X187400000Y-87150000D02*
X187400000Y-86050000D01*
G75*
G02*
X187650000Y-85800000I250000J0D01*
G01*
X189750000Y-85800000D01*
G75*
G02*
X190000000Y-86050000I0J-250000D01*
G01*
X190000000Y-87150000D01*
G75*
G02*
X189750000Y-87400000I-250000J0D01*
G01*
X187650000Y-87400000D01*
G75*
G02*
X187400000Y-87150000I0J250000D01*
G01*
G37*
%TD*%
%TO.C,C8*%
G36*
G01*
X191600000Y-103050000D02*
X191600000Y-104150000D01*
G75*
G02*
X191350000Y-104400000I-250000J0D01*
G01*
X189250000Y-104400000D01*
G75*
G02*
X189000000Y-104150000I0J250000D01*
G01*
X189000000Y-103050000D01*
G75*
G02*
X189250000Y-102800000I250000J0D01*
G01*
X191350000Y-102800000D01*
G75*
G02*
X191600000Y-103050000I0J-250000D01*
G01*
G37*
G36*
G01*
X195200000Y-103050000D02*
X195200000Y-104150000D01*
G75*
G02*
X194950000Y-104400000I-250000J0D01*
G01*
X192850000Y-104400000D01*
G75*
G02*
X192600000Y-104150000I0J250000D01*
G01*
X192600000Y-103050000D01*
G75*
G02*
X192850000Y-102800000I250000J0D01*
G01*
X194950000Y-102800000D01*
G75*
G02*
X195200000Y-103050000I0J-250000D01*
G01*
G37*
%TD*%
%TO.C,C4*%
G36*
G01*
X199950000Y-91600000D02*
X198850000Y-91600000D01*
G75*
G02*
X198600000Y-91350000I0J250000D01*
G01*
X198600000Y-89250000D01*
G75*
G02*
X198850000Y-89000000I250000J0D01*
G01*
X199950000Y-89000000D01*
G75*
G02*
X200200000Y-89250000I0J-250000D01*
G01*
X200200000Y-91350000D01*
G75*
G02*
X199950000Y-91600000I-250000J0D01*
G01*
G37*
G36*
G01*
X199950000Y-95200000D02*
X198850000Y-95200000D01*
G75*
G02*
X198600000Y-94950000I0J250000D01*
G01*
X198600000Y-92850000D01*
G75*
G02*
X198850000Y-92600000I250000J0D01*
G01*
X199950000Y-92600000D01*
G75*
G02*
X200200000Y-92850000I0J-250000D01*
G01*
X200200000Y-94950000D01*
G75*
G02*
X199950000Y-95200000I-250000J0D01*
G01*
G37*
%TD*%
%TO.C,C2*%
G36*
G01*
X183700000Y-103050000D02*
X183700000Y-104150000D01*
G75*
G02*
X183450000Y-104400000I-250000J0D01*
G01*
X181350000Y-104400000D01*
G75*
G02*
X181100000Y-104150000I0J250000D01*
G01*
X181100000Y-103050000D01*
G75*
G02*
X181350000Y-102800000I250000J0D01*
G01*
X183450000Y-102800000D01*
G75*
G02*
X183700000Y-103050000I0J-250000D01*
G01*
G37*
G36*
G01*
X187300000Y-103050000D02*
X187300000Y-104150000D01*
G75*
G02*
X187050000Y-104400000I-250000J0D01*
G01*
X184950000Y-104400000D01*
G75*
G02*
X184700000Y-104150000I0J250000D01*
G01*
X184700000Y-103050000D01*
G75*
G02*
X184950000Y-102800000I250000J0D01*
G01*
X187050000Y-102800000D01*
G75*
G02*
X187300000Y-103050000I0J-250000D01*
G01*
G37*
%TD*%
%TO.C,C1*%
G36*
G01*
X199950000Y-100100000D02*
X198850000Y-100100000D01*
G75*
G02*
X198600000Y-99850000I0J250000D01*
G01*
X198600000Y-97750000D01*
G75*
G02*
X198850000Y-97500000I250000J0D01*
G01*
X199950000Y-97500000D01*
G75*
G02*
X200200000Y-97750000I0J-250000D01*
G01*
X200200000Y-99850000D01*
G75*
G02*
X199950000Y-100100000I-250000J0D01*
G01*
G37*
G36*
G01*
X199950000Y-103700000D02*
X198850000Y-103700000D01*
G75*
G02*
X198600000Y-103450000I0J250000D01*
G01*
X198600000Y-101350000D01*
G75*
G02*
X198850000Y-101100000I250000J0D01*
G01*
X199950000Y-101100000D01*
G75*
G02*
X200200000Y-101350000I0J-250000D01*
G01*
X200200000Y-103450000D01*
G75*
G02*
X199950000Y-103700000I-250000J0D01*
G01*
G37*
%TD*%
%TO.C,C3*%
G36*
G01*
X108149999Y-94200000D02*
X109050001Y-94200000D01*
G75*
G02*
X109300000Y-94449999I0J-249999D01*
G01*
X109300000Y-95100001D01*
G75*
G02*
X109050001Y-95350000I-249999J0D01*
G01*
X108149999Y-95350000D01*
G75*
G02*
X107900000Y-95100001I0J249999D01*
G01*
X107900000Y-94449999D01*
G75*
G02*
X108149999Y-94200000I249999J0D01*
G01*
G37*
G36*
G01*
X108149999Y-96250000D02*
X109050001Y-96250000D01*
G75*
G02*
X109300000Y-96499999I0J-249999D01*
G01*
X109300000Y-97150001D01*
G75*
G02*
X109050001Y-97400000I-249999J0D01*
G01*
X108149999Y-97400000D01*
G75*
G02*
X107900000Y-97150001I0J249999D01*
G01*
X107900000Y-96499999D01*
G75*
G02*
X108149999Y-96250000I249999J0D01*
G01*
G37*
%TD*%
%TO.C,C5*%
G36*
G01*
X144050000Y-78000001D02*
X144050000Y-77099999D01*
G75*
G02*
X144299999Y-76850000I249999J0D01*
G01*
X144950001Y-76850000D01*
G75*
G02*
X145200000Y-77099999I0J-249999D01*
G01*
X145200000Y-78000001D01*
G75*
G02*
X144950001Y-78250000I-249999J0D01*
G01*
X144299999Y-78250000D01*
G75*
G02*
X144050000Y-78000001I0J249999D01*
G01*
G37*
G36*
G01*
X142000000Y-78000001D02*
X142000000Y-77099999D01*
G75*
G02*
X142249999Y-76850000I249999J0D01*
G01*
X142900001Y-76850000D01*
G75*
G02*
X143150000Y-77099999I0J-249999D01*
G01*
X143150000Y-78000001D01*
G75*
G02*
X142900001Y-78250000I-249999J0D01*
G01*
X142249999Y-78250000D01*
G75*
G02*
X142000000Y-78000001I0J249999D01*
G01*
G37*
%TD*%
%TO.C,C6*%
G36*
G01*
X144050000Y-80400001D02*
X144050000Y-79499999D01*
G75*
G02*
X144299999Y-79250000I249999J0D01*
G01*
X144950001Y-79250000D01*
G75*
G02*
X145200000Y-79499999I0J-249999D01*
G01*
X145200000Y-80400001D01*
G75*
G02*
X144950001Y-80650000I-249999J0D01*
G01*
X144299999Y-80650000D01*
G75*
G02*
X144050000Y-80400001I0J249999D01*
G01*
G37*
G36*
G01*
X142000000Y-80400001D02*
X142000000Y-79499999D01*
G75*
G02*
X142249999Y-79250000I249999J0D01*
G01*
X142900001Y-79250000D01*
G75*
G02*
X143150000Y-79499999I0J-249999D01*
G01*
X143150000Y-80400001D01*
G75*
G02*
X142900001Y-80650000I-249999J0D01*
G01*
X142249999Y-80650000D01*
G75*
G02*
X142000000Y-80400001I0J249999D01*
G01*
G37*
%TD*%
%TO.C,C7*%
G36*
G01*
X165349999Y-76725000D02*
X166250001Y-76725000D01*
G75*
G02*
X166500000Y-76974999I0J-249999D01*
G01*
X166500000Y-77625001D01*
G75*
G02*
X166250001Y-77875000I-249999J0D01*
G01*
X165349999Y-77875000D01*
G75*
G02*
X165100000Y-77625001I0J249999D01*
G01*
X165100000Y-76974999D01*
G75*
G02*
X165349999Y-76725000I249999J0D01*
G01*
G37*
G36*
G01*
X165349999Y-78775000D02*
X166250001Y-78775000D01*
G75*
G02*
X166500000Y-79024999I0J-249999D01*
G01*
X166500000Y-79675001D01*
G75*
G02*
X166250001Y-79925000I-249999J0D01*
G01*
X165349999Y-79925000D01*
G75*
G02*
X165100000Y-79675001I0J249999D01*
G01*
X165100000Y-79024999D01*
G75*
G02*
X165349999Y-78775000I249999J0D01*
G01*
G37*
%TD*%
%TO.C,C9*%
G36*
G01*
X97200000Y-109450001D02*
X97200000Y-108549999D01*
G75*
G02*
X97449999Y-108300000I249999J0D01*
G01*
X98100001Y-108300000D01*
G75*
G02*
X98350000Y-108549999I0J-249999D01*
G01*
X98350000Y-109450001D01*
G75*
G02*
X98100001Y-109700000I-249999J0D01*
G01*
X97449999Y-109700000D01*
G75*
G02*
X97200000Y-109450001I0J249999D01*
G01*
G37*
G36*
G01*
X99250000Y-109450001D02*
X99250000Y-108549999D01*
G75*
G02*
X99499999Y-108300000I249999J0D01*
G01*
X100150001Y-108300000D01*
G75*
G02*
X100400000Y-108549999I0J-249999D01*
G01*
X100400000Y-109450001D01*
G75*
G02*
X100150001Y-109700000I-249999J0D01*
G01*
X99499999Y-109700000D01*
G75*
G02*
X99250000Y-109450001I0J249999D01*
G01*
G37*
%TD*%
%TO.C,C10*%
G36*
G01*
X140425000Y-108050001D02*
X140425000Y-107149999D01*
G75*
G02*
X140674999Y-106900000I249999J0D01*
G01*
X141325001Y-106900000D01*
G75*
G02*
X141575000Y-107149999I0J-249999D01*
G01*
X141575000Y-108050001D01*
G75*
G02*
X141325001Y-108300000I-249999J0D01*
G01*
X140674999Y-108300000D01*
G75*
G02*
X140425000Y-108050001I0J249999D01*
G01*
G37*
G36*
G01*
X142475000Y-108050001D02*
X142475000Y-107149999D01*
G75*
G02*
X142724999Y-106900000I249999J0D01*
G01*
X143375001Y-106900000D01*
G75*
G02*
X143625000Y-107149999I0J-249999D01*
G01*
X143625000Y-108050001D01*
G75*
G02*
X143375001Y-108300000I-249999J0D01*
G01*
X142724999Y-108300000D01*
G75*
G02*
X142475000Y-108050001I0J249999D01*
G01*
G37*
%TD*%
%TO.C,C11*%
G36*
G01*
X127249999Y-98775000D02*
X128150001Y-98775000D01*
G75*
G02*
X128400000Y-99024999I0J-249999D01*
G01*
X128400000Y-99675001D01*
G75*
G02*
X128150001Y-99925000I-249999J0D01*
G01*
X127249999Y-99925000D01*
G75*
G02*
X127000000Y-99675001I0J249999D01*
G01*
X127000000Y-99024999D01*
G75*
G02*
X127249999Y-98775000I249999J0D01*
G01*
G37*
G36*
G01*
X127249999Y-96725000D02*
X128150001Y-96725000D01*
G75*
G02*
X128400000Y-96974999I0J-249999D01*
G01*
X128400000Y-97625001D01*
G75*
G02*
X128150001Y-97875000I-249999J0D01*
G01*
X127249999Y-97875000D01*
G75*
G02*
X127000000Y-97625001I0J249999D01*
G01*
X127000000Y-96974999D01*
G75*
G02*
X127249999Y-96725000I249999J0D01*
G01*
G37*
%TD*%
%TO.C,C12*%
G36*
G01*
X128150001Y-95975000D02*
X127249999Y-95975000D01*
G75*
G02*
X127000000Y-95725001I0J249999D01*
G01*
X127000000Y-95074999D01*
G75*
G02*
X127249999Y-94825000I249999J0D01*
G01*
X128150001Y-94825000D01*
G75*
G02*
X128400000Y-95074999I0J-249999D01*
G01*
X128400000Y-95725001D01*
G75*
G02*
X128150001Y-95975000I-249999J0D01*
G01*
G37*
G36*
G01*
X128150001Y-93925000D02*
X127249999Y-93925000D01*
G75*
G02*
X127000000Y-93675001I0J249999D01*
G01*
X127000000Y-93024999D01*
G75*
G02*
X127249999Y-92775000I249999J0D01*
G01*
X128150001Y-92775000D01*
G75*
G02*
X128400000Y-93024999I0J-249999D01*
G01*
X128400000Y-93675001D01*
G75*
G02*
X128150001Y-93925000I-249999J0D01*
G01*
G37*
%TD*%
%TO.C,C13*%
G36*
G01*
X135400001Y-85000000D02*
X134499999Y-85000000D01*
G75*
G02*
X134250000Y-84750001I0J249999D01*
G01*
X134250000Y-84099999D01*
G75*
G02*
X134499999Y-83850000I249999J0D01*
G01*
X135400001Y-83850000D01*
G75*
G02*
X135650000Y-84099999I0J-249999D01*
G01*
X135650000Y-84750001D01*
G75*
G02*
X135400001Y-85000000I-249999J0D01*
G01*
G37*
G36*
G01*
X135400001Y-87050000D02*
X134499999Y-87050000D01*
G75*
G02*
X134250000Y-86800001I0J249999D01*
G01*
X134250000Y-86149999D01*
G75*
G02*
X134499999Y-85900000I249999J0D01*
G01*
X135400001Y-85900000D01*
G75*
G02*
X135650000Y-86149999I0J-249999D01*
G01*
X135650000Y-86800001D01*
G75*
G02*
X135400001Y-87050000I-249999J0D01*
G01*
G37*
%TD*%
%TO.C,C14*%
G36*
G01*
X157049999Y-83150000D02*
X157950001Y-83150000D01*
G75*
G02*
X158200000Y-83399999I0J-249999D01*
G01*
X158200000Y-84050001D01*
G75*
G02*
X157950001Y-84300000I-249999J0D01*
G01*
X157049999Y-84300000D01*
G75*
G02*
X156800000Y-84050001I0J249999D01*
G01*
X156800000Y-83399999D01*
G75*
G02*
X157049999Y-83150000I249999J0D01*
G01*
G37*
G36*
G01*
X157049999Y-81100000D02*
X157950001Y-81100000D01*
G75*
G02*
X158200000Y-81349999I0J-249999D01*
G01*
X158200000Y-82000001D01*
G75*
G02*
X157950001Y-82250000I-249999J0D01*
G01*
X157049999Y-82250000D01*
G75*
G02*
X156800000Y-82000001I0J249999D01*
G01*
X156800000Y-81349999D01*
G75*
G02*
X157049999Y-81100000I249999J0D01*
G01*
G37*
%TD*%
D19*
%TO.C,J2*%
X142300000Y-70912500D03*
D20*
X143950000Y-73612500D03*
X144600000Y-73612500D03*
X142000000Y-73612500D03*
X142650000Y-73612500D03*
X143300000Y-73612500D03*
D19*
X144300000Y-70912500D03*
%TD*%
%TO.C,R5*%
G36*
G01*
X113600001Y-104600000D02*
X112699999Y-104600000D01*
G75*
G02*
X112450000Y-104350001I0J249999D01*
G01*
X112450000Y-103699999D01*
G75*
G02*
X112699999Y-103450000I249999J0D01*
G01*
X113600001Y-103450000D01*
G75*
G02*
X113850000Y-103699999I0J-249999D01*
G01*
X113850000Y-104350001D01*
G75*
G02*
X113600001Y-104600000I-249999J0D01*
G01*
G37*
G36*
G01*
X113600001Y-106650000D02*
X112699999Y-106650000D01*
G75*
G02*
X112450000Y-106400001I0J249999D01*
G01*
X112450000Y-105749999D01*
G75*
G02*
X112699999Y-105500000I249999J0D01*
G01*
X113600001Y-105500000D01*
G75*
G02*
X113850000Y-105749999I0J-249999D01*
G01*
X113850000Y-106400001D01*
G75*
G02*
X113600001Y-106650000I-249999J0D01*
G01*
G37*
%TD*%
%TO.C,R6*%
G36*
G01*
X115950001Y-106650000D02*
X115049999Y-106650000D01*
G75*
G02*
X114800000Y-106400001I0J249999D01*
G01*
X114800000Y-105749999D01*
G75*
G02*
X115049999Y-105500000I249999J0D01*
G01*
X115950001Y-105500000D01*
G75*
G02*
X116200000Y-105749999I0J-249999D01*
G01*
X116200000Y-106400001D01*
G75*
G02*
X115950001Y-106650000I-249999J0D01*
G01*
G37*
G36*
G01*
X115950001Y-104600000D02*
X115049999Y-104600000D01*
G75*
G02*
X114800000Y-104350001I0J249999D01*
G01*
X114800000Y-103699999D01*
G75*
G02*
X115049999Y-103450000I249999J0D01*
G01*
X115950001Y-103450000D01*
G75*
G02*
X116200000Y-103699999I0J-249999D01*
G01*
X116200000Y-104350001D01*
G75*
G02*
X115950001Y-104600000I-249999J0D01*
G01*
G37*
%TD*%
D21*
%TO.C,U1*%
X119800000Y-98550000D03*
X119800000Y-97750000D03*
X119800000Y-96950000D03*
X119800000Y-96150000D03*
X119800000Y-95350000D03*
X119800000Y-94550000D03*
X119800000Y-93750000D03*
X119800000Y-92950000D03*
D22*
X118350000Y-91500000D03*
X117550000Y-91500000D03*
X116750000Y-91500000D03*
X115950000Y-91500000D03*
X115150000Y-91500000D03*
X114350000Y-91500000D03*
X113550000Y-91500000D03*
X112750000Y-91500000D03*
D21*
X111300000Y-92950000D03*
X111300000Y-93750000D03*
X111300000Y-94550000D03*
X111300000Y-95350000D03*
X111300000Y-96150000D03*
X111300000Y-96950000D03*
X111300000Y-97750000D03*
X111300000Y-98550000D03*
D22*
X112750000Y-100000000D03*
X113550000Y-100000000D03*
X114350000Y-100000000D03*
X115150000Y-100000000D03*
X115950000Y-100000000D03*
X116750000Y-100000000D03*
X117550000Y-100000000D03*
X118350000Y-100000000D03*
%TD*%
%TO.C,U4*%
G36*
G01*
X137190000Y-83950000D02*
X136890000Y-83950000D01*
G75*
G02*
X136740000Y-83800000I0J150000D01*
G01*
X136740000Y-82150000D01*
G75*
G02*
X136890000Y-82000000I150000J0D01*
G01*
X137190000Y-82000000D01*
G75*
G02*
X137340000Y-82150000I0J-150000D01*
G01*
X137340000Y-83800000D01*
G75*
G02*
X137190000Y-83950000I-150000J0D01*
G01*
G37*
G36*
G01*
X138460000Y-83950000D02*
X138160000Y-83950000D01*
G75*
G02*
X138010000Y-83800000I0J150000D01*
G01*
X138010000Y-82150000D01*
G75*
G02*
X138160000Y-82000000I150000J0D01*
G01*
X138460000Y-82000000D01*
G75*
G02*
X138610000Y-82150000I0J-150000D01*
G01*
X138610000Y-83800000D01*
G75*
G02*
X138460000Y-83950000I-150000J0D01*
G01*
G37*
G36*
G01*
X139730000Y-83950000D02*
X139430000Y-83950000D01*
G75*
G02*
X139280000Y-83800000I0J150000D01*
G01*
X139280000Y-82150000D01*
G75*
G02*
X139430000Y-82000000I150000J0D01*
G01*
X139730000Y-82000000D01*
G75*
G02*
X139880000Y-82150000I0J-150000D01*
G01*
X139880000Y-83800000D01*
G75*
G02*
X139730000Y-83950000I-150000J0D01*
G01*
G37*
G36*
G01*
X141000000Y-83950000D02*
X140700000Y-83950000D01*
G75*
G02*
X140550000Y-83800000I0J150000D01*
G01*
X140550000Y-82150000D01*
G75*
G02*
X140700000Y-82000000I150000J0D01*
G01*
X141000000Y-82000000D01*
G75*
G02*
X141150000Y-82150000I0J-150000D01*
G01*
X141150000Y-83800000D01*
G75*
G02*
X141000000Y-83950000I-150000J0D01*
G01*
G37*
G36*
G01*
X142270000Y-83950000D02*
X141970000Y-83950000D01*
G75*
G02*
X141820000Y-83800000I0J150000D01*
G01*
X141820000Y-82150000D01*
G75*
G02*
X141970000Y-82000000I150000J0D01*
G01*
X142270000Y-82000000D01*
G75*
G02*
X142420000Y-82150000I0J-150000D01*
G01*
X142420000Y-83800000D01*
G75*
G02*
X142270000Y-83950000I-150000J0D01*
G01*
G37*
G36*
G01*
X143540000Y-83950000D02*
X143240000Y-83950000D01*
G75*
G02*
X143090000Y-83800000I0J150000D01*
G01*
X143090000Y-82150000D01*
G75*
G02*
X143240000Y-82000000I150000J0D01*
G01*
X143540000Y-82000000D01*
G75*
G02*
X143690000Y-82150000I0J-150000D01*
G01*
X143690000Y-83800000D01*
G75*
G02*
X143540000Y-83950000I-150000J0D01*
G01*
G37*
G36*
G01*
X144810000Y-83950000D02*
X144510000Y-83950000D01*
G75*
G02*
X144360000Y-83800000I0J150000D01*
G01*
X144360000Y-82150000D01*
G75*
G02*
X144510000Y-82000000I150000J0D01*
G01*
X144810000Y-82000000D01*
G75*
G02*
X144960000Y-82150000I0J-150000D01*
G01*
X144960000Y-83800000D01*
G75*
G02*
X144810000Y-83950000I-150000J0D01*
G01*
G37*
G36*
G01*
X144810000Y-88900000D02*
X144510000Y-88900000D01*
G75*
G02*
X144360000Y-88750000I0J150000D01*
G01*
X144360000Y-87100000D01*
G75*
G02*
X144510000Y-86950000I150000J0D01*
G01*
X144810000Y-86950000D01*
G75*
G02*
X144960000Y-87100000I0J-150000D01*
G01*
X144960000Y-88750000D01*
G75*
G02*
X144810000Y-88900000I-150000J0D01*
G01*
G37*
G36*
G01*
X143540000Y-88900000D02*
X143240000Y-88900000D01*
G75*
G02*
X143090000Y-88750000I0J150000D01*
G01*
X143090000Y-87100000D01*
G75*
G02*
X143240000Y-86950000I150000J0D01*
G01*
X143540000Y-86950000D01*
G75*
G02*
X143690000Y-87100000I0J-150000D01*
G01*
X143690000Y-88750000D01*
G75*
G02*
X143540000Y-88900000I-150000J0D01*
G01*
G37*
G36*
G01*
X142270000Y-88900000D02*
X141970000Y-88900000D01*
G75*
G02*
X141820000Y-88750000I0J150000D01*
G01*
X141820000Y-87100000D01*
G75*
G02*
X141970000Y-86950000I150000J0D01*
G01*
X142270000Y-86950000D01*
G75*
G02*
X142420000Y-87100000I0J-150000D01*
G01*
X142420000Y-88750000D01*
G75*
G02*
X142270000Y-88900000I-150000J0D01*
G01*
G37*
G36*
G01*
X141000000Y-88900000D02*
X140700000Y-88900000D01*
G75*
G02*
X140550000Y-88750000I0J150000D01*
G01*
X140550000Y-87100000D01*
G75*
G02*
X140700000Y-86950000I150000J0D01*
G01*
X141000000Y-86950000D01*
G75*
G02*
X141150000Y-87100000I0J-150000D01*
G01*
X141150000Y-88750000D01*
G75*
G02*
X141000000Y-88900000I-150000J0D01*
G01*
G37*
G36*
G01*
X139730000Y-88900000D02*
X139430000Y-88900000D01*
G75*
G02*
X139280000Y-88750000I0J150000D01*
G01*
X139280000Y-87100000D01*
G75*
G02*
X139430000Y-86950000I150000J0D01*
G01*
X139730000Y-86950000D01*
G75*
G02*
X139880000Y-87100000I0J-150000D01*
G01*
X139880000Y-88750000D01*
G75*
G02*
X139730000Y-88900000I-150000J0D01*
G01*
G37*
G36*
G01*
X138460000Y-88900000D02*
X138160000Y-88900000D01*
G75*
G02*
X138010000Y-88750000I0J150000D01*
G01*
X138010000Y-87100000D01*
G75*
G02*
X138160000Y-86950000I150000J0D01*
G01*
X138460000Y-86950000D01*
G75*
G02*
X138610000Y-87100000I0J-150000D01*
G01*
X138610000Y-88750000D01*
G75*
G02*
X138460000Y-88900000I-150000J0D01*
G01*
G37*
G36*
G01*
X137190000Y-88900000D02*
X136890000Y-88900000D01*
G75*
G02*
X136740000Y-88750000I0J150000D01*
G01*
X136740000Y-87100000D01*
G75*
G02*
X136890000Y-86950000I150000J0D01*
G01*
X137190000Y-86950000D01*
G75*
G02*
X137340000Y-87100000I0J-150000D01*
G01*
X137340000Y-88750000D01*
G75*
G02*
X137190000Y-88900000I-150000J0D01*
G01*
G37*
%TD*%
%TO.C,U5*%
G36*
G01*
X89050000Y-109940000D02*
X89050000Y-109640000D01*
G75*
G02*
X89200000Y-109490000I150000J0D01*
G01*
X90850000Y-109490000D01*
G75*
G02*
X91000000Y-109640000I0J-150000D01*
G01*
X91000000Y-109940000D01*
G75*
G02*
X90850000Y-110090000I-150000J0D01*
G01*
X89200000Y-110090000D01*
G75*
G02*
X89050000Y-109940000I0J150000D01*
G01*
G37*
G36*
G01*
X89050000Y-111210000D02*
X89050000Y-110910000D01*
G75*
G02*
X89200000Y-110760000I150000J0D01*
G01*
X90850000Y-110760000D01*
G75*
G02*
X91000000Y-110910000I0J-150000D01*
G01*
X91000000Y-111210000D01*
G75*
G02*
X90850000Y-111360000I-150000J0D01*
G01*
X89200000Y-111360000D01*
G75*
G02*
X89050000Y-111210000I0J150000D01*
G01*
G37*
G36*
G01*
X89050000Y-112480000D02*
X89050000Y-112180000D01*
G75*
G02*
X89200000Y-112030000I150000J0D01*
G01*
X90850000Y-112030000D01*
G75*
G02*
X91000000Y-112180000I0J-150000D01*
G01*
X91000000Y-112480000D01*
G75*
G02*
X90850000Y-112630000I-150000J0D01*
G01*
X89200000Y-112630000D01*
G75*
G02*
X89050000Y-112480000I0J150000D01*
G01*
G37*
G36*
G01*
X89050000Y-113750000D02*
X89050000Y-113450000D01*
G75*
G02*
X89200000Y-113300000I150000J0D01*
G01*
X90850000Y-113300000D01*
G75*
G02*
X91000000Y-113450000I0J-150000D01*
G01*
X91000000Y-113750000D01*
G75*
G02*
X90850000Y-113900000I-150000J0D01*
G01*
X89200000Y-113900000D01*
G75*
G02*
X89050000Y-113750000I0J150000D01*
G01*
G37*
G36*
G01*
X89050000Y-115020000D02*
X89050000Y-114720000D01*
G75*
G02*
X89200000Y-114570000I150000J0D01*
G01*
X90850000Y-114570000D01*
G75*
G02*
X91000000Y-114720000I0J-150000D01*
G01*
X91000000Y-115020000D01*
G75*
G02*
X90850000Y-115170000I-150000J0D01*
G01*
X89200000Y-115170000D01*
G75*
G02*
X89050000Y-115020000I0J150000D01*
G01*
G37*
G36*
G01*
X89050000Y-116290000D02*
X89050000Y-115990000D01*
G75*
G02*
X89200000Y-115840000I150000J0D01*
G01*
X90850000Y-115840000D01*
G75*
G02*
X91000000Y-115990000I0J-150000D01*
G01*
X91000000Y-116290000D01*
G75*
G02*
X90850000Y-116440000I-150000J0D01*
G01*
X89200000Y-116440000D01*
G75*
G02*
X89050000Y-116290000I0J150000D01*
G01*
G37*
G36*
G01*
X89050000Y-117560000D02*
X89050000Y-117260000D01*
G75*
G02*
X89200000Y-117110000I150000J0D01*
G01*
X90850000Y-117110000D01*
G75*
G02*
X91000000Y-117260000I0J-150000D01*
G01*
X91000000Y-117560000D01*
G75*
G02*
X90850000Y-117710000I-150000J0D01*
G01*
X89200000Y-117710000D01*
G75*
G02*
X89050000Y-117560000I0J150000D01*
G01*
G37*
G36*
G01*
X94000000Y-117560000D02*
X94000000Y-117260000D01*
G75*
G02*
X94150000Y-117110000I150000J0D01*
G01*
X95800000Y-117110000D01*
G75*
G02*
X95950000Y-117260000I0J-150000D01*
G01*
X95950000Y-117560000D01*
G75*
G02*
X95800000Y-117710000I-150000J0D01*
G01*
X94150000Y-117710000D01*
G75*
G02*
X94000000Y-117560000I0J150000D01*
G01*
G37*
G36*
G01*
X94000000Y-116290000D02*
X94000000Y-115990000D01*
G75*
G02*
X94150000Y-115840000I150000J0D01*
G01*
X95800000Y-115840000D01*
G75*
G02*
X95950000Y-115990000I0J-150000D01*
G01*
X95950000Y-116290000D01*
G75*
G02*
X95800000Y-116440000I-150000J0D01*
G01*
X94150000Y-116440000D01*
G75*
G02*
X94000000Y-116290000I0J150000D01*
G01*
G37*
G36*
G01*
X94000000Y-115020000D02*
X94000000Y-114720000D01*
G75*
G02*
X94150000Y-114570000I150000J0D01*
G01*
X95800000Y-114570000D01*
G75*
G02*
X95950000Y-114720000I0J-150000D01*
G01*
X95950000Y-115020000D01*
G75*
G02*
X95800000Y-115170000I-150000J0D01*
G01*
X94150000Y-115170000D01*
G75*
G02*
X94000000Y-115020000I0J150000D01*
G01*
G37*
G36*
G01*
X94000000Y-113750000D02*
X94000000Y-113450000D01*
G75*
G02*
X94150000Y-113300000I150000J0D01*
G01*
X95800000Y-113300000D01*
G75*
G02*
X95950000Y-113450000I0J-150000D01*
G01*
X95950000Y-113750000D01*
G75*
G02*
X95800000Y-113900000I-150000J0D01*
G01*
X94150000Y-113900000D01*
G75*
G02*
X94000000Y-113750000I0J150000D01*
G01*
G37*
G36*
G01*
X94000000Y-112480000D02*
X94000000Y-112180000D01*
G75*
G02*
X94150000Y-112030000I150000J0D01*
G01*
X95800000Y-112030000D01*
G75*
G02*
X95950000Y-112180000I0J-150000D01*
G01*
X95950000Y-112480000D01*
G75*
G02*
X95800000Y-112630000I-150000J0D01*
G01*
X94150000Y-112630000D01*
G75*
G02*
X94000000Y-112480000I0J150000D01*
G01*
G37*
G36*
G01*
X94000000Y-111210000D02*
X94000000Y-110910000D01*
G75*
G02*
X94150000Y-110760000I150000J0D01*
G01*
X95800000Y-110760000D01*
G75*
G02*
X95950000Y-110910000I0J-150000D01*
G01*
X95950000Y-111210000D01*
G75*
G02*
X95800000Y-111360000I-150000J0D01*
G01*
X94150000Y-111360000D01*
G75*
G02*
X94000000Y-111210000I0J150000D01*
G01*
G37*
G36*
G01*
X94000000Y-109940000D02*
X94000000Y-109640000D01*
G75*
G02*
X94150000Y-109490000I150000J0D01*
G01*
X95800000Y-109490000D01*
G75*
G02*
X95950000Y-109640000I0J-150000D01*
G01*
X95950000Y-109940000D01*
G75*
G02*
X95800000Y-110090000I-150000J0D01*
G01*
X94150000Y-110090000D01*
G75*
G02*
X94000000Y-109940000I0J150000D01*
G01*
G37*
%TD*%
%TO.C,U6*%
G36*
G01*
X140000000Y-109940000D02*
X140000000Y-109640000D01*
G75*
G02*
X140150000Y-109490000I150000J0D01*
G01*
X141800000Y-109490000D01*
G75*
G02*
X141950000Y-109640000I0J-150000D01*
G01*
X141950000Y-109940000D01*
G75*
G02*
X141800000Y-110090000I-150000J0D01*
G01*
X140150000Y-110090000D01*
G75*
G02*
X140000000Y-109940000I0J150000D01*
G01*
G37*
G36*
G01*
X140000000Y-111210000D02*
X140000000Y-110910000D01*
G75*
G02*
X140150000Y-110760000I150000J0D01*
G01*
X141800000Y-110760000D01*
G75*
G02*
X141950000Y-110910000I0J-150000D01*
G01*
X141950000Y-111210000D01*
G75*
G02*
X141800000Y-111360000I-150000J0D01*
G01*
X140150000Y-111360000D01*
G75*
G02*
X140000000Y-111210000I0J150000D01*
G01*
G37*
G36*
G01*
X140000000Y-112480000D02*
X140000000Y-112180000D01*
G75*
G02*
X140150000Y-112030000I150000J0D01*
G01*
X141800000Y-112030000D01*
G75*
G02*
X141950000Y-112180000I0J-150000D01*
G01*
X141950000Y-112480000D01*
G75*
G02*
X141800000Y-112630000I-150000J0D01*
G01*
X140150000Y-112630000D01*
G75*
G02*
X140000000Y-112480000I0J150000D01*
G01*
G37*
G36*
G01*
X140000000Y-113750000D02*
X140000000Y-113450000D01*
G75*
G02*
X140150000Y-113300000I150000J0D01*
G01*
X141800000Y-113300000D01*
G75*
G02*
X141950000Y-113450000I0J-150000D01*
G01*
X141950000Y-113750000D01*
G75*
G02*
X141800000Y-113900000I-150000J0D01*
G01*
X140150000Y-113900000D01*
G75*
G02*
X140000000Y-113750000I0J150000D01*
G01*
G37*
G36*
G01*
X140000000Y-115020000D02*
X140000000Y-114720000D01*
G75*
G02*
X140150000Y-114570000I150000J0D01*
G01*
X141800000Y-114570000D01*
G75*
G02*
X141950000Y-114720000I0J-150000D01*
G01*
X141950000Y-115020000D01*
G75*
G02*
X141800000Y-115170000I-150000J0D01*
G01*
X140150000Y-115170000D01*
G75*
G02*
X140000000Y-115020000I0J150000D01*
G01*
G37*
G36*
G01*
X140000000Y-116290000D02*
X140000000Y-115990000D01*
G75*
G02*
X140150000Y-115840000I150000J0D01*
G01*
X141800000Y-115840000D01*
G75*
G02*
X141950000Y-115990000I0J-150000D01*
G01*
X141950000Y-116290000D01*
G75*
G02*
X141800000Y-116440000I-150000J0D01*
G01*
X140150000Y-116440000D01*
G75*
G02*
X140000000Y-116290000I0J150000D01*
G01*
G37*
G36*
G01*
X140000000Y-117560000D02*
X140000000Y-117260000D01*
G75*
G02*
X140150000Y-117110000I150000J0D01*
G01*
X141800000Y-117110000D01*
G75*
G02*
X141950000Y-117260000I0J-150000D01*
G01*
X141950000Y-117560000D01*
G75*
G02*
X141800000Y-117710000I-150000J0D01*
G01*
X140150000Y-117710000D01*
G75*
G02*
X140000000Y-117560000I0J150000D01*
G01*
G37*
G36*
G01*
X135050000Y-117560000D02*
X135050000Y-117260000D01*
G75*
G02*
X135200000Y-117110000I150000J0D01*
G01*
X136850000Y-117110000D01*
G75*
G02*
X137000000Y-117260000I0J-150000D01*
G01*
X137000000Y-117560000D01*
G75*
G02*
X136850000Y-117710000I-150000J0D01*
G01*
X135200000Y-117710000D01*
G75*
G02*
X135050000Y-117560000I0J150000D01*
G01*
G37*
G36*
G01*
X135050000Y-116290000D02*
X135050000Y-115990000D01*
G75*
G02*
X135200000Y-115840000I150000J0D01*
G01*
X136850000Y-115840000D01*
G75*
G02*
X137000000Y-115990000I0J-150000D01*
G01*
X137000000Y-116290000D01*
G75*
G02*
X136850000Y-116440000I-150000J0D01*
G01*
X135200000Y-116440000D01*
G75*
G02*
X135050000Y-116290000I0J150000D01*
G01*
G37*
G36*
G01*
X135050000Y-115020000D02*
X135050000Y-114720000D01*
G75*
G02*
X135200000Y-114570000I150000J0D01*
G01*
X136850000Y-114570000D01*
G75*
G02*
X137000000Y-114720000I0J-150000D01*
G01*
X137000000Y-115020000D01*
G75*
G02*
X136850000Y-115170000I-150000J0D01*
G01*
X135200000Y-115170000D01*
G75*
G02*
X135050000Y-115020000I0J150000D01*
G01*
G37*
G36*
G01*
X135050000Y-113750000D02*
X135050000Y-113450000D01*
G75*
G02*
X135200000Y-113300000I150000J0D01*
G01*
X136850000Y-113300000D01*
G75*
G02*
X137000000Y-113450000I0J-150000D01*
G01*
X137000000Y-113750000D01*
G75*
G02*
X136850000Y-113900000I-150000J0D01*
G01*
X135200000Y-113900000D01*
G75*
G02*
X135050000Y-113750000I0J150000D01*
G01*
G37*
G36*
G01*
X135050000Y-112480000D02*
X135050000Y-112180000D01*
G75*
G02*
X135200000Y-112030000I150000J0D01*
G01*
X136850000Y-112030000D01*
G75*
G02*
X137000000Y-112180000I0J-150000D01*
G01*
X137000000Y-112480000D01*
G75*
G02*
X136850000Y-112630000I-150000J0D01*
G01*
X135200000Y-112630000D01*
G75*
G02*
X135050000Y-112480000I0J150000D01*
G01*
G37*
G36*
G01*
X135050000Y-111210000D02*
X135050000Y-110910000D01*
G75*
G02*
X135200000Y-110760000I150000J0D01*
G01*
X136850000Y-110760000D01*
G75*
G02*
X137000000Y-110910000I0J-150000D01*
G01*
X137000000Y-111210000D01*
G75*
G02*
X136850000Y-111360000I-150000J0D01*
G01*
X135200000Y-111360000D01*
G75*
G02*
X135050000Y-111210000I0J150000D01*
G01*
G37*
G36*
G01*
X135050000Y-109940000D02*
X135050000Y-109640000D01*
G75*
G02*
X135200000Y-109490000I150000J0D01*
G01*
X136850000Y-109490000D01*
G75*
G02*
X137000000Y-109640000I0J-150000D01*
G01*
X137000000Y-109940000D01*
G75*
G02*
X136850000Y-110090000I-150000J0D01*
G01*
X135200000Y-110090000D01*
G75*
G02*
X135050000Y-109940000I0J150000D01*
G01*
G37*
%TD*%
%TO.C,U7*%
G36*
G01*
X181150000Y-109940000D02*
X181150000Y-109640000D01*
G75*
G02*
X181300000Y-109490000I150000J0D01*
G01*
X182950000Y-109490000D01*
G75*
G02*
X183100000Y-109640000I0J-150000D01*
G01*
X183100000Y-109940000D01*
G75*
G02*
X182950000Y-110090000I-150000J0D01*
G01*
X181300000Y-110090000D01*
G75*
G02*
X181150000Y-109940000I0J150000D01*
G01*
G37*
G36*
G01*
X181150000Y-111210000D02*
X181150000Y-110910000D01*
G75*
G02*
X181300000Y-110760000I150000J0D01*
G01*
X182950000Y-110760000D01*
G75*
G02*
X183100000Y-110910000I0J-150000D01*
G01*
X183100000Y-111210000D01*
G75*
G02*
X182950000Y-111360000I-150000J0D01*
G01*
X181300000Y-111360000D01*
G75*
G02*
X181150000Y-111210000I0J150000D01*
G01*
G37*
G36*
G01*
X181150000Y-112480000D02*
X181150000Y-112180000D01*
G75*
G02*
X181300000Y-112030000I150000J0D01*
G01*
X182950000Y-112030000D01*
G75*
G02*
X183100000Y-112180000I0J-150000D01*
G01*
X183100000Y-112480000D01*
G75*
G02*
X182950000Y-112630000I-150000J0D01*
G01*
X181300000Y-112630000D01*
G75*
G02*
X181150000Y-112480000I0J150000D01*
G01*
G37*
G36*
G01*
X181150000Y-113750000D02*
X181150000Y-113450000D01*
G75*
G02*
X181300000Y-113300000I150000J0D01*
G01*
X182950000Y-113300000D01*
G75*
G02*
X183100000Y-113450000I0J-150000D01*
G01*
X183100000Y-113750000D01*
G75*
G02*
X182950000Y-113900000I-150000J0D01*
G01*
X181300000Y-113900000D01*
G75*
G02*
X181150000Y-113750000I0J150000D01*
G01*
G37*
G36*
G01*
X181150000Y-115020000D02*
X181150000Y-114720000D01*
G75*
G02*
X181300000Y-114570000I150000J0D01*
G01*
X182950000Y-114570000D01*
G75*
G02*
X183100000Y-114720000I0J-150000D01*
G01*
X183100000Y-115020000D01*
G75*
G02*
X182950000Y-115170000I-150000J0D01*
G01*
X181300000Y-115170000D01*
G75*
G02*
X181150000Y-115020000I0J150000D01*
G01*
G37*
G36*
G01*
X181150000Y-116290000D02*
X181150000Y-115990000D01*
G75*
G02*
X181300000Y-115840000I150000J0D01*
G01*
X182950000Y-115840000D01*
G75*
G02*
X183100000Y-115990000I0J-150000D01*
G01*
X183100000Y-116290000D01*
G75*
G02*
X182950000Y-116440000I-150000J0D01*
G01*
X181300000Y-116440000D01*
G75*
G02*
X181150000Y-116290000I0J150000D01*
G01*
G37*
G36*
G01*
X181150000Y-117560000D02*
X181150000Y-117260000D01*
G75*
G02*
X181300000Y-117110000I150000J0D01*
G01*
X182950000Y-117110000D01*
G75*
G02*
X183100000Y-117260000I0J-150000D01*
G01*
X183100000Y-117560000D01*
G75*
G02*
X182950000Y-117710000I-150000J0D01*
G01*
X181300000Y-117710000D01*
G75*
G02*
X181150000Y-117560000I0J150000D01*
G01*
G37*
G36*
G01*
X186100000Y-117560000D02*
X186100000Y-117260000D01*
G75*
G02*
X186250000Y-117110000I150000J0D01*
G01*
X187900000Y-117110000D01*
G75*
G02*
X188050000Y-117260000I0J-150000D01*
G01*
X188050000Y-117560000D01*
G75*
G02*
X187900000Y-117710000I-150000J0D01*
G01*
X186250000Y-117710000D01*
G75*
G02*
X186100000Y-117560000I0J150000D01*
G01*
G37*
G36*
G01*
X186100000Y-116290000D02*
X186100000Y-115990000D01*
G75*
G02*
X186250000Y-115840000I150000J0D01*
G01*
X187900000Y-115840000D01*
G75*
G02*
X188050000Y-115990000I0J-150000D01*
G01*
X188050000Y-116290000D01*
G75*
G02*
X187900000Y-116440000I-150000J0D01*
G01*
X186250000Y-116440000D01*
G75*
G02*
X186100000Y-116290000I0J150000D01*
G01*
G37*
G36*
G01*
X186100000Y-115020000D02*
X186100000Y-114720000D01*
G75*
G02*
X186250000Y-114570000I150000J0D01*
G01*
X187900000Y-114570000D01*
G75*
G02*
X188050000Y-114720000I0J-150000D01*
G01*
X188050000Y-115020000D01*
G75*
G02*
X187900000Y-115170000I-150000J0D01*
G01*
X186250000Y-115170000D01*
G75*
G02*
X186100000Y-115020000I0J150000D01*
G01*
G37*
G36*
G01*
X186100000Y-113750000D02*
X186100000Y-113450000D01*
G75*
G02*
X186250000Y-113300000I150000J0D01*
G01*
X187900000Y-113300000D01*
G75*
G02*
X188050000Y-113450000I0J-150000D01*
G01*
X188050000Y-113750000D01*
G75*
G02*
X187900000Y-113900000I-150000J0D01*
G01*
X186250000Y-113900000D01*
G75*
G02*
X186100000Y-113750000I0J150000D01*
G01*
G37*
G36*
G01*
X186100000Y-112480000D02*
X186100000Y-112180000D01*
G75*
G02*
X186250000Y-112030000I150000J0D01*
G01*
X187900000Y-112030000D01*
G75*
G02*
X188050000Y-112180000I0J-150000D01*
G01*
X188050000Y-112480000D01*
G75*
G02*
X187900000Y-112630000I-150000J0D01*
G01*
X186250000Y-112630000D01*
G75*
G02*
X186100000Y-112480000I0J150000D01*
G01*
G37*
G36*
G01*
X186100000Y-111210000D02*
X186100000Y-110910000D01*
G75*
G02*
X186250000Y-110760000I150000J0D01*
G01*
X187900000Y-110760000D01*
G75*
G02*
X188050000Y-110910000I0J-150000D01*
G01*
X188050000Y-111210000D01*
G75*
G02*
X187900000Y-111360000I-150000J0D01*
G01*
X186250000Y-111360000D01*
G75*
G02*
X186100000Y-111210000I0J150000D01*
G01*
G37*
G36*
G01*
X186100000Y-109940000D02*
X186100000Y-109640000D01*
G75*
G02*
X186250000Y-109490000I150000J0D01*
G01*
X187900000Y-109490000D01*
G75*
G02*
X188050000Y-109640000I0J-150000D01*
G01*
X188050000Y-109940000D01*
G75*
G02*
X187900000Y-110090000I-150000J0D01*
G01*
X186250000Y-110090000D01*
G75*
G02*
X186100000Y-109940000I0J150000D01*
G01*
G37*
%TD*%
D23*
%TO.C,Y1*%
X124100000Y-99100000D03*
X124100000Y-93600000D03*
%TD*%
D24*
%TO.C,BT1*%
X153250000Y-94100000D03*
X182550000Y-94100000D03*
%TD*%
%TO.C,U32*%
G36*
G01*
X163605000Y-76350000D02*
X163905000Y-76350000D01*
G75*
G02*
X164055000Y-76500000I0J-150000D01*
G01*
X164055000Y-78150000D01*
G75*
G02*
X163905000Y-78300000I-150000J0D01*
G01*
X163605000Y-78300000D01*
G75*
G02*
X163455000Y-78150000I0J150000D01*
G01*
X163455000Y-76500000D01*
G75*
G02*
X163605000Y-76350000I150000J0D01*
G01*
G37*
G36*
G01*
X162335000Y-76350000D02*
X162635000Y-76350000D01*
G75*
G02*
X162785000Y-76500000I0J-150000D01*
G01*
X162785000Y-78150000D01*
G75*
G02*
X162635000Y-78300000I-150000J0D01*
G01*
X162335000Y-78300000D01*
G75*
G02*
X162185000Y-78150000I0J150000D01*
G01*
X162185000Y-76500000D01*
G75*
G02*
X162335000Y-76350000I150000J0D01*
G01*
G37*
G36*
G01*
X161065000Y-76350000D02*
X161365000Y-76350000D01*
G75*
G02*
X161515000Y-76500000I0J-150000D01*
G01*
X161515000Y-78150000D01*
G75*
G02*
X161365000Y-78300000I-150000J0D01*
G01*
X161065000Y-78300000D01*
G75*
G02*
X160915000Y-78150000I0J150000D01*
G01*
X160915000Y-76500000D01*
G75*
G02*
X161065000Y-76350000I150000J0D01*
G01*
G37*
G36*
G01*
X159795000Y-76350000D02*
X160095000Y-76350000D01*
G75*
G02*
X160245000Y-76500000I0J-150000D01*
G01*
X160245000Y-78150000D01*
G75*
G02*
X160095000Y-78300000I-150000J0D01*
G01*
X159795000Y-78300000D01*
G75*
G02*
X159645000Y-78150000I0J150000D01*
G01*
X159645000Y-76500000D01*
G75*
G02*
X159795000Y-76350000I150000J0D01*
G01*
G37*
G36*
G01*
X159795000Y-81300000D02*
X160095000Y-81300000D01*
G75*
G02*
X160245000Y-81450000I0J-150000D01*
G01*
X160245000Y-83100000D01*
G75*
G02*
X160095000Y-83250000I-150000J0D01*
G01*
X159795000Y-83250000D01*
G75*
G02*
X159645000Y-83100000I0J150000D01*
G01*
X159645000Y-81450000D01*
G75*
G02*
X159795000Y-81300000I150000J0D01*
G01*
G37*
G36*
G01*
X161065000Y-81300000D02*
X161365000Y-81300000D01*
G75*
G02*
X161515000Y-81450000I0J-150000D01*
G01*
X161515000Y-83100000D01*
G75*
G02*
X161365000Y-83250000I-150000J0D01*
G01*
X161065000Y-83250000D01*
G75*
G02*
X160915000Y-83100000I0J150000D01*
G01*
X160915000Y-81450000D01*
G75*
G02*
X161065000Y-81300000I150000J0D01*
G01*
G37*
G36*
G01*
X162335000Y-81300000D02*
X162635000Y-81300000D01*
G75*
G02*
X162785000Y-81450000I0J-150000D01*
G01*
X162785000Y-83100000D01*
G75*
G02*
X162635000Y-83250000I-150000J0D01*
G01*
X162335000Y-83250000D01*
G75*
G02*
X162185000Y-83100000I0J150000D01*
G01*
X162185000Y-81450000D01*
G75*
G02*
X162335000Y-81300000I150000J0D01*
G01*
G37*
G36*
G01*
X163605000Y-81300000D02*
X163905000Y-81300000D01*
G75*
G02*
X164055000Y-81450000I0J-150000D01*
G01*
X164055000Y-83100000D01*
G75*
G02*
X163905000Y-83250000I-150000J0D01*
G01*
X163605000Y-83250000D01*
G75*
G02*
X163455000Y-83100000I0J150000D01*
G01*
X163455000Y-81450000D01*
G75*
G02*
X163605000Y-81300000I150000J0D01*
G01*
G37*
%TD*%
D25*
%TO.C,Y2*%
X162775000Y-74350000D03*
X160925000Y-74350000D03*
%TD*%
M02*
