%TF.GenerationSoftware,KiCad,Pcbnew,5.1.8+dfsg1-1+b1*%
%TF.CreationDate,2020-12-27T19:17:36+02:00*%
%TF.ProjectId,nixiedisp,6e697869-6564-4697-9370-2e6b69636164,rev?*%
%TF.SameCoordinates,Original*%
%TF.FileFunction,Paste,Bot*%
%TF.FilePolarity,Positive*%
%FSLAX46Y46*%
G04 Gerber Fmt 4.6, Leading zero omitted, Abs format (unit mm)*
G04 Created by KiCad (PCBNEW 5.1.8+dfsg1-1+b1) date 2020-12-27 19:17:36*
%MOMM*%
%LPD*%
G01*
G04 APERTURE LIST*
%ADD10R,0.800000X0.900000*%
%ADD11R,0.900000X0.800000*%
%ADD12R,3.600000X2.600000*%
G04 APERTURE END LIST*
%TO.C,C1*%
G36*
G01*
X93549999Y-98075000D02*
X94450001Y-98075000D01*
G75*
G02*
X94700000Y-98324999I0J-249999D01*
G01*
X94700000Y-98975001D01*
G75*
G02*
X94450001Y-99225000I-249999J0D01*
G01*
X93549999Y-99225000D01*
G75*
G02*
X93300000Y-98975001I0J249999D01*
G01*
X93300000Y-98324999D01*
G75*
G02*
X93549999Y-98075000I249999J0D01*
G01*
G37*
G36*
G01*
X93549999Y-100125000D02*
X94450001Y-100125000D01*
G75*
G02*
X94700000Y-100374999I0J-249999D01*
G01*
X94700000Y-101025001D01*
G75*
G02*
X94450001Y-101275000I-249999J0D01*
G01*
X93549999Y-101275000D01*
G75*
G02*
X93300000Y-101025001I0J249999D01*
G01*
X93300000Y-100374999D01*
G75*
G02*
X93549999Y-100125000I249999J0D01*
G01*
G37*
%TD*%
%TO.C,C9*%
G36*
G01*
X116799999Y-96950000D02*
X117700001Y-96950000D01*
G75*
G02*
X117950000Y-97199999I0J-249999D01*
G01*
X117950000Y-97850001D01*
G75*
G02*
X117700001Y-98100000I-249999J0D01*
G01*
X116799999Y-98100000D01*
G75*
G02*
X116550000Y-97850001I0J249999D01*
G01*
X116550000Y-97199999D01*
G75*
G02*
X116799999Y-96950000I249999J0D01*
G01*
G37*
G36*
G01*
X116799999Y-99000000D02*
X117700001Y-99000000D01*
G75*
G02*
X117950000Y-99249999I0J-249999D01*
G01*
X117950000Y-99900001D01*
G75*
G02*
X117700001Y-100150000I-249999J0D01*
G01*
X116799999Y-100150000D01*
G75*
G02*
X116550000Y-99900001I0J249999D01*
G01*
X116550000Y-99249999D01*
G75*
G02*
X116799999Y-99000000I249999J0D01*
G01*
G37*
%TD*%
%TO.C,C10*%
G36*
G01*
X147999999Y-96650000D02*
X148900001Y-96650000D01*
G75*
G02*
X149150000Y-96899999I0J-249999D01*
G01*
X149150000Y-97550001D01*
G75*
G02*
X148900001Y-97800000I-249999J0D01*
G01*
X147999999Y-97800000D01*
G75*
G02*
X147750000Y-97550001I0J249999D01*
G01*
X147750000Y-96899999D01*
G75*
G02*
X147999999Y-96650000I249999J0D01*
G01*
G37*
G36*
G01*
X147999999Y-98700000D02*
X148900001Y-98700000D01*
G75*
G02*
X149150000Y-98949999I0J-249999D01*
G01*
X149150000Y-99600001D01*
G75*
G02*
X148900001Y-99850000I-249999J0D01*
G01*
X147999999Y-99850000D01*
G75*
G02*
X147750000Y-99600001I0J249999D01*
G01*
X147750000Y-98949999D01*
G75*
G02*
X147999999Y-98700000I249999J0D01*
G01*
G37*
%TD*%
%TO.C,C15*%
G36*
G01*
X97150001Y-103775000D02*
X96249999Y-103775000D01*
G75*
G02*
X96000000Y-103525001I0J249999D01*
G01*
X96000000Y-102874999D01*
G75*
G02*
X96249999Y-102625000I249999J0D01*
G01*
X97150001Y-102625000D01*
G75*
G02*
X97400000Y-102874999I0J-249999D01*
G01*
X97400000Y-103525001D01*
G75*
G02*
X97150001Y-103775000I-249999J0D01*
G01*
G37*
G36*
G01*
X97150001Y-101725000D02*
X96249999Y-101725000D01*
G75*
G02*
X96000000Y-101475001I0J249999D01*
G01*
X96000000Y-100824999D01*
G75*
G02*
X96249999Y-100575000I249999J0D01*
G01*
X97150001Y-100575000D01*
G75*
G02*
X97400000Y-100824999I0J-249999D01*
G01*
X97400000Y-101475001D01*
G75*
G02*
X97150001Y-101725000I-249999J0D01*
G01*
G37*
%TD*%
%TO.C,C17*%
G36*
G01*
X87750000Y-108250001D02*
X87750000Y-107349999D01*
G75*
G02*
X87999999Y-107100000I249999J0D01*
G01*
X88650001Y-107100000D01*
G75*
G02*
X88900000Y-107349999I0J-249999D01*
G01*
X88900000Y-108250001D01*
G75*
G02*
X88650001Y-108500000I-249999J0D01*
G01*
X87999999Y-108500000D01*
G75*
G02*
X87750000Y-108250001I0J249999D01*
G01*
G37*
G36*
G01*
X85700000Y-108250001D02*
X85700000Y-107349999D01*
G75*
G02*
X85949999Y-107100000I249999J0D01*
G01*
X86600001Y-107100000D01*
G75*
G02*
X86850000Y-107349999I0J-249999D01*
G01*
X86850000Y-108250001D01*
G75*
G02*
X86600001Y-108500000I-249999J0D01*
G01*
X85949999Y-108500000D01*
G75*
G02*
X85700000Y-108250001I0J249999D01*
G01*
G37*
%TD*%
%TO.C,C20*%
G36*
G01*
X110750000Y-108250001D02*
X110750000Y-107349999D01*
G75*
G02*
X110999999Y-107100000I249999J0D01*
G01*
X111650001Y-107100000D01*
G75*
G02*
X111900000Y-107349999I0J-249999D01*
G01*
X111900000Y-108250001D01*
G75*
G02*
X111650001Y-108500000I-249999J0D01*
G01*
X110999999Y-108500000D01*
G75*
G02*
X110750000Y-108250001I0J249999D01*
G01*
G37*
G36*
G01*
X108700000Y-108250001D02*
X108700000Y-107349999D01*
G75*
G02*
X108949999Y-107100000I249999J0D01*
G01*
X109600001Y-107100000D01*
G75*
G02*
X109850000Y-107349999I0J-249999D01*
G01*
X109850000Y-108250001D01*
G75*
G02*
X109600001Y-108500000I-249999J0D01*
G01*
X108949999Y-108500000D01*
G75*
G02*
X108700000Y-108250001I0J249999D01*
G01*
G37*
%TD*%
%TO.C,C23*%
G36*
G01*
X131700000Y-108250001D02*
X131700000Y-107349999D01*
G75*
G02*
X131949999Y-107100000I249999J0D01*
G01*
X132600001Y-107100000D01*
G75*
G02*
X132850000Y-107349999I0J-249999D01*
G01*
X132850000Y-108250001D01*
G75*
G02*
X132600001Y-108500000I-249999J0D01*
G01*
X131949999Y-108500000D01*
G75*
G02*
X131700000Y-108250001I0J249999D01*
G01*
G37*
G36*
G01*
X133750000Y-108250001D02*
X133750000Y-107349999D01*
G75*
G02*
X133999999Y-107100000I249999J0D01*
G01*
X134650001Y-107100000D01*
G75*
G02*
X134900000Y-107349999I0J-249999D01*
G01*
X134900000Y-108250001D01*
G75*
G02*
X134650001Y-108500000I-249999J0D01*
G01*
X133999999Y-108500000D01*
G75*
G02*
X133750000Y-108250001I0J249999D01*
G01*
G37*
%TD*%
%TO.C,C26*%
G36*
G01*
X177700000Y-108250001D02*
X177700000Y-107349999D01*
G75*
G02*
X177949999Y-107100000I249999J0D01*
G01*
X178600001Y-107100000D01*
G75*
G02*
X178850000Y-107349999I0J-249999D01*
G01*
X178850000Y-108250001D01*
G75*
G02*
X178600001Y-108500000I-249999J0D01*
G01*
X177949999Y-108500000D01*
G75*
G02*
X177700000Y-108250001I0J249999D01*
G01*
G37*
G36*
G01*
X179750000Y-108250001D02*
X179750000Y-107349999D01*
G75*
G02*
X179999999Y-107100000I249999J0D01*
G01*
X180650001Y-107100000D01*
G75*
G02*
X180900000Y-107349999I0J-249999D01*
G01*
X180900000Y-108250001D01*
G75*
G02*
X180650001Y-108500000I-249999J0D01*
G01*
X179999999Y-108500000D01*
G75*
G02*
X179750000Y-108250001I0J249999D01*
G01*
G37*
%TD*%
%TO.C,C29*%
G36*
G01*
X200700000Y-108250001D02*
X200700000Y-107349999D01*
G75*
G02*
X200949999Y-107100000I249999J0D01*
G01*
X201600001Y-107100000D01*
G75*
G02*
X201850000Y-107349999I0J-249999D01*
G01*
X201850000Y-108250001D01*
G75*
G02*
X201600001Y-108500000I-249999J0D01*
G01*
X200949999Y-108500000D01*
G75*
G02*
X200700000Y-108250001I0J249999D01*
G01*
G37*
G36*
G01*
X202750000Y-108250001D02*
X202750000Y-107349999D01*
G75*
G02*
X202999999Y-107100000I249999J0D01*
G01*
X203650001Y-107100000D01*
G75*
G02*
X203900000Y-107349999I0J-249999D01*
G01*
X203900000Y-108250001D01*
G75*
G02*
X203650001Y-108500000I-249999J0D01*
G01*
X202999999Y-108500000D01*
G75*
G02*
X202750000Y-108250001I0J249999D01*
G01*
G37*
%TD*%
%TO.C,C32*%
G36*
G01*
X156750000Y-108250001D02*
X156750000Y-107349999D01*
G75*
G02*
X156999999Y-107100000I249999J0D01*
G01*
X157650001Y-107100000D01*
G75*
G02*
X157900000Y-107349999I0J-249999D01*
G01*
X157900000Y-108250001D01*
G75*
G02*
X157650001Y-108500000I-249999J0D01*
G01*
X156999999Y-108500000D01*
G75*
G02*
X156750000Y-108250001I0J249999D01*
G01*
G37*
G36*
G01*
X154700000Y-108250001D02*
X154700000Y-107349999D01*
G75*
G02*
X154949999Y-107100000I249999J0D01*
G01*
X155600001Y-107100000D01*
G75*
G02*
X155850000Y-107349999I0J-249999D01*
G01*
X155850000Y-108250001D01*
G75*
G02*
X155600001Y-108500000I-249999J0D01*
G01*
X154949999Y-108500000D01*
G75*
G02*
X154700000Y-108250001I0J249999D01*
G01*
G37*
%TD*%
D10*
%TO.C,Q3*%
X93500000Y-135000000D03*
X94450000Y-133000000D03*
X92550000Y-133000000D03*
%TD*%
%TO.C,Q4*%
X85050000Y-130900000D03*
X86000000Y-128900000D03*
X84100000Y-128900000D03*
%TD*%
D11*
%TO.C,Q5*%
X85600000Y-154850000D03*
X83600000Y-153900000D03*
X83600000Y-155800000D03*
%TD*%
D10*
%TO.C,Q6*%
X93000000Y-155500000D03*
X92050000Y-157500000D03*
X93950000Y-157500000D03*
%TD*%
%TO.C,Q7*%
X99000000Y-137500000D03*
X99950000Y-135500000D03*
X98050000Y-135500000D03*
%TD*%
%TO.C,Q8*%
X94700000Y-126400000D03*
X95650000Y-124400000D03*
X93750000Y-124400000D03*
%TD*%
%TO.C,Q9*%
X87550000Y-133000000D03*
X89450000Y-133000000D03*
X88500000Y-135000000D03*
%TD*%
%TO.C,Q10*%
X82450000Y-135300000D03*
X84350000Y-135300000D03*
X83400000Y-137300000D03*
%TD*%
%TO.C,Q11*%
X89950000Y-157500000D03*
X88050000Y-157500000D03*
X89000000Y-155500000D03*
%TD*%
%TO.C,Q12*%
X97500000Y-156500000D03*
X95600000Y-156500000D03*
X96550000Y-154500000D03*
%TD*%
%TO.C,Q13*%
X97500000Y-133000000D03*
X98450000Y-131000000D03*
X96550000Y-131000000D03*
%TD*%
%TO.C,Q14*%
X115550000Y-133050000D03*
X117450000Y-133050000D03*
X116500000Y-135050000D03*
%TD*%
%TO.C,Q15*%
X107100000Y-128900000D03*
X109000000Y-128900000D03*
X108050000Y-130900000D03*
%TD*%
%TO.C,Q16*%
X109450000Y-156500000D03*
X107550000Y-156500000D03*
X108500000Y-154500000D03*
%TD*%
%TO.C,Q17*%
X116950000Y-157500000D03*
X115050000Y-157500000D03*
X116000000Y-155500000D03*
%TD*%
%TO.C,Q18*%
X121050000Y-135500000D03*
X122950000Y-135500000D03*
X122000000Y-137500000D03*
%TD*%
%TO.C,Q19*%
X117700000Y-126400000D03*
X118650000Y-124400000D03*
X116750000Y-124400000D03*
%TD*%
%TO.C,Q20*%
X111500000Y-135050000D03*
X112450000Y-133050000D03*
X110550000Y-133050000D03*
%TD*%
%TO.C,Q21*%
X106400000Y-137300000D03*
X107350000Y-135300000D03*
X105450000Y-135300000D03*
%TD*%
%TO.C,Q22*%
X112000000Y-155500000D03*
X111050000Y-157500000D03*
X112950000Y-157500000D03*
%TD*%
%TO.C,Q23*%
X119550000Y-154500000D03*
X118600000Y-156500000D03*
X120500000Y-156500000D03*
%TD*%
%TO.C,Q24*%
X119550000Y-131000000D03*
X121450000Y-131000000D03*
X120500000Y-133000000D03*
%TD*%
%TO.C,Q25*%
X139500000Y-135000000D03*
X140450000Y-133000000D03*
X138550000Y-133000000D03*
%TD*%
%TO.C,Q26*%
X130100000Y-128900000D03*
X132000000Y-128900000D03*
X131050000Y-130900000D03*
%TD*%
%TO.C,Q27*%
X131500000Y-154500000D03*
X130550000Y-156500000D03*
X132450000Y-156500000D03*
%TD*%
%TO.C,Q28*%
X139000000Y-155500000D03*
X138050000Y-157500000D03*
X139950000Y-157500000D03*
%TD*%
%TO.C,Q29*%
X144050000Y-135500000D03*
X145950000Y-135500000D03*
X145000000Y-137500000D03*
%TD*%
%TO.C,Q30*%
X139750000Y-124400000D03*
X141650000Y-124400000D03*
X140700000Y-126400000D03*
%TD*%
%TO.C,Q31*%
X133550000Y-133000000D03*
X135450000Y-133000000D03*
X134500000Y-135000000D03*
%TD*%
%TO.C,Q32*%
X128450000Y-135350000D03*
X130350000Y-135350000D03*
X129400000Y-137350000D03*
%TD*%
%TO.C,Q33*%
X135950000Y-157500000D03*
X134050000Y-157500000D03*
X135000000Y-155500000D03*
%TD*%
%TO.C,Q34*%
X143500000Y-156500000D03*
X141600000Y-156500000D03*
X142550000Y-154500000D03*
%TD*%
%TO.C,Q35*%
X143500000Y-133000000D03*
X144450000Y-131000000D03*
X142550000Y-131000000D03*
%TD*%
%TO.C,Q36*%
X185500000Y-135000000D03*
X186450000Y-133000000D03*
X184550000Y-133000000D03*
%TD*%
%TO.C,Q37*%
X177050000Y-130900000D03*
X178000000Y-128900000D03*
X176100000Y-128900000D03*
%TD*%
%TO.C,Q38*%
X178450000Y-156500000D03*
X176550000Y-156500000D03*
X177500000Y-154500000D03*
%TD*%
%TO.C,Q39*%
X185000000Y-155500000D03*
X184050000Y-157500000D03*
X185950000Y-157500000D03*
%TD*%
%TO.C,Q40*%
X191000000Y-137500000D03*
X191950000Y-135500000D03*
X190050000Y-135500000D03*
%TD*%
%TO.C,Q41*%
X186700000Y-126400000D03*
X187650000Y-124400000D03*
X185750000Y-124400000D03*
%TD*%
%TO.C,Q42*%
X180500000Y-135050000D03*
X181450000Y-133050000D03*
X179550000Y-133050000D03*
%TD*%
%TO.C,Q43*%
X174450000Y-135300000D03*
X176350000Y-135300000D03*
X175400000Y-137300000D03*
%TD*%
%TO.C,Q44*%
X181000000Y-155500000D03*
X180050000Y-157500000D03*
X181950000Y-157500000D03*
%TD*%
%TO.C,Q45*%
X188550000Y-154500000D03*
X187600000Y-156500000D03*
X189500000Y-156500000D03*
%TD*%
%TO.C,Q46*%
X188550000Y-131000000D03*
X190450000Y-131000000D03*
X189500000Y-133000000D03*
%TD*%
%TO.C,Q47*%
X207500000Y-133000000D03*
X209400000Y-133000000D03*
X208450000Y-135000000D03*
%TD*%
%TO.C,Q48*%
X199100000Y-128900000D03*
X201000000Y-128900000D03*
X200050000Y-130900000D03*
%TD*%
%TO.C,Q49*%
X198250000Y-153000000D03*
X197300000Y-155000000D03*
X199200000Y-155000000D03*
%TD*%
%TO.C,Q50*%
X207150000Y-155200000D03*
X206200000Y-157200000D03*
X208100000Y-157200000D03*
%TD*%
%TO.C,Q51*%
X214000000Y-137500000D03*
X214950000Y-135500000D03*
X213050000Y-135500000D03*
%TD*%
%TO.C,Q52*%
X209700000Y-126400000D03*
X210650000Y-124400000D03*
X208750000Y-124400000D03*
%TD*%
%TO.C,Q53*%
X202550000Y-133000000D03*
X204450000Y-133000000D03*
X203500000Y-135000000D03*
%TD*%
%TO.C,Q54*%
X197450000Y-135300000D03*
X199350000Y-135300000D03*
X198400000Y-137300000D03*
%TD*%
%TO.C,Q55*%
X203450000Y-157550000D03*
X201550000Y-157550000D03*
X202500000Y-155550000D03*
%TD*%
%TO.C,Q56*%
X212950000Y-156100000D03*
X211050000Y-156100000D03*
X212000000Y-154100000D03*
%TD*%
%TO.C,Q57*%
X212500000Y-133000000D03*
X213450000Y-131000000D03*
X211550000Y-131000000D03*
%TD*%
%TO.C,Q58*%
X162500000Y-135000000D03*
X163450000Y-133000000D03*
X161550000Y-133000000D03*
%TD*%
%TO.C,Q59*%
X153100000Y-128900000D03*
X155000000Y-128900000D03*
X154050000Y-130900000D03*
%TD*%
%TO.C,Q60*%
X153200000Y-154950000D03*
X151300000Y-154950000D03*
X152250000Y-152950000D03*
%TD*%
%TO.C,Q61*%
X162100000Y-157150000D03*
X160200000Y-157150000D03*
X161150000Y-155150000D03*
%TD*%
%TO.C,Q62*%
X168000000Y-137500000D03*
X168950000Y-135500000D03*
X167050000Y-135500000D03*
%TD*%
%TO.C,Q63*%
X162750000Y-124400000D03*
X164650000Y-124400000D03*
X163700000Y-126400000D03*
%TD*%
%TO.C,Q64*%
X156550000Y-133000000D03*
X158450000Y-133000000D03*
X157500000Y-135000000D03*
%TD*%
%TO.C,Q65*%
X152400000Y-137300000D03*
X153350000Y-135300000D03*
X151450000Y-135300000D03*
%TD*%
%TO.C,Q66*%
X157450000Y-157500000D03*
X155550000Y-157500000D03*
X156500000Y-155500000D03*
%TD*%
%TO.C,Q67*%
X166950000Y-156050000D03*
X165050000Y-156050000D03*
X166000000Y-154050000D03*
%TD*%
%TO.C,Q68*%
X166500000Y-133000000D03*
X167450000Y-131000000D03*
X165550000Y-131000000D03*
%TD*%
%TO.C,R7*%
G36*
G01*
X90925000Y-104750001D02*
X90925000Y-103849999D01*
G75*
G02*
X91174999Y-103600000I249999J0D01*
G01*
X91825001Y-103600000D01*
G75*
G02*
X92075000Y-103849999I0J-249999D01*
G01*
X92075000Y-104750001D01*
G75*
G02*
X91825001Y-105000000I-249999J0D01*
G01*
X91174999Y-105000000D01*
G75*
G02*
X90925000Y-104750001I0J249999D01*
G01*
G37*
G36*
G01*
X92975000Y-104750001D02*
X92975000Y-103849999D01*
G75*
G02*
X93224999Y-103600000I249999J0D01*
G01*
X93875001Y-103600000D01*
G75*
G02*
X94125000Y-103849999I0J-249999D01*
G01*
X94125000Y-104750001D01*
G75*
G02*
X93875001Y-105000000I-249999J0D01*
G01*
X93224999Y-105000000D01*
G75*
G02*
X92975000Y-104750001I0J249999D01*
G01*
G37*
%TD*%
%TO.C,R8*%
G36*
G01*
X97150001Y-96925000D02*
X96249999Y-96925000D01*
G75*
G02*
X96000000Y-96675001I0J249999D01*
G01*
X96000000Y-96024999D01*
G75*
G02*
X96249999Y-95775000I249999J0D01*
G01*
X97150001Y-95775000D01*
G75*
G02*
X97400000Y-96024999I0J-249999D01*
G01*
X97400000Y-96675001D01*
G75*
G02*
X97150001Y-96925000I-249999J0D01*
G01*
G37*
G36*
G01*
X97150001Y-98975000D02*
X96249999Y-98975000D01*
G75*
G02*
X96000000Y-98725001I0J249999D01*
G01*
X96000000Y-98074999D01*
G75*
G02*
X96249999Y-97825000I249999J0D01*
G01*
X97150001Y-97825000D01*
G75*
G02*
X97400000Y-98074999I0J-249999D01*
G01*
X97400000Y-98725001D01*
G75*
G02*
X97150001Y-98975000I-249999J0D01*
G01*
G37*
%TD*%
%TO.C,R9*%
G36*
G01*
X91925000Y-136749999D02*
X91925000Y-137650001D01*
G75*
G02*
X91675001Y-137900000I-249999J0D01*
G01*
X91024999Y-137900000D01*
G75*
G02*
X90775000Y-137650001I0J249999D01*
G01*
X90775000Y-136749999D01*
G75*
G02*
X91024999Y-136500000I249999J0D01*
G01*
X91675001Y-136500000D01*
G75*
G02*
X91925000Y-136749999I0J-249999D01*
G01*
G37*
G36*
G01*
X93975000Y-136749999D02*
X93975000Y-137650001D01*
G75*
G02*
X93725001Y-137900000I-249999J0D01*
G01*
X93074999Y-137900000D01*
G75*
G02*
X92825000Y-137650001I0J249999D01*
G01*
X92825000Y-136749999D01*
G75*
G02*
X93074999Y-136500000I249999J0D01*
G01*
X93725001Y-136500000D01*
G75*
G02*
X93975000Y-136749999I0J-249999D01*
G01*
G37*
%TD*%
%TO.C,R10*%
G36*
G01*
X117000000Y-136799999D02*
X117000000Y-137700001D01*
G75*
G02*
X116750001Y-137950000I-249999J0D01*
G01*
X116099999Y-137950000D01*
G75*
G02*
X115850000Y-137700001I0J249999D01*
G01*
X115850000Y-136799999D01*
G75*
G02*
X116099999Y-136550000I249999J0D01*
G01*
X116750001Y-136550000D01*
G75*
G02*
X117000000Y-136799999I0J-249999D01*
G01*
G37*
G36*
G01*
X114950000Y-136799999D02*
X114950000Y-137700001D01*
G75*
G02*
X114700001Y-137950000I-249999J0D01*
G01*
X114049999Y-137950000D01*
G75*
G02*
X113800000Y-137700001I0J249999D01*
G01*
X113800000Y-136799999D01*
G75*
G02*
X114049999Y-136550000I249999J0D01*
G01*
X114700001Y-136550000D01*
G75*
G02*
X114950000Y-136799999I0J-249999D01*
G01*
G37*
%TD*%
%TO.C,R11*%
G36*
G01*
X137950000Y-136749999D02*
X137950000Y-137650001D01*
G75*
G02*
X137700001Y-137900000I-249999J0D01*
G01*
X137049999Y-137900000D01*
G75*
G02*
X136800000Y-137650001I0J249999D01*
G01*
X136800000Y-136749999D01*
G75*
G02*
X137049999Y-136500000I249999J0D01*
G01*
X137700001Y-136500000D01*
G75*
G02*
X137950000Y-136749999I0J-249999D01*
G01*
G37*
G36*
G01*
X140000000Y-136749999D02*
X140000000Y-137650001D01*
G75*
G02*
X139750001Y-137900000I-249999J0D01*
G01*
X139099999Y-137900000D01*
G75*
G02*
X138850000Y-137650001I0J249999D01*
G01*
X138850000Y-136749999D01*
G75*
G02*
X139099999Y-136500000I249999J0D01*
G01*
X139750001Y-136500000D01*
G75*
G02*
X140000000Y-136749999I0J-249999D01*
G01*
G37*
%TD*%
%TO.C,R12*%
G36*
G01*
X162975000Y-136749999D02*
X162975000Y-137650001D01*
G75*
G02*
X162725001Y-137900000I-249999J0D01*
G01*
X162074999Y-137900000D01*
G75*
G02*
X161825000Y-137650001I0J249999D01*
G01*
X161825000Y-136749999D01*
G75*
G02*
X162074999Y-136500000I249999J0D01*
G01*
X162725001Y-136500000D01*
G75*
G02*
X162975000Y-136749999I0J-249999D01*
G01*
G37*
G36*
G01*
X160925000Y-136749999D02*
X160925000Y-137650001D01*
G75*
G02*
X160675001Y-137900000I-249999J0D01*
G01*
X160024999Y-137900000D01*
G75*
G02*
X159775000Y-137650001I0J249999D01*
G01*
X159775000Y-136749999D01*
G75*
G02*
X160024999Y-136500000I249999J0D01*
G01*
X160675001Y-136500000D01*
G75*
G02*
X160925000Y-136749999I0J-249999D01*
G01*
G37*
%TD*%
%TO.C,R13*%
G36*
G01*
X183925000Y-136749999D02*
X183925000Y-137650001D01*
G75*
G02*
X183675001Y-137900000I-249999J0D01*
G01*
X183024999Y-137900000D01*
G75*
G02*
X182775000Y-137650001I0J249999D01*
G01*
X182775000Y-136749999D01*
G75*
G02*
X183024999Y-136500000I249999J0D01*
G01*
X183675001Y-136500000D01*
G75*
G02*
X183925000Y-136749999I0J-249999D01*
G01*
G37*
G36*
G01*
X185975000Y-136749999D02*
X185975000Y-137650001D01*
G75*
G02*
X185725001Y-137900000I-249999J0D01*
G01*
X185074999Y-137900000D01*
G75*
G02*
X184825000Y-137650001I0J249999D01*
G01*
X184825000Y-136749999D01*
G75*
G02*
X185074999Y-136500000I249999J0D01*
G01*
X185725001Y-136500000D01*
G75*
G02*
X185975000Y-136749999I0J-249999D01*
G01*
G37*
%TD*%
%TO.C,R14*%
G36*
G01*
X208975000Y-136749999D02*
X208975000Y-137650001D01*
G75*
G02*
X208725001Y-137900000I-249999J0D01*
G01*
X208074999Y-137900000D01*
G75*
G02*
X207825000Y-137650001I0J249999D01*
G01*
X207825000Y-136749999D01*
G75*
G02*
X208074999Y-136500000I249999J0D01*
G01*
X208725001Y-136500000D01*
G75*
G02*
X208975000Y-136749999I0J-249999D01*
G01*
G37*
G36*
G01*
X206925000Y-136749999D02*
X206925000Y-137650001D01*
G75*
G02*
X206675001Y-137900000I-249999J0D01*
G01*
X206024999Y-137900000D01*
G75*
G02*
X205775000Y-137650001I0J249999D01*
G01*
X205775000Y-136749999D01*
G75*
G02*
X206024999Y-136500000I249999J0D01*
G01*
X206675001Y-136500000D01*
G75*
G02*
X206925000Y-136749999I0J-249999D01*
G01*
G37*
%TD*%
%TO.C,R15*%
G36*
G01*
X94650001Y-131325000D02*
X93749999Y-131325000D01*
G75*
G02*
X93500000Y-131075001I0J249999D01*
G01*
X93500000Y-130424999D01*
G75*
G02*
X93749999Y-130175000I249999J0D01*
G01*
X94650001Y-130175000D01*
G75*
G02*
X94900000Y-130424999I0J-249999D01*
G01*
X94900000Y-131075001D01*
G75*
G02*
X94650001Y-131325000I-249999J0D01*
G01*
G37*
G36*
G01*
X94650001Y-129275000D02*
X93749999Y-129275000D01*
G75*
G02*
X93500000Y-129025001I0J249999D01*
G01*
X93500000Y-128374999D01*
G75*
G02*
X93749999Y-128125000I249999J0D01*
G01*
X94650001Y-128125000D01*
G75*
G02*
X94900000Y-128374999I0J-249999D01*
G01*
X94900000Y-129025001D01*
G75*
G02*
X94650001Y-129275000I-249999J0D01*
G01*
G37*
%TD*%
%TO.C,R16*%
G36*
G01*
X85425000Y-127150001D02*
X85425000Y-126249999D01*
G75*
G02*
X85674999Y-126000000I249999J0D01*
G01*
X86325001Y-126000000D01*
G75*
G02*
X86575000Y-126249999I0J-249999D01*
G01*
X86575000Y-127150001D01*
G75*
G02*
X86325001Y-127400000I-249999J0D01*
G01*
X85674999Y-127400000D01*
G75*
G02*
X85425000Y-127150001I0J249999D01*
G01*
G37*
G36*
G01*
X83375000Y-127150001D02*
X83375000Y-126249999D01*
G75*
G02*
X83624999Y-126000000I249999J0D01*
G01*
X84275001Y-126000000D01*
G75*
G02*
X84525000Y-126249999I0J-249999D01*
G01*
X84525000Y-127150001D01*
G75*
G02*
X84275001Y-127400000I-249999J0D01*
G01*
X83624999Y-127400000D01*
G75*
G02*
X83375000Y-127150001I0J249999D01*
G01*
G37*
%TD*%
%TO.C,R17*%
G36*
G01*
X82200001Y-150600000D02*
X81299999Y-150600000D01*
G75*
G02*
X81050000Y-150350001I0J249999D01*
G01*
X81050000Y-149699999D01*
G75*
G02*
X81299999Y-149450000I249999J0D01*
G01*
X82200001Y-149450000D01*
G75*
G02*
X82450000Y-149699999I0J-249999D01*
G01*
X82450000Y-150350001D01*
G75*
G02*
X82200001Y-150600000I-249999J0D01*
G01*
G37*
G36*
G01*
X82200001Y-152650000D02*
X81299999Y-152650000D01*
G75*
G02*
X81050000Y-152400001I0J249999D01*
G01*
X81050000Y-151749999D01*
G75*
G02*
X81299999Y-151500000I249999J0D01*
G01*
X82200001Y-151500000D01*
G75*
G02*
X82450000Y-151749999I0J-249999D01*
G01*
X82450000Y-152400001D01*
G75*
G02*
X82200001Y-152650000I-249999J0D01*
G01*
G37*
%TD*%
%TO.C,R18*%
G36*
G01*
X94675000Y-159549999D02*
X94675000Y-160450001D01*
G75*
G02*
X94425001Y-160700000I-249999J0D01*
G01*
X93774999Y-160700000D01*
G75*
G02*
X93525000Y-160450001I0J249999D01*
G01*
X93525000Y-159549999D01*
G75*
G02*
X93774999Y-159300000I249999J0D01*
G01*
X94425001Y-159300000D01*
G75*
G02*
X94675000Y-159549999I0J-249999D01*
G01*
G37*
G36*
G01*
X92625000Y-159549999D02*
X92625000Y-160450001D01*
G75*
G02*
X92375001Y-160700000I-249999J0D01*
G01*
X91724999Y-160700000D01*
G75*
G02*
X91475000Y-160450001I0J249999D01*
G01*
X91475000Y-159549999D01*
G75*
G02*
X91724999Y-159300000I249999J0D01*
G01*
X92375001Y-159300000D01*
G75*
G02*
X92625000Y-159549999I0J-249999D01*
G01*
G37*
%TD*%
%TO.C,R19*%
G36*
G01*
X98850001Y-124825000D02*
X97949999Y-124825000D01*
G75*
G02*
X97700000Y-124575001I0J249999D01*
G01*
X97700000Y-123924999D01*
G75*
G02*
X97949999Y-123675000I249999J0D01*
G01*
X98850001Y-123675000D01*
G75*
G02*
X99100000Y-123924999I0J-249999D01*
G01*
X99100000Y-124575001D01*
G75*
G02*
X98850001Y-124825000I-249999J0D01*
G01*
G37*
G36*
G01*
X98850001Y-126875000D02*
X97949999Y-126875000D01*
G75*
G02*
X97700000Y-126625001I0J249999D01*
G01*
X97700000Y-125974999D01*
G75*
G02*
X97949999Y-125725000I249999J0D01*
G01*
X98850001Y-125725000D01*
G75*
G02*
X99100000Y-125974999I0J-249999D01*
G01*
X99100000Y-126625001D01*
G75*
G02*
X98850001Y-126875000I-249999J0D01*
G01*
G37*
%TD*%
%TO.C,R20*%
G36*
G01*
X93075000Y-122650001D02*
X93075000Y-121749999D01*
G75*
G02*
X93324999Y-121500000I249999J0D01*
G01*
X93975001Y-121500000D01*
G75*
G02*
X94225000Y-121749999I0J-249999D01*
G01*
X94225000Y-122650001D01*
G75*
G02*
X93975001Y-122900000I-249999J0D01*
G01*
X93324999Y-122900000D01*
G75*
G02*
X93075000Y-122650001I0J249999D01*
G01*
G37*
G36*
G01*
X95125000Y-122650001D02*
X95125000Y-121749999D01*
G75*
G02*
X95374999Y-121500000I249999J0D01*
G01*
X96025001Y-121500000D01*
G75*
G02*
X96275000Y-121749999I0J-249999D01*
G01*
X96275000Y-122650001D01*
G75*
G02*
X96025001Y-122900000I-249999J0D01*
G01*
X95374999Y-122900000D01*
G75*
G02*
X95125000Y-122650001I0J249999D01*
G01*
G37*
%TD*%
%TO.C,R21*%
G36*
G01*
X89625000Y-125749999D02*
X89625000Y-126650001D01*
G75*
G02*
X89375001Y-126900000I-249999J0D01*
G01*
X88724999Y-126900000D01*
G75*
G02*
X88475000Y-126650001I0J249999D01*
G01*
X88475000Y-125749999D01*
G75*
G02*
X88724999Y-125500000I249999J0D01*
G01*
X89375001Y-125500000D01*
G75*
G02*
X89625000Y-125749999I0J-249999D01*
G01*
G37*
G36*
G01*
X91675000Y-125749999D02*
X91675000Y-126650001D01*
G75*
G02*
X91425001Y-126900000I-249999J0D01*
G01*
X90774999Y-126900000D01*
G75*
G02*
X90525000Y-126650001I0J249999D01*
G01*
X90525000Y-125749999D01*
G75*
G02*
X90774999Y-125500000I249999J0D01*
G01*
X91425001Y-125500000D01*
G75*
G02*
X91675000Y-125749999I0J-249999D01*
G01*
G37*
%TD*%
%TO.C,R22*%
G36*
G01*
X88950001Y-131325000D02*
X88049999Y-131325000D01*
G75*
G02*
X87800000Y-131075001I0J249999D01*
G01*
X87800000Y-130424999D01*
G75*
G02*
X88049999Y-130175000I249999J0D01*
G01*
X88950001Y-130175000D01*
G75*
G02*
X89200000Y-130424999I0J-249999D01*
G01*
X89200000Y-131075001D01*
G75*
G02*
X88950001Y-131325000I-249999J0D01*
G01*
G37*
G36*
G01*
X88950001Y-129275000D02*
X88049999Y-129275000D01*
G75*
G02*
X87800000Y-129025001I0J249999D01*
G01*
X87800000Y-128374999D01*
G75*
G02*
X88049999Y-128125000I249999J0D01*
G01*
X88950001Y-128125000D01*
G75*
G02*
X89200000Y-128374999I0J-249999D01*
G01*
X89200000Y-129025001D01*
G75*
G02*
X88950001Y-129275000I-249999J0D01*
G01*
G37*
%TD*%
%TO.C,R23*%
G36*
G01*
X81775000Y-133500001D02*
X81775000Y-132599999D01*
G75*
G02*
X82024999Y-132350000I249999J0D01*
G01*
X82675001Y-132350000D01*
G75*
G02*
X82925000Y-132599999I0J-249999D01*
G01*
X82925000Y-133500001D01*
G75*
G02*
X82675001Y-133750000I-249999J0D01*
G01*
X82024999Y-133750000D01*
G75*
G02*
X81775000Y-133500001I0J249999D01*
G01*
G37*
G36*
G01*
X83825000Y-133500001D02*
X83825000Y-132599999D01*
G75*
G02*
X84074999Y-132350000I249999J0D01*
G01*
X84725001Y-132350000D01*
G75*
G02*
X84975000Y-132599999I0J-249999D01*
G01*
X84975000Y-133500001D01*
G75*
G02*
X84725001Y-133750000I-249999J0D01*
G01*
X84074999Y-133750000D01*
G75*
G02*
X83825000Y-133500001I0J249999D01*
G01*
G37*
%TD*%
%TO.C,R24*%
G36*
G01*
X88425000Y-159549999D02*
X88425000Y-160450001D01*
G75*
G02*
X88175001Y-160700000I-249999J0D01*
G01*
X87524999Y-160700000D01*
G75*
G02*
X87275000Y-160450001I0J249999D01*
G01*
X87275000Y-159549999D01*
G75*
G02*
X87524999Y-159300000I249999J0D01*
G01*
X88175001Y-159300000D01*
G75*
G02*
X88425000Y-159549999I0J-249999D01*
G01*
G37*
G36*
G01*
X90475000Y-159549999D02*
X90475000Y-160450001D01*
G75*
G02*
X90225001Y-160700000I-249999J0D01*
G01*
X89574999Y-160700000D01*
G75*
G02*
X89325000Y-160450001I0J249999D01*
G01*
X89325000Y-159549999D01*
G75*
G02*
X89574999Y-159300000I249999J0D01*
G01*
X90225001Y-159300000D01*
G75*
G02*
X90475000Y-159549999I0J-249999D01*
G01*
G37*
%TD*%
%TO.C,R25*%
G36*
G01*
X96099999Y-157700000D02*
X97000001Y-157700000D01*
G75*
G02*
X97250000Y-157949999I0J-249999D01*
G01*
X97250000Y-158600001D01*
G75*
G02*
X97000001Y-158850000I-249999J0D01*
G01*
X96099999Y-158850000D01*
G75*
G02*
X95850000Y-158600001I0J249999D01*
G01*
X95850000Y-157949999D01*
G75*
G02*
X96099999Y-157700000I249999J0D01*
G01*
G37*
G36*
G01*
X96099999Y-159750000D02*
X97000001Y-159750000D01*
G75*
G02*
X97250000Y-159999999I0J-249999D01*
G01*
X97250000Y-160650001D01*
G75*
G02*
X97000001Y-160900000I-249999J0D01*
G01*
X96099999Y-160900000D01*
G75*
G02*
X95850000Y-160650001I0J249999D01*
G01*
X95850000Y-159999999D01*
G75*
G02*
X96099999Y-159750000I249999J0D01*
G01*
G37*
%TD*%
%TO.C,R26*%
G36*
G01*
X97975000Y-129200001D02*
X97975000Y-128299999D01*
G75*
G02*
X98224999Y-128050000I249999J0D01*
G01*
X98875001Y-128050000D01*
G75*
G02*
X99125000Y-128299999I0J-249999D01*
G01*
X99125000Y-129200001D01*
G75*
G02*
X98875001Y-129450000I-249999J0D01*
G01*
X98224999Y-129450000D01*
G75*
G02*
X97975000Y-129200001I0J249999D01*
G01*
G37*
G36*
G01*
X95925000Y-129200001D02*
X95925000Y-128299999D01*
G75*
G02*
X96174999Y-128050000I249999J0D01*
G01*
X96825001Y-128050000D01*
G75*
G02*
X97075000Y-128299999I0J-249999D01*
G01*
X97075000Y-129200001D01*
G75*
G02*
X96825001Y-129450000I-249999J0D01*
G01*
X96174999Y-129450000D01*
G75*
G02*
X95925000Y-129200001I0J249999D01*
G01*
G37*
%TD*%
%TO.C,R27*%
G36*
G01*
X91550001Y-130925000D02*
X90649999Y-130925000D01*
G75*
G02*
X90400000Y-130675001I0J249999D01*
G01*
X90400000Y-130024999D01*
G75*
G02*
X90649999Y-129775000I249999J0D01*
G01*
X91550001Y-129775000D01*
G75*
G02*
X91800000Y-130024999I0J-249999D01*
G01*
X91800000Y-130675001D01*
G75*
G02*
X91550001Y-130925000I-249999J0D01*
G01*
G37*
G36*
G01*
X91550001Y-128875000D02*
X90649999Y-128875000D01*
G75*
G02*
X90400000Y-128625001I0J249999D01*
G01*
X90400000Y-127974999D01*
G75*
G02*
X90649999Y-127725000I249999J0D01*
G01*
X91550001Y-127725000D01*
G75*
G02*
X91800000Y-127974999I0J-249999D01*
G01*
X91800000Y-128625001D01*
G75*
G02*
X91550001Y-128875000I-249999J0D01*
G01*
G37*
%TD*%
%TO.C,R28*%
G36*
G01*
X117650001Y-129275000D02*
X116749999Y-129275000D01*
G75*
G02*
X116500000Y-129025001I0J249999D01*
G01*
X116500000Y-128374999D01*
G75*
G02*
X116749999Y-128125000I249999J0D01*
G01*
X117650001Y-128125000D01*
G75*
G02*
X117900000Y-128374999I0J-249999D01*
G01*
X117900000Y-129025001D01*
G75*
G02*
X117650001Y-129275000I-249999J0D01*
G01*
G37*
G36*
G01*
X117650001Y-131325000D02*
X116749999Y-131325000D01*
G75*
G02*
X116500000Y-131075001I0J249999D01*
G01*
X116500000Y-130424999D01*
G75*
G02*
X116749999Y-130175000I249999J0D01*
G01*
X117650001Y-130175000D01*
G75*
G02*
X117900000Y-130424999I0J-249999D01*
G01*
X117900000Y-131075001D01*
G75*
G02*
X117650001Y-131325000I-249999J0D01*
G01*
G37*
%TD*%
%TO.C,R29*%
G36*
G01*
X106375000Y-127150001D02*
X106375000Y-126249999D01*
G75*
G02*
X106624999Y-126000000I249999J0D01*
G01*
X107275001Y-126000000D01*
G75*
G02*
X107525000Y-126249999I0J-249999D01*
G01*
X107525000Y-127150001D01*
G75*
G02*
X107275001Y-127400000I-249999J0D01*
G01*
X106624999Y-127400000D01*
G75*
G02*
X106375000Y-127150001I0J249999D01*
G01*
G37*
G36*
G01*
X108425000Y-127150001D02*
X108425000Y-126249999D01*
G75*
G02*
X108674999Y-126000000I249999J0D01*
G01*
X109325001Y-126000000D01*
G75*
G02*
X109575000Y-126249999I0J-249999D01*
G01*
X109575000Y-127150001D01*
G75*
G02*
X109325001Y-127400000I-249999J0D01*
G01*
X108674999Y-127400000D01*
G75*
G02*
X108425000Y-127150001I0J249999D01*
G01*
G37*
%TD*%
%TO.C,R30*%
G36*
G01*
X108049999Y-159800000D02*
X108950001Y-159800000D01*
G75*
G02*
X109200000Y-160049999I0J-249999D01*
G01*
X109200000Y-160700001D01*
G75*
G02*
X108950001Y-160950000I-249999J0D01*
G01*
X108049999Y-160950000D01*
G75*
G02*
X107800000Y-160700001I0J249999D01*
G01*
X107800000Y-160049999D01*
G75*
G02*
X108049999Y-159800000I249999J0D01*
G01*
G37*
G36*
G01*
X108049999Y-157750000D02*
X108950001Y-157750000D01*
G75*
G02*
X109200000Y-157999999I0J-249999D01*
G01*
X109200000Y-158650001D01*
G75*
G02*
X108950001Y-158900000I-249999J0D01*
G01*
X108049999Y-158900000D01*
G75*
G02*
X107800000Y-158650001I0J249999D01*
G01*
X107800000Y-157999999D01*
G75*
G02*
X108049999Y-157750000I249999J0D01*
G01*
G37*
%TD*%
%TO.C,R31*%
G36*
G01*
X117700000Y-159549999D02*
X117700000Y-160450001D01*
G75*
G02*
X117450001Y-160700000I-249999J0D01*
G01*
X116799999Y-160700000D01*
G75*
G02*
X116550000Y-160450001I0J249999D01*
G01*
X116550000Y-159549999D01*
G75*
G02*
X116799999Y-159300000I249999J0D01*
G01*
X117450001Y-159300000D01*
G75*
G02*
X117700000Y-159549999I0J-249999D01*
G01*
G37*
G36*
G01*
X115650000Y-159549999D02*
X115650000Y-160450001D01*
G75*
G02*
X115400001Y-160700000I-249999J0D01*
G01*
X114749999Y-160700000D01*
G75*
G02*
X114500000Y-160450001I0J249999D01*
G01*
X114500000Y-159549999D01*
G75*
G02*
X114749999Y-159300000I249999J0D01*
G01*
X115400001Y-159300000D01*
G75*
G02*
X115650000Y-159549999I0J-249999D01*
G01*
G37*
%TD*%
%TO.C,R32*%
G36*
G01*
X121850001Y-124825000D02*
X120949999Y-124825000D01*
G75*
G02*
X120700000Y-124575001I0J249999D01*
G01*
X120700000Y-123924999D01*
G75*
G02*
X120949999Y-123675000I249999J0D01*
G01*
X121850001Y-123675000D01*
G75*
G02*
X122100000Y-123924999I0J-249999D01*
G01*
X122100000Y-124575001D01*
G75*
G02*
X121850001Y-124825000I-249999J0D01*
G01*
G37*
G36*
G01*
X121850001Y-126875000D02*
X120949999Y-126875000D01*
G75*
G02*
X120700000Y-126625001I0J249999D01*
G01*
X120700000Y-125974999D01*
G75*
G02*
X120949999Y-125725000I249999J0D01*
G01*
X121850001Y-125725000D01*
G75*
G02*
X122100000Y-125974999I0J-249999D01*
G01*
X122100000Y-126625001D01*
G75*
G02*
X121850001Y-126875000I-249999J0D01*
G01*
G37*
%TD*%
%TO.C,R33*%
G36*
G01*
X116075000Y-122650001D02*
X116075000Y-121749999D01*
G75*
G02*
X116324999Y-121500000I249999J0D01*
G01*
X116975001Y-121500000D01*
G75*
G02*
X117225000Y-121749999I0J-249999D01*
G01*
X117225000Y-122650001D01*
G75*
G02*
X116975001Y-122900000I-249999J0D01*
G01*
X116324999Y-122900000D01*
G75*
G02*
X116075000Y-122650001I0J249999D01*
G01*
G37*
G36*
G01*
X118125000Y-122650001D02*
X118125000Y-121749999D01*
G75*
G02*
X118374999Y-121500000I249999J0D01*
G01*
X119025001Y-121500000D01*
G75*
G02*
X119275000Y-121749999I0J-249999D01*
G01*
X119275000Y-122650001D01*
G75*
G02*
X119025001Y-122900000I-249999J0D01*
G01*
X118374999Y-122900000D01*
G75*
G02*
X118125000Y-122650001I0J249999D01*
G01*
G37*
%TD*%
%TO.C,R34*%
G36*
G01*
X112625000Y-125749999D02*
X112625000Y-126650001D01*
G75*
G02*
X112375001Y-126900000I-249999J0D01*
G01*
X111724999Y-126900000D01*
G75*
G02*
X111475000Y-126650001I0J249999D01*
G01*
X111475000Y-125749999D01*
G75*
G02*
X111724999Y-125500000I249999J0D01*
G01*
X112375001Y-125500000D01*
G75*
G02*
X112625000Y-125749999I0J-249999D01*
G01*
G37*
G36*
G01*
X114675000Y-125749999D02*
X114675000Y-126650001D01*
G75*
G02*
X114425001Y-126900000I-249999J0D01*
G01*
X113774999Y-126900000D01*
G75*
G02*
X113525000Y-126650001I0J249999D01*
G01*
X113525000Y-125749999D01*
G75*
G02*
X113774999Y-125500000I249999J0D01*
G01*
X114425001Y-125500000D01*
G75*
G02*
X114675000Y-125749999I0J-249999D01*
G01*
G37*
%TD*%
%TO.C,R35*%
G36*
G01*
X111950001Y-131325000D02*
X111049999Y-131325000D01*
G75*
G02*
X110800000Y-131075001I0J249999D01*
G01*
X110800000Y-130424999D01*
G75*
G02*
X111049999Y-130175000I249999J0D01*
G01*
X111950001Y-130175000D01*
G75*
G02*
X112200000Y-130424999I0J-249999D01*
G01*
X112200000Y-131075001D01*
G75*
G02*
X111950001Y-131325000I-249999J0D01*
G01*
G37*
G36*
G01*
X111950001Y-129275000D02*
X111049999Y-129275000D01*
G75*
G02*
X110800000Y-129025001I0J249999D01*
G01*
X110800000Y-128374999D01*
G75*
G02*
X111049999Y-128125000I249999J0D01*
G01*
X111950001Y-128125000D01*
G75*
G02*
X112200000Y-128374999I0J-249999D01*
G01*
X112200000Y-129025001D01*
G75*
G02*
X111950001Y-129275000I-249999J0D01*
G01*
G37*
%TD*%
%TO.C,R36*%
G36*
G01*
X106825000Y-133500001D02*
X106825000Y-132599999D01*
G75*
G02*
X107074999Y-132350000I249999J0D01*
G01*
X107725001Y-132350000D01*
G75*
G02*
X107975000Y-132599999I0J-249999D01*
G01*
X107975000Y-133500001D01*
G75*
G02*
X107725001Y-133750000I-249999J0D01*
G01*
X107074999Y-133750000D01*
G75*
G02*
X106825000Y-133500001I0J249999D01*
G01*
G37*
G36*
G01*
X104775000Y-133500001D02*
X104775000Y-132599999D01*
G75*
G02*
X105024999Y-132350000I249999J0D01*
G01*
X105675001Y-132350000D01*
G75*
G02*
X105925000Y-132599999I0J-249999D01*
G01*
X105925000Y-133500001D01*
G75*
G02*
X105675001Y-133750000I-249999J0D01*
G01*
X105024999Y-133750000D01*
G75*
G02*
X104775000Y-133500001I0J249999D01*
G01*
G37*
%TD*%
%TO.C,R37*%
G36*
G01*
X111450000Y-159549999D02*
X111450000Y-160450001D01*
G75*
G02*
X111200001Y-160700000I-249999J0D01*
G01*
X110549999Y-160700000D01*
G75*
G02*
X110300000Y-160450001I0J249999D01*
G01*
X110300000Y-159549999D01*
G75*
G02*
X110549999Y-159300000I249999J0D01*
G01*
X111200001Y-159300000D01*
G75*
G02*
X111450000Y-159549999I0J-249999D01*
G01*
G37*
G36*
G01*
X113500000Y-159549999D02*
X113500000Y-160450001D01*
G75*
G02*
X113250001Y-160700000I-249999J0D01*
G01*
X112599999Y-160700000D01*
G75*
G02*
X112350000Y-160450001I0J249999D01*
G01*
X112350000Y-159549999D01*
G75*
G02*
X112599999Y-159300000I249999J0D01*
G01*
X113250001Y-159300000D01*
G75*
G02*
X113500000Y-159549999I0J-249999D01*
G01*
G37*
%TD*%
%TO.C,R38*%
G36*
G01*
X119099999Y-159750000D02*
X120000001Y-159750000D01*
G75*
G02*
X120250000Y-159999999I0J-249999D01*
G01*
X120250000Y-160650001D01*
G75*
G02*
X120000001Y-160900000I-249999J0D01*
G01*
X119099999Y-160900000D01*
G75*
G02*
X118850000Y-160650001I0J249999D01*
G01*
X118850000Y-159999999D01*
G75*
G02*
X119099999Y-159750000I249999J0D01*
G01*
G37*
G36*
G01*
X119099999Y-157700000D02*
X120000001Y-157700000D01*
G75*
G02*
X120250000Y-157949999I0J-249999D01*
G01*
X120250000Y-158600001D01*
G75*
G02*
X120000001Y-158850000I-249999J0D01*
G01*
X119099999Y-158850000D01*
G75*
G02*
X118850000Y-158600001I0J249999D01*
G01*
X118850000Y-157949999D01*
G75*
G02*
X119099999Y-157700000I249999J0D01*
G01*
G37*
%TD*%
%TO.C,R39*%
G36*
G01*
X118850000Y-129200001D02*
X118850000Y-128299999D01*
G75*
G02*
X119099999Y-128050000I249999J0D01*
G01*
X119750001Y-128050000D01*
G75*
G02*
X120000000Y-128299999I0J-249999D01*
G01*
X120000000Y-129200001D01*
G75*
G02*
X119750001Y-129450000I-249999J0D01*
G01*
X119099999Y-129450000D01*
G75*
G02*
X118850000Y-129200001I0J249999D01*
G01*
G37*
G36*
G01*
X120900000Y-129200001D02*
X120900000Y-128299999D01*
G75*
G02*
X121149999Y-128050000I249999J0D01*
G01*
X121800001Y-128050000D01*
G75*
G02*
X122050000Y-128299999I0J-249999D01*
G01*
X122050000Y-129200001D01*
G75*
G02*
X121800001Y-129450000I-249999J0D01*
G01*
X121149999Y-129450000D01*
G75*
G02*
X120900000Y-129200001I0J249999D01*
G01*
G37*
%TD*%
%TO.C,R40*%
G36*
G01*
X114550001Y-130975000D02*
X113649999Y-130975000D01*
G75*
G02*
X113400000Y-130725001I0J249999D01*
G01*
X113400000Y-130074999D01*
G75*
G02*
X113649999Y-129825000I249999J0D01*
G01*
X114550001Y-129825000D01*
G75*
G02*
X114800000Y-130074999I0J-249999D01*
G01*
X114800000Y-130725001D01*
G75*
G02*
X114550001Y-130975000I-249999J0D01*
G01*
G37*
G36*
G01*
X114550001Y-128925000D02*
X113649999Y-128925000D01*
G75*
G02*
X113400000Y-128675001I0J249999D01*
G01*
X113400000Y-128024999D01*
G75*
G02*
X113649999Y-127775000I249999J0D01*
G01*
X114550001Y-127775000D01*
G75*
G02*
X114800000Y-128024999I0J-249999D01*
G01*
X114800000Y-128675001D01*
G75*
G02*
X114550001Y-128925000I-249999J0D01*
G01*
G37*
%TD*%
%TO.C,R41*%
G36*
G01*
X140650001Y-131325000D02*
X139749999Y-131325000D01*
G75*
G02*
X139500000Y-131075001I0J249999D01*
G01*
X139500000Y-130424999D01*
G75*
G02*
X139749999Y-130175000I249999J0D01*
G01*
X140650001Y-130175000D01*
G75*
G02*
X140900000Y-130424999I0J-249999D01*
G01*
X140900000Y-131075001D01*
G75*
G02*
X140650001Y-131325000I-249999J0D01*
G01*
G37*
G36*
G01*
X140650001Y-129275000D02*
X139749999Y-129275000D01*
G75*
G02*
X139500000Y-129025001I0J249999D01*
G01*
X139500000Y-128374999D01*
G75*
G02*
X139749999Y-128125000I249999J0D01*
G01*
X140650001Y-128125000D01*
G75*
G02*
X140900000Y-128374999I0J-249999D01*
G01*
X140900000Y-129025001D01*
G75*
G02*
X140650001Y-129275000I-249999J0D01*
G01*
G37*
%TD*%
%TO.C,R42*%
G36*
G01*
X131450000Y-127150001D02*
X131450000Y-126249999D01*
G75*
G02*
X131699999Y-126000000I249999J0D01*
G01*
X132350001Y-126000000D01*
G75*
G02*
X132600000Y-126249999I0J-249999D01*
G01*
X132600000Y-127150001D01*
G75*
G02*
X132350001Y-127400000I-249999J0D01*
G01*
X131699999Y-127400000D01*
G75*
G02*
X131450000Y-127150001I0J249999D01*
G01*
G37*
G36*
G01*
X129400000Y-127150001D02*
X129400000Y-126249999D01*
G75*
G02*
X129649999Y-126000000I249999J0D01*
G01*
X130300001Y-126000000D01*
G75*
G02*
X130550000Y-126249999I0J-249999D01*
G01*
X130550000Y-127150001D01*
G75*
G02*
X130300001Y-127400000I-249999J0D01*
G01*
X129649999Y-127400000D01*
G75*
G02*
X129400000Y-127150001I0J249999D01*
G01*
G37*
%TD*%
%TO.C,R43*%
G36*
G01*
X131049999Y-157700000D02*
X131950001Y-157700000D01*
G75*
G02*
X132200000Y-157949999I0J-249999D01*
G01*
X132200000Y-158600001D01*
G75*
G02*
X131950001Y-158850000I-249999J0D01*
G01*
X131049999Y-158850000D01*
G75*
G02*
X130800000Y-158600001I0J249999D01*
G01*
X130800000Y-157949999D01*
G75*
G02*
X131049999Y-157700000I249999J0D01*
G01*
G37*
G36*
G01*
X131049999Y-159750000D02*
X131950001Y-159750000D01*
G75*
G02*
X132200000Y-159999999I0J-249999D01*
G01*
X132200000Y-160650001D01*
G75*
G02*
X131950001Y-160900000I-249999J0D01*
G01*
X131049999Y-160900000D01*
G75*
G02*
X130800000Y-160650001I0J249999D01*
G01*
X130800000Y-159999999D01*
G75*
G02*
X131049999Y-159750000I249999J0D01*
G01*
G37*
%TD*%
%TO.C,R44*%
G36*
G01*
X138650000Y-159549999D02*
X138650000Y-160450001D01*
G75*
G02*
X138400001Y-160700000I-249999J0D01*
G01*
X137749999Y-160700000D01*
G75*
G02*
X137500000Y-160450001I0J249999D01*
G01*
X137500000Y-159549999D01*
G75*
G02*
X137749999Y-159300000I249999J0D01*
G01*
X138400001Y-159300000D01*
G75*
G02*
X138650000Y-159549999I0J-249999D01*
G01*
G37*
G36*
G01*
X140700000Y-159549999D02*
X140700000Y-160450001D01*
G75*
G02*
X140450001Y-160700000I-249999J0D01*
G01*
X139799999Y-160700000D01*
G75*
G02*
X139550000Y-160450001I0J249999D01*
G01*
X139550000Y-159549999D01*
G75*
G02*
X139799999Y-159300000I249999J0D01*
G01*
X140450001Y-159300000D01*
G75*
G02*
X140700000Y-159549999I0J-249999D01*
G01*
G37*
%TD*%
%TO.C,R45*%
G36*
G01*
X144850001Y-124825000D02*
X143949999Y-124825000D01*
G75*
G02*
X143700000Y-124575001I0J249999D01*
G01*
X143700000Y-123924999D01*
G75*
G02*
X143949999Y-123675000I249999J0D01*
G01*
X144850001Y-123675000D01*
G75*
G02*
X145100000Y-123924999I0J-249999D01*
G01*
X145100000Y-124575001D01*
G75*
G02*
X144850001Y-124825000I-249999J0D01*
G01*
G37*
G36*
G01*
X144850001Y-126875000D02*
X143949999Y-126875000D01*
G75*
G02*
X143700000Y-126625001I0J249999D01*
G01*
X143700000Y-125974999D01*
G75*
G02*
X143949999Y-125725000I249999J0D01*
G01*
X144850001Y-125725000D01*
G75*
G02*
X145100000Y-125974999I0J-249999D01*
G01*
X145100000Y-126625001D01*
G75*
G02*
X144850001Y-126875000I-249999J0D01*
G01*
G37*
%TD*%
%TO.C,R46*%
G36*
G01*
X139075000Y-122650001D02*
X139075000Y-121749999D01*
G75*
G02*
X139324999Y-121500000I249999J0D01*
G01*
X139975001Y-121500000D01*
G75*
G02*
X140225000Y-121749999I0J-249999D01*
G01*
X140225000Y-122650001D01*
G75*
G02*
X139975001Y-122900000I-249999J0D01*
G01*
X139324999Y-122900000D01*
G75*
G02*
X139075000Y-122650001I0J249999D01*
G01*
G37*
G36*
G01*
X141125000Y-122650001D02*
X141125000Y-121749999D01*
G75*
G02*
X141374999Y-121500000I249999J0D01*
G01*
X142025001Y-121500000D01*
G75*
G02*
X142275000Y-121749999I0J-249999D01*
G01*
X142275000Y-122650001D01*
G75*
G02*
X142025001Y-122900000I-249999J0D01*
G01*
X141374999Y-122900000D01*
G75*
G02*
X141125000Y-122650001I0J249999D01*
G01*
G37*
%TD*%
%TO.C,R47*%
G36*
G01*
X137675000Y-125749999D02*
X137675000Y-126650001D01*
G75*
G02*
X137425001Y-126900000I-249999J0D01*
G01*
X136774999Y-126900000D01*
G75*
G02*
X136525000Y-126650001I0J249999D01*
G01*
X136525000Y-125749999D01*
G75*
G02*
X136774999Y-125500000I249999J0D01*
G01*
X137425001Y-125500000D01*
G75*
G02*
X137675000Y-125749999I0J-249999D01*
G01*
G37*
G36*
G01*
X135625000Y-125749999D02*
X135625000Y-126650001D01*
G75*
G02*
X135375001Y-126900000I-249999J0D01*
G01*
X134724999Y-126900000D01*
G75*
G02*
X134475000Y-126650001I0J249999D01*
G01*
X134475000Y-125749999D01*
G75*
G02*
X134724999Y-125500000I249999J0D01*
G01*
X135375001Y-125500000D01*
G75*
G02*
X135625000Y-125749999I0J-249999D01*
G01*
G37*
%TD*%
%TO.C,R48*%
G36*
G01*
X134950001Y-129275000D02*
X134049999Y-129275000D01*
G75*
G02*
X133800000Y-129025001I0J249999D01*
G01*
X133800000Y-128374999D01*
G75*
G02*
X134049999Y-128125000I249999J0D01*
G01*
X134950001Y-128125000D01*
G75*
G02*
X135200000Y-128374999I0J-249999D01*
G01*
X135200000Y-129025001D01*
G75*
G02*
X134950001Y-129275000I-249999J0D01*
G01*
G37*
G36*
G01*
X134950001Y-131325000D02*
X134049999Y-131325000D01*
G75*
G02*
X133800000Y-131075001I0J249999D01*
G01*
X133800000Y-130424999D01*
G75*
G02*
X134049999Y-130175000I249999J0D01*
G01*
X134950001Y-130175000D01*
G75*
G02*
X135200000Y-130424999I0J-249999D01*
G01*
X135200000Y-131075001D01*
G75*
G02*
X134950001Y-131325000I-249999J0D01*
G01*
G37*
%TD*%
%TO.C,R49*%
G36*
G01*
X127800000Y-133500001D02*
X127800000Y-132599999D01*
G75*
G02*
X128049999Y-132350000I249999J0D01*
G01*
X128700001Y-132350000D01*
G75*
G02*
X128950000Y-132599999I0J-249999D01*
G01*
X128950000Y-133500001D01*
G75*
G02*
X128700001Y-133750000I-249999J0D01*
G01*
X128049999Y-133750000D01*
G75*
G02*
X127800000Y-133500001I0J249999D01*
G01*
G37*
G36*
G01*
X129850000Y-133500001D02*
X129850000Y-132599999D01*
G75*
G02*
X130099999Y-132350000I249999J0D01*
G01*
X130750001Y-132350000D01*
G75*
G02*
X131000000Y-132599999I0J-249999D01*
G01*
X131000000Y-133500001D01*
G75*
G02*
X130750001Y-133750000I-249999J0D01*
G01*
X130099999Y-133750000D01*
G75*
G02*
X129850000Y-133500001I0J249999D01*
G01*
G37*
%TD*%
%TO.C,R50*%
G36*
G01*
X134450000Y-159549999D02*
X134450000Y-160450001D01*
G75*
G02*
X134200001Y-160700000I-249999J0D01*
G01*
X133549999Y-160700000D01*
G75*
G02*
X133300000Y-160450001I0J249999D01*
G01*
X133300000Y-159549999D01*
G75*
G02*
X133549999Y-159300000I249999J0D01*
G01*
X134200001Y-159300000D01*
G75*
G02*
X134450000Y-159549999I0J-249999D01*
G01*
G37*
G36*
G01*
X136500000Y-159549999D02*
X136500000Y-160450001D01*
G75*
G02*
X136250001Y-160700000I-249999J0D01*
G01*
X135599999Y-160700000D01*
G75*
G02*
X135350000Y-160450001I0J249999D01*
G01*
X135350000Y-159549999D01*
G75*
G02*
X135599999Y-159300000I249999J0D01*
G01*
X136250001Y-159300000D01*
G75*
G02*
X136500000Y-159549999I0J-249999D01*
G01*
G37*
%TD*%
%TO.C,R51*%
G36*
G01*
X142099999Y-159750000D02*
X143000001Y-159750000D01*
G75*
G02*
X143250000Y-159999999I0J-249999D01*
G01*
X143250000Y-160650001D01*
G75*
G02*
X143000001Y-160900000I-249999J0D01*
G01*
X142099999Y-160900000D01*
G75*
G02*
X141850000Y-160650001I0J249999D01*
G01*
X141850000Y-159999999D01*
G75*
G02*
X142099999Y-159750000I249999J0D01*
G01*
G37*
G36*
G01*
X142099999Y-157700000D02*
X143000001Y-157700000D01*
G75*
G02*
X143250000Y-157949999I0J-249999D01*
G01*
X143250000Y-158600001D01*
G75*
G02*
X143000001Y-158850000I-249999J0D01*
G01*
X142099999Y-158850000D01*
G75*
G02*
X141850000Y-158600001I0J249999D01*
G01*
X141850000Y-157949999D01*
G75*
G02*
X142099999Y-157700000I249999J0D01*
G01*
G37*
%TD*%
%TO.C,R52*%
G36*
G01*
X143950000Y-129200001D02*
X143950000Y-128299999D01*
G75*
G02*
X144199999Y-128050000I249999J0D01*
G01*
X144850001Y-128050000D01*
G75*
G02*
X145100000Y-128299999I0J-249999D01*
G01*
X145100000Y-129200001D01*
G75*
G02*
X144850001Y-129450000I-249999J0D01*
G01*
X144199999Y-129450000D01*
G75*
G02*
X143950000Y-129200001I0J249999D01*
G01*
G37*
G36*
G01*
X141900000Y-129200001D02*
X141900000Y-128299999D01*
G75*
G02*
X142149999Y-128050000I249999J0D01*
G01*
X142800001Y-128050000D01*
G75*
G02*
X143050000Y-128299999I0J-249999D01*
G01*
X143050000Y-129200001D01*
G75*
G02*
X142800001Y-129450000I-249999J0D01*
G01*
X142149999Y-129450000D01*
G75*
G02*
X141900000Y-129200001I0J249999D01*
G01*
G37*
%TD*%
%TO.C,R53*%
G36*
G01*
X137550001Y-130925000D02*
X136649999Y-130925000D01*
G75*
G02*
X136400000Y-130675001I0J249999D01*
G01*
X136400000Y-130024999D01*
G75*
G02*
X136649999Y-129775000I249999J0D01*
G01*
X137550001Y-129775000D01*
G75*
G02*
X137800000Y-130024999I0J-249999D01*
G01*
X137800000Y-130675001D01*
G75*
G02*
X137550001Y-130925000I-249999J0D01*
G01*
G37*
G36*
G01*
X137550001Y-128875000D02*
X136649999Y-128875000D01*
G75*
G02*
X136400000Y-128625001I0J249999D01*
G01*
X136400000Y-127974999D01*
G75*
G02*
X136649999Y-127725000I249999J0D01*
G01*
X137550001Y-127725000D01*
G75*
G02*
X137800000Y-127974999I0J-249999D01*
G01*
X137800000Y-128625001D01*
G75*
G02*
X137550001Y-128875000I-249999J0D01*
G01*
G37*
%TD*%
%TO.C,R54*%
G36*
G01*
X186650001Y-129275000D02*
X185749999Y-129275000D01*
G75*
G02*
X185500000Y-129025001I0J249999D01*
G01*
X185500000Y-128374999D01*
G75*
G02*
X185749999Y-128125000I249999J0D01*
G01*
X186650001Y-128125000D01*
G75*
G02*
X186900000Y-128374999I0J-249999D01*
G01*
X186900000Y-129025001D01*
G75*
G02*
X186650001Y-129275000I-249999J0D01*
G01*
G37*
G36*
G01*
X186650001Y-131325000D02*
X185749999Y-131325000D01*
G75*
G02*
X185500000Y-131075001I0J249999D01*
G01*
X185500000Y-130424999D01*
G75*
G02*
X185749999Y-130175000I249999J0D01*
G01*
X186650001Y-130175000D01*
G75*
G02*
X186900000Y-130424999I0J-249999D01*
G01*
X186900000Y-131075001D01*
G75*
G02*
X186650001Y-131325000I-249999J0D01*
G01*
G37*
%TD*%
%TO.C,R55*%
G36*
G01*
X177425000Y-127150001D02*
X177425000Y-126249999D01*
G75*
G02*
X177674999Y-126000000I249999J0D01*
G01*
X178325001Y-126000000D01*
G75*
G02*
X178575000Y-126249999I0J-249999D01*
G01*
X178575000Y-127150001D01*
G75*
G02*
X178325001Y-127400000I-249999J0D01*
G01*
X177674999Y-127400000D01*
G75*
G02*
X177425000Y-127150001I0J249999D01*
G01*
G37*
G36*
G01*
X175375000Y-127150001D02*
X175375000Y-126249999D01*
G75*
G02*
X175624999Y-126000000I249999J0D01*
G01*
X176275001Y-126000000D01*
G75*
G02*
X176525000Y-126249999I0J-249999D01*
G01*
X176525000Y-127150001D01*
G75*
G02*
X176275001Y-127400000I-249999J0D01*
G01*
X175624999Y-127400000D01*
G75*
G02*
X175375000Y-127150001I0J249999D01*
G01*
G37*
%TD*%
%TO.C,R56*%
G36*
G01*
X177049999Y-159750000D02*
X177950001Y-159750000D01*
G75*
G02*
X178200000Y-159999999I0J-249999D01*
G01*
X178200000Y-160650001D01*
G75*
G02*
X177950001Y-160900000I-249999J0D01*
G01*
X177049999Y-160900000D01*
G75*
G02*
X176800000Y-160650001I0J249999D01*
G01*
X176800000Y-159999999D01*
G75*
G02*
X177049999Y-159750000I249999J0D01*
G01*
G37*
G36*
G01*
X177049999Y-157700000D02*
X177950001Y-157700000D01*
G75*
G02*
X178200000Y-157949999I0J-249999D01*
G01*
X178200000Y-158600001D01*
G75*
G02*
X177950001Y-158850000I-249999J0D01*
G01*
X177049999Y-158850000D01*
G75*
G02*
X176800000Y-158600001I0J249999D01*
G01*
X176800000Y-157949999D01*
G75*
G02*
X177049999Y-157700000I249999J0D01*
G01*
G37*
%TD*%
%TO.C,R57*%
G36*
G01*
X186650000Y-159549999D02*
X186650000Y-160450001D01*
G75*
G02*
X186400001Y-160700000I-249999J0D01*
G01*
X185749999Y-160700000D01*
G75*
G02*
X185500000Y-160450001I0J249999D01*
G01*
X185500000Y-159549999D01*
G75*
G02*
X185749999Y-159300000I249999J0D01*
G01*
X186400001Y-159300000D01*
G75*
G02*
X186650000Y-159549999I0J-249999D01*
G01*
G37*
G36*
G01*
X184600000Y-159549999D02*
X184600000Y-160450001D01*
G75*
G02*
X184350001Y-160700000I-249999J0D01*
G01*
X183699999Y-160700000D01*
G75*
G02*
X183450000Y-160450001I0J249999D01*
G01*
X183450000Y-159549999D01*
G75*
G02*
X183699999Y-159300000I249999J0D01*
G01*
X184350001Y-159300000D01*
G75*
G02*
X184600000Y-159549999I0J-249999D01*
G01*
G37*
%TD*%
%TO.C,R58*%
G36*
G01*
X190850001Y-126875000D02*
X189949999Y-126875000D01*
G75*
G02*
X189700000Y-126625001I0J249999D01*
G01*
X189700000Y-125974999D01*
G75*
G02*
X189949999Y-125725000I249999J0D01*
G01*
X190850001Y-125725000D01*
G75*
G02*
X191100000Y-125974999I0J-249999D01*
G01*
X191100000Y-126625001D01*
G75*
G02*
X190850001Y-126875000I-249999J0D01*
G01*
G37*
G36*
G01*
X190850001Y-124825000D02*
X189949999Y-124825000D01*
G75*
G02*
X189700000Y-124575001I0J249999D01*
G01*
X189700000Y-123924999D01*
G75*
G02*
X189949999Y-123675000I249999J0D01*
G01*
X190850001Y-123675000D01*
G75*
G02*
X191100000Y-123924999I0J-249999D01*
G01*
X191100000Y-124575001D01*
G75*
G02*
X190850001Y-124825000I-249999J0D01*
G01*
G37*
%TD*%
%TO.C,R59*%
G36*
G01*
X185075000Y-122650001D02*
X185075000Y-121749999D01*
G75*
G02*
X185324999Y-121500000I249999J0D01*
G01*
X185975001Y-121500000D01*
G75*
G02*
X186225000Y-121749999I0J-249999D01*
G01*
X186225000Y-122650001D01*
G75*
G02*
X185975001Y-122900000I-249999J0D01*
G01*
X185324999Y-122900000D01*
G75*
G02*
X185075000Y-122650001I0J249999D01*
G01*
G37*
G36*
G01*
X187125000Y-122650001D02*
X187125000Y-121749999D01*
G75*
G02*
X187374999Y-121500000I249999J0D01*
G01*
X188025001Y-121500000D01*
G75*
G02*
X188275000Y-121749999I0J-249999D01*
G01*
X188275000Y-122650001D01*
G75*
G02*
X188025001Y-122900000I-249999J0D01*
G01*
X187374999Y-122900000D01*
G75*
G02*
X187125000Y-122650001I0J249999D01*
G01*
G37*
%TD*%
%TO.C,R60*%
G36*
G01*
X181625000Y-125749999D02*
X181625000Y-126650001D01*
G75*
G02*
X181375001Y-126900000I-249999J0D01*
G01*
X180724999Y-126900000D01*
G75*
G02*
X180475000Y-126650001I0J249999D01*
G01*
X180475000Y-125749999D01*
G75*
G02*
X180724999Y-125500000I249999J0D01*
G01*
X181375001Y-125500000D01*
G75*
G02*
X181625000Y-125749999I0J-249999D01*
G01*
G37*
G36*
G01*
X183675000Y-125749999D02*
X183675000Y-126650001D01*
G75*
G02*
X183425001Y-126900000I-249999J0D01*
G01*
X182774999Y-126900000D01*
G75*
G02*
X182525000Y-126650001I0J249999D01*
G01*
X182525000Y-125749999D01*
G75*
G02*
X182774999Y-125500000I249999J0D01*
G01*
X183425001Y-125500000D01*
G75*
G02*
X183675000Y-125749999I0J-249999D01*
G01*
G37*
%TD*%
%TO.C,R61*%
G36*
G01*
X180950001Y-131325000D02*
X180049999Y-131325000D01*
G75*
G02*
X179800000Y-131075001I0J249999D01*
G01*
X179800000Y-130424999D01*
G75*
G02*
X180049999Y-130175000I249999J0D01*
G01*
X180950001Y-130175000D01*
G75*
G02*
X181200000Y-130424999I0J-249999D01*
G01*
X181200000Y-131075001D01*
G75*
G02*
X180950001Y-131325000I-249999J0D01*
G01*
G37*
G36*
G01*
X180950001Y-129275000D02*
X180049999Y-129275000D01*
G75*
G02*
X179800000Y-129025001I0J249999D01*
G01*
X179800000Y-128374999D01*
G75*
G02*
X180049999Y-128125000I249999J0D01*
G01*
X180950001Y-128125000D01*
G75*
G02*
X181200000Y-128374999I0J-249999D01*
G01*
X181200000Y-129025001D01*
G75*
G02*
X180950001Y-129275000I-249999J0D01*
G01*
G37*
%TD*%
%TO.C,R62*%
G36*
G01*
X173775000Y-133500001D02*
X173775000Y-132599999D01*
G75*
G02*
X174024999Y-132350000I249999J0D01*
G01*
X174675001Y-132350000D01*
G75*
G02*
X174925000Y-132599999I0J-249999D01*
G01*
X174925000Y-133500001D01*
G75*
G02*
X174675001Y-133750000I-249999J0D01*
G01*
X174024999Y-133750000D01*
G75*
G02*
X173775000Y-133500001I0J249999D01*
G01*
G37*
G36*
G01*
X175825000Y-133500001D02*
X175825000Y-132599999D01*
G75*
G02*
X176074999Y-132350000I249999J0D01*
G01*
X176725001Y-132350000D01*
G75*
G02*
X176975000Y-132599999I0J-249999D01*
G01*
X176975000Y-133500001D01*
G75*
G02*
X176725001Y-133750000I-249999J0D01*
G01*
X176074999Y-133750000D01*
G75*
G02*
X175825000Y-133500001I0J249999D01*
G01*
G37*
%TD*%
%TO.C,R63*%
G36*
G01*
X180450000Y-159549999D02*
X180450000Y-160450001D01*
G75*
G02*
X180200001Y-160700000I-249999J0D01*
G01*
X179549999Y-160700000D01*
G75*
G02*
X179300000Y-160450001I0J249999D01*
G01*
X179300000Y-159549999D01*
G75*
G02*
X179549999Y-159300000I249999J0D01*
G01*
X180200001Y-159300000D01*
G75*
G02*
X180450000Y-159549999I0J-249999D01*
G01*
G37*
G36*
G01*
X182500000Y-159549999D02*
X182500000Y-160450001D01*
G75*
G02*
X182250001Y-160700000I-249999J0D01*
G01*
X181599999Y-160700000D01*
G75*
G02*
X181350000Y-160450001I0J249999D01*
G01*
X181350000Y-159549999D01*
G75*
G02*
X181599999Y-159300000I249999J0D01*
G01*
X182250001Y-159300000D01*
G75*
G02*
X182500000Y-159549999I0J-249999D01*
G01*
G37*
%TD*%
%TO.C,R64*%
G36*
G01*
X188099999Y-157700000D02*
X189000001Y-157700000D01*
G75*
G02*
X189250000Y-157949999I0J-249999D01*
G01*
X189250000Y-158600001D01*
G75*
G02*
X189000001Y-158850000I-249999J0D01*
G01*
X188099999Y-158850000D01*
G75*
G02*
X187850000Y-158600001I0J249999D01*
G01*
X187850000Y-157949999D01*
G75*
G02*
X188099999Y-157700000I249999J0D01*
G01*
G37*
G36*
G01*
X188099999Y-159750000D02*
X189000001Y-159750000D01*
G75*
G02*
X189250000Y-159999999I0J-249999D01*
G01*
X189250000Y-160650001D01*
G75*
G02*
X189000001Y-160900000I-249999J0D01*
G01*
X188099999Y-160900000D01*
G75*
G02*
X187850000Y-160650001I0J249999D01*
G01*
X187850000Y-159999999D01*
G75*
G02*
X188099999Y-159750000I249999J0D01*
G01*
G37*
%TD*%
%TO.C,R65*%
G36*
G01*
X189975000Y-129200001D02*
X189975000Y-128299999D01*
G75*
G02*
X190224999Y-128050000I249999J0D01*
G01*
X190875001Y-128050000D01*
G75*
G02*
X191125000Y-128299999I0J-249999D01*
G01*
X191125000Y-129200001D01*
G75*
G02*
X190875001Y-129450000I-249999J0D01*
G01*
X190224999Y-129450000D01*
G75*
G02*
X189975000Y-129200001I0J249999D01*
G01*
G37*
G36*
G01*
X187925000Y-129200001D02*
X187925000Y-128299999D01*
G75*
G02*
X188174999Y-128050000I249999J0D01*
G01*
X188825001Y-128050000D01*
G75*
G02*
X189075000Y-128299999I0J-249999D01*
G01*
X189075000Y-129200001D01*
G75*
G02*
X188825001Y-129450000I-249999J0D01*
G01*
X188174999Y-129450000D01*
G75*
G02*
X187925000Y-129200001I0J249999D01*
G01*
G37*
%TD*%
%TO.C,R66*%
G36*
G01*
X183550001Y-130950000D02*
X182649999Y-130950000D01*
G75*
G02*
X182400000Y-130700001I0J249999D01*
G01*
X182400000Y-130049999D01*
G75*
G02*
X182649999Y-129800000I249999J0D01*
G01*
X183550001Y-129800000D01*
G75*
G02*
X183800000Y-130049999I0J-249999D01*
G01*
X183800000Y-130700001D01*
G75*
G02*
X183550001Y-130950000I-249999J0D01*
G01*
G37*
G36*
G01*
X183550001Y-128900000D02*
X182649999Y-128900000D01*
G75*
G02*
X182400000Y-128650001I0J249999D01*
G01*
X182400000Y-127999999D01*
G75*
G02*
X182649999Y-127750000I249999J0D01*
G01*
X183550001Y-127750000D01*
G75*
G02*
X183800000Y-127999999I0J-249999D01*
G01*
X183800000Y-128650001D01*
G75*
G02*
X183550001Y-128900000I-249999J0D01*
G01*
G37*
%TD*%
%TO.C,R67*%
G36*
G01*
X209650001Y-129275000D02*
X208749999Y-129275000D01*
G75*
G02*
X208500000Y-129025001I0J249999D01*
G01*
X208500000Y-128374999D01*
G75*
G02*
X208749999Y-128125000I249999J0D01*
G01*
X209650001Y-128125000D01*
G75*
G02*
X209900000Y-128374999I0J-249999D01*
G01*
X209900000Y-129025001D01*
G75*
G02*
X209650001Y-129275000I-249999J0D01*
G01*
G37*
G36*
G01*
X209650001Y-131325000D02*
X208749999Y-131325000D01*
G75*
G02*
X208500000Y-131075001I0J249999D01*
G01*
X208500000Y-130424999D01*
G75*
G02*
X208749999Y-130175000I249999J0D01*
G01*
X209650001Y-130175000D01*
G75*
G02*
X209900000Y-130424999I0J-249999D01*
G01*
X209900000Y-131075001D01*
G75*
G02*
X209650001Y-131325000I-249999J0D01*
G01*
G37*
%TD*%
%TO.C,R68*%
G36*
G01*
X198375000Y-127150001D02*
X198375000Y-126249999D01*
G75*
G02*
X198624999Y-126000000I249999J0D01*
G01*
X199275001Y-126000000D01*
G75*
G02*
X199525000Y-126249999I0J-249999D01*
G01*
X199525000Y-127150001D01*
G75*
G02*
X199275001Y-127400000I-249999J0D01*
G01*
X198624999Y-127400000D01*
G75*
G02*
X198375000Y-127150001I0J249999D01*
G01*
G37*
G36*
G01*
X200425000Y-127150001D02*
X200425000Y-126249999D01*
G75*
G02*
X200674999Y-126000000I249999J0D01*
G01*
X201325001Y-126000000D01*
G75*
G02*
X201575000Y-126249999I0J-249999D01*
G01*
X201575000Y-127150001D01*
G75*
G02*
X201325001Y-127400000I-249999J0D01*
G01*
X200674999Y-127400000D01*
G75*
G02*
X200425000Y-127150001I0J249999D01*
G01*
G37*
%TD*%
%TO.C,R69*%
G36*
G01*
X199875000Y-156849999D02*
X199875000Y-157750001D01*
G75*
G02*
X199625001Y-158000000I-249999J0D01*
G01*
X198974999Y-158000000D01*
G75*
G02*
X198725000Y-157750001I0J249999D01*
G01*
X198725000Y-156849999D01*
G75*
G02*
X198974999Y-156600000I249999J0D01*
G01*
X199625001Y-156600000D01*
G75*
G02*
X199875000Y-156849999I0J-249999D01*
G01*
G37*
G36*
G01*
X197825000Y-156849999D02*
X197825000Y-157750001D01*
G75*
G02*
X197575001Y-158000000I-249999J0D01*
G01*
X196924999Y-158000000D01*
G75*
G02*
X196675000Y-157750001I0J249999D01*
G01*
X196675000Y-156849999D01*
G75*
G02*
X196924999Y-156600000I249999J0D01*
G01*
X197575001Y-156600000D01*
G75*
G02*
X197825000Y-156849999I0J-249999D01*
G01*
G37*
%TD*%
%TO.C,R70*%
G36*
G01*
X207400000Y-159850001D02*
X207400000Y-158949999D01*
G75*
G02*
X207649999Y-158700000I249999J0D01*
G01*
X208300001Y-158700000D01*
G75*
G02*
X208550000Y-158949999I0J-249999D01*
G01*
X208550000Y-159850001D01*
G75*
G02*
X208300001Y-160100000I-249999J0D01*
G01*
X207649999Y-160100000D01*
G75*
G02*
X207400000Y-159850001I0J249999D01*
G01*
G37*
G36*
G01*
X205350000Y-159850001D02*
X205350000Y-158949999D01*
G75*
G02*
X205599999Y-158700000I249999J0D01*
G01*
X206250001Y-158700000D01*
G75*
G02*
X206500000Y-158949999I0J-249999D01*
G01*
X206500000Y-159850001D01*
G75*
G02*
X206250001Y-160100000I-249999J0D01*
G01*
X205599999Y-160100000D01*
G75*
G02*
X205350000Y-159850001I0J249999D01*
G01*
G37*
%TD*%
%TO.C,R71*%
G36*
G01*
X213850001Y-124825000D02*
X212949999Y-124825000D01*
G75*
G02*
X212700000Y-124575001I0J249999D01*
G01*
X212700000Y-123924999D01*
G75*
G02*
X212949999Y-123675000I249999J0D01*
G01*
X213850001Y-123675000D01*
G75*
G02*
X214100000Y-123924999I0J-249999D01*
G01*
X214100000Y-124575001D01*
G75*
G02*
X213850001Y-124825000I-249999J0D01*
G01*
G37*
G36*
G01*
X213850001Y-126875000D02*
X212949999Y-126875000D01*
G75*
G02*
X212700000Y-126625001I0J249999D01*
G01*
X212700000Y-125974999D01*
G75*
G02*
X212949999Y-125725000I249999J0D01*
G01*
X213850001Y-125725000D01*
G75*
G02*
X214100000Y-125974999I0J-249999D01*
G01*
X214100000Y-126625001D01*
G75*
G02*
X213850001Y-126875000I-249999J0D01*
G01*
G37*
%TD*%
%TO.C,R72*%
G36*
G01*
X208075000Y-122650001D02*
X208075000Y-121749999D01*
G75*
G02*
X208324999Y-121500000I249999J0D01*
G01*
X208975001Y-121500000D01*
G75*
G02*
X209225000Y-121749999I0J-249999D01*
G01*
X209225000Y-122650001D01*
G75*
G02*
X208975001Y-122900000I-249999J0D01*
G01*
X208324999Y-122900000D01*
G75*
G02*
X208075000Y-122650001I0J249999D01*
G01*
G37*
G36*
G01*
X210125000Y-122650001D02*
X210125000Y-121749999D01*
G75*
G02*
X210374999Y-121500000I249999J0D01*
G01*
X211025001Y-121500000D01*
G75*
G02*
X211275000Y-121749999I0J-249999D01*
G01*
X211275000Y-122650001D01*
G75*
G02*
X211025001Y-122900000I-249999J0D01*
G01*
X210374999Y-122900000D01*
G75*
G02*
X210125000Y-122650001I0J249999D01*
G01*
G37*
%TD*%
%TO.C,R73*%
G36*
G01*
X204625000Y-125749999D02*
X204625000Y-126650001D01*
G75*
G02*
X204375001Y-126900000I-249999J0D01*
G01*
X203724999Y-126900000D01*
G75*
G02*
X203475000Y-126650001I0J249999D01*
G01*
X203475000Y-125749999D01*
G75*
G02*
X203724999Y-125500000I249999J0D01*
G01*
X204375001Y-125500000D01*
G75*
G02*
X204625000Y-125749999I0J-249999D01*
G01*
G37*
G36*
G01*
X206675000Y-125749999D02*
X206675000Y-126650001D01*
G75*
G02*
X206425001Y-126900000I-249999J0D01*
G01*
X205774999Y-126900000D01*
G75*
G02*
X205525000Y-126650001I0J249999D01*
G01*
X205525000Y-125749999D01*
G75*
G02*
X205774999Y-125500000I249999J0D01*
G01*
X206425001Y-125500000D01*
G75*
G02*
X206675000Y-125749999I0J-249999D01*
G01*
G37*
%TD*%
%TO.C,R74*%
G36*
G01*
X203950001Y-131325000D02*
X203049999Y-131325000D01*
G75*
G02*
X202800000Y-131075001I0J249999D01*
G01*
X202800000Y-130424999D01*
G75*
G02*
X203049999Y-130175000I249999J0D01*
G01*
X203950001Y-130175000D01*
G75*
G02*
X204200000Y-130424999I0J-249999D01*
G01*
X204200000Y-131075001D01*
G75*
G02*
X203950001Y-131325000I-249999J0D01*
G01*
G37*
G36*
G01*
X203950001Y-129275000D02*
X203049999Y-129275000D01*
G75*
G02*
X202800000Y-129025001I0J249999D01*
G01*
X202800000Y-128374999D01*
G75*
G02*
X203049999Y-128125000I249999J0D01*
G01*
X203950001Y-128125000D01*
G75*
G02*
X204200000Y-128374999I0J-249999D01*
G01*
X204200000Y-129025001D01*
G75*
G02*
X203950001Y-129275000I-249999J0D01*
G01*
G37*
%TD*%
%TO.C,R75*%
G36*
G01*
X198825000Y-133500001D02*
X198825000Y-132599999D01*
G75*
G02*
X199074999Y-132350000I249999J0D01*
G01*
X199725001Y-132350000D01*
G75*
G02*
X199975000Y-132599999I0J-249999D01*
G01*
X199975000Y-133500001D01*
G75*
G02*
X199725001Y-133750000I-249999J0D01*
G01*
X199074999Y-133750000D01*
G75*
G02*
X198825000Y-133500001I0J249999D01*
G01*
G37*
G36*
G01*
X196775000Y-133500001D02*
X196775000Y-132599999D01*
G75*
G02*
X197024999Y-132350000I249999J0D01*
G01*
X197675001Y-132350000D01*
G75*
G02*
X197925000Y-132599999I0J-249999D01*
G01*
X197925000Y-133500001D01*
G75*
G02*
X197675001Y-133750000I-249999J0D01*
G01*
X197024999Y-133750000D01*
G75*
G02*
X196775000Y-133500001I0J249999D01*
G01*
G37*
%TD*%
%TO.C,R76*%
G36*
G01*
X202050000Y-159349999D02*
X202050000Y-160250001D01*
G75*
G02*
X201800001Y-160500000I-249999J0D01*
G01*
X201149999Y-160500000D01*
G75*
G02*
X200900000Y-160250001I0J249999D01*
G01*
X200900000Y-159349999D01*
G75*
G02*
X201149999Y-159100000I249999J0D01*
G01*
X201800001Y-159100000D01*
G75*
G02*
X202050000Y-159349999I0J-249999D01*
G01*
G37*
G36*
G01*
X200000000Y-159349999D02*
X200000000Y-160250001D01*
G75*
G02*
X199750001Y-160500000I-249999J0D01*
G01*
X199099999Y-160500000D01*
G75*
G02*
X198850000Y-160250001I0J249999D01*
G01*
X198850000Y-159349999D01*
G75*
G02*
X199099999Y-159100000I249999J0D01*
G01*
X199750001Y-159100000D01*
G75*
G02*
X200000000Y-159349999I0J-249999D01*
G01*
G37*
%TD*%
%TO.C,R77*%
G36*
G01*
X213500000Y-152600001D02*
X213500000Y-151699999D01*
G75*
G02*
X213749999Y-151450000I249999J0D01*
G01*
X214400001Y-151450000D01*
G75*
G02*
X214650000Y-151699999I0J-249999D01*
G01*
X214650000Y-152600001D01*
G75*
G02*
X214400001Y-152850000I-249999J0D01*
G01*
X213749999Y-152850000D01*
G75*
G02*
X213500000Y-152600001I0J249999D01*
G01*
G37*
G36*
G01*
X215550000Y-152600001D02*
X215550000Y-151699999D01*
G75*
G02*
X215799999Y-151450000I249999J0D01*
G01*
X216450001Y-151450000D01*
G75*
G02*
X216700000Y-151699999I0J-249999D01*
G01*
X216700000Y-152600001D01*
G75*
G02*
X216450001Y-152850000I-249999J0D01*
G01*
X215799999Y-152850000D01*
G75*
G02*
X215550000Y-152600001I0J249999D01*
G01*
G37*
%TD*%
%TO.C,R78*%
G36*
G01*
X210925000Y-129200001D02*
X210925000Y-128299999D01*
G75*
G02*
X211174999Y-128050000I249999J0D01*
G01*
X211825001Y-128050000D01*
G75*
G02*
X212075000Y-128299999I0J-249999D01*
G01*
X212075000Y-129200001D01*
G75*
G02*
X211825001Y-129450000I-249999J0D01*
G01*
X211174999Y-129450000D01*
G75*
G02*
X210925000Y-129200001I0J249999D01*
G01*
G37*
G36*
G01*
X212975000Y-129200001D02*
X212975000Y-128299999D01*
G75*
G02*
X213224999Y-128050000I249999J0D01*
G01*
X213875001Y-128050000D01*
G75*
G02*
X214125000Y-128299999I0J-249999D01*
G01*
X214125000Y-129200001D01*
G75*
G02*
X213875001Y-129450000I-249999J0D01*
G01*
X213224999Y-129450000D01*
G75*
G02*
X212975000Y-129200001I0J249999D01*
G01*
G37*
%TD*%
%TO.C,R79*%
G36*
G01*
X206550001Y-128875000D02*
X205649999Y-128875000D01*
G75*
G02*
X205400000Y-128625001I0J249999D01*
G01*
X205400000Y-127974999D01*
G75*
G02*
X205649999Y-127725000I249999J0D01*
G01*
X206550001Y-127725000D01*
G75*
G02*
X206800000Y-127974999I0J-249999D01*
G01*
X206800000Y-128625001D01*
G75*
G02*
X206550001Y-128875000I-249999J0D01*
G01*
G37*
G36*
G01*
X206550001Y-130925000D02*
X205649999Y-130925000D01*
G75*
G02*
X205400000Y-130675001I0J249999D01*
G01*
X205400000Y-130024999D01*
G75*
G02*
X205649999Y-129775000I249999J0D01*
G01*
X206550001Y-129775000D01*
G75*
G02*
X206800000Y-130024999I0J-249999D01*
G01*
X206800000Y-130675001D01*
G75*
G02*
X206550001Y-130925000I-249999J0D01*
G01*
G37*
%TD*%
%TO.C,R80*%
G36*
G01*
X163650001Y-131325000D02*
X162749999Y-131325000D01*
G75*
G02*
X162500000Y-131075001I0J249999D01*
G01*
X162500000Y-130424999D01*
G75*
G02*
X162749999Y-130175000I249999J0D01*
G01*
X163650001Y-130175000D01*
G75*
G02*
X163900000Y-130424999I0J-249999D01*
G01*
X163900000Y-131075001D01*
G75*
G02*
X163650001Y-131325000I-249999J0D01*
G01*
G37*
G36*
G01*
X163650001Y-129275000D02*
X162749999Y-129275000D01*
G75*
G02*
X162500000Y-129025001I0J249999D01*
G01*
X162500000Y-128374999D01*
G75*
G02*
X162749999Y-128125000I249999J0D01*
G01*
X163650001Y-128125000D01*
G75*
G02*
X163900000Y-128374999I0J-249999D01*
G01*
X163900000Y-129025001D01*
G75*
G02*
X163650001Y-129275000I-249999J0D01*
G01*
G37*
%TD*%
%TO.C,R81*%
G36*
G01*
X154425000Y-127100001D02*
X154425000Y-126199999D01*
G75*
G02*
X154674999Y-125950000I249999J0D01*
G01*
X155325001Y-125950000D01*
G75*
G02*
X155575000Y-126199999I0J-249999D01*
G01*
X155575000Y-127100001D01*
G75*
G02*
X155325001Y-127350000I-249999J0D01*
G01*
X154674999Y-127350000D01*
G75*
G02*
X154425000Y-127100001I0J249999D01*
G01*
G37*
G36*
G01*
X152375000Y-127100001D02*
X152375000Y-126199999D01*
G75*
G02*
X152624999Y-125950000I249999J0D01*
G01*
X153275001Y-125950000D01*
G75*
G02*
X153525000Y-126199999I0J-249999D01*
G01*
X153525000Y-127100001D01*
G75*
G02*
X153275001Y-127350000I-249999J0D01*
G01*
X152624999Y-127350000D01*
G75*
G02*
X152375000Y-127100001I0J249999D01*
G01*
G37*
%TD*%
%TO.C,R82*%
G36*
G01*
X151800000Y-156799999D02*
X151800000Y-157700001D01*
G75*
G02*
X151550001Y-157950000I-249999J0D01*
G01*
X150899999Y-157950000D01*
G75*
G02*
X150650000Y-157700001I0J249999D01*
G01*
X150650000Y-156799999D01*
G75*
G02*
X150899999Y-156550000I249999J0D01*
G01*
X151550001Y-156550000D01*
G75*
G02*
X151800000Y-156799999I0J-249999D01*
G01*
G37*
G36*
G01*
X153850000Y-156799999D02*
X153850000Y-157700001D01*
G75*
G02*
X153600001Y-157950000I-249999J0D01*
G01*
X152949999Y-157950000D01*
G75*
G02*
X152700000Y-157700001I0J249999D01*
G01*
X152700000Y-156799999D01*
G75*
G02*
X152949999Y-156550000I249999J0D01*
G01*
X153600001Y-156550000D01*
G75*
G02*
X153850000Y-156799999I0J-249999D01*
G01*
G37*
%TD*%
%TO.C,R83*%
G36*
G01*
X161400000Y-159800001D02*
X161400000Y-158899999D01*
G75*
G02*
X161649999Y-158650000I249999J0D01*
G01*
X162300001Y-158650000D01*
G75*
G02*
X162550000Y-158899999I0J-249999D01*
G01*
X162550000Y-159800001D01*
G75*
G02*
X162300001Y-160050000I-249999J0D01*
G01*
X161649999Y-160050000D01*
G75*
G02*
X161400000Y-159800001I0J249999D01*
G01*
G37*
G36*
G01*
X159350000Y-159800001D02*
X159350000Y-158899999D01*
G75*
G02*
X159599999Y-158650000I249999J0D01*
G01*
X160250001Y-158650000D01*
G75*
G02*
X160500000Y-158899999I0J-249999D01*
G01*
X160500000Y-159800001D01*
G75*
G02*
X160250001Y-160050000I-249999J0D01*
G01*
X159599999Y-160050000D01*
G75*
G02*
X159350000Y-159800001I0J249999D01*
G01*
G37*
%TD*%
%TO.C,R84*%
G36*
G01*
X167850001Y-126875000D02*
X166949999Y-126875000D01*
G75*
G02*
X166700000Y-126625001I0J249999D01*
G01*
X166700000Y-125974999D01*
G75*
G02*
X166949999Y-125725000I249999J0D01*
G01*
X167850001Y-125725000D01*
G75*
G02*
X168100000Y-125974999I0J-249999D01*
G01*
X168100000Y-126625001D01*
G75*
G02*
X167850001Y-126875000I-249999J0D01*
G01*
G37*
G36*
G01*
X167850001Y-124825000D02*
X166949999Y-124825000D01*
G75*
G02*
X166700000Y-124575001I0J249999D01*
G01*
X166700000Y-123924999D01*
G75*
G02*
X166949999Y-123675000I249999J0D01*
G01*
X167850001Y-123675000D01*
G75*
G02*
X168100000Y-123924999I0J-249999D01*
G01*
X168100000Y-124575001D01*
G75*
G02*
X167850001Y-124825000I-249999J0D01*
G01*
G37*
%TD*%
%TO.C,R85*%
G36*
G01*
X162075000Y-122650001D02*
X162075000Y-121749999D01*
G75*
G02*
X162324999Y-121500000I249999J0D01*
G01*
X162975001Y-121500000D01*
G75*
G02*
X163225000Y-121749999I0J-249999D01*
G01*
X163225000Y-122650001D01*
G75*
G02*
X162975001Y-122900000I-249999J0D01*
G01*
X162324999Y-122900000D01*
G75*
G02*
X162075000Y-122650001I0J249999D01*
G01*
G37*
G36*
G01*
X164125000Y-122650001D02*
X164125000Y-121749999D01*
G75*
G02*
X164374999Y-121500000I249999J0D01*
G01*
X165025001Y-121500000D01*
G75*
G02*
X165275000Y-121749999I0J-249999D01*
G01*
X165275000Y-122650001D01*
G75*
G02*
X165025001Y-122900000I-249999J0D01*
G01*
X164374999Y-122900000D01*
G75*
G02*
X164125000Y-122650001I0J249999D01*
G01*
G37*
%TD*%
%TO.C,R86*%
G36*
G01*
X160675000Y-125749999D02*
X160675000Y-126650001D01*
G75*
G02*
X160425001Y-126900000I-249999J0D01*
G01*
X159774999Y-126900000D01*
G75*
G02*
X159525000Y-126650001I0J249999D01*
G01*
X159525000Y-125749999D01*
G75*
G02*
X159774999Y-125500000I249999J0D01*
G01*
X160425001Y-125500000D01*
G75*
G02*
X160675000Y-125749999I0J-249999D01*
G01*
G37*
G36*
G01*
X158625000Y-125749999D02*
X158625000Y-126650001D01*
G75*
G02*
X158375001Y-126900000I-249999J0D01*
G01*
X157724999Y-126900000D01*
G75*
G02*
X157475000Y-126650001I0J249999D01*
G01*
X157475000Y-125749999D01*
G75*
G02*
X157724999Y-125500000I249999J0D01*
G01*
X158375001Y-125500000D01*
G75*
G02*
X158625000Y-125749999I0J-249999D01*
G01*
G37*
%TD*%
%TO.C,R87*%
G36*
G01*
X157950001Y-131325000D02*
X157049999Y-131325000D01*
G75*
G02*
X156800000Y-131075001I0J249999D01*
G01*
X156800000Y-130424999D01*
G75*
G02*
X157049999Y-130175000I249999J0D01*
G01*
X157950001Y-130175000D01*
G75*
G02*
X158200000Y-130424999I0J-249999D01*
G01*
X158200000Y-131075001D01*
G75*
G02*
X157950001Y-131325000I-249999J0D01*
G01*
G37*
G36*
G01*
X157950001Y-129275000D02*
X157049999Y-129275000D01*
G75*
G02*
X156800000Y-129025001I0J249999D01*
G01*
X156800000Y-128374999D01*
G75*
G02*
X157049999Y-128125000I249999J0D01*
G01*
X157950001Y-128125000D01*
G75*
G02*
X158200000Y-128374999I0J-249999D01*
G01*
X158200000Y-129025001D01*
G75*
G02*
X157950001Y-129275000I-249999J0D01*
G01*
G37*
%TD*%
%TO.C,R88*%
G36*
G01*
X152800000Y-133500001D02*
X152800000Y-132599999D01*
G75*
G02*
X153049999Y-132350000I249999J0D01*
G01*
X153700001Y-132350000D01*
G75*
G02*
X153950000Y-132599999I0J-249999D01*
G01*
X153950000Y-133500001D01*
G75*
G02*
X153700001Y-133750000I-249999J0D01*
G01*
X153049999Y-133750000D01*
G75*
G02*
X152800000Y-133500001I0J249999D01*
G01*
G37*
G36*
G01*
X150750000Y-133500001D02*
X150750000Y-132599999D01*
G75*
G02*
X150999999Y-132350000I249999J0D01*
G01*
X151650001Y-132350000D01*
G75*
G02*
X151900000Y-132599999I0J-249999D01*
G01*
X151900000Y-133500001D01*
G75*
G02*
X151650001Y-133750000I-249999J0D01*
G01*
X150999999Y-133750000D01*
G75*
G02*
X150750000Y-133500001I0J249999D01*
G01*
G37*
%TD*%
%TO.C,R89*%
G36*
G01*
X156050000Y-159299999D02*
X156050000Y-160200001D01*
G75*
G02*
X155800001Y-160450000I-249999J0D01*
G01*
X155149999Y-160450000D01*
G75*
G02*
X154900000Y-160200001I0J249999D01*
G01*
X154900000Y-159299999D01*
G75*
G02*
X155149999Y-159050000I249999J0D01*
G01*
X155800001Y-159050000D01*
G75*
G02*
X156050000Y-159299999I0J-249999D01*
G01*
G37*
G36*
G01*
X154000000Y-159299999D02*
X154000000Y-160200001D01*
G75*
G02*
X153750001Y-160450000I-249999J0D01*
G01*
X153099999Y-160450000D01*
G75*
G02*
X152850000Y-160200001I0J249999D01*
G01*
X152850000Y-159299999D01*
G75*
G02*
X153099999Y-159050000I249999J0D01*
G01*
X153750001Y-159050000D01*
G75*
G02*
X154000000Y-159299999I0J-249999D01*
G01*
G37*
%TD*%
%TO.C,R90*%
G36*
G01*
X169550000Y-152550001D02*
X169550000Y-151649999D01*
G75*
G02*
X169799999Y-151400000I249999J0D01*
G01*
X170450001Y-151400000D01*
G75*
G02*
X170700000Y-151649999I0J-249999D01*
G01*
X170700000Y-152550001D01*
G75*
G02*
X170450001Y-152800000I-249999J0D01*
G01*
X169799999Y-152800000D01*
G75*
G02*
X169550000Y-152550001I0J249999D01*
G01*
G37*
G36*
G01*
X167500000Y-152550001D02*
X167500000Y-151649999D01*
G75*
G02*
X167749999Y-151400000I249999J0D01*
G01*
X168400001Y-151400000D01*
G75*
G02*
X168650000Y-151649999I0J-249999D01*
G01*
X168650000Y-152550001D01*
G75*
G02*
X168400001Y-152800000I-249999J0D01*
G01*
X167749999Y-152800000D01*
G75*
G02*
X167500000Y-152550001I0J249999D01*
G01*
G37*
%TD*%
%TO.C,R91*%
G36*
G01*
X166950000Y-129200001D02*
X166950000Y-128299999D01*
G75*
G02*
X167199999Y-128050000I249999J0D01*
G01*
X167850001Y-128050000D01*
G75*
G02*
X168100000Y-128299999I0J-249999D01*
G01*
X168100000Y-129200001D01*
G75*
G02*
X167850001Y-129450000I-249999J0D01*
G01*
X167199999Y-129450000D01*
G75*
G02*
X166950000Y-129200001I0J249999D01*
G01*
G37*
G36*
G01*
X164900000Y-129200001D02*
X164900000Y-128299999D01*
G75*
G02*
X165149999Y-128050000I249999J0D01*
G01*
X165800001Y-128050000D01*
G75*
G02*
X166050000Y-128299999I0J-249999D01*
G01*
X166050000Y-129200001D01*
G75*
G02*
X165800001Y-129450000I-249999J0D01*
G01*
X165149999Y-129450000D01*
G75*
G02*
X164900000Y-129200001I0J249999D01*
G01*
G37*
%TD*%
%TO.C,R92*%
G36*
G01*
X160550001Y-128875000D02*
X159649999Y-128875000D01*
G75*
G02*
X159400000Y-128625001I0J249999D01*
G01*
X159400000Y-127974999D01*
G75*
G02*
X159649999Y-127725000I249999J0D01*
G01*
X160550001Y-127725000D01*
G75*
G02*
X160800000Y-127974999I0J-249999D01*
G01*
X160800000Y-128625001D01*
G75*
G02*
X160550001Y-128875000I-249999J0D01*
G01*
G37*
G36*
G01*
X160550001Y-130925000D02*
X159649999Y-130925000D01*
G75*
G02*
X159400000Y-130675001I0J249999D01*
G01*
X159400000Y-130024999D01*
G75*
G02*
X159649999Y-129775000I249999J0D01*
G01*
X160550001Y-129775000D01*
G75*
G02*
X160800000Y-130024999I0J-249999D01*
G01*
X160800000Y-130675001D01*
G75*
G02*
X160550001Y-130925000I-249999J0D01*
G01*
G37*
%TD*%
D12*
%TO.C,BT1*%
X131000000Y-104050000D03*
X131000000Y-74750000D03*
%TD*%
M02*
